<svg width="19" height="19" viewBox="0 0 19 19" fill="none" xmlns="http://www.w3.org/2000/svg">
<path fill-rule="evenodd" clip-rule="evenodd" d="M7.6943 2.9002C7.51166 3.05585 7.42033 3.13369 7.3228 3.19906C7.09922 3.34891 6.84813 3.45291 6.58408 3.50504C6.46888 3.52779 6.34927 3.53733 6.11006 3.55642C5.50903 3.60439 5.2085 3.62836 4.95778 3.71692C4.37788 3.92175 3.92175 4.37788 3.71692 4.95778C3.62836 5.2085 3.60439 5.50903 3.55642 6.11006C3.53733 6.34927 3.52779 6.46888 3.50504 6.58408C3.45291 6.84813 3.34891 7.09922 3.19906 7.3228C3.13369 7.42033 3.05586 7.51165 2.9002 7.6943C2.50912 8.15323 2.31358 8.38265 2.19892 8.62258C1.93369 9.1775 1.93369 9.8225 2.19892 10.3774C2.31358 10.6174 2.50912 10.8468 2.9002 11.3057C3.05584 11.4883 3.13369 11.5797 3.19906 11.6772C3.34891 11.9008 3.45291 12.1519 3.50504 12.4159C3.52779 12.5311 3.53733 12.6508 3.55642 12.8899C3.60439 13.491 3.62836 13.7915 3.71692 14.0422C3.92175 14.6221 4.37788 15.0783 4.95778 15.2831C5.2085 15.3716 5.50903 15.3956 6.11006 15.4436C6.34927 15.4627 6.46888 15.4722 6.58408 15.495C6.84813 15.5471 7.09922 15.6511 7.3228 15.801C7.42033 15.8663 7.51165 15.9441 7.6943 16.0998C8.15323 16.4909 8.38265 16.6864 8.62258 16.8011C9.1775 17.0663 9.8225 17.0663 10.3774 16.8011C10.6174 16.6864 10.8468 16.4909 11.3057 16.0998C11.4883 15.9441 11.5797 15.8663 11.6772 15.801C11.9008 15.6511 12.1519 15.5471 12.4159 15.495C12.5311 15.4722 12.6508 15.4627 12.8899 15.4436C13.491 15.3956 13.7915 15.3716 14.0422 15.2831C14.6221 15.0783 15.0783 14.6221 15.2831 14.0422C15.3716 13.7915 15.3956 13.491 15.4436 12.8899C15.4627 12.6508 15.4722 12.5311 15.495 12.4159C15.5471 12.1519 15.6511 11.9008 15.801 11.6772C15.8663 11.5797 15.9441 11.4883 16.0998 11.3057C16.4909 10.8468 16.6864 10.6174 16.8011 10.3774C17.0663 9.8225 17.0663 9.1775 16.8011 8.62258C16.6864 8.38265 16.4909 8.15323 16.0998 7.6943C15.9441 7.51165 15.8663 7.42033 15.801 7.3228C15.6511 7.09922 15.5471 6.84813 15.495 6.58408C15.4722 6.46888 15.4627 6.34927 15.4436 6.11006C15.3956 5.50903 15.3716 5.2085 15.2831 4.95778C15.0783 4.37788 14.6221 3.92175 14.0422 3.71692C13.7915 3.62836 13.491 3.60439 12.8899 3.55642C12.6508 3.53733 12.5311 3.52779 12.4159 3.50504C12.1519 3.45291 11.9008 3.34891 11.6772 3.19906C11.5797 3.13369 11.4883 3.05586 11.3057 2.9002C10.8468 2.50912 10.6174 2.31358 10.3774 2.19892C9.8225 1.93369 9.1775 1.93369 8.62258 2.19892C8.38265 2.31358 8.15323 2.50912 7.6943 2.9002ZM12.7801 7.89736C13.0185 7.65898 13.0185 7.2725 12.7801 7.03412C12.5418 6.79575 12.1552 6.79575 11.9169 7.03412L8.27923 10.6718L7.0831 9.4757C6.84472 9.23735 6.45824 9.23735 6.21987 9.4757C5.9815 9.71405 5.9815 10.1005 6.21987 10.339L7.84759 11.9667C8.08595 12.205 8.47243 12.205 8.71085 11.9667L12.7801 7.89736Z" fill="#00962A"/>
</svg>
