<svg width="26" height="25" viewBox="0 0 26 25" fill="none" xmlns="http://www.w3.org/2000/svg">
<path fill-rule="evenodd" clip-rule="evenodd" d="M13 1.75C7.06294 1.75 2.25 6.56294 2.25 12.5C2.25 18.4371 7.06294 23.25 13 23.25C18.9371 23.25 23.75 18.4371 23.75 12.5C23.75 6.56294 18.9371 1.75 13 1.75ZM13.7501 9.5C13.7501 9.08579 13.4143 8.75 13.0001 8.75C12.5858 8.75 12.2501 9.08579 12.2501 9.5V11.75H10.0001C9.58585 11.75 9.25006 12.0858 9.25006 12.5C9.25006 12.9142 9.58585 13.25 10.0001 13.25H12.2501V15.5C12.2501 15.9142 12.5858 16.25 13.0001 16.25C13.4143 16.25 13.7501 15.9142 13.7501 15.5V13.25H16.0001C16.4143 13.25 16.7501 12.9142 16.7501 12.5C16.7501 12.0858 16.4143 11.75 16.0001 11.75H13.7501V9.5Z" fill="white"/>
</svg>
