<svg width="25" height="25" viewBox="0 0 25 25" fill="none" xmlns="http://www.w3.org/2000/svg">
<path fill-rule="evenodd" clip-rule="evenodd" d="M12.5 22.5C7.78595 22.5 5.42893 22.5 3.96447 21.0355C2.5 19.5711 2.5 17.214 2.5 12.5C2.5 7.78595 2.5 5.42893 3.96447 3.96447C5.42893 2.5 7.78595 2.5 12.5 2.5C17.214 2.5 19.5711 2.5 21.0355 3.96447C22.5 5.42893 22.5 7.78595 22.5 12.5C22.5 17.214 22.5 19.5711 21.0355 21.0355C19.5711 22.5 17.214 22.5 12.5 22.5ZM12.5 8.75C12.9142 8.75 13.25 9.08579 13.25 9.5V11.75H15.5C15.9142 11.75 16.25 12.0858 16.25 12.5C16.25 12.9142 15.9142 13.25 15.5 13.25H13.25V15.5C13.25 15.9142 12.9142 16.25 12.5 16.25C12.0858 16.25 11.75 15.9142 11.75 15.5V13.25H9.5C9.08579 13.25 8.75 12.9142 8.75 12.5C8.75 12.0858 9.08579 11.75 9.5 11.75H11.75V9.5C11.75 9.08579 12.0858 8.75 12.5 8.75Z" fill="#1C274C"/>
</svg>
