<svg width="36" height="25" viewBox="0 0 36 25" fill="none" xmlns="http://www.w3.org/2000/svg">
<path fill-rule="evenodd" clip-rule="evenodd" d="M18.25 1.75C12.313 1.75 7.5 6.56294 7.5 12.5C7.5 18.4371 12.313 23.25 18.25 23.25C24.1871 23.25 29 18.4371 29 12.5C29 6.56294 24.1871 1.75 18.25 1.75ZM19.0001 9.5C19.0001 9.08579 18.6643 8.75 18.2501 8.75C17.8359 8.75 17.5001 9.08579 17.5001 9.5V11.75H15.2501C14.8359 11.75 14.5001 12.0858 14.5001 12.5C14.5001 12.9142 14.8359 13.25 15.2501 13.25H17.5001V15.5C17.5001 15.9142 17.8359 16.25 18.2501 16.25C18.6643 16.25 19.0001 15.9142 19.0001 15.5V13.25H21.2501C21.6643 13.25 22.0001 12.9142 22.0001 12.5C22.0001 12.0858 21.6643 11.75 21.2501 11.75H19.0001V9.5Z" fill="#00B2CC"/>
</svg>
