<svg width="16" height="16" viewBox="0 0 16 16" fill="none" xmlns="http://www.w3.org/2000/svg">
<g clip-path="url(#clip0_260_16)">
<path d="M8.00098 4.25C7.50652 4.25 7.02318 4.39662 6.61205 4.67133C6.20093 4.94603 5.8805 5.33648 5.69128 5.79329C5.50206 6.25011 5.45255 6.75277 5.54901 7.23773C5.64548 7.72268 5.88358 8.16814 6.23321 8.51777C6.58284 8.8674 7.0283 9.1055 7.51325 9.20196C7.9982 9.29843 8.50087 9.24892 8.95769 9.0597C9.4145 8.87048 9.80495 8.55005 10.0797 8.13893C10.3544 7.7278 10.501 7.24445 10.501 6.75C10.501 6.08696 10.2376 5.45107 9.76874 4.98223C9.2999 4.51339 8.66402 4.25 8.00098 4.25ZM8.00098 8C7.75375 8 7.51208 7.92669 7.30652 7.78934C7.10095 7.65199 6.94074 7.45676 6.84613 7.22835C6.75152 6.99995 6.72676 6.74861 6.775 6.50614C6.82323 6.26366 6.94228 6.04093 7.11709 5.86612C7.29191 5.6913 7.51464 5.57225 7.75711 5.52402C7.99959 5.47579 8.25092 5.50054 8.47933 5.59515C8.70774 5.68976 8.90296 5.84998 9.04032 6.05554C9.17767 6.2611 9.25098 6.50277 9.25098 6.75C9.25098 7.08152 9.11928 7.39946 8.88486 7.63388C8.65044 7.8683 8.3325 8 8.00098 8Z" fill="#343F53"/>
<path d="M8.0008 15.5C7.47457 15.5027 6.95536 15.3792 6.48665 15.14C6.01794 14.9008 5.61336 14.5527 5.3068 14.125C2.9248 10.84 1.7168 8.37 1.7168 6.784C1.7168 5.11738 2.37886 3.51902 3.55734 2.34054C4.73582 1.16206 6.33418 0.5 8.0008 0.5C9.66742 0.5 11.2658 1.16206 12.4443 2.34054C13.6227 3.51902 14.2848 5.11738 14.2848 6.784C14.2848 8.37 13.0768 10.84 10.6948 14.125C10.3882 14.5527 9.98366 14.9008 9.51494 15.14C9.04623 15.3792 8.52702 15.5027 8.0008 15.5ZM8.0008 1.864C6.69625 1.86532 5.44549 2.38407 4.52294 3.30644C3.60039 4.2288 3.08139 5.47945 3.0798 6.784C3.0798 8.04 4.2628 10.363 6.4098 13.325C6.59203 13.5762 6.83116 13.7806 7.10761 13.9216C7.38406 14.0626 7.68997 14.1361 8.0003 14.1361C8.31062 14.1361 8.61653 14.0626 8.89298 13.9216C9.16943 13.7806 9.40856 13.5762 9.5908 13.325C11.7378 10.363 12.9208 8.04 12.9208 6.784C12.9195 5.47945 12.4007 4.22869 11.4784 3.30614C10.556 2.38359 9.30535 1.86559 8.0008 1.864Z" fill="#343F53"/>
</g>
<defs>
<clipPath id="clip0_260_16">
<rect width="15" height="15" fill="white" transform="translate(0.5 0.5)"/>
</clipPath>
</defs>
</svg>
