<svg width="32" height="23" viewBox="0 0 32 23" fill="none" xmlns="http://www.w3.org/2000/svg">
<g clip-path="url(#clip0_260_20)">
<path d="M0.5 20.25H31.5V21.841H0.5V20.25Z" fill="#D62234"/>
<path d="M0.5 18.6562H31.5V20.2472H0.5V18.6562Z" fill="white"/>
<path d="M0.5 17.0703H31.5V18.6613H0.5V17.0703Z" fill="#D62234"/>
<path d="M0.5 15.4844H31.5V17.0754H0.5V15.4844Z" fill="white"/>
<path d="M0.5 13.8906H31.5V15.4816H0.5V13.8906Z" fill="#D62234"/>
<path d="M0.5 12.2969H31.5V13.8879H0.5V12.2969Z" fill="white"/>
<path d="M0.5 10.7109H31.5V12.3019H0.5V10.7109Z" fill="#D62234"/>
<path d="M0.5 9.11719H31.5V10.7082H0.5V9.11719Z" fill="white"/>
<path d="M0.5 7.53125H31.5V9.12225H0.5V7.53125Z" fill="#D62234"/>
<path d="M0.5 5.9375H31.5V7.5285H0.5V5.9375Z" fill="white"/>
<path d="M0.5 4.34375H31.5V5.93475H0.5V4.34375Z" fill="#D62234"/>
<path d="M0.5 2.75781H31.5V4.34881H0.5V2.75781Z" fill="white"/>
<path d="M0.5 1.16406H31.5V2.75506H0.5V1.16406Z" fill="#D62234"/>
<path d="M0.5 1.16406H16.404V12.3011H0.5V1.16406Z" fill="#002B82"/>
<path d="M8.71152 5.48669H9.25251L8.81152 5.80669L8.97952 6.32169L8.53852 6.00169L8.09752 6.32169L8.26552 5.80669L7.82452 5.48669H8.36552L8.53352 4.97169L8.71152 5.48669ZM12.6025 4.31569L12.4345 3.80069L12.2665 4.31569H11.7255L12.1665 4.63569L11.9985 5.15069L12.4395 4.83069L12.8805 5.15069L12.7125 4.63569L13.1535 4.31569H12.6025ZM11.2025 4.97169L11.0345 5.48669H10.4935L10.9345 5.80669L10.7665 6.32169L11.2075 6.00169L11.6485 6.32169L11.4805 5.80669L11.9215 5.48669H11.3805L11.2025 4.97169ZM5.88552 4.97269L5.71752 5.48769H5.17852L5.61952 5.80769L5.45152 6.32469L5.89252 6.00469L6.33352 6.32469L6.16552 5.80769L6.60652 5.48769H6.06552L5.88552 4.97269ZM9.77752 3.80169L9.60952 4.31669H9.06852L9.50951 4.63669L9.34152 5.15169L9.78252 4.83169L10.2235 5.15169L10.0555 4.63669L10.4965 4.31669H9.95551L9.77752 3.80169ZM7.12552 3.80169L6.95752 4.31669H6.41752L6.85852 4.63669L6.68552 5.15069L7.12652 4.83069L7.56752 5.15069L7.39952 4.63569L7.84052 4.31569H7.30452L7.12552 3.80169ZM9.94552 6.56869L9.77752 6.05369L9.60952 6.56869H9.06852L9.50951 6.88869L9.34152 7.40369L9.78252 7.08369L10.2235 7.40369L10.0555 6.88869L10.4965 6.56869H9.94552ZM4.46952 3.80169L4.30152 4.31669H3.76052L4.20152 4.63669L4.03352 5.15169L4.47452 4.83169L4.91552 5.15169L4.74752 4.63669L5.18852 4.31669H4.63752L4.46952 3.80169ZM7.29452 6.56869L7.12652 6.05369L6.95852 6.56869H6.41752L6.85852 6.88869L6.68552 7.40369L7.12652 7.08369L7.56752 7.40369L7.39952 6.88869L7.84052 6.56869H7.29452ZM12.6025 6.56869L12.4345 6.05369L12.2665 6.56869H11.7255L12.1665 6.88869L11.9985 7.40369L12.4395 7.08369L12.8805 7.40369L12.7125 6.88869L13.1535 6.56869H12.6025ZM3.23552 4.97269L3.06752 5.48769H2.52152L2.96252 5.80769L2.79452 6.32469L3.23552 6.00469L3.67652 6.32469L3.50852 5.80969L3.94952 5.48969H3.40352L3.23552 4.97269ZM4.63552 6.57269L4.46752 6.05769L4.29952 6.57269H3.76052L4.20152 6.89269L4.03352 7.40769L4.47452 7.08769L4.91552 7.40769L4.74752 6.89269L5.18852 6.57269H4.63552ZM7.29452 8.82469L7.12652 8.30969L6.95852 8.82469H6.41752L6.85852 9.14469L6.68552 9.65569L7.12652 9.33569L7.56752 9.65569L7.39952 9.14069L7.84552 8.82469H7.29452ZM14.0205 5.49069L13.8525 4.97569L13.6845 5.49069H13.1435L13.5845 5.81069L13.4165 6.32569L13.8575 6.00569L14.2985 6.32569L14.1305 5.81069L14.5715 5.49069H14.0205ZM14.0205 7.80669L13.8525 7.29169L13.6845 7.80669H13.1435L13.5845 8.12669L13.4165 8.64169L13.8575 8.32169L14.2985 8.64169L14.1305 8.12469L14.5715 7.80469L14.0205 7.80669ZM14.6505 2.90669L15.0915 2.58669L15.5325 2.90669L15.3645 2.39169L15.8055 2.07169H15.2645L15.0965 1.55469L14.9285 2.06969H14.3855L14.8265 2.38969L14.6505 2.90669ZM13.5855 3.49169L13.4175 4.00669L13.8585 3.68669L14.2995 4.00669L14.1315 3.49169L14.5725 3.17169H14.0315L13.8635 2.65669L13.6955 3.17169H13.1545L13.5855 3.49169ZM12.6025 8.82469L12.4345 8.30969L12.2665 8.82469H11.7255L12.1665 9.14469L11.9985 9.65969L12.4395 9.33969L12.8805 9.65969L12.7125 9.14469L13.1535 8.82469H12.6025ZM9.94552 8.82469L9.77752 8.30969L9.60952 8.82469H9.06852L9.50951 9.14469L9.34152 9.65969L9.78252 9.33969L10.2235 9.65969L10.0555 9.14469L10.4965 8.82469H9.94552ZM4.63752 8.82469L4.46952 8.30969L4.30152 8.82469H3.76052L4.20152 9.14469L4.03352 9.65969L4.47452 9.33969L4.91552 9.65969L4.74752 9.14469L5.18552 8.82469H4.63752ZM6.05552 7.80269L5.88552 7.28769L5.71752 7.80269H5.17852L5.61952 8.12269L5.45152 8.63769L5.89252 8.31769L6.33352 8.63769L6.16552 8.12469L6.60652 7.80469L6.05552 7.80269ZM11.3695 7.80269L11.2015 7.28769L11.0335 7.80269H10.4925L10.9335 8.12269L10.7655 8.63769L11.2065 8.31769L11.6475 8.63769L11.4785 8.12469L11.9195 7.80469L11.3695 7.80269ZM3.40452 7.80269L3.23552 7.28769L3.06752 7.80269H2.52152L2.96252 8.12269L2.79452 8.63769L3.23552 8.31769L3.67652 8.63769L3.50852 8.12469L3.94952 7.80469L3.40452 7.80269ZM8.71252 7.80269L8.54452 7.28769L8.37652 7.80269H7.83552L8.27652 8.12269L8.10852 8.63769L8.54952 8.31769L8.99052 8.63769L8.82252 8.12469L9.26352 7.80469L8.71252 7.80269ZM11.9995 2.90269L12.4405 2.58269L12.8815 2.90269L12.7135 2.38769L13.1545 2.06769H12.6135L12.4455 1.55469L12.2775 2.06969H11.7365L12.1775 2.38969L11.9995 2.90269ZM12.5995 11.0727L12.4315 10.5577L12.2635 11.0727H11.7255L12.1665 11.3927L11.9985 11.9077L12.4395 11.5877L12.8805 11.9077L12.7125 11.3927L13.1535 11.0727H12.5995ZM9.24952 10.1167H8.71152L8.54352 9.60169L8.37552 10.1167H7.83552L8.27652 10.4367L8.10852 10.9517L8.54952 10.6317L8.99052 10.9517L8.82252 10.4367L9.24952 10.1167ZM11.9065 10.1167H11.3655L11.1975 9.60169L11.0295 10.1167H10.4885L10.9295 10.4367L10.7615 10.9517L11.2025 10.6317L11.6435 10.9517L11.4755 10.4367L11.9065 10.1167ZM9.94252 11.0727L9.77452 10.5577L9.60651 11.0727H9.06852L9.50951 11.3927L9.34152 11.9077L9.78252 11.5877L10.2235 11.9077L10.0555 11.3927L10.4965 11.0727H9.94252ZM6.59552 10.1177H6.05552L5.88552 9.60369L5.71752 10.1187H5.17852L5.61952 10.4387L5.45152 10.9537L5.89252 10.6337L6.33352 10.9537L6.16552 10.4387L6.59552 10.1177ZM10.9275 3.49169L10.7595 4.00669L11.2005 3.68669L11.6415 4.00669L11.4735 3.49169L11.9145 3.17169H11.3735L11.2055 2.65669L11.0375 3.17169H10.4915L10.9275 3.49169ZM14.5605 10.1177H14.0195L13.8515 9.60269L13.6835 10.1177H13.1425L13.5835 10.4377L13.4155 10.9527L13.8565 10.6327L14.2975 10.9527L14.1295 10.4377L14.5605 10.1177ZM15.0905 3.80069L14.9225 4.31569H14.3855L14.8265 4.63569L14.6585 5.15069L15.0995 4.83069L15.5405 5.15069L15.3725 4.63569L15.8135 4.31569H15.2725L15.0905 3.80069ZM15.0905 6.05369L14.9225 6.56869H14.3855L14.8265 6.88869L14.6585 7.40369L15.0995 7.08369L15.5405 7.40369L15.3725 6.88869L15.8135 6.56869H15.2725L15.0905 6.05369ZM4.63752 11.0737L4.46952 10.5587L4.30152 11.0737H3.76052L4.20152 11.3937L4.03352 11.9087L4.47452 11.5887L4.91552 11.9087L4.74752 11.3937L5.18852 11.0737H4.63752ZM15.2595 11.0737L15.0915 10.5587L14.9235 11.0737H14.3855L14.8265 11.3937L14.6585 11.9087L15.0995 11.5887L15.5405 11.9087L15.3725 11.3937L15.8135 11.0737H15.2595ZM15.0915 8.30669L14.9235 8.82169H14.3855L14.8265 9.14169L14.6585 9.65669L15.0995 9.33669L15.5405 9.65669L15.3725 9.14169L15.8135 8.82169H15.2725L15.0915 8.30669ZM7.29152 11.0737L7.12352 10.5587L6.95552 11.0737H6.41752L6.85852 11.3937L6.69052 11.9087L7.13152 11.5887L7.57252 11.9087L7.40452 11.3937L7.84552 11.0737H7.29152ZM2.96252 3.49169L2.79452 4.00669L3.23552 3.68669L3.67652 4.00669L3.50852 3.49169L3.94952 3.17169H3.40352L3.23552 2.65669L3.06752 3.17169H2.52152L2.96252 3.49169ZM4.03352 2.90369L4.47452 2.58369L4.91552 2.90369L4.74752 2.38869L5.18852 2.06869H4.63752L4.46952 1.55469L4.30152 2.06969H3.76052L4.20152 2.38969L4.03352 2.90369ZM6.68552 2.90369L7.12652 2.58369L7.56752 2.90369L7.39952 2.38869L7.84052 2.06869H7.29952L7.13152 1.55469L6.96352 2.06969H6.42252L6.86352 2.38969L6.68552 2.90369ZM5.61952 3.49169L5.45152 4.00669L5.89252 3.68669L6.33352 4.00669L6.16552 3.49169L6.60652 3.17169H6.06552L5.89752 2.65669L5.72952 3.17169H5.18552L5.61952 3.49169ZM9.34251 2.90369L9.78351 2.58369L10.2245 2.90369L10.0565 2.38869L10.4975 2.06869H9.95652L9.78551 1.55469L9.61752 2.06969H9.07952L9.52052 2.38969L9.34251 2.90369ZM8.27152 3.49169L8.10352 4.00669L8.54452 3.68669L8.98552 4.00669L8.81752 3.49169L9.25852 3.17169H8.71752L8.54952 2.65669L8.38552 3.17169H7.84052L8.27152 3.49169ZM3.94452 10.1177H3.40352L3.23552 9.60369L3.06752 10.1187H2.52152L2.96252 10.4387L2.79452 10.9537L3.23552 10.6337L3.67652 10.9537L3.50852 10.4387L3.94452 10.1177ZM1.37652 9.65569L1.81752 9.33569L2.25852 9.65569L2.09052 9.14069L2.53152 8.82069H1.98552L1.81752 8.30569L1.64452 8.82469H1.10352L1.54452 9.14469L1.37652 9.65569ZM1.97652 11.0737L1.80852 10.5587L1.64052 11.0737H1.10352L1.54452 11.3937L1.37652 11.9087L1.81752 11.5887L2.25852 11.9087L2.09052 11.3937L2.53152 11.0737H1.97652ZM1.37652 7.40369L1.81752 7.08369L2.25852 7.40369L2.09052 6.88869L2.53152 6.56869H1.98552L1.81752 6.05369L1.64952 6.56869H1.10352L1.54452 6.88869L1.37652 7.40369ZM1.37652 5.15069L1.81752 4.83069L2.25852 5.15069L2.09052 4.63569L2.53152 4.31569H1.98552L1.81752 3.80069L1.64952 4.31569H1.10352L1.54452 4.63569L1.37652 5.15069ZM1.37652 2.90369L1.81752 2.58369L2.25852 2.90369L2.09052 2.38869L2.53152 2.06869H1.98552L1.81252 1.55469L1.64452 2.06969H1.10352L1.54452 2.38969L1.37652 2.90369Z" fill="white"/>
</g>
<defs>
<clipPath id="clip0_260_20">
<rect width="31" height="22" fill="white" transform="translate(0.5 0.5)"/>
</clipPath>
</defs>
</svg>
