<svg width="32" height="23" viewBox="0 0 32 23" fill="none" xmlns="http://www.w3.org/2000/svg">
<g clip-path="url(#clip0_260_39)">
<path d="M0.5 22.3671V20.1991C1.63867 19.2104 2.77733 18.2201 3.916 17.2281C4.75467 16.4981 5.59667 15.7684 6.442 15.0391C6.556 15.0441 6.665 15.0491 6.778 15.0491H31.478V22.3671H0.5Z" fill="#2C2D2F"/>
<path d="M0.5 2.59381V0.632812H31.5V7.69681H6.753C6.634 7.69681 6.51 7.70181 6.391 7.70181C4.801 6.30981 3.21 4.92115 1.618 3.53581C1.253 3.21481 0.873 2.90481 0.5 2.59381Z" fill="#C12F2F"/>
<path d="M6.38407 7.70675C6.70507 7.99675 7.02107 8.29175 7.34707 8.58175C7.69907 8.89275 8.05607 9.19275 8.41307 9.49775C8.91307 9.92775 9.40707 10.3568 9.89807 10.7868C10.1211 10.9868 10.3381 11.1868 10.5761 11.3978C10.1001 11.8068 9.63407 12.2048 9.16807 12.6138C8.83207 12.9038 8.50607 13.2037 8.16807 13.4937C7.66807 13.9287 7.16807 14.3578 6.66207 14.7938C6.58243 14.8697 6.50793 14.9509 6.43907 15.0368C5.59507 15.7668 4.75707 16.4957 3.91307 17.2257C2.7744 18.2144 1.63574 19.2048 0.49707 20.1968V2.59375C0.87007 2.90975 1.24707 3.21475 1.61507 3.53575L6.38407 7.70675Z" fill="#558D3F"/>
</g>
<defs>
<clipPath id="clip0_260_39">
<rect width="31" height="22" fill="white" transform="translate(0.5 0.5)"/>
</clipPath>
</defs>
</svg>
