<svg width="25" height="25" viewBox="0 0 25 25" fill="none" xmlns="http://www.w3.org/2000/svg">
<path d="M18.5 8.5C18.5 9.60457 17.6046 10.5 16.5 10.5C15.3954 10.5 14.5 9.60457 14.5 8.5C14.5 7.39543 15.3954 6.5 16.5 6.5C17.6046 6.5 18.5 7.39543 18.5 8.5Z" fill="#1C274C"/>
<path fill-rule="evenodd" clip-rule="evenodd" d="M12.4426 1.75H12.5574C14.8658 1.74999 16.6748 1.74998 18.0863 1.93975C19.531 2.13399 20.6711 2.53933 21.5659 3.43414C22.4607 4.32895 22.866 5.46897 23.0603 6.91371C23.25 8.32519 23.25 10.1342 23.25 12.4426V12.5309C23.25 14.4397 23.25 16.0023 23.1463 17.2745C23.0422 18.5531 22.8287 19.6214 22.3509 20.5087C22.1401 20.9001 21.8812 21.2506 21.5659 21.5659C20.6711 22.4607 19.531 22.866 18.0863 23.0603C16.6748 23.25 14.8658 23.25 12.5574 23.25H12.4426C10.1342 23.25 8.32519 23.25 6.91371 23.0603C5.46897 22.866 4.32895 22.4607 3.43414 21.5659C2.64086 20.7726 2.2312 19.7852 2.01335 18.5604C1.79935 17.3573 1.7602 15.8603 1.75207 14.0015C1.75 13.5287 1.75 13.0286 1.75 12.501V12.4426C1.74999 10.1342 1.74998 8.32519 1.93975 6.91371C2.13399 5.46897 2.53933 4.32895 3.43414 3.43414C4.32895 2.53933 5.46897 2.13399 6.91371 1.93975C8.32519 1.74998 10.1342 1.74999 12.4426 1.75ZM7.11358 3.42637C5.83517 3.59825 5.06445 3.92514 4.4948 4.4948C3.92514 5.06445 3.59825 5.83517 3.42637 7.11358C3.25159 8.41356 3.25 10.1218 3.25 12.5C3.25 12.7905 3.25 13.0715 3.25034 13.3435L4.25148 12.4675C5.16275 11.6702 6.53617 11.7159 7.39238 12.5721L11.6821 16.8618C12.3693 17.5491 13.4511 17.6428 14.2463 17.0839L14.5445 16.8744C15.6887 16.0702 17.2368 16.1634 18.2764 17.099L21.1068 19.6463C21.3917 19.048 21.5609 18.2618 21.6513 17.1527C21.7494 15.9482 21.75 14.4459 21.75 12.5C21.75 10.1218 21.7484 8.41356 21.5736 7.11358C21.4018 5.83517 21.0749 5.06445 20.5052 4.4948C19.9355 3.92514 19.1648 3.59825 17.8864 3.42637C16.5864 3.25159 14.8782 3.25 12.5 3.25C10.1218 3.25 8.41356 3.25159 7.11358 3.42637Z" fill="#1C274C"/>
</svg>
