<svg width="25" height="25" viewBox="0 0 25 25" fill="none" xmlns="http://www.w3.org/2000/svg">
<path fill-rule="evenodd" clip-rule="evenodd" d="M14.5 22.5H10.5C6.72876 22.5 4.84315 22.5 3.67157 21.3284C2.5 20.1569 2.5 18.2712 2.5 14.5V10.5C2.5 6.72876 2.5 4.84315 3.67157 3.67157C4.84315 2.5 6.73869 2.5 10.5298 2.5C11.1358 2.5 11.6214 2.5 12.03 2.51666C12.0166 2.59659 12.0095 2.67813 12.0092 2.76057L12 5.59497C11.9999 6.69207 11.9998 7.66164 12.1049 8.44316C12.2188 9.29028 12.4803 10.1373 13.1716 10.8285C13.8628 11.5198 14.7098 11.7813 15.5569 11.8952C16.3385 12.0003 17.308 12.0002 18.4051 12.0001H18.5H22.4574C22.5 12.5344 22.5 13.1901 22.5 14.0629V14.5C22.5 18.2712 22.5 20.1569 21.3284 21.3284C20.1569 22.5 18.2712 22.5 14.5 22.5ZM5.75 15C5.75 14.5858 6.08579 14.25 6.5 14.25H14.5C14.9142 14.25 15.25 14.5858 15.25 15C15.25 15.4142 14.9142 15.75 14.5 15.75H6.5C6.08579 15.75 5.75 15.4142 5.75 15ZM5.75 18.5C5.75 18.0858 6.08579 17.75 6.5 17.75H12C12.4142 17.75 12.75 18.0858 12.75 18.5C12.75 18.9142 12.4142 19.25 12 19.25H6.5C6.08579 19.25 5.75 18.9142 5.75 18.5Z" fill="#1C274C"/>
<path d="M19.8517 8.11666L15.8929 4.55376C14.7651 3.53869 14.2012 3.03115 13.5092 2.76562L13.5 5.50012C13.5 7.85714 13.5 9.03564 14.2322 9.76787C14.9645 10.5001 16.143 10.5001 18.5 10.5001H22.0801C21.7175 9.79588 21.0684 9.21165 19.8517 8.11666Z" fill="#1C274C"/>
</svg>
