<svg width="801" height="801" viewBox="0 0 801 801" fill="none" xmlns="http://www.w3.org/2000/svg">
<path d="M258.833 83.8359C258.833 70.0289 247.64 58.8359 233.833 58.8359C220.026 58.8359 208.833 70.0289 208.833 83.8359V136.478C160.856 140.32 129.359 149.748 106.219 172.888C83.0789 196.028 73.6503 227.525 69.8086 275.503H731.19C727.35 227.525 717.92 196.028 694.78 172.888C671.64 149.748 640.143 140.32 592.167 136.478V83.8359C592.167 70.0289 580.973 58.8359 567.167 58.8359C553.36 58.8359 542.167 70.0289 542.167 83.8359V134.266C519.99 133.836 495.133 133.836 467.167 133.836H333.833C305.866 133.836 281.009 133.836 258.833 134.266V83.8359Z" fill="#00B2CC"/>
<path fill-rule="evenodd" clip-rule="evenodd" d="M733.834 400.5V467.167C733.834 592.873 733.834 655.73 694.78 694.78C655.73 733.833 592.874 733.833 467.167 733.833H333.834C208.126 733.833 145.272 733.833 106.219 694.78C67.167 655.73 67.167 592.873 67.167 467.167V400.5C67.167 372.533 67.167 347.677 67.597 325.5H733.404C733.834 347.677 733.834 372.533 733.834 400.5ZM550.5 600.5C578.114 600.5 600.5 578.113 600.5 550.5C600.5 522.887 578.114 500.5 550.5 500.5C522.887 500.5 500.5 522.887 500.5 550.5C500.5 578.113 522.887 600.5 550.5 600.5Z" fill="#00B2CC"/>
</svg>
