<svg width="25" height="25" viewBox="0 0 25 25" fill="none" xmlns="http://www.w3.org/2000/svg">
<path fill-rule="evenodd" clip-rule="evenodd" d="M22.5 12.5C22.5 18.0228 18.0228 22.5 12.5 22.5C6.97715 22.5 2.5 18.0228 2.5 12.5C2.5 6.97715 6.97715 2.5 12.5 2.5C18.0228 2.5 22.5 6.97715 22.5 12.5ZM13 9.25C13 8.83579 12.6642 8.5 12.25 8.5C11.8358 8.5 11.5 8.83579 11.5 9.25V13.25C11.5 13.4489 11.579 13.6397 11.7197 13.7803L14.2197 16.2803C14.5126 16.5732 14.9874 16.5732 15.2803 16.2803C15.5732 15.9874 15.5732 15.5126 15.2803 15.2197L13 12.9393V9.25Z" fill="#00B2CC"/>
</svg>
