<svg width="13" height="14" viewBox="0 0 13 14" fill="none" xmlns="http://www.w3.org/2000/svg">
<g clip-path="url(#clip0_260_70)">
<path d="M10.7153 2.67801C10.1631 2.12153 9.50626 1.67986 8.78258 1.37846C8.05891 1.07705 7.28272 0.921875 6.49879 0.921875C5.71485 0.921875 4.93867 1.07705 4.21499 1.37846C3.49131 1.67986 2.83446 2.12153 2.28229 2.67801C1.44769 3.5194 0.879343 4.58793 0.648155 5.75027C0.416967 6.91261 0.533178 8.11729 0.982288 9.21401L1.18229 9.64201C1.18229 9.64201 1.18229 9.64901 1.18929 9.65401C1.52666 10.319 1.98596 10.9146 2.54329 11.41L2.57829 11.441L2.59429 11.455C2.78277 11.6182 2.98042 11.7704 3.18629 11.911L3.22829 11.939C3.25929 11.958 3.28929 11.979 3.31729 11.998C4.23741 12.6039 5.31562 12.9252 6.41729 12.922H6.46229C6.87062 12.918 7.27769 12.8762 7.67829 12.797C8.05471 12.724 8.42312 12.6145 8.77829 12.47C9.68719 12.0884 10.4885 11.4895 11.1117 10.7258C11.7349 9.96204 12.1611 9.05694 12.3526 8.08999C12.5442 7.12304 12.4954 6.12383 12.2104 5.18018C11.9254 4.23652 11.413 3.3773 10.7183 2.67801H10.7153ZM10.0213 3.36901C10.7193 4.06854 11.1947 4.95902 11.3875 5.92826C11.5804 6.8975 11.482 7.90213 11.1049 8.81557C10.7277 9.729 10.0886 10.5104 9.26815 11.0612C8.44767 11.6121 7.48252 11.9077 6.49429 11.911H6.48829C5.50048 11.9068 4.53601 11.6104 3.7163 11.0591C2.8966 10.5079 2.25829 9.7265 1.88175 8.81327C1.50521 7.90004 1.40727 6.89582 1.60026 5.92704C1.79324 4.95826 2.26853 4.06823 2.96629 3.36901C3.42727 2.90219 3.9765 2.53173 4.58201 2.27919C5.18753 2.02665 5.83722 1.89708 6.49329 1.89801C7.14955 1.89776 7.79935 2.02763 8.40509 2.28012C9.01083 2.53262 9.5605 2.90272 10.0223 3.36901H10.0213Z" fill="#707070"/>
<path d="M6.8553 9.39281C6.8223 9.74581 6.7073 9.89281 6.4863 9.88381C6.2653 9.87481 6.1713 9.73081 6.1503 9.40181C6.0443 9.35981 5.9313 9.32381 5.8263 9.26981C5.6091 9.17004 5.4232 9.01295 5.28859 8.81544C5.15398 8.61792 5.07575 8.38746 5.0623 8.14881C5.05354 8.10103 5.05496 8.05193 5.06649 8.00473C5.07801 7.95753 5.09937 7.9133 5.12917 7.87493C5.15898 7.83656 5.19655 7.80492 5.23942 7.78208C5.2823 7.75923 5.32952 7.7457 5.37799 7.74237C5.42646 7.73904 5.47509 7.74599 5.52069 7.76275C5.56628 7.77952 5.60783 7.80572 5.6426 7.83965C5.67737 7.87359 5.70458 7.91448 5.72245 7.95966C5.74032 8.00483 5.74845 8.05328 5.7463 8.10181C5.76012 8.26289 5.83007 8.41401 5.94393 8.52878C6.05779 8.64356 6.20834 8.71471 6.3693 8.72981C6.53929 8.76221 6.71523 8.73679 6.8691 8.65759C7.02296 8.5784 7.14589 8.44998 7.2183 8.29281C7.24744 8.20255 7.25628 8.10696 7.24419 8.01288C7.2321 7.9188 7.19938 7.82855 7.14836 7.74859C7.09735 7.66862 7.0293 7.60092 6.94907 7.55031C6.86885 7.49969 6.77844 7.46743 6.6843 7.45581C6.5103 7.42281 6.3313 7.42481 6.1573 7.38781C5.86848 7.33146 5.60565 7.18316 5.4081 6.96506C5.21055 6.74696 5.08889 6.47078 5.0613 6.17781C5.04602 5.87777 5.13208 5.5813 5.30566 5.33608C5.47923 5.09085 5.73024 4.91113 6.0183 4.82581C6.1183 4.79081 6.1613 4.75081 6.1593 4.63781C6.15445 4.59024 6.15953 4.54217 6.17424 4.49667C6.18895 4.45116 6.21296 4.40922 6.24474 4.37348C6.27652 4.33775 6.31538 4.30902 6.35886 4.2891C6.40234 4.26919 6.44949 4.25854 6.4973 4.25781C6.54626 4.25824 6.59459 4.2689 6.63918 4.28911C6.68377 4.30933 6.72364 4.33865 6.75623 4.37519C6.78881 4.41173 6.81339 4.45468 6.82839 4.50129C6.84339 4.5479 6.84847 4.59713 6.8433 4.64581C6.83759 4.68664 6.84826 4.72806 6.873 4.76104C6.89773 4.79402 6.93451 4.81587 6.9753 4.82181C7.2221 4.89275 7.44331 5.0331 7.61262 5.22616C7.78193 5.41923 7.8922 5.65687 7.9303 5.91081C7.94247 5.97269 7.94651 6.03589 7.9423 6.09881C7.93998 6.18567 7.9041 6.26825 7.8422 6.32922C7.7803 6.39019 7.69718 6.42481 7.6103 6.42581C7.56702 6.42995 7.52335 6.42511 7.48202 6.4116C7.4407 6.39808 7.4026 6.37619 7.37013 6.34728C7.33765 6.31837 7.31149 6.28307 7.29328 6.24358C7.27507 6.2041 7.26521 6.16128 7.2643 6.11781C7.25569 6.00305 7.22089 5.89179 7.16257 5.79257C7.10426 5.69336 7.02397 5.60883 6.92789 5.54548C6.83181 5.48214 6.72248 5.44165 6.60831 5.42715C6.49415 5.41265 6.37817 5.4245 6.2693 5.46181C6.11706 5.49619 5.9816 5.58264 5.8863 5.70624C5.791 5.82984 5.74184 5.98283 5.7473 6.13881C5.77229 6.29553 5.84912 6.43934 5.96552 6.54721C6.08192 6.65509 6.23114 6.72079 6.3893 6.73381C6.57687 6.74497 6.76318 6.77173 6.9463 6.81381C7.22581 6.88458 7.47425 7.04539 7.65327 7.27141C7.8323 7.49742 7.93194 7.77608 7.93684 8.06437C7.94173 8.35265 7.85159 8.63454 7.68034 8.8665C7.50909 9.09846 7.26625 9.2676 6.9893 9.34781L6.8553 9.39281Z" fill="#707070"/>
<path d="M10.9649 6.98775C10.9776 7.75213 10.8014 8.50782 10.4519 9.18775C10.4207 9.26382 10.363 9.326 10.2894 9.36277C10.2159 9.39954 10.1315 9.40841 10.0519 9.38775C9.97876 9.37091 9.91353 9.32964 9.86698 9.27074C9.82044 9.21183 9.79538 9.13882 9.79592 9.06375C9.80664 8.97327 9.83375 8.88551 9.87592 8.80475C10.1237 8.31448 10.2598 7.77541 10.2745 7.22628C10.2892 6.67714 10.1821 6.13157 9.96092 5.62875C9.63139 4.82764 9.02924 4.16882 8.26092 3.76875L8.15492 3.71275C8.10975 3.69503 8.06883 3.66795 8.03486 3.6333C8.00089 3.59864 7.97464 3.55719 7.95782 3.51167C7.94101 3.46614 7.93402 3.41758 7.93732 3.36916C7.94061 3.32075 7.95411 3.27358 7.97692 3.23075C7.99703 3.18742 8.02627 3.14896 8.06264 3.118C8.09901 3.08704 8.14165 3.06432 8.18764 3.0514C8.23362 3.03848 8.28185 3.03567 8.32903 3.04315C8.3762 3.05063 8.4212 3.06823 8.46092 3.09475C8.78135 3.26858 9.08645 3.4693 9.37292 3.69475C9.86104 4.0955 10.2562 4.59755 10.5311 5.16615C10.806 5.73474 10.954 6.35629 10.9649 6.98775Z" fill="#707070"/>
<path d="M2.86924 4.83594C2.92813 4.83737 2.98567 4.85389 3.03635 4.88394C3.08702 4.91398 3.12913 4.95654 3.15864 5.00753C3.18815 5.05851 3.20407 5.11623 3.20487 5.17513C3.20568 5.23404 3.19134 5.29216 3.16324 5.34394C3.02535 5.65741 2.90973 5.98021 2.81724 6.30994C2.64283 7.10474 2.72942 7.93459 3.06414 8.67627C3.39886 9.41795 3.96386 10.0319 4.67524 10.4269C4.72924 10.4579 4.78624 10.4859 4.84224 10.5159C4.88766 10.5334 4.92888 10.5603 4.96324 10.5948C4.9976 10.6292 5.02433 10.6706 5.04168 10.716C5.05903 10.7615 5.06662 10.8101 5.06396 10.8587C5.06129 10.9073 5.04843 10.9548 5.02622 10.9981C5.004 11.0414 4.97292 11.0796 4.935 11.1101C4.89708 11.1406 4.85316 11.1628 4.8061 11.1752C4.75904 11.1877 4.7099 11.19 4.66185 11.1822C4.61381 11.1744 4.56794 11.1566 4.52724 11.1299C4.07389 10.9077 3.66248 10.6086 3.31124 10.2459C2.65784 9.57697 2.23014 8.72031 2.08811 7.79604C1.94608 6.87177 2.09684 5.92622 2.51924 5.09194C2.54323 5.01787 2.58997 4.95325 2.65281 4.90729C2.71565 4.86133 2.79138 4.83636 2.86924 4.83594Z" fill="#707070"/>
<path d="M7.03085 2.63291C7.09819 2.63566 7.16323 2.6582 7.21784 2.6977C7.27246 2.7372 7.31422 2.79191 7.33792 2.85501C7.36162 2.9181 7.36621 2.98678 7.35111 3.05247C7.33601 3.11816 7.30189 3.17794 7.25301 3.22435C7.20414 3.27076 7.14267 3.30174 7.07629 3.31343C7.00991 3.32511 6.94156 3.31698 6.87978 3.29005C6.81799 3.26312 6.76551 3.21858 6.72889 3.162C6.69226 3.10542 6.67312 3.0393 6.67385 2.97191C6.67647 2.87969 6.71549 2.79226 6.78239 2.72873C6.84929 2.66521 6.93862 2.63076 7.03085 2.63291Z" fill="#707070"/>
<path d="M5.97805 10.8985C6.04541 10.9009 6.11059 10.923 6.16543 10.9622C6.22028 11.0014 6.26237 11.0559 6.28643 11.1188C6.3105 11.1818 6.31549 11.2505 6.30077 11.3162C6.28604 11.382 6.25227 11.442 6.20366 11.4887C6.15505 11.5354 6.09376 11.5667 6.02744 11.5788C5.96113 11.5908 5.89273 11.5831 5.83078 11.5565C5.76884 11.5299 5.71611 11.4857 5.67916 11.4293C5.64222 11.3729 5.6227 11.3069 5.62305 11.2395C5.62383 11.1938 5.63365 11.1487 5.65194 11.1067C5.67023 11.0648 5.69663 11.0269 5.72962 10.9952C5.76261 10.9635 5.80155 10.9386 5.84418 10.9221C5.88682 10.9055 5.93231 10.8975 5.97805 10.8985Z" fill="#707070"/>
</g>
<defs>
<clipPath id="clip0_260_70">
<rect width="12" height="13" fill="white" transform="translate(0.5 0.5)"/>
</clipPath>
</defs>
</svg>
