<svg width="26" height="18" viewBox="0 0 26 18" fill="none" xmlns="http://www.w3.org/2000/svg">
<g clip-path="url(#clip0_260_86)">
<path d="M0.50028 9.08918C0.489517 9.29675 0.548146 9.50199 0.666923 9.67255C0.785699 9.84311 0.957867 9.96929 1.15628 10.0312C2.89328 10.5652 5.80928 12.1482 5.80928 16.7542C5.80928 16.8517 5.82849 16.9482 5.8658 17.0383C5.90311 17.1284 5.95781 17.2103 6.02675 17.2792C6.0957 17.3482 6.17755 17.4029 6.26764 17.4402C6.35772 17.4775 6.45427 17.4967 6.55178 17.4967C6.64929 17.4967 6.74584 17.4775 6.83592 17.4402C6.92601 17.4029 7.00786 17.3482 7.07681 17.2792C7.14575 17.2103 7.20045 17.1284 7.23776 17.0383C7.27507 16.9482 7.29428 16.8517 7.29428 16.7542C7.37295 15.4396 7.12738 14.1258 6.57915 12.9284C6.03092 11.731 5.19684 10.6866 4.15028 9.88718H24.7583C24.9572 9.88718 25.148 9.80817 25.2886 9.66751C25.4293 9.52686 25.5083 9.3361 25.5083 9.13718C25.5083 8.93827 25.4293 8.74751 25.2886 8.60685C25.148 8.4662 24.9572 8.38718 24.7583 8.38718H4.23728C7.01628 6.02718 7.28428 1.52918 7.29528 1.28718C7.30001 1.18968 7.28548 1.0922 7.25254 1.0003C7.21959 0.908409 7.16887 0.823904 7.10326 0.751614C6.97077 0.605617 6.7857 0.518233 6.58878 0.508685C6.49127 0.503957 6.39379 0.518481 6.3019 0.551428C6.21 0.584374 6.1255 0.635098 6.05321 0.700702C5.90721 0.833197 5.81983 1.01826 5.81028 1.21518C5.80428 1.31518 5.42428 7.39518 1.25528 8.21518C1.0502 8.25625 0.864645 8.36446 0.727922 8.52273C0.591199 8.681 0.511101 8.88032 0.50028 9.08918Z" fill="#343F53"/>
</g>
<defs>
<clipPath id="clip0_260_86">
<rect width="25" height="17" fill="white" transform="translate(0.5 0.5)"/>
</clipPath>
</defs>
</svg>
