<svg width="21" height="15" viewBox="0 0 21 15" fill="none" xmlns="http://www.w3.org/2000/svg">
<g clip-path="url(#clip0_260_84)">
<path d="M19.9997 7.4C19.9767 7.56168 19.908 7.71344 19.8017 7.83744C19.6954 7.96143 19.556 8.05252 19.3997 8.1C16.1997 8.7 15.8997 13.3 15.8997 13.4C15.8864 13.5459 15.8158 13.6805 15.7033 13.7743C15.5907 13.868 15.4456 13.9133 15.2997 13.9C15.1538 13.8867 15.0192 13.8161 14.9254 13.7036C14.8317 13.591 14.7864 13.4459 14.7997 13.3C14.7997 13.1 14.9997 9.7 17.0997 7.9H1.49971C1.43298 7.90409 1.36614 7.89396 1.30363 7.87028C1.24111 7.8466 1.18434 7.80991 1.13707 7.76264C1.08979 7.71537 1.0531 7.65859 1.02942 7.59608C1.00574 7.53356 0.995614 7.46673 0.999705 7.4C0.988493 7.25457 1.03447 7.1105 1.12784 6.99845C1.22122 6.8864 1.35464 6.8152 1.49971 6.8H17.1997C16.4093 6.19168 15.778 5.40085 15.3601 4.49523C14.9421 3.5896 14.7498 2.59618 14.7997 1.6C14.7997 1.44087 14.8629 1.28826 14.9754 1.17574C15.088 1.06321 15.2406 1 15.3997 1C15.5588 1 15.7114 1.06321 15.824 1.17574C15.9365 1.28826 15.9997 1.44087 15.9997 1.6C15.9056 2.7233 16.2026 3.84461 16.8404 4.77403C17.4782 5.70345 18.4177 6.38385 19.4997 6.7C19.6446 6.75154 19.7703 6.84628 19.8597 6.97145C19.9491 7.09661 19.998 7.24619 19.9997 7.4Z" fill="black" stroke="black"/>
</g>
<defs>
<clipPath id="clip0_260_84">
<rect width="20" height="13.9" fill="white" transform="translate(0.5 0.5)"/>
</clipPath>
</defs>
</svg>
