<svg width="21" height="15" viewBox="0 0 21 15" fill="none" xmlns="http://www.w3.org/2000/svg">
<g clip-path="url(#clip0_260_78)">
<path d="M1.00029 7.39412C0.99212 7.23617 1.03685 7.07999 1.12741 6.95031C1.21797 6.82063 1.34918 6.72485 1.50029 6.67812C2.59051 6.36839 3.53925 5.6895 4.18425 4.75757C4.82925 3.82564 5.13044 2.69857 5.03629 1.56912C5.03629 1.41954 5.09571 1.27609 5.20148 1.17032C5.30725 1.06455 5.45071 1.00512 5.60029 1.00512C5.74987 1.00512 5.89333 1.06455 5.9991 1.17032C6.10487 1.27609 6.16429 1.41954 6.16429 1.56912C6.22404 2.56828 6.03733 3.56682 5.62057 4.47687C5.20382 5.38693 4.5698 6.18062 3.77429 6.78812L19.4363 6.78812C19.5832 6.79428 19.7221 6.85697 19.8238 6.9631C19.9256 7.06923 19.9824 7.21058 19.9824 7.35762C19.9824 7.50466 19.9256 7.64602 19.8238 7.75215C19.7221 7.85827 19.5832 7.92097 19.4363 7.92712L3.83629 7.92712C5.95229 9.71912 6.15529 13.1391 6.16429 13.3191C6.17038 13.3944 6.16131 13.4702 6.13761 13.5419C6.11391 13.6137 6.07606 13.6799 6.02631 13.7368C5.97655 13.7936 5.9159 13.8399 5.84794 13.8729C5.77998 13.9059 5.70609 13.925 5.63064 13.9289C5.5552 13.9329 5.47972 13.9216 5.40869 13.8959C5.33766 13.8702 5.27251 13.8305 5.21709 13.7791C5.16168 13.7277 5.11712 13.6658 5.08607 13.5969C5.05501 13.5281 5.03809 13.4537 5.03629 13.3781C5.03629 13.3051 4.74329 8.67812 1.57429 8.05912C1.41826 8.02795 1.27709 7.94562 1.17312 7.82517C1.06915 7.70472 1.00833 7.55303 1.00029 7.39412Z" fill="white" stroke="white"/>
</g>
<defs>
<clipPath id="clip0_260_78">
<rect width="20.001" height="13.92" fill="white" transform="translate(0.5 0.5)"/>
</clipPath>
</defs>
</svg>
