<svg width="26" height="25" viewBox="0 0 26 25" fill="none" xmlns="http://www.w3.org/2000/svg">
<path fill-rule="evenodd" clip-rule="evenodd" d="M9.75 2.5127V22.5H16C18.8284 22.5 20.2426 22.5 21.1213 21.6213C22 20.7426 22 19.3284 22 16.5V8.5C22 5.67157 22 4.25736 21.1213 3.37868C20.2426 2.5 18.8284 2.5 16 2.5H10L9.75 2.5127ZM11.75 7C11.75 6.58579 12.0858 6.25 12.5 6.25H17.5C17.9142 6.25 18.25 6.58579 18.25 7C18.25 7.41421 17.9142 7.75 17.5 7.75H12.5C12.0858 7.75 11.75 7.41421 11.75 7ZM11.75 10.5C11.75 10.0858 12.0858 9.75 12.5 9.75H17.5C17.9142 9.75 18.25 10.0858 18.25 10.5C18.25 10.9142 17.9142 11.25 17.5 11.25H12.5C12.0858 11.25 11.75 10.9142 11.75 10.5ZM4.0007 7.75C4.00753 5.41427 4.08136 4.176 4.87868 3.37868C5.55366 2.7037 6.54467 2.54722 8.25 2.51095V22.4891C6.54467 22.4528 5.55366 22.2963 4.87868 21.6213C4.08136 20.824 4.00753 19.5857 4.0007 17.25H5C5.41421 17.25 5.75 16.9142 5.75 16.5C5.75 16.0858 5.41421 15.75 5 15.75H4V13.25H5C5.41421 13.25 5.75 12.9142 5.75 12.5C5.75 12.0858 5.41421 11.75 5 11.75H4V9.25H5C5.41421 9.25 5.75 8.91421 5.75 8.5C5.75 8.08579 5.41421 7.75 5 7.75H4.0007ZM4.0007 7.75H3C2.58579 7.75 2.25 8.08579 2.25 8.5C2.25 8.91421 2.58579 9.25 3 9.25H4V8.5C4 8.23811 4 7.98834 4.0007 7.75ZM4 13.25H3C2.58579 13.25 2.25 12.9142 2.25 12.5C2.25 12.0858 2.58579 11.75 3 11.75H4V13.25ZM4 15.75H3C2.58579 15.75 2.25 16.0858 2.25 16.5C2.25 16.9142 2.58579 17.25 3 17.25H4.0007C4 17.0117 4 16.7619 4 16.5V15.75Z" fill="#212121"/>
</svg>
