<svg width="25" height="25" viewBox="0 0 25 25" fill="none" xmlns="http://www.w3.org/2000/svg">
<path fill-rule="evenodd" clip-rule="evenodd" d="M11.0812 2.75H11.0608C10.9473 2.74998 10.859 2.74997 10.7754 2.75503C9.71495 2.81926 8.78636 3.48855 8.39009 4.47426C8.35868 4.55239 8.30699 4.70756 8.27012 4.81825L8.26624 4.82989C8.16314 5.10981 7.97697 5.35224 7.76145 5.52534C7.53397 5.5327 7.31671 5.5422 7.10903 5.55445C5.46507 5.65144 4.42181 5.92122 3.67145 6.67158C3.42679 6.91624 3.23322 7.19204 3.08008 7.50965C3.13765 7.5293 3.19375 7.55632 3.24709 7.59099C5.34738 8.95617 6.66697 9.81008 7.76344 10.3579C7.82989 10.0117 8.13439 9.75009 8.49997 9.75009C8.91418 9.75009 9.24997 10.0859 9.24997 10.5001V10.958C11.3694 11.5976 13.6305 11.5976 15.75 10.958V10.5001C15.75 10.0859 16.0858 9.75009 16.5 9.75009C16.8656 9.75009 17.1701 10.0117 17.2365 10.3579C18.333 9.81015 19.6526 8.95623 21.753 7.59099C21.8063 7.55638 21.8623 7.52939 21.9197 7.50975C21.7666 7.1921 21.573 6.91626 21.3283 6.67158C20.578 5.92122 19.5347 5.65144 17.8907 5.55445C17.6936 5.54282 17.4878 5.53367 17.2728 5.52648C17.2593 5.51545 17.2457 5.50406 17.2321 5.49231C16.9914 5.28435 16.8032 5.01011 16.7083 4.75288L16.7052 4.74344C16.6693 4.63576 16.6414 4.55195 16.6101 4.47426C16.2139 3.48855 15.2853 2.81926 14.2248 2.75503C14.1412 2.74997 14.0529 2.74998 13.9394 2.75H11.0812ZM15.3175 5.31569L15.313 5.30495L15.3081 5.29286L15.3035 5.28091L15.2999 5.27097L15.2981 5.26596L15.2939 5.25373L15.2901 5.24244L15.288 5.23617L15.2852 5.22783L15.283 5.22079L15.2812 5.2151C15.2418 5.09708 15.2297 5.06204 15.2184 5.03375C15.0383 4.58571 14.6162 4.28148 14.1342 4.25229C14.1019 4.25034 14.0623 4.25 13.919 4.25H11.0812C10.9379 4.25 10.8983 4.25034 10.8661 4.25229C10.3841 4.28148 9.96209 4.58561 9.78192 5.03354L9.77928 5.04052L9.77132 5.06245C9.76468 5.08104 9.7566 5.10429 9.74728 5.13156C9.73076 5.17994 9.7122 5.23546 9.69339 5.29186L9.69157 5.29777L9.68933 5.30481L9.6866 5.31314L9.6845 5.31941L9.68067 5.33071L9.67643 5.34295L9.67465 5.34796L9.67102 5.35791L9.66644 5.36987L9.66156 5.38199L9.65739 5.3919L9.65674 5.39336C9.64281 5.42921 9.62806 5.46498 9.61251 5.50064C9.89614 5.5 10.1917 5.5 10.4999 5.5H14.4999C14.8114 5.5 15.11 5.5 15.3964 5.50066C15.3679 5.43956 15.3416 5.37784 15.3175 5.31569Z" fill="#1C274D"/>
<path opacity="0.5" d="M2.66208 9C2.5 10.1038 2.5 11.5499 2.5 13.5003C2.5 17.2716 2.5 19.1572 3.67157 20.3288C4.84315 21.5003 6.72876 21.5003 10.5 21.5003H14.5C18.2712 21.5003 20.1569 21.5003 21.3284 20.3288C22.5 19.1572 22.5 17.2716 22.5 13.5003C22.5 11.55 22.5 10.104 22.3379 9.0002C20.0613 10.48 18.6021 11.4238 17.2501 12.005V12.5004C17.2501 12.9146 16.9143 13.2504 16.5001 13.2504C16.0914 13.2504 15.759 12.9235 15.7503 12.5168C13.62 13.0784 11.3802 13.0784 9.24991 12.5168C9.24121 12.9234 8.90883 13.2504 8.50009 13.2504C8.08587 13.2504 7.75009 12.9146 7.75009 12.5004V12.0049C6.39804 11.4237 4.93881 10.4799 2.66208 9Z" fill="#1C274D"/>
</svg>
