<svg width="801" height="801" viewBox="0 0 801 801" fill="none" xmlns="http://www.w3.org/2000/svg">
<path d="M335.086 177.708L356.72 216.473C376.243 251.455 368.406 297.347 337.656 328.096C337.656 328.096 300.362 365.396 367.983 433.019C435.583 500.619 472.906 463.346 472.906 463.346C503.656 432.596 549.546 424.759 584.53 444.283L623.293 465.916C676.12 495.396 682.356 569.476 635.926 615.909C608.026 643.809 573.846 665.519 536.063 666.949C472.46 669.363 364.443 653.266 256.09 544.913C147.737 436.559 131.64 328.543 134.051 264.939C135.484 227.156 157.193 192.977 185.093 165.077C231.525 118.645 305.605 124.884 335.086 177.708Z" fill="#1C274C"/>
<path d="M442.483 63.1585C444.69 49.5288 457.573 40.2831 471.203 42.4895C472.047 42.6511 474.763 43.1585 476.183 43.4751C479.03 44.1088 482.997 45.0838 487.943 46.5248C497.837 49.4061 511.657 54.1532 528.243 61.7575C561.453 76.9828 605.647 103.616 651.507 149.476C697.367 195.336 724 239.53 739.223 272.739C746.83 289.326 751.577 303.146 754.457 313.039C755.897 317.986 756.873 321.954 757.507 324.798C757.823 326.22 758.057 327.362 758.217 328.206L758.41 329.246C760.613 342.874 751.453 356.294 737.823 358.501C724.233 360.701 711.43 351.497 709.17 337.934C709.1 337.567 708.907 336.591 708.703 335.667C708.29 333.821 707.58 330.893 706.453 327.021C704.197 319.277 700.28 307.766 693.773 293.577C680.78 265.233 657.413 226.094 616.15 184.831C574.89 143.569 535.75 120.203 507.407 107.209C493.217 100.703 481.707 96.7858 473.96 94.5298C470.09 93.4021 465.223 92.2852 463.377 91.8742C449.81 89.6132 440.283 76.7491 442.483 63.1585Z" fill="#1C274C"/>
<path fill-rule="evenodd" clip-rule="evenodd" d="M450.024 178.146C453.817 164.87 467.654 157.183 480.93 160.976L474.064 185.014C480.93 160.976 480.93 160.976 480.93 160.976L480.98 160.99L481.03 161.005L481.14 161.037L481.4 161.114L482.06 161.32C482.56 161.48 483.19 161.69 483.937 161.955C485.434 162.487 487.414 163.242 489.84 164.282C494.697 166.363 501.33 169.577 509.484 174.401C525.797 184.057 548.07 200.096 574.237 226.262C600.403 252.428 616.44 274.701 626.097 291.016C630.92 299.167 634.134 305.802 636.217 310.658C637.257 313.085 638.014 315.064 638.544 316.561C638.81 317.309 639.017 317.937 639.18 318.439L639.384 319.099L639.46 319.357L639.494 319.468L639.507 319.52C639.507 319.52 639.523 319.568 615.483 326.436L639.524 319.568C643.317 332.843 635.627 346.68 622.354 350.473C609.19 354.233 595.474 346.71 591.544 333.641L591.42 333.281C591.244 332.78 590.877 331.794 590.26 330.354C589.027 327.476 586.79 322.769 583.07 316.482C575.637 303.924 562.214 284.949 538.88 261.617C515.55 238.286 496.574 224.862 484.017 217.43C477.73 213.709 473.024 211.473 470.144 210.239C468.704 209.622 467.717 209.254 467.217 209.077L466.857 208.954C453.79 205.024 446.264 191.309 450.024 178.146Z" fill="#1C274C"/>
</svg>
