<svg width="25" height="25" viewBox="0 0 25 25" fill="none" xmlns="http://www.w3.org/2000/svg">
<path fill-rule="evenodd" clip-rule="evenodd" d="M8.5 4.5C8.5 3.94772 8.91328 3.5 9.42308 3.5H15.5769C16.0867 3.5 16.5 3.94772 16.5 4.5C16.5 5.05228 16.0867 5.5 15.5769 5.5H9.42308C8.91328 5.5 8.5 5.05228 8.5 4.5Z" fill="#00B2CC"/>
<path fill-rule="evenodd" clip-rule="evenodd" d="M10.2778 21.5H14.7222C17.8433 21.5 19.4038 21.5 20.5248 20.7777C21.01 20.465 21.4267 20.0632 21.751 19.5953C22.5 18.5143 22.5 17.0095 22.5 13.9999C22.5 10.9903 22.4998 9.4857 21.7508 8.40473C21.4266 7.93676 21.0099 7.53497 20.5246 7.22228C19.4036 6.5 17.8431 6.5 14.7221 6.5H10.2776C7.15659 6.5 5.59607 6.5 4.47508 7.22228C3.98979 7.53497 3.57312 7.93676 3.24886 8.40473C2.5 9.48547 2.5 10.9896 2.5 13.9979V13.9999C2.5 17.0095 2.5 18.5143 3.24902 19.5953C3.57328 20.0632 3.98995 20.465 4.47524 20.7777C5.59624 21.5 7.15675 21.5 10.2778 21.5ZM8.33333 13.9999C8.33333 11.7808 10.1988 9.98196 12.5 9.98196C14.8012 9.98196 16.6667 11.7808 16.6667 13.9999C16.6667 16.2189 14.8012 18.0178 12.5 18.0178C10.1988 18.0178 8.33333 16.2189 8.33333 13.9999ZM10 13.9999C10 12.6685 11.1193 11.5891 12.5 11.5891C13.8807 11.5891 15 12.6685 15 13.9999C15 15.3313 13.8807 16.4106 12.5 16.4106C11.1193 16.4106 10 15.3313 10 13.9999ZM18.6111 9.98196C18.1509 9.98196 17.7778 10.3417 17.7778 10.7855C17.7778 11.2294 18.1509 11.5891 18.6111 11.5891H19.1667C19.6269 11.5891 20 11.2294 20 10.7855C20 10.3417 19.6269 9.98196 19.1667 9.98196H18.6111Z" fill="#00B2CC"/>
</svg>
