<svg width="26" height="25" viewBox="0 0 26 25" fill="none" xmlns="http://www.w3.org/2000/svg">
<path fill-rule="evenodd" clip-rule="evenodd" d="M14.6288 20.9718L14.0867 21.8877C13.6035 22.704 12.3965 22.704 11.9133 21.8877L11.3712 20.9718C10.9507 20.2614 10.7405 19.9063 10.4028 19.7098C10.0651 19.5134 9.63992 19.5061 8.78958 19.4915C7.53422 19.4698 6.74689 19.3929 6.08658 19.1194C4.86144 18.6119 3.88807 17.6386 3.3806 16.4134C3 15.4946 3 14.3297 3 12V11C3 7.72657 3 6.08985 3.7368 4.88751C4.14908 4.21473 4.71473 3.64908 5.38751 3.2368C6.58985 2.5 8.22657 2.5 11.5 2.5H14.5C17.7734 2.5 19.4101 2.5 20.6125 3.2368C21.2853 3.64908 21.8509 4.21473 22.2632 4.88751C23 6.08985 23 7.72657 23 11V12C23 14.3297 23 15.4946 22.6194 16.4134C22.1119 17.6386 21.1386 18.6119 19.9134 19.1194C19.2531 19.3929 18.4658 19.4698 17.2104 19.4915C16.36 19.5061 15.9349 19.5134 15.5972 19.7098C15.2595 19.9062 15.0492 20.2614 14.6288 20.9718ZM8.25 9.5C8.25 9.08579 8.58579 8.75 9 8.75H17C17.4142 8.75 17.75 9.08579 17.75 9.5C17.75 9.91421 17.4142 10.25 17 10.25H9C8.58579 10.25 8.25 9.91421 8.25 9.5ZM9 12.25C8.58579 12.25 8.25 12.5858 8.25 13C8.25 13.4142 8.58579 13.75 9 13.75H14.5C14.9142 13.75 15.25 13.4142 15.25 13C15.25 12.5858 14.9142 12.25 14.5 12.25H9Z" fill="#212121"/>
</svg>
