<svg width="25" height="25" viewBox="0 0 25 25" fill="none" xmlns="http://www.w3.org/2000/svg">
<path fill-rule="evenodd" clip-rule="evenodd" d="M22.5 12.5C22.5 18.0228 18.0228 22.5 12.5 22.5C6.97715 22.5 2.5 18.0228 2.5 12.5C2.5 6.97715 6.97715 2.5 12.5 2.5C18.0228 2.5 22.5 6.97715 22.5 12.5ZM16.5303 9.46967C16.8232 9.76256 16.8232 10.2374 16.5303 10.5303L11.5303 15.5303C11.2374 15.8232 10.7626 15.8232 10.4697 15.5303L8.46967 13.5303C8.17678 13.2374 8.17678 12.7626 8.46967 12.4697C8.76256 12.1768 9.23744 12.1768 9.53033 12.4697L11 13.9393L13.2348 11.7045L15.4697 9.46967C15.7626 9.17678 16.2374 9.17678 16.5303 9.46967Z" fill="#00B2CC"/>
</svg>
