<svg width="26" height="25" viewBox="0 0 26 25" fill="none" xmlns="http://www.w3.org/2000/svg">
<path fill-rule="evenodd" clip-rule="evenodd" d="M5.29682 4.96967C5.58971 4.67678 6.06459 4.67678 6.35748 4.96967L12.8272 11.4393L19.2968 4.96967C19.5897 4.67678 20.0646 4.67678 20.3575 4.96967C20.6504 5.26256 20.6504 5.73744 20.3575 6.03033L13.8878 12.5L20.3575 18.9697C20.6504 19.2626 20.6504 19.7374 20.3575 20.0303C20.0646 20.3232 19.5897 20.3232 19.2968 20.0303L12.8272 13.5607L6.35748 20.0303C6.06459 20.3232 5.58971 20.3232 5.29682 20.0303C5.00393 19.7374 5.00393 19.2626 5.29682 18.9697L11.7665 12.5L5.29682 6.03033C5.00393 5.73744 5.00393 5.26256 5.29682 4.96967Z" fill="#0C0C0C"/>
</svg>
