<svg width="801" height="801" viewBox="0 0 801 801" fill="none" xmlns="http://www.w3.org/2000/svg">
<path fill-rule="evenodd" clip-rule="evenodd" d="M402.234 42.1641H398.767C368.817 42.1631 343.844 42.1624 324.018 44.8278C303.091 47.6414 284.198 53.8304 269.016 69.0128C253.833 84.1951 247.644 103.088 244.831 124.015C242.92 138.227 242.379 172.213 242.227 201.353C174.818 203.554 134.346 211.423 106.219 239.55C67.167 278.602 67.167 341.457 67.167 467.164C67.167 592.871 67.167 655.727 106.219 694.777C145.272 733.831 208.126 733.831 333.833 733.831H467.167C592.874 733.831 655.73 733.831 694.78 694.777C733.834 655.727 733.834 592.871 733.834 467.164C733.834 341.457 733.834 278.602 694.78 239.55C666.654 211.423 626.184 203.554 558.774 201.353C558.62 172.213 558.08 138.227 556.17 124.015C553.357 103.088 547.167 84.1951 531.984 69.0128C516.804 53.8304 497.91 47.6414 476.984 44.8278C457.157 42.1624 432.184 42.1631 402.234 42.1641ZM508.764 200.56C508.614 172.338 508.134 141.966 506.617 130.677C504.547 115.295 500.974 108.712 496.63 104.368C492.287 100.024 485.704 96.4501 470.32 94.3821C454.22 92.2174 432.634 92.1641 400.5 92.1641C368.367 92.1641 346.78 92.2174 330.68 94.3821C315.298 96.4501 308.715 100.024 304.371 104.368C300.027 108.712 296.453 115.295 294.385 130.677C292.867 141.966 292.387 172.338 292.236 200.56C305.284 200.497 319.129 200.497 333.834 200.497H467.167C481.874 200.497 495.717 200.497 508.764 200.56ZM400.5 308.831C414.307 308.831 425.5 320.024 425.5 333.831V334.171C461.794 343.314 492.167 371.931 492.167 411.607C492.167 425.414 480.974 436.607 467.167 436.607C453.36 436.607 442.167 425.414 442.167 411.607C442.167 398.807 427.974 381.054 400.5 381.054C373.027 381.054 358.834 398.807 358.834 411.607C358.834 424.411 373.027 442.164 400.5 442.164C446.664 442.164 492.167 474.157 492.167 522.721C492.167 562.397 461.794 591.014 425.5 600.157V600.497C425.5 614.304 414.307 625.497 400.5 625.497C386.694 625.497 375.5 614.304 375.5 600.497V600.157C339.207 591.014 308.834 562.397 308.834 522.721C308.834 508.914 320.027 497.721 333.834 497.721C347.64 497.721 358.834 508.914 358.834 522.721C358.834 535.521 373.027 553.274 400.5 553.274C427.974 553.274 442.167 535.521 442.167 522.721C442.167 509.917 427.974 492.164 400.5 492.164C354.337 492.164 308.834 460.174 308.834 411.607C308.834 371.931 339.207 343.314 375.5 334.171V333.831C375.5 320.024 386.694 308.831 400.5 308.831Z" fill="#1C274C"/>
</svg>
