<svg width="25" height="25" viewBox="0 0 25 25" fill="none" xmlns="http://www.w3.org/2000/svg">
<path fill-rule="evenodd" clip-rule="evenodd" d="M22.3382 11.6263L22.109 14.0616C21.7313 18.0742 21.5425 20.0805 20.3599 21.2902C19.1773 22.5 17.4048 22.5 13.8599 22.5H11.1401C7.59517 22.5 5.82271 22.5 4.64009 21.2902C3.45748 20.0805 3.26865 18.0742 2.891 14.0616L2.66181 11.6263C2.4818 9.7137 2.3918 8.75739 2.71899 8.36207C2.89598 8.14823 3.13666 8.0172 3.39399 7.9946C3.86968 7.95282 4.46708 8.6329 5.66187 9.99307C6.27977 10.6965 6.58872 11.0482 6.93337 11.1027C7.12434 11.1328 7.31892 11.1018 7.49526 11.0131C7.81351 10.8529 8.0257 10.4181 8.45007 9.54852L10.6869 4.96486C11.4888 3.32162 11.8898 2.5 12.5 2.5C13.1102 2.5 13.5112 3.32162 14.3131 4.96485L16.5499 9.54851C16.9743 10.4181 17.1865 10.8529 17.5047 11.0131C17.6811 11.1018 17.8757 11.1328 18.0666 11.1027C18.4113 11.0482 18.7202 10.6965 19.3381 9.99307C20.5329 8.6329 21.1303 7.95282 21.606 7.9946C21.8633 8.0172 22.104 8.14823 22.281 8.36207C22.6082 8.75739 22.5182 9.7137 22.3382 11.6263ZM8.75 18.5C8.75 18.0858 9.08579 17.75 9.5 17.75H15.5C15.9142 17.75 16.25 18.0858 16.25 18.5C16.25 18.9142 15.9142 19.25 15.5 19.25H9.5C9.08579 19.25 8.75 18.9142 8.75 18.5Z" fill="#00B2CC"/>
</svg>
