<svg width="19" height="19" viewBox="0 0 19 19" fill="none" xmlns="http://www.w3.org/2000/svg">
<path fill-rule="evenodd" clip-rule="evenodd" d="M17 9.5C17 13.6421 13.6421 17 9.5 17C5.35786 17 2 13.6421 2 9.5C2 5.35786 5.35786 2 9.5 2C13.6421 2 17 5.35786 17 9.5ZM9.5 13.8125C9.81065 13.8125 10.0625 13.5606 10.0625 13.25V8.75C10.0625 8.43935 9.81065 8.1875 9.5 8.1875C9.18935 8.1875 8.9375 8.43935 8.9375 8.75V13.25C8.9375 13.5606 9.18935 13.8125 9.5 13.8125ZM9.5 5.75C9.91422 5.75 10.25 6.08579 10.25 6.5C10.25 6.91421 9.91422 7.25 9.5 7.25C9.08577 7.25 8.75 6.91421 8.75 6.5C8.75 6.08579 9.08577 5.75 9.5 5.75Z" fill="#212121" fill-opacity="0.42"/>
</svg>
