<svg width="801" height="801" viewBox="0 0 801 801" fill="none" xmlns="http://www.w3.org/2000/svg">
<path d="M100.5 213.363C100.5 197.215 112.013 184.124 126.214 184.124L215.022 184.108C232.667 183.599 248.234 170.842 254.238 151.968C254.396 151.472 254.577 150.86 255.228 148.639L259.055 135.583C261.397 127.578 263.437 120.603 266.292 114.37C277.57 89.7428 298.436 72.6415 322.549 68.2631C328.652 67.1548 335.117 67.1595 342.537 67.1648H458.47C465.89 67.1595 472.353 67.1548 478.457 68.2631C502.57 72.6415 523.437 89.7428 534.713 114.37C537.57 120.603 539.61 127.578 541.95 135.583L545.777 148.639C546.427 150.86 546.61 151.472 546.767 151.968C552.773 170.842 571.427 183.615 589.07 184.124H674.787C688.987 184.124 700.5 197.215 700.5 213.363C700.5 229.512 688.987 242.603 674.787 242.603H126.214C112.013 242.603 100.5 229.512 100.5 213.363Z" fill="#1C274C"/>
<path fill-rule="evenodd" clip-rule="evenodd" d="M387.02 733.835H413.98C506.737 733.835 553.117 733.835 583.27 704.305C613.427 674.775 616.51 626.335 622.68 529.451L631.57 389.855C634.92 337.288 636.594 311.006 621.464 294.351C606.337 277.695 580.79 277.695 529.7 277.695H271.302C220.209 277.695 194.663 277.695 179.535 294.351C164.408 311.006 166.082 337.288 169.43 389.855L178.32 529.451C184.49 626.335 187.575 674.775 217.73 704.305C247.885 733.835 294.263 733.835 387.02 733.835ZM342.044 406.785C340.67 392.325 328.418 381.771 314.679 383.218C300.941 384.665 290.917 397.561 292.291 412.021L308.958 587.461C310.332 601.921 322.583 612.475 336.32 611.028C350.06 609.581 360.084 596.685 358.71 582.225L342.044 406.785ZM486.32 383.218C500.06 384.665 510.084 397.561 508.71 412.021L492.044 587.461C490.67 601.921 478.417 612.475 464.68 611.028C450.94 609.581 440.917 596.685 442.29 582.225L458.957 406.785C460.33 392.325 472.584 381.771 486.32 383.218Z" fill="#1C274C"/>
</svg>
