<svg width="25" height="25" viewBox="0 0 25 25" fill="none" xmlns="http://www.w3.org/2000/svg">
<path d="M4.50003 14.25C4.19074 14.25 3.91317 14.4399 3.80105 14.7281C3.68892 15.0164 3.76524 15.3439 3.99324 15.5529L9.99324 21.0529C10.2125 21.2539 10.5298 21.3063 10.802 21.1865C11.0743 21.0668 11.25 20.7974 11.25 20.5V4.5C11.25 4.08578 10.9142 3.75 10.5 3.75C10.0858 3.75 9.75003 4.08578 9.75003 4.5V14.25H4.50003Z" fill="#00B2CC"/>
<path d="M20.5 10.75H15.25V20.5C15.25 20.9142 14.9142 21.25 14.5 21.25C14.0858 21.25 13.75 20.9142 13.75 20.5V4.50002C13.75 4.20259 13.9258 3.93327 14.198 3.8135C14.4703 3.69374 14.7876 3.74617 15.0068 3.94715L21.0068 9.44715C21.2348 9.65614 21.3111 9.98366 21.199 10.2719C21.0869 10.5602 20.8093 10.75 20.5 10.75Z" fill="#00B2CC" fill-opacity="0.42"/>
</svg>
