<svg width="201" height="201" viewBox="0 0 201 201" fill="none" xmlns="http://www.w3.org/2000/svg">
<g clip-path="url(#clip0_260_141)">
<mask id="mask0_260_141" style="mask-type:luminance" maskUnits="userSpaceOnUse" x="0" y="0" width="201" height="201">
<path d="M200.5 0.5H0.5V200.5H200.5V0.5Z" fill="white"/>
</mask>
<g mask="url(#mask0_260_141)">
<path d="M82.8679 11C120.906 11 151.79 41.8834 151.79 79.9219V168.127C151.79 169.165 150.946 170.009 149.908 170.009H15.8361C14.7978 170.009 13.9541 169.165 13.9541 168.127V79.9219C13.95 41.8834 44.8335 11 82.8679 11Z" fill="#CCE6F1"/>
<path d="M82.8681 152.938C126.524 152.938 161.91 161.343 161.91 171.71C161.91 182.078 126.52 190.477 82.8681 190.477C39.216 190.477 3.82617 182.073 3.82617 171.705C3.82617 161.338 39.216 152.938 82.8681 152.938Z" fill="#F9F5E8"/>
<path d="M52.0694 117.398L28.6533 106.43L28.8196 168.691L52.2519 179.7L52.0694 117.398Z" fill="#F49D4A"/>
<path d="M52.082 117.398L134.604 117.195L134.754 179.497L52.2362 179.7L52.082 117.398Z" fill="#F8BE59"/>
<path d="M111.16 106.18L28.6533 106.428L52.0694 117.396L134.592 117.193L111.16 106.18Z" fill="#F49D4A"/>
<path d="M56.1787 167.016H57.213L57.2374 175.55L56.199 175.554L56.1787 167.016Z" fill="#F49D4A"/>
<path d="M59.0059 167.008H60.0402L60.0605 175.542L59.0261 175.546L59.0059 167.008Z" fill="#F49D4A"/>
<path d="M61.707 167.004L62.7413 167L62.7657 175.538H61.7314L61.707 167.004Z" fill="#F49D4A"/>
<path d="M57.5938 167.008H58.109L58.1333 175.542L57.614 175.546L57.5938 167.008Z" fill="#F49D4A"/>
<path d="M58.3936 167.008H58.9127L58.933 175.546H58.4138L58.3936 167.008Z" fill="#F49D4A"/>
<path d="M60.9326 167H61.4518L61.472 175.534H60.9529L60.9326 167Z" fill="#F49D4A"/>
<path d="M60.3691 167.004L60.6043 167L60.6246 175.538H60.3893L60.3691 167.004Z" fill="#F49D4A"/>
<path d="M62.9561 167H63.7187L63.739 175.534L62.9764 175.538L62.9561 167Z" fill="#F49D4A"/>
<path d="M65.0371 166.996L65.8037 166.992L65.824 175.53H65.0574L65.0371 166.996Z" fill="#F49D4A"/>
<path d="M67.0283 166.992H67.7949L67.8152 175.526L67.0486 175.53L67.0283 166.992Z" fill="#F49D4A"/>
<path d="M63.999 166.992H64.3803L64.4005 175.53H64.0193L63.999 166.992Z" fill="#F49D4A"/>
<path d="M64.5869 166.992H64.9682L64.9885 175.526L64.6072 175.53L64.5869 166.992Z" fill="#F49D4A"/>
<path d="M66.4609 166.988L66.8422 166.984L66.8625 175.522H66.4812L66.4609 166.988Z" fill="#F49D4A"/>
<path d="M66.0469 166.992H66.2213L66.2416 175.53H66.0672L66.0469 166.992Z" fill="#F49D4A"/>
<path d="M38.79 168.487L30.625 164.633L30.6291 165.907L38.79 169.675V168.487Z" fill="#E77424"/>
<path d="M31.5861 164.384L33.1923 165.163L33.1842 160.23L34.3483 160.843L32.4663 156.75L30.6045 158.872L31.5739 159.387L31.5861 164.384Z" fill="#E77424"/>
<path d="M36.0237 166.513L37.63 167.276L37.6178 162.538L38.7819 163.135L36.9039 159.18L35.0381 161.2L36.0116 161.707L36.0237 166.513Z" fill="#E77424"/>
<path d="M45.2635 162.101L45.2595 160.901L44.4848 160.609L44.4888 161.813C42.4121 161.282 40.7937 162.811 40.8018 165.399C40.8018 165.038 41.1709 164.872 41.6252 165.034C42.0389 165.18 42.3796 165.537 42.4445 165.869C42.5054 165.577 42.8461 165.46 43.2598 165.606C43.6735 165.752 44.0143 166.109 44.0791 166.437C44.1197 166.247 44.282 166.133 44.5091 166.117L44.5213 170.388C44.5213 170.648 44.3469 170.798 44.1319 170.725C43.9169 170.656 43.7425 170.388 43.7425 170.128V169.666L42.9678 169.406V169.873C42.9718 170.643 43.4951 171.443 44.1359 171.653C44.7646 171.856 45.2757 171.426 45.296 170.692C45.296 170.684 45.296 170.676 45.296 170.664L45.2838 166.385C45.511 166.559 45.6732 166.786 45.7138 167.005C45.7746 166.721 46.1153 166.604 46.5291 166.746C46.9428 166.892 47.2835 167.244 47.3443 167.569C47.4052 167.285 47.7459 167.171 48.1596 167.317C48.6139 167.48 48.9871 167.889 48.9871 168.238C48.9709 165.748 47.3443 163.099 45.2635 162.101Z" fill="#E77424"/>
<path d="M134.592 117.195L52.0732 117.393L74.2278 147.445H157.055L134.592 117.195Z" fill="#FCE496"/>
<path d="M110.486 117.145C111.991 99.8663 102.13 78.6446 86.2055 75.7242C69.2103 72.605 51.2741 91.4214 48.013 109.191C47.5181 111.876 47.368 114.793 47.51 117.397L110.486 117.145Z" fill="#7D8CC6"/>
<path d="M106.641 117.343C103.814 111.165 99.3517 104.992 88.3474 104.992C77.3391 104.992 66.7646 112.654 66.7646 117.343H106.641Z" fill="#C0CFE7"/>
<path d="M110.636 110.983C110.531 109.831 110.429 108.772 110.235 107.661L101.859 108.367C100.062 108.533 98.7238 110.147 98.886 111.956C99.0482 113.761 100.65 115.104 102.451 114.937L110.673 114.171C110.657 113.12 110.734 112.045 110.636 110.983ZM104.483 106.655L109.995 106.042C109.732 104.193 109.286 101.694 108.487 99.6583L103.891 100.088C102.094 100.255 100.756 101.869 100.918 103.678C101.08 105.483 102.682 106.825 104.483 106.655ZM54.2442 107.004L49.1943 104.529C48.4317 106.703 47.9734 108.817 47.7178 111.153L51.3562 112.938C52.9746 113.733 54.954 113.047 55.7449 111.417C56.5399 109.782 55.8626 107.795 54.2442 107.004ZM62.904 96.7014C63.699 95.0708 63.0216 93.0873 61.3992 92.2923L56.8766 90.1953C55.4042 91.8137 54.1144 93.9513 53.2829 95.4845L58.5153 98.2224C60.1337 99.0174 62.109 98.336 62.904 96.7014ZM61.8656 105.162C61.0706 106.793 59.0953 107.478 57.4769 106.683L49.7905 102.81C50.1758 101.836 50.4598 100.997 50.9019 100.023C51.3765 98.9769 51.9443 97.8168 52.5162 96.8433L60.3649 100.753C61.9833 101.544 62.6606 103.528 61.8656 105.162Z" fill="#5560AB"/>
<path d="M60.7051 85.8209C60.7051 85.8209 65.8118 106.312 90.3311 103.006C113.37 99.8997 105.254 88.9076 105.254 88.9076L60.9241 85.8047L60.7051 85.8209Z" fill="#5560AB"/>
<path d="M97.7986 58.2491C98.3462 56.7605 99.8429 54.6716 101.688 52.7206C104.726 49.5081 108.706 46.6688 110.945 47.5085C114.344 48.7821 115.272 58.5168 114.145 62.9096C114.08 63.1651 114.007 63.4085 113.926 63.6235C112.482 67.562 107.7 69.5495 103.246 68.069C98.7964 66.5845 96.3587 62.1876 97.7986 58.2491Z" fill="#7D8CC6"/>
<path d="M97.7986 58.2472C98.3462 56.7586 99.8429 54.6697 101.688 52.7188C106.791 54.5683 111.354 58.4865 114.145 62.9036C114.08 63.1592 114.007 63.4025 113.926 63.6175C112.482 67.556 107.7 69.5435 103.246 68.0631C98.7964 66.5826 96.3587 62.1857 97.7986 58.2472Z" fill="#5560AB"/>
<path d="M73.4093 60.3887C72.5981 59.0258 70.7404 57.2492 68.5704 55.6714C64.9929 53.0714 60.5554 51.015 58.5111 52.2521C55.4041 54.1301 56.2884 63.8689 58.2029 67.9777C58.3165 68.217 58.43 68.4442 58.5477 68.6389C60.6934 72.2448 65.7595 73.3156 69.8643 71.036C73.9691 68.7606 75.555 63.9905 73.4093 60.3887Z" fill="#7D8CC6"/>
<path d="M73.4085 60.3892C72.5973 59.0263 70.7396 57.2497 68.5696 55.6719C63.8928 58.43 60.1328 63.1189 58.2061 67.9782C58.3197 68.2175 58.4333 68.4406 58.5509 68.6393C60.6966 72.2452 65.7627 73.3161 69.8675 71.0365C73.9683 68.761 75.5542 63.991 73.4085 60.3892Z" fill="#5560AB"/>
<path d="M101.968 58.03C102.345 57.0038 103.546 55.4584 104.913 54.197C106.422 52.8017 108.138 51.7552 109.172 52.1446C110.705 52.7165 111.318 56.4278 111.147 59.0643C111.099 59.8228 110.985 60.4921 110.807 60.9748C110.016 63.1326 107.395 64.2237 104.954 63.4085C102.512 62.5972 101.177 60.1879 101.968 58.03Z" fill="#F6A7BC"/>
<path d="M104.913 54.1953C107.221 55.4771 109.346 57.1563 111.147 59.0627C111.099 59.8212 110.985 60.4905 110.807 60.9732C110.016 63.131 107.395 64.2221 104.954 63.4068C102.512 62.5916 101.177 60.1822 101.968 58.0284C102.345 57.0022 103.542 55.4568 104.913 54.1953Z" fill="#EC92A9"/>
<path d="M69.2712 60.9411C68.7115 60.0041 67.2472 58.7021 65.6734 57.7164C63.9333 56.6253 62.0553 55.9115 61.1062 56.4834C59.7068 57.3311 59.7839 61.0871 60.441 63.6506C60.6276 64.3888 60.8669 65.0256 61.1305 65.4637C62.3068 67.439 65.0853 68.0271 67.3324 66.7779C69.5795 65.5286 70.4475 62.9164 69.2712 60.9411Z" fill="#F6A7BC"/>
<path d="M65.6699 57.7109C63.6337 59.3983 61.8571 61.4385 60.4375 63.645C60.6241 64.3832 60.8634 65.0201 61.127 65.4581C62.3033 67.4335 65.0818 68.0216 67.3289 66.7723C69.58 65.523 70.448 62.9109 69.2718 60.9355C68.7161 59.9986 67.2478 58.7006 65.6699 57.7109Z" fill="#EC92A9"/>
<path d="M85.176 53.9775C100.642 52.5578 114.149 61.9802 115.342 75.0248C116.538 88.0652 104.97 99.7875 89.5039 101.207C74.0379 102.627 60.5309 93.2044 59.3384 80.1598C58.1459 67.1153 69.714 55.3971 85.176 53.9775Z" fill="#E4EBF7"/>
<path d="M115.244 74.1328C115.224 73.9868 115.203 73.8367 115.179 73.6907C115.167 73.6095 115.151 73.5244 115.138 73.4432C115.114 73.3094 115.09 73.1715 115.065 73.0376C115.049 72.9524 115.033 72.8673 115.017 72.7861C114.992 72.6563 114.96 72.5225 114.932 72.3886C114.911 72.3075 114.895 72.2223 114.875 72.1412C114.842 72.0033 114.806 71.8694 114.769 71.7315C114.749 71.6585 114.733 71.5815 114.713 71.5085C114.668 71.3462 114.619 71.188 114.571 71.0298C114.554 70.9812 114.542 70.9365 114.53 70.8879C114.465 70.681 114.4 70.4741 114.327 70.2713C114.311 70.2267 114.295 70.1821 114.279 70.1334C114.222 69.9752 114.165 69.817 114.108 69.6629C114.08 69.594 114.051 69.525 114.027 69.456C113.974 69.3263 113.926 69.1924 113.869 69.0626C113.836 68.9855 113.808 68.9125 113.772 68.8395C113.719 68.7138 113.662 68.588 113.605 68.4663C113.573 68.3933 113.536 68.3163 113.504 68.2433C113.443 68.1175 113.386 67.9918 113.321 67.866C113.285 67.7971 113.252 67.7281 113.22 67.6592C113.151 67.5213 113.078 67.3834 113.005 67.2495C112.977 67.1968 112.948 67.144 112.92 67.0873C112.713 66.706 112.494 66.3328 112.263 65.9637C112.23 65.915 112.198 65.8664 112.165 65.8136C112.08 65.6798 111.995 65.55 111.906 65.4161C111.865 65.3553 111.825 65.2945 111.784 65.2336C111.703 65.116 111.618 64.9943 111.533 64.8767C111.488 64.8118 111.443 64.7509 111.399 64.6901C111.313 64.5725 111.224 64.4548 111.139 64.3413C111.094 64.2804 111.05 64.2236 111.005 64.1668C110.912 64.0452 110.815 63.9235 110.717 63.8018C110.677 63.7531 110.64 63.7044 110.6 63.6558C110.474 63.5057 110.348 63.3556 110.222 63.2055C110.21 63.1893 110.194 63.1731 110.182 63.1569C110.036 62.9865 109.882 62.8162 109.732 62.6539C109.715 62.6336 109.695 62.6133 109.675 62.5971C109.541 62.4552 109.411 62.3132 109.273 62.1753C109.233 62.1307 109.188 62.0901 109.148 62.0455C109.139 62.0374 109.131 62.0293 109.119 62.0171C109.107 62.0049 109.099 61.9968 109.091 61.9887C108.993 61.8914 108.9 61.7981 108.803 61.7048C108.754 61.6561 108.701 61.6074 108.649 61.5587C108.535 61.4533 108.426 61.3438 108.308 61.2383C108.255 61.1896 108.206 61.141 108.15 61.0963C108.032 60.9909 107.91 60.8814 107.789 60.7759C107.74 60.7313 107.691 60.6907 107.643 60.6502C107.558 60.5772 107.472 60.5042 107.387 60.4352C107.379 60.4271 107.367 60.419 107.359 60.4109C107.314 60.3744 107.27 60.3338 107.221 60.2973C107.188 60.273 107.16 60.2446 107.128 60.2202C107.014 60.1269 106.9 60.0377 106.783 59.9485C106.771 59.9403 106.763 59.9322 106.75 59.9241C106.515 59.7416 106.276 59.5591 106.032 59.3806C105.996 59.3563 105.963 59.3319 105.927 59.3076C105.777 59.1981 105.627 59.0926 105.473 58.9872C105.42 58.9507 105.367 58.9182 105.319 58.8817C105.181 58.7884 105.039 58.6951 104.901 58.6018C104.844 58.5653 104.787 58.5288 104.726 58.4883C104.588 58.399 104.446 58.3098 104.304 58.2246C104.252 58.1922 104.199 58.1597 104.146 58.1273C104.142 58.1232 104.138 58.1191 104.134 58.1191C103.984 58.0299 103.83 57.9366 103.676 57.8474C103.631 57.819 103.587 57.7947 103.542 57.7703C103.343 57.6567 103.14 57.5432 102.938 57.4337C102.938 57.4337 102.938 57.4337 102.934 57.4337C102.877 57.4012 102.816 57.3728 102.759 57.3404C102.731 57.3241 102.702 57.312 102.674 57.2958C102.487 57.1903 102.297 57.1011 102.106 57.0037C102.057 56.9794 102.013 56.955 101.964 56.9348C101.741 56.8252 101.518 56.7198 101.295 56.6184C101.287 56.6143 101.275 56.6103 101.266 56.6021C100.788 56.3831 100.301 56.1763 99.8057 55.9816C99.7692 55.9694 99.7287 55.9532 99.6922 55.9369C99.4812 55.8558 99.2703 55.7788 99.0594 55.7017C99.0107 55.6855 98.9661 55.6652 98.9174 55.649C98.4185 55.4705 97.9156 55.3042 97.4045 55.1501C97.368 55.1379 97.3315 55.1298 97.295 55.1176C97.08 55.0568 96.865 54.9919 96.6501 54.9351C96.577 54.9148 96.504 54.8945 96.431 54.8783C96.2242 54.8215 96.0173 54.7728 95.8104 54.7201C95.7699 54.7079 95.7253 54.6998 95.6806 54.6877C95.2953 54.5984 94.91 54.5132 94.5165 54.4362H94.5125C94.3786 54.4118 94.2488 54.3834 94.115 54.3591C94.0501 54.3469 93.9852 54.3348 93.9203 54.3267C93.8838 54.3185 93.8513 54.3145 93.8148 54.3064C93.8067 54.3064 93.8026 54.3064 93.7986 54.3023C93.6404 54.278 93.4822 54.2496 93.324 54.2253C93.247 54.2131 93.1739 54.2009 93.0969 54.1928C93.0807 54.1887 93.0644 54.1887 93.0523 54.1847C92.9346 54.1563 92.817 54.132 92.6953 54.1279C92.5574 54.1198 92.4276 54.0995 92.2938 54.0833C92.0829 54.0549 91.876 54.0346 91.661 54.0103C91.6488 54.0103 91.6367 54.0062 91.6204 54.0062C91.5758 54.0022 91.5312 53.9981 91.4825 53.9941C91.4379 53.99 91.3974 53.9859 91.3568 53.9819C91.1297 53.9616 90.9066 53.9413 90.6754 53.9251C90.5902 53.921 90.5091 53.9129 90.4239 53.9089C90.2292 53.8967 90.0386 53.8845 89.8439 53.8764C89.7587 53.8724 89.6735 53.8683 89.5843 53.8643C89.3612 53.8561 89.134 53.848 88.9069 53.844C88.8582 53.844 88.8095 53.8399 88.7609 53.8399C88.5459 53.8359 88.3309 53.8359 88.1159 53.8359C88.0551 53.8359 87.9983 53.8359 87.9375 53.8359C87.8645 53.8359 87.7915 53.8399 87.7184 53.8399C87.5156 53.844 87.3088 53.848 87.106 53.8521C87.0127 53.8561 86.9194 53.8602 86.8261 53.8643C86.7734 53.8643 86.7166 53.8683 86.6638 53.8724C86.6557 53.8724 86.6436 53.8724 86.6355 53.8724C86.5016 53.8764 86.3718 53.8886 86.238 53.8967C86.1528 53.9008 86.0676 53.9048 85.9784 53.9129C85.9743 53.9129 85.9703 53.9129 85.9662 53.9129C85.9419 53.9129 85.9094 53.917 85.8851 53.917C85.6376 53.9332 85.3902 53.9535 85.1428 53.9778C84.9075 53.9981 84.6763 54.0224 84.4451 54.0508C84.2423 54.0752 84.0395 54.0995 83.8367 54.1279C83.8124 54.132 83.788 54.136 83.7637 54.136C83.7475 54.1401 83.7475 54.1401 83.7637 54.136C82.048 54.3672 80.3809 54.7242 78.7828 55.1947C78.7706 55.1987 78.7584 55.1987 78.7463 55.2068C78.5232 55.2717 78.3001 55.3407 78.0811 55.4137C78.0689 55.4178 78.0527 55.4218 78.0405 55.4259C77.8215 55.4948 77.6024 55.5719 77.3834 55.6449C77.3753 55.649 77.3631 55.653 77.355 55.6571C77.1319 55.7341 76.9129 55.8112 76.6939 55.8923C76.6857 55.8923 76.6817 55.8964 76.6776 55.9004C76.4545 55.9856 76.2315 56.0667 76.0124 56.156C76.0124 56.156 76.0084 56.156 76.0043 56.16C75.7812 56.2493 75.5622 56.3385 75.3432 56.4318C72.8405 57.4945 70.5448 58.8574 68.5248 60.4514C68.395 60.5569 68.2652 60.6583 68.1354 60.7637C67.7582 61.0761 67.3891 61.3924 67.0281 61.7169C66.9348 61.8021 66.8456 61.8832 66.7523 61.9684C65.8761 62.7878 65.0649 63.6558 64.3267 64.5643C64.1969 64.7225 64.0712 64.8848 63.9454 65.043C60.5748 69.4033 58.8104 74.6682 59.3214 80.1724C59.3417 80.4036 59.3701 80.6307 59.3985 80.8619C59.4066 80.9309 59.4188 80.9958 59.4269 81.0647C59.4472 81.227 59.4715 81.3933 59.4999 81.5515C59.5121 81.6245 59.5242 81.6975 59.5364 81.7705C59.5648 81.9368 59.5972 82.099 59.6297 82.2653C59.6419 82.3262 59.654 82.387 59.6662 82.4479C59.7108 82.6628 59.7554 82.8737 59.8082 83.0847C59.8082 83.0928 59.8122 83.1009 59.8163 83.109C59.9298 83.5714 60.0596 84.0297 60.2016 84.48C60.2097 84.5043 60.2178 84.5287 60.2259 84.5489C60.2868 84.7315 60.3882 85.0316 60.4531 85.2141C60.4571 85.2223 60.4612 85.2304 60.4612 85.2425C60.5383 85.4575 60.6194 85.6725 60.7046 85.8834C60.7898 86.0984 60.883 86.3093 60.9763 86.5202C62.7083 86.8893 71.1856 88.0088 75.1241 83.8026C79.0626 79.5964 87.2601 77.7184 87.2601 77.7184C87.2601 77.7184 93.8027 78.5458 99.6962 82.2572C101.425 83.3443 103.363 83.973 105.343 84.1312C113.025 84.7436 113.301 82.0625 114.867 81.5474C115.366 79.4382 115.532 77.2438 115.325 75.013C115.305 74.7899 115.28 74.5708 115.252 74.3518C115.244 74.2829 115.232 74.2098 115.224 74.1409L115.244 74.1328Z" fill="#7D8CC6"/>
<path d="M87.6055 81.5782C87.4108 81.5945 85.4111 84.5108 85.257 84.4581C85.2286 84.6203 85.2205 84.8069 85.2408 85.03C85.3787 86.6687 86.6685 87.8977 88.1247 87.776C89.5808 87.6543 90.6516 86.2306 90.5137 84.5919C90.4935 84.3567 90.4488 84.1661 90.3921 84.0038C90.2298 84.1012 87.7799 81.562 87.6055 81.5782Z" fill="#F6A7BC"/>
<path d="M86.0685 84.9598C85.2451 85.4952 84.2027 85.8156 82.9453 85.9211C79.9113 86.1726 77.2342 83.9093 76.9868 80.8753C76.9422 80.352 77.3356 79.8896 77.8589 79.845C78.3821 79.8004 78.8445 80.1938 78.8891 80.7171C79.0554 82.7046 80.8077 84.1851 82.7911 84.0228C85.168 83.8241 85.8414 82.7411 86.1375 81.942C86.5755 80.7658 86.4498 79.2772 86.3524 78.0806C86.3078 77.5573 86.7013 77.0949 87.2245 77.0503C87.7477 77.0057 88.2101 77.3992 88.2548 77.9224C88.3643 79.2366 88.5143 81.0294 87.9262 82.6072C87.5449 83.6213 86.9243 84.4082 86.0685 84.9598Z" fill="#5560AB"/>
<path d="M95.6531 84.214C94.8986 84.7048 94.0266 85.005 93.1058 85.082C90.5423 85.297 88.709 84.4696 87.6503 82.6321C86.8107 81.1719 86.6647 79.3791 86.5552 78.0649C86.5105 77.5417 86.904 77.0793 87.4272 77.0347C87.9505 76.9901 88.4129 77.3835 88.4575 77.9067C88.5548 79.1033 88.6806 80.5919 89.3052 81.6789C89.7311 82.4172 90.5707 83.3744 92.9476 83.1797C93.9089 83.0986 94.7851 82.6484 95.4057 81.9142C96.0303 81.176 96.3305 80.239 96.2493 79.2777C96.2047 78.7545 96.5982 78.2921 97.1214 78.2475C97.6446 78.2028 98.107 78.5963 98.1517 79.1195C98.2733 80.5878 97.815 82.0197 96.8618 83.1432C96.5089 83.565 96.0992 83.926 95.6531 84.214Z" fill="#5560AB"/>
<path d="M88.3443 76.6157L86.6083 76.7617C85.8701 76.8226 85.2454 77.3174 85.0183 78.0191C84.7871 78.7208 84.998 79.4874 85.5537 79.9742L86.4947 80.8016C86.872 81.1342 87.3546 81.2924 87.8576 81.2519C88.1659 81.2275 88.4538 81.1261 88.7053 80.9639C88.8635 80.8625 89.0055 80.7327 89.1272 80.5826L89.9181 79.6132C90.3846 79.0413 90.4657 78.2503 90.1209 77.5973C89.7761 76.9361 89.0785 76.5549 88.3443 76.6157Z" fill="#5560AB"/>
<path d="M92.0383 91.8458C91.1135 92.4461 89.917 92.8315 88.6352 92.9369C87.2602 93.0505 85.9298 92.8315 84.8833 92.3204C83.6948 91.7363 82.9607 90.8034 82.8755 89.7488C82.8309 89.2255 83.2243 88.7631 83.7476 88.7185C84.2708 88.6739 84.7332 89.0674 84.7778 89.5906C84.8062 89.9557 85.1551 90.3248 85.727 90.6046C86.4571 90.9616 87.463 91.1198 88.4851 91.0346C89.5073 90.9494 90.4727 90.629 91.1338 90.1544C91.653 89.7853 91.9329 89.3594 91.9004 88.9984C91.8558 88.4752 92.2492 88.0128 92.7725 87.9722C93.2957 87.9276 93.7581 88.321 93.8027 88.8443C93.892 89.8948 93.3241 90.9413 92.2452 91.712C92.1722 91.7566 92.1032 91.8012 92.0383 91.8458Z" fill="#C0CFE7"/>
<path d="M106.519 72.4449C106.146 71.5606 105.116 71.1469 104.236 71.5201L100.853 72.9559C99.9689 73.3291 99.5552 74.3594 99.9283 75.2395C100.301 76.1238 101.331 76.5375 102.212 76.1643L105.594 74.7285C106.479 74.3553 106.896 73.3291 106.519 72.4449Z" fill="#F6A7BC"/>
<path d="M72.9955 75.2304L69.4058 74.4395C68.4689 74.2326 67.536 74.8289 67.3291 75.7658C67.1222 76.7028 67.7185 77.6357 68.6555 77.8426L72.2451 78.6335C73.1821 78.8404 74.115 78.2441 74.3219 77.3072C74.5287 76.3702 73.9325 75.4373 72.9955 75.2304Z" fill="#F6A7BC"/>
<path d="M59.9879 81.2499C59.9879 81.2499 58.045 63.8288 75.4012 57.6797C75.3971 57.6797 63.2368 64.4048 59.9879 81.2499Z" fill="#98A4D3"/>
<path d="M89.532 53.8565L89.966 58.7806C90.1161 60.4193 91.4708 61.6443 92.9716 61.5064C94.4724 61.3685 95.5797 59.9164 95.4256 58.2777L95.0808 54.5542C93.3488 54.1526 91.4465 53.9214 89.532 53.8565ZM79.4241 62.7557C80.9249 62.6178 82.0322 61.1657 81.8781 59.527L81.3102 54.5542C79.4403 54.9719 77.6435 55.4587 75.9561 56.1766L76.4185 60.0299C76.5686 61.6646 77.9233 62.8936 79.4241 62.7557ZM86.5345 64.6296C85.0337 64.7675 83.679 63.5426 83.5289 61.9039L82.8231 54.2702C83.679 54.1201 84.6322 54.0228 85.5164 53.9417C86.4737 53.8524 87.2727 53.8322 88.2137 53.8281L88.9925 61.3969C89.1426 63.0355 88.0393 64.4876 86.5345 64.6296Z" fill="#5560AB"/>
<path d="M46.8176 97.5071C46.416 99.3283 45.694 101.166 44.6557 103.007C44.6557 103.007 44.6515 103.015 44.6475 103.015C44.3189 103.616 43.9459 104.208 43.5443 104.808C42.1936 106.816 41.1552 109.197 40.563 111.172C40.4373 111.586 40.3278 111.98 40.2426 112.345C39.8694 112.162 39.5003 111.927 39.119 111.761C38.1131 111.314 36.8719 111.071 35.9106 110.523C35.0021 110.008 34.061 109.773 33.189 109.209L33.1848 109.205L33.1564 109.185C32.8157 108.962 32.3534 108.597 32.0086 108.39C32.3818 107.287 32.9171 106.005 33.558 104.703C34.3611 103.056 35.3184 101.361 36.2879 99.9164C36.3974 99.7542 36.5028 99.5919 36.6002 99.4337C37.9793 97.2596 38.5025 95.4668 38.4498 93.8565C38.4133 92.6235 38.0401 91.4918 37.456 90.3764C36.7868 89.1027 35.8417 87.8413 34.8074 86.4541C34.637 86.2269 34.4666 85.9957 34.2921 85.7645C32.5764 83.4525 30.9581 81.027 30.9338 78.0498C30.9135 75.6323 32.8564 73.657 35.2738 73.6408C37.671 73.6205 39.6342 75.539 39.6829 77.9321C39.8126 78.5527 41.0092 80.1509 41.8083 81.2136C42.0597 81.5502 42.3192 81.895 42.5869 82.256C43.6456 83.7 44.7692 85.3427 45.6413 87.241C46.1118 88.251 46.5053 89.338 46.7811 90.5021C46.846 90.782 46.9068 91.0578 46.9555 91.3417C47.3246 93.3698 47.2759 95.4303 46.8135 97.5071H46.8176Z" fill="#7D8CC6"/>
<path d="M31.0428 76.975C30.7183 79.2181 32.2758 81.2989 34.5229 81.6234C36.766 81.9479 38.8468 80.3903 39.1713 78.1432C39.4957 75.9002 37.9382 73.8194 35.6911 73.4949C33.444 73.1744 31.3632 74.732 31.0428 76.975Z" fill="#E4EBF7"/>
<path d="M75.4811 63.4674C72.9744 64.0596 71.3601 66.1282 71.2303 68.6349C71.1978 69.1419 70.9017 69.5029 70.4839 69.4299C70.0661 69.3609 69.6727 68.7728 69.7173 68.14C69.8998 65.1304 71.8103 62.6886 74.755 61.9625C75.3675 61.8084 76.0408 62.1126 76.1828 62.5385C76.3248 62.9644 75.9841 63.3416 75.4811 63.4674Z" fill="#5560AB"/>
<path d="M96.5248 61.5711C98.9504 61.567 100.776 63.1773 101.295 65.5461C101.405 66.0247 101.737 66.3005 102.114 66.1383C102.492 65.976 102.763 65.323 102.625 64.7308C101.981 61.8915 99.8184 59.9932 96.9669 59.9689C96.3707 59.9608 95.7947 60.4029 95.7298 60.845C95.6568 61.279 96.034 61.567 96.5248 61.5711Z" fill="#5560AB"/>
<path d="M82.2234 69.4474C82.4911 71.7756 80.82 73.8807 78.4918 74.1444C76.1636 74.4121 74.0584 72.7409 73.7948 70.4127C73.5271 68.0845 75.1982 65.9794 77.5264 65.7157C79.8546 65.448 81.9598 67.1191 82.2234 69.4474Z" fill="white"/>
<path d="M99.5749 67.6582C99.8426 69.9864 98.1715 72.0916 95.8433 72.3552C93.5151 72.6229 91.4099 70.9518 91.1463 68.6236C90.8786 66.2953 92.5497 64.1902 94.8779 63.9266C97.2061 63.6588 99.3113 65.33 99.5749 67.6582Z" fill="white"/>
<path d="M93.4949 67.7889C93.6856 66.2232 95.1093 65.1119 96.6749 65.3025C98.2406 65.4931 99.352 66.9168 99.1613 68.4825C98.9707 70.0482 97.547 71.1596 95.9813 70.9689C94.4157 70.7742 93.3043 69.3505 93.4949 67.7889Z" fill="#5560AB"/>
<path d="M78.9053 67.0781C80.4831 67.0781 81.7608 68.3558 81.7608 69.9336C81.7608 71.5114 80.4831 72.7891 78.9053 72.7891C77.3274 72.7891 76.0498 71.5114 76.0498 69.9336C76.0498 68.3558 77.3274 67.0781 78.9053 67.0781Z" fill="#5560AB"/>
<path d="M46.8169 97.5053C44.083 100.13 38.4977 99.6794 36.6035 99.432C37.9826 97.2579 38.5058 95.4651 38.4531 93.8548C40.3757 93.9684 45.308 93.9846 46.9548 91.3359C47.3239 93.364 47.2752 95.4245 46.8169 97.5053Z" fill="#5560AB"/>
<path d="M44.6505 103.008C44.3219 103.609 43.9488 104.201 43.5472 104.801C42.1965 106.809 41.1581 109.19 40.5659 111.165C39.4546 110.922 36.2178 110.172 33.1959 109.202L33.1919 109.198L33.1635 109.178C32.8228 108.955 32.3604 108.59 32.0156 108.383C32.3888 107.28 32.9242 105.998 33.5651 104.696C35.2767 105.341 40.5294 106.85 44.6505 103.008Z" fill="#5560AB"/>
<path d="M42.5858 82.25C40.5496 86.3102 36.1203 86.0628 34.291 85.7586C34.4614 85.9898 34.6317 86.221 34.8061 86.4481C35.8404 87.8353 36.7855 89.0927 37.4548 90.3704C39.1949 90.6138 43.9649 90.9139 45.6401 87.231C45.6401 87.231 45.2426 86.1358 44.4719 84.85C43.7256 83.6007 42.5858 82.25 42.5858 82.25Z" fill="#5560AB"/>
<mask id="mask1_260_141" style="mask-type:luminance" maskUnits="userSpaceOnUse" x="0" y="11" width="201" height="180">
<path d="M200.5 11H0.503906V190.48H200.5V11Z" fill="white"/>
</mask>
<g mask="url(#mask1_260_141)">
<path d="M52.0693 117.401C52.0693 117.401 56.3607 110.172 65.5722 110.172C73.5993 110.172 77.4445 113.701 79.5456 117.401H52.0693Z" fill="#5560AB"/>
</g>
<mask id="mask2_260_141" style="mask-type:luminance" maskUnits="userSpaceOnUse" x="0" y="11" width="201" height="180">
<path d="M200.5 11H0.503906V190.48H200.5V11Z" fill="white"/>
</mask>
<g mask="url(#mask2_260_141)">
<path d="M28.6536 106.43L0.5 135.309L22.2977 147.855L52.0738 117.393L28.6536 106.43Z" fill="#FCE496"/>
</g>
<path d="M64.2823 117.395C64.2823 117.395 63.7591 122.363 65.8115 124.679C66.4077 125.353 67.2879 126.018 68.9104 126.006C69.8108 125.998 70.906 124.988 72.0255 124.894C72.9584 124.817 74.2401 125.324 75.4002 124.947C76.901 124.456 77.12 123.458 78.3409 122.976C79.4442 122.542 80.9611 123.377 82.0725 122.761C85.1309 121.073 84.778 118.149 84.2101 117.33C83.5936 116.441 66.6592 115.285 64.2823 117.395Z" fill="#E6C76B"/>
<path d="M73.6851 110.823C79.2217 110.409 83.4887 113.102 84.2351 117.495C84.5961 119.6 83.4076 121.701 81.704 122.038C80.4913 122.277 79.2704 121.656 78.4632 120.541C78.1793 120.598 77.8872 120.651 77.5911 120.699C77.2747 122.05 76.3824 123.096 75.1655 123.34C73.7297 123.624 72.2816 122.703 71.5231 121.174C71.4055 121.174 71.2879 121.174 71.1703 121.17C71.0729 122.906 70.0792 124.346 68.623 124.638C66.818 124.995 64.9887 123.445 64.5385 121.178C64.5385 121.178 64.2667 119.714 64.1978 118.821C63.9057 114.818 68.1525 111.24 73.6851 110.823Z" fill="white"/>
<path d="M96.2447 117.341C96.2447 117.341 95.685 119.588 97.5143 121.624C98.7027 122.946 99.9439 121.928 101.575 122.326C102.897 122.65 103.339 123.96 104.248 124.2C106.179 124.715 106.775 123.964 108.081 124.078C109.785 124.228 111.208 125.177 112.048 124.954C114.96 124.183 118.002 120.346 115.812 117.235C113.622 114.124 96.5368 117.264 96.5368 117.264L96.2447 117.341Z" fill="#E6C76B"/>
<path d="M109.136 110.575C114.303 112.603 116.98 116.878 115.751 121.162C115.163 123.214 113.18 124.593 111.5 124.159C110.304 123.851 109.476 122.76 109.229 121.405C108.945 121.332 108.661 121.251 108.373 121.17C107.501 122.249 106.244 122.804 105.043 122.496C103.627 122.131 102.723 120.671 102.699 118.967C102.593 118.915 102.488 118.866 102.382 118.813C101.543 120.334 100.022 121.202 98.5862 120.833C96.8015 120.375 95.828 118.184 96.404 115.941C96.404 115.941 96.7934 114.502 97.1178 113.67C98.5902 109.93 103.968 108.547 109.136 110.575Z" fill="white"/>
<path d="M134.9 81.1545C134.397 81.1545 133.898 81.0774 133.408 80.9274C131.063 80.2013 129.672 77.9461 130.305 75.8977C130.791 74.328 132.361 73.2734 134.215 73.2734C134.718 73.2734 135.217 73.3505 135.707 73.5006C136.819 73.8453 137.756 74.543 138.348 75.4678C138.96 76.4291 139.127 77.5202 138.81 78.5342C138.324 80.0999 136.754 81.1545 134.9 81.1545Z" fill="#F9F5E8"/>
<path d="M145.929 74.4316C145.341 74.4316 144.74 74.3748 144.152 74.2693C139.873 73.4865 136.9 70.0794 137.524 66.6722C137.67 65.8731 138.007 65.1187 138.514 64.4535C133.192 59.9877 130.276 54.3375 130.276 48.4642C130.276 41.7797 133.963 35.517 140.66 30.8281C147.275 26.196 156.057 23.6406 165.39 23.6406C174.719 23.6406 183.505 26.192 190.12 30.8281C196.817 35.5211 200.504 41.7837 200.504 48.4642C200.504 55.1447 196.813 61.4114 190.12 66.1003C183.505 70.7324 174.723 73.2878 165.39 73.2878C160.835 73.2878 156.41 72.6834 152.228 71.4868C150.987 73.3162 148.638 74.4316 145.929 74.4316Z" fill="#F9F5E8"/>
<path d="M126.613 84.0686C126.094 84.0686 125.571 83.9307 125.104 83.6751C123.705 82.9045 123.125 81.2617 123.811 80.0043C124.249 79.2053 125.1 78.7266 126.09 78.7266C126.609 78.7266 127.132 78.8646 127.599 79.1201C128.998 79.8867 129.578 81.5335 128.889 82.7909C128.455 83.59 127.603 84.0686 126.613 84.0686Z" fill="#F9F5E8"/>
<path d="M178.297 48.3224C178.102 48.3224 177.911 48.2494 177.761 48.0993L172.099 42.4369C170.241 40.5833 170.241 37.5615 172.099 35.7078C172.999 34.8074 174.192 34.3125 175.465 34.3125C176.504 34.3125 177.489 34.6411 178.309 35.2535C179.112 34.6816 180.069 34.3693 181.071 34.3693C182.345 34.3693 183.537 34.8641 184.438 35.7646C186.267 37.5939 186.291 40.5833 184.494 42.4369C184.486 42.4451 184.478 42.4572 184.466 42.4653L178.832 48.0993C178.686 48.2494 178.491 48.3224 178.297 48.3224Z" fill="#EF4F88"/>
<path d="M159.732 36.1379C159.549 36.1379 159.379 36.1865 159.221 36.2798C158.986 36.4177 158.823 36.6327 158.754 36.9004C158.685 37.1681 158.726 37.4319 158.864 37.6671C159.046 37.9754 159.375 38.162 159.74 38.162C159.923 38.162 160.093 38.1132 160.251 38.0199C160.734 37.7117 160.88 37.0951 160.604 36.6327C160.421 36.3245 160.093 36.1379 159.732 36.1379ZM150.618 50.8617C149.94 50.8617 149.19 50.5494 148.184 49.8477C147.949 49.6814 147.726 49.5151 147.539 49.3691C147.158 49.4705 146.695 49.5759 146.233 49.6408C145.945 49.6813 145.694 49.6975 145.454 49.6975C144.68 49.6975 144.108 49.4866 143.706 49.0526C143.309 48.6227 143.163 48.0264 143.296 47.4099C143.475 46.6027 144.128 45.7632 145.353 44.7694C145.986 44.2543 146.675 43.7796 147.211 43.4308C147.328 42.5141 147.677 40.0156 149.06 37.6266C150.877 34.4912 153.851 32.6942 157.655 32.4265C157.842 32.4143 158.028 32.4062 158.211 32.4062C160.308 32.4062 162.316 33.2742 163.711 34.7872C164.587 35.7363 165.074 36.8072 165.005 37.6509C164.863 39.4316 162.048 42.3884 159.302 42.3884C159.099 42.3884 158.896 42.3723 158.702 42.3398C158.069 42.2343 157.444 42.1816 156.848 42.1816C153.392 42.1816 151.457 43.9258 150.772 44.6924C151.141 45.2927 151.453 45.8523 151.705 46.3674C152.346 47.6776 152.565 48.647 152.394 49.4177C152.224 50.1964 151.644 50.7441 150.885 50.8496C150.8 50.8577 150.707 50.8658 150.618 50.8617Z" fill="#03B79E"/>
<path d="M161.208 67.3797C160.462 67.3797 159.845 66.7713 159.833 66.025L159.699 58.5901C159.699 58.5901 158.56 58.6266 158.547 58.6266C158.353 58.6266 158.166 58.5495 158.024 58.4157C157.679 58.0831 157.489 57.6369 157.477 57.1623C157.468 56.6837 157.647 56.2335 157.975 55.8887L159.999 53.7917V50.8185C159.999 50.2831 160.434 49.8491 160.969 49.8491H162.672C162.985 49.8491 163.265 49.9992 163.439 50.2263L164.838 48.7742C165.179 48.4213 165.633 48.2266 166.124 48.2266C166.615 48.2266 167.029 48.4051 167.365 48.7255L174.48 55.5885C174.825 55.9211 175.015 56.3673 175.027 56.8419C175.036 57.3205 174.857 57.7707 174.529 58.1155C174.387 58.2615 174.192 58.3467 173.985 58.3467L172.857 58.3508L172.991 65.7857C172.999 66.1548 172.862 66.5036 172.606 66.7672C172.35 67.0309 172.006 67.181 171.641 67.1891C171.641 67.1931 161.216 67.3797 161.208 67.3797Z" fill="#F49D4A"/>
</g>
</g>
<defs>
<clipPath id="clip0_260_141">
<rect width="200" height="200" fill="white" transform="translate(0.5 0.5)"/>
</clipPath>
</defs>
</svg>
