<svg width="25" height="25" viewBox="0 0 25 25" fill="none" xmlns="http://www.w3.org/2000/svg">
<path fill-rule="evenodd" clip-rule="evenodd" d="M2.5 12.5C2.5 7.78595 2.5 5.42893 3.96447 3.96447C5.42893 2.5 7.78595 2.5 12.5 2.5C17.214 2.5 19.5711 2.5 21.0355 3.96447C22.5 5.42893 22.5 7.78595 22.5 12.5C22.5 17.214 22.5 19.5711 21.0355 21.0355C19.5711 22.5 17.214 22.5 12.5 22.5C7.78595 22.5 5.42893 22.5 3.96447 21.0355C2.5 19.5711 2.5 17.214 2.5 12.5ZM12.5 6.75C12.9142 6.75 13.25 7.08579 13.25 7.5V12.6893L14.9697 10.9697C15.2626 10.6768 15.7374 10.6768 16.0303 10.9697C16.3232 11.2626 16.3232 11.7374 16.0303 12.0303L13.0303 15.0303C12.8897 15.171 12.6989 15.25 12.5 15.25C12.3011 15.25 12.1103 15.171 11.9697 15.0303L8.96967 12.0303C8.67678 11.7374 8.67678 11.2626 8.96967 10.9697C9.26256 10.6768 9.73744 10.6768 10.0303 10.9697L11.75 12.6893V7.5C11.75 7.08579 12.0858 6.75 12.5 6.75ZM8.5 16.75C8.08579 16.75 7.75 17.0858 7.75 17.5C7.75 17.9142 8.08579 18.25 8.5 18.25H16.5C16.9142 18.25 17.25 17.9142 17.25 17.5C17.25 17.0858 16.9142 16.75 16.5 16.75H8.5Z" fill="#1C274C"/>
</svg>
