<svg width="25" height="25" viewBox="0 0 25 25" fill="none" xmlns="http://www.w3.org/2000/svg">
<path fill-rule="evenodd" clip-rule="evenodd" d="M12.5 22.5C7.78595 22.5 5.42893 22.5 3.96447 21.0355C2.5 19.5711 2.5 17.214 2.5 12.5C2.5 7.78595 2.5 5.42893 3.96447 3.96447C5.42893 2.5 7.78595 2.5 12.5 2.5C17.214 2.5 19.5711 2.5 21.0355 3.96447C22.5 5.42893 22.5 7.78595 22.5 12.5C22.5 17.214 22.5 19.5711 21.0355 21.0355C19.5711 22.5 17.214 22.5 12.5 22.5ZM12.5 18.25C12.9142 18.25 13.25 17.9142 13.25 17.5V11.5C13.25 11.0858 12.9142 10.75 12.5 10.75C12.0858 10.75 11.75 11.0858 11.75 11.5V17.5C11.75 17.9142 12.0858 18.25 12.5 18.25ZM12.5 7.5C13.0523 7.5 13.5 7.94772 13.5 8.5C13.5 9.05228 13.0523 9.5 12.5 9.5C11.9477 9.5 11.5 9.05228 11.5 8.5C11.5 7.94772 11.9477 7.5 12.5 7.5Z" fill="#1C274C"/>
</svg>
