<svg width="25" height="25" viewBox="0 0 25 25" fill="none" xmlns="http://www.w3.org/2000/svg">
<path fill-rule="evenodd" clip-rule="evenodd" d="M20.9107 10.3628C20.8561 10.3593 20.7966 10.3594 20.735 10.3594H20.7196H18.3017C16.3088 10.3594 14.6035 11.9404 14.6035 14.0022C14.6035 16.064 16.3088 17.6451 18.3017 17.6451H20.7196H20.735C20.7966 17.6451 20.8561 17.6451 20.9107 17.6416C21.7202 17.5901 22.4361 16.9517 22.4963 16.0599C22.5003 16.0014 22.5002 15.9384 22.5002 15.88V15.8641V12.1403V12.1244C22.5002 12.066 22.5003 12.003 22.4963 11.9445C22.4361 11.0528 21.7202 10.4143 20.9107 10.3628ZM18.0874 14.9736C18.6004 14.9736 19.0164 14.5387 19.0164 14.0022C19.0164 13.4657 18.6004 13.0308 18.0874 13.0308C17.5743 13.0308 17.1583 13.4657 17.1583 14.0022C17.1583 14.5387 17.5743 14.9736 18.0874 14.9736Z" fill="#1C274C"/>
<path fill-rule="evenodd" clip-rule="evenodd" d="M20.7341 19.1C20.8778 19.0963 20.9866 19.2304 20.9476 19.3699C20.7541 20.062 20.447 20.6518 19.9542 21.1485C19.2329 21.8755 18.3183 22.1981 17.1882 22.3512C16.0902 22.5 14.6872 22.5 12.9158 22.5H10.8794C9.10803 22.5 7.70501 22.5 6.60697 22.3512C5.47692 22.1981 4.56227 21.8755 3.84096 21.1485C3.11964 20.4215 2.79953 19.4997 2.6476 18.3608C2.49997 17.2541 2.49999 15.8401 2.5 14.0548V13.9452C2.49998 12.1599 2.49997 10.7459 2.6476 9.63924C2.79953 8.50031 3.11964 7.57848 3.84096 6.85149C4.56227 6.12451 5.47692 5.80188 6.60697 5.64876C7.705 5.49997 9.10802 5.49999 10.8794 5.5H12.9158C14.6872 5.49998 16.0902 5.49997 17.1882 5.64876C18.3183 5.80188 19.2329 6.12451 19.9542 6.85149C20.447 7.34817 20.7541 7.93804 20.9476 8.63012C20.9866 8.76959 20.8778 8.90376 20.7341 8.9L18.3015 8.90001C15.5673 8.90001 13.1575 11.0769 13.1575 14C13.1575 16.9231 15.5673 19.1 18.3015 19.1H20.7341ZM6.11446 9.38572C5.71522 9.38572 5.39157 9.71191 5.39157 10.1143C5.39157 10.5167 5.71522 10.8429 6.11446 10.8429H9.96988C10.3691 10.8429 10.6928 10.5167 10.6928 10.1143C10.6928 9.71191 10.3691 9.38572 9.96988 9.38572H6.11446Z" fill="#1C274C"/>
<path d="M8.27637 4.52439L10.2352 3.08126C11.2871 2.30625 12.7123 2.30625 13.7642 3.08126L15.7333 4.53197C14.91 4.49995 13.9906 4.49998 12.9826 4.5H10.812C9.89092 4.49998 9.04379 4.49996 8.27637 4.52439Z" fill="#1C274C"/>
</svg>
