<svg width="25" height="25" viewBox="0 0 25 25" fill="none" xmlns="http://www.w3.org/2000/svg">
<path d="M16.0562 15.0477L15.6007 15.5272C15.6007 15.5272 14.5181 16.667 11.5631 13.5559C8.60812 10.4448 9.6907 9.30507 9.6907 9.30507L9.97752 9.00311C10.6841 8.25924 10.7507 7.06497 10.1342 6.1931L8.87326 4.40961C8.11028 3.3305 6.63596 3.18795 5.76145 4.10864L4.19185 5.76114C3.75823 6.21766 3.46765 6.80945 3.50289 7.46594C3.59304 9.14546 4.31071 12.759 8.31536 16.9752C12.5621 21.4462 16.5468 21.6239 18.1763 21.4631C18.6917 21.4122 19.1399 21.1343 19.5011 20.754L20.9217 19.2584C21.8806 18.2489 21.6102 16.5182 20.3833 15.812L18.4728 14.7123C17.6672 14.2486 16.6858 14.3848 16.0562 15.0477Z" fill="#1C274C"/>
<path d="M13.7595 2.37983C13.8257 1.97094 14.2122 1.69357 14.6211 1.75976C14.6464 1.76461 14.7279 1.77983 14.7705 1.78933C14.8559 1.80834 14.9749 1.83759 15.1233 1.88082C15.4201 1.96726 15.8347 2.10967 16.3323 2.3378C17.3286 2.79456 18.6544 3.59356 20.0302 4.96936C21.406 6.34516 22.205 7.67097 22.6617 8.66725C22.8899 9.16487 23.0323 9.57947 23.1187 9.87625C23.1619 10.0247 23.1912 10.1437 23.2102 10.229C23.2197 10.2717 23.2267 10.3059 23.2315 10.3313L23.2373 10.3625C23.3034 10.7713 23.0286 11.1739 22.6197 11.2401C22.212 11.3061 21.8279 11.03 21.7601 10.6231C21.758 10.6121 21.7522 10.5828 21.7461 10.5551C21.7337 10.4997 21.7124 10.4119 21.6786 10.2957C21.6109 10.0634 21.4934 9.71806 21.2982 9.29238C20.9084 8.44207 20.2074 7.26789 18.9695 6.03002C17.7317 4.79216 16.5575 4.09117 15.7072 3.70134C15.2815 3.50618 14.9362 3.38865 14.7038 3.32097C14.5877 3.28714 14.4417 3.25363 14.3863 3.2413C13.9793 3.17347 13.6935 2.78755 13.7595 2.37983Z" fill="#1C274C"/>
<path fill-rule="evenodd" clip-rule="evenodd" d="M13.9861 5.82541C14.0999 5.42713 14.515 5.19651 14.9133 5.3103L14.7073 6.03145C14.9133 5.3103 14.9133 5.3103 14.9133 5.3103L14.9148 5.31072L14.9163 5.31116L14.9196 5.31213L14.9274 5.31445L14.9472 5.32061C14.9622 5.32543 14.9811 5.33171 15.0035 5.33968C15.0484 5.35562 15.1078 5.37828 15.1806 5.40948C15.3263 5.47192 15.5253 5.56834 15.7699 5.71305C16.2593 6.00273 16.9275 6.48391 17.7125 7.26888C18.4975 8.05386 18.9786 8.72204 19.2683 9.21151C19.413 9.45602 19.5094 9.65508 19.5719 9.80077C19.6031 9.87357 19.6258 9.93293 19.6417 9.97784C19.6497 10.0003 19.6559 10.0191 19.6608 10.0342L19.6669 10.054L19.6692 10.0617L19.6702 10.0651L19.6706 10.0666C19.6706 10.0666 19.6711 10.068 18.9499 10.2741L19.6711 10.068C19.7849 10.4663 19.5542 10.8814 19.156 10.9952C18.7611 11.108 18.3496 10.8823 18.2317 10.4902L18.228 10.4795C18.2227 10.4644 18.2117 10.4348 18.1932 10.3916C18.1562 10.3053 18.0891 10.1641 17.9775 9.97549C17.7545 9.59875 17.3518 9.0295 16.6518 8.32954C15.9519 7.62959 15.3826 7.22689 15.0059 7.00392C14.8173 6.8923 14.6761 6.8252 14.5897 6.7882C14.5465 6.76969 14.5169 6.75865 14.5019 6.75332L14.4911 6.74963C14.0991 6.63175 13.8733 6.2203 13.9861 5.82541Z" fill="#1C274C"/>
</svg>
