<svg width="25" height="25" viewBox="0 0 25 25" fill="none" xmlns="http://www.w3.org/2000/svg">
<path d="M2.5 7C2.5 4.87868 2.5 3.81802 3.15901 3.15901C3.81802 2.5 4.87868 2.5 7 2.5C9.12132 2.5 10.182 2.5 10.841 3.15901C11.5 3.81802 11.5 4.87868 11.5 7C11.5 9.12132 11.5 10.182 10.841 10.841C10.182 11.5 9.12132 11.5 7 11.5C4.87868 11.5 3.81802 11.5 3.15901 10.841C2.5 10.182 2.5 9.12132 2.5 7Z" fill="#1C274C"/>
<path d="M13.5 18C13.5 15.8787 13.5 14.818 14.159 14.159C14.818 13.5 15.8787 13.5 18 13.5C20.1213 13.5 21.182 13.5 21.841 14.159C22.5 14.818 22.5 15.8787 22.5 18C22.5 20.1213 22.5 21.182 21.841 21.841C21.182 22.5 20.1213 22.5 18 22.5C15.8787 22.5 14.818 22.5 14.159 21.841C13.5 21.182 13.5 20.1213 13.5 18Z" fill="#1C274C"/>
<path d="M2.5 18C2.5 15.8787 2.5 14.818 3.15901 14.159C3.81802 13.5 4.87868 13.5 7 13.5C9.12132 13.5 10.182 13.5 10.841 14.159C11.5 14.818 11.5 15.8787 11.5 18C11.5 20.1213 11.5 21.182 10.841 21.841C10.182 22.5 9.12132 22.5 7 22.5C4.87868 22.5 3.81802 22.5 3.15901 21.841C2.5 21.182 2.5 20.1213 2.5 18Z" fill="#1C274C"/>
<path d="M13.5 7C13.5 4.87868 13.5 3.81802 14.159 3.15901C14.818 2.5 15.8787 2.5 18 2.5C20.1213 2.5 21.182 2.5 21.841 3.15901C22.5 3.81802 22.5 4.87868 22.5 7C22.5 9.12132 22.5 10.182 21.841 10.841C21.182 11.5 20.1213 11.5 18 11.5C15.8787 11.5 14.818 11.5 14.159 10.841C13.5 10.182 13.5 9.12132 13.5 7Z" fill="#1C274C"/>
</svg>
