<svg width="25" height="25" viewBox="0 0 25 25" fill="none" xmlns="http://www.w3.org/2000/svg">
<path fill-rule="evenodd" clip-rule="evenodd" d="M14.1288 20.9718L13.5867 21.8877C13.1035 22.704 11.8965 22.704 11.4133 21.8877L10.8712 20.9718C10.4507 20.2614 10.2405 19.9063 9.90279 19.7098C9.56509 19.5134 9.13992 19.5061 8.28958 19.4915C7.03422 19.4698 6.24689 19.3929 5.58658 19.1194C4.36144 18.6119 3.38807 17.6386 2.8806 16.4134C2.5 15.4946 2.5 14.3297 2.5 12V11C2.5 7.72657 2.5 6.08985 3.2368 4.88751C3.64908 4.21473 4.21473 3.64908 4.88751 3.2368C6.08985 2.5 7.72657 2.5 11 2.5H14C17.2734 2.5 18.9101 2.5 20.1125 3.2368C20.7853 3.64908 21.3509 4.21473 21.7632 4.88751C22.5 6.08985 22.5 7.72657 22.5 11V12C22.5 14.3297 22.5 15.4946 22.1194 16.4134C21.6119 17.6386 20.6386 18.6119 19.4134 19.1194C18.7531 19.3929 17.9658 19.4698 16.7104 19.4915C15.86 19.5061 15.4349 19.5134 15.0972 19.7098C14.7595 19.9062 14.5492 20.2614 14.1288 20.9718ZM8.5 12.25C8.08579 12.25 7.75 12.5858 7.75 13C7.75 13.4142 8.08579 13.75 8.5 13.75H14C14.4142 13.75 14.75 13.4142 14.75 13C14.75 12.5858 14.4142 12.25 14 12.25H8.5ZM7.75 9.5C7.75 9.08579 8.08579 8.75 8.5 8.75H16.5C16.9142 8.75 17.25 9.08579 17.25 9.5C17.25 9.91421 16.9142 10.25 16.5 10.25H8.5C8.08579 10.25 7.75 9.91421 7.75 9.5Z" fill="#00B2CC"/>
</svg>
