<svg width="25" height="25" viewBox="0 0 25 25" fill="none" xmlns="http://www.w3.org/2000/svg">
<path fill-rule="evenodd" clip-rule="evenodd" d="M5.75 10.5546V8.5C5.75 4.77208 8.77208 1.75 12.5 1.75C16.2279 1.75 19.25 4.77208 19.25 8.5V10.5546C20.3648 10.6379 21.0907 10.848 21.6213 11.3787C22.5 12.2574 22.5 13.6716 22.5 16.5C22.5 19.3284 22.5 20.7426 21.6213 21.6213C20.7426 22.5 19.3284 22.5 16.5 22.5H8.5C5.67157 22.5 4.25736 22.5 3.37868 21.6213C2.5 20.7426 2.5 19.3284 2.5 16.5C2.5 13.6716 2.5 12.2574 3.37868 11.3787C3.90931 10.848 4.63525 10.6379 5.75 10.5546ZM7.25 8.5C7.25 5.60051 9.60051 3.25 12.5 3.25C15.3995 3.25 17.75 5.60051 17.75 8.5V10.5036C17.367 10.5 16.9515 10.5 16.5 10.5H8.5C8.04849 10.5 7.63301 10.5 7.25 10.5036V8.5ZM8.5 17.5C9.05228 17.5 9.5 17.0523 9.5 16.5C9.5 15.9477 9.05228 15.5 8.5 15.5C7.94772 15.5 7.5 15.9477 7.5 16.5C7.5 17.0523 7.94772 17.5 8.5 17.5ZM12.5 17.5C13.0523 17.5 13.5 17.0523 13.5 16.5C13.5 15.9477 13.0523 15.5 12.5 15.5C11.9477 15.5 11.5 15.9477 11.5 16.5C11.5 17.0523 11.9477 17.5 12.5 17.5ZM17.5 16.5C17.5 17.0523 17.0523 17.5 16.5 17.5C15.9477 17.5 15.5 17.0523 15.5 16.5C15.5 15.9477 15.9477 15.5 16.5 15.5C17.0523 15.5 17.5 15.9477 17.5 16.5Z" fill="#1C274C"/>
</svg>
