<svg width="801" height="801" viewBox="0 0 801 801" fill="none" xmlns="http://www.w3.org/2000/svg">
<path d="M209.164 713.447H200.5C169.073 713.447 153.359 713.447 143.596 703.684C133.833 693.92 133.833 678.207 133.833 646.78V609.714C133.833 592.43 133.833 583.79 138.272 576.074C142.712 568.354 149.409 564.46 162.803 556.67C250.985 505.38 376.216 476.51 459.803 526.364C465.416 529.714 470.47 533.757 474.783 538.604C493.386 559.5 492.033 591.037 470.593 609.75C466.063 613.7 461.24 616.7 456.38 617.74C460.373 617.277 464.2 616.747 467.853 616.164C498.233 611.317 523.733 595.084 547.08 577.447L607.32 531.944C628.556 515.9 660.076 515.897 681.316 531.934C700.44 546.374 706.286 570.147 694.196 589.524C680.1 612.124 660.236 641.034 641.163 658.697C622.063 676.387 593.63 692.18 570.416 703.384C544.7 715.797 516.293 722.947 487.396 727.627C428.793 737.11 367.72 735.664 309.711 723.714C276.917 716.957 242.859 713.447 209.164 713.447Z" fill="#1C274C"/>
<path d="M220.027 86.6935C207.801 98.9192 203.23 115.811 201.521 142.161C242.132 141.619 274.952 108.799 275.493 68.1875C249.143 69.8965 232.252 74.4675 220.027 86.6935Z" fill="#1C274C"/>
<path d="M580.973 86.6935C568.747 74.4675 551.857 69.8965 525.507 68.1875C526.047 108.799 558.867 141.619 599.48 142.161C597.77 115.811 593.2 98.9192 580.973 86.6935Z" fill="#1C274C"/>
<path d="M580.973 314.311C568.747 326.537 551.857 331.108 525.507 332.817C526.05 292.205 558.867 259.385 599.48 258.844C597.77 285.194 593.2 302.085 580.973 314.311Z" fill="#1C274C"/>
<path d="M220.027 314.311C232.252 326.537 249.143 331.108 275.493 332.817C274.952 292.205 242.132 259.385 201.521 258.844C203.23 285.194 207.801 302.085 220.027 314.311Z" fill="#1C274C"/>
<path fill-rule="evenodd" clip-rule="evenodd" d="M200.5 192.164C269.536 192.164 325.5 136.2 325.5 67.1641H475.5C475.5 136.2 531.463 192.164 600.5 192.164V208.831C531.463 208.831 475.5 264.795 475.5 333.831H325.5C325.5 264.795 269.536 208.831 200.5 208.831V192.164ZM400.5 233.831C418.91 233.831 433.833 218.907 433.833 200.497C433.833 182.088 418.91 167.164 400.5 167.164C382.09 167.164 367.167 182.088 367.167 200.497C367.167 218.907 382.09 233.831 400.5 233.831Z" fill="#1C274C"/>
</svg>
