<svg width="25" height="25" viewBox="0 0 25 25" fill="none" xmlns="http://www.w3.org/2000/svg">
<path d="M12.5 10.5C14.7091 10.5 16.5 8.70914 16.5 6.5C16.5 4.29086 14.7091 2.5 12.5 2.5C10.2909 2.5 8.5 4.29086 8.5 6.5C8.5 8.70914 10.2909 10.5 12.5 10.5Z" fill="#C60000"/>
<path d="M15.9147 14.0074C14.9046 13.6842 13.74 13.5 12.5 13.5C8.63401 13.5 5.5 15.2909 5.5 17.5C5.5 19.6406 8.44244 21.3884 12.1421 21.4949C12.115 21.3686 12.094 21.2432 12.0775 21.1201C11.9998 20.5424 11.9999 19.8365 12 19.086V18.914C11.9999 18.1635 11.9998 17.4576 12.0775 16.8799C12.1639 16.237 12.3705 15.5333 12.9519 14.9519C13.5334 14.3705 14.237 14.1639 14.8799 14.0774C15.1919 14.0355 15.5412 14.0162 15.9147 14.0074Z" fill="#C60000"/>
<path fill-rule="evenodd" clip-rule="evenodd" d="M17 22.5C15.3501 22.5 14.5251 22.5 14.0126 21.9874C13.5 21.4749 13.5 20.6499 13.5 19C13.5 17.3501 13.5 16.5251 14.0126 16.0126C14.5251 15.5 15.3501 15.5 17 15.5C18.6499 15.5 19.4749 15.5 19.9874 16.0126C20.5 16.5251 20.5 17.3501 20.5 19C20.5 20.6499 20.5 21.4749 19.9874 21.9874C19.4749 22.5 18.6499 22.5 17 22.5ZM15.8569 17.032C15.6291 16.8042 15.2598 16.8042 15.032 17.032C14.8042 17.2598 14.8042 17.6291 15.032 17.8569L16.175 19L15.032 20.1431C14.8042 20.3709 14.8042 20.7402 15.032 20.968C15.2598 21.1958 15.6291 21.1958 15.8569 20.968L17 19.825L18.1431 20.968C18.3709 21.1958 18.7402 21.1958 18.968 20.968C19.1958 20.7402 19.1958 20.3709 18.968 20.1431L17.825 19L18.968 17.8569C19.1958 17.6291 19.1958 17.2598 18.968 17.032C18.7402 16.8042 18.3709 16.8042 18.1431 17.032L17 18.175L15.8569 17.032Z" fill="#C60000"/>
</svg>
