<svg width="25" height="25" viewBox="0 0 25 25" fill="none" xmlns="http://www.w3.org/2000/svg">
<path fill-rule="evenodd" clip-rule="evenodd" d="M10.2072 2.9087C9.5 3.53569 9.5 4.68259 9.5 6.9764V18.0236C9.5 20.3174 9.5 21.4643 10.2072 22.0913C10.9145 22.7183 11.9955 22.5297 14.1576 22.1526L16.4864 21.7465C18.8809 21.3288 20.0781 21.12 20.7891 20.2417C21.5 19.3635 21.5 18.0933 21.5 15.5529V9.44711C21.5 6.90671 21.5 5.63652 20.7891 4.75826C20.0781 3.87999 18.8809 3.67118 16.4864 3.25354L14.1576 2.84736C11.9955 2.47026 10.9145 2.28171 10.2072 2.9087ZM12.5 10.6686C12.9142 10.6686 13.25 11.02 13.25 11.4535V13.5465C13.25 13.98 12.9142 14.3314 12.5 14.3314C12.0858 14.3314 11.75 13.98 11.75 13.5465V11.4535C11.75 11.02 12.0858 10.6686 12.5 10.6686Z" fill="#C60000"/>
<path d="M8.04717 5C5.98889 5.003 4.91599 5.04826 4.23223 5.73202C3.5 6.46425 3.5 7.64276 3.5 9.99979V14.9998C3.5 17.3568 3.5 18.5353 4.23223 19.2676C4.91599 19.9513 5.98889 19.9966 8.04717 19.9996C7.99985 19.3763 7.99992 18.6557 8.00001 17.8768V7.1227C7.99992 6.34388 7.99985 5.6233 8.04717 5Z" fill="#C60000"/>
</svg>
