<svg width="25" height="25" viewBox="0 0 25 25" fill="none" xmlns="http://www.w3.org/2000/svg">
<path fill-rule="evenodd" clip-rule="evenodd" d="M22.5 12.5C22.5 18.0228 18.0228 22.5 12.5 22.5C10.9003 22.5 9.38837 22.1244 8.04753 21.4565C7.69121 21.2791 7.28393 21.22 6.89939 21.3229L4.67335 21.9185C3.70701 22.177 2.82295 21.293 3.08151 20.3267L3.67712 18.1006C3.78001 17.7161 3.72094 17.3088 3.54346 16.9525C2.87562 15.6116 2.5 14.0997 2.5 12.5C2.5 6.97715 6.97715 2.5 12.5 2.5C18.0228 2.5 22.5 6.97715 22.5 12.5ZM15.9214 12.4654L17.4819 16.9573L17.4767 16.9627C17.5498 17.1722 17.4454 17.4033 17.2418 17.4785C17.2001 17.4946 17.1531 17.5 17.1114 17.5C16.9496 17.5 16.7982 17.3979 16.7408 17.2313L16.4172 16.3018H14.147L13.8234 17.2313C13.7503 17.4409 13.5259 17.5484 13.3224 17.4731C13.1188 17.3979 13.0144 17.1669 13.0875 16.9573L14.6428 12.4761C14.7628 12.1699 15.0029 11.9872 15.2847 11.9872C15.5665 11.9872 15.8118 12.1699 15.9214 12.4654ZM15.2899 13.0242L14.434 15.4904H16.1459L15.2899 13.0242ZM13.0999 10.7728C11.9217 12.6878 10.8578 13.847 9.56468 14.62C9.50205 14.6576 9.4342 14.6737 9.37158 14.6737C9.23588 14.6737 9.10541 14.6039 9.03234 14.4749C8.92274 14.2815 8.98537 14.0343 9.17325 13.9269C10.2692 13.2713 11.1669 12.331 12.1742 10.7728H8.89143C8.67745 10.7728 8.5 10.5901 8.5 10.3699C8.5 10.1496 8.67745 9.96687 8.89143 9.96687H10.8486V8.90299C10.8486 8.68269 11.026 8.5 11.24 8.5C11.454 8.5 11.6314 8.68269 11.6314 8.90299V9.96687H13.5885C13.8025 9.96687 13.98 10.1496 13.98 10.3699C13.98 10.5901 13.8025 10.7728 13.5885 10.7728H13.0999ZM12.9257 14.62C12.9884 14.6576 13.0562 14.6737 13.124 14.6737C13.2597 14.6737 13.3902 14.6039 13.4633 14.4749C13.5729 14.2815 13.5103 14.0343 13.3224 13.9215C13.0092 13.7334 12.7013 13.5293 12.4195 13.309C12.2473 13.1746 12.002 13.2122 11.8715 13.3896C11.741 13.5669 11.7775 13.8194 11.9498 13.9537C12.2577 14.1901 12.5865 14.4158 12.9257 14.62Z" fill="#00B2CC"/>
</svg>
