<svg width="25" height="25" viewBox="0 0 25 25" fill="none" xmlns="http://www.w3.org/2000/svg">
<path fill-rule="evenodd" clip-rule="evenodd" d="M3.5 10.9167C3.5 7.71907 3.5 6.12028 3.87752 5.58241C4.25503 5.04454 5.75832 4.52996 8.76491 3.50079L9.33772 3.30472C10.905 2.76824 11.6886 2.5 12.5 2.5C13.3114 2.5 14.095 2.76824 15.6623 3.30472L16.2351 3.50079C19.2417 4.52996 20.745 5.04454 21.1225 5.58241C21.5 6.12028 21.5 7.71907 21.5 10.9167V12.4914C21.5 18.1294 17.261 20.8655 14.6014 22.0273C13.88 22.3424 13.5193 22.5 12.5 22.5C11.4807 22.5 11.12 22.3424 10.3986 22.0273C7.73896 20.8655 3.5 18.1294 3.5 12.4914V10.9167ZM14.5 9.5C14.5 10.6046 13.6046 11.5 12.5 11.5C11.3954 11.5 10.5 10.6046 10.5 9.5C10.5 8.39543 11.3954 7.5 12.5 7.5C13.6046 7.5 14.5 8.39543 14.5 9.5ZM12.5 17.5C16.5 17.5 16.5 16.6046 16.5 15.5C16.5 14.3954 14.7091 13.5 12.5 13.5C10.2909 13.5 8.5 14.3954 8.5 15.5C8.5 16.6046 8.5 17.5 12.5 17.5Z" fill="#1C274C"/>
</svg>
