<svg width="25" height="25" viewBox="0 0 25 25" fill="none" xmlns="http://www.w3.org/2000/svg">
<path fill-rule="evenodd" clip-rule="evenodd" d="M10.495 4.5H14.505C18.2856 4.5 20.1759 4.5 21.3504 5.67157C22.1591 6.47823 22.411 7.62339 22.4894 9.48947C22.505 9.85954 22.5128 10.0446 22.4437 10.168C22.3746 10.2915 22.0987 10.4455 21.5469 10.7537C20.9341 11.0959 20.5199 11.7497 20.5199 12.5C20.5199 13.2503 20.9341 13.9041 21.5469 14.2463C22.0987 14.5545 22.3746 14.7085 22.4437 14.832C22.5128 14.9554 22.505 15.1405 22.4894 15.5105C22.411 17.3766 22.1591 18.5218 21.3504 19.3284C20.1759 20.5 18.2856 20.5 14.505 20.5H10.495C6.71438 20.5 4.82407 20.5 3.64958 19.3284C2.84091 18.5218 2.58903 17.3766 2.51058 15.5105C2.49502 15.1405 2.48724 14.9554 2.55634 14.832C2.62545 14.7085 2.90133 14.5545 3.45308 14.2463C4.06586 13.9041 4.48007 13.2503 4.48007 12.5C4.48007 11.7497 4.06586 11.0959 3.45308 10.7537C2.90133 10.4455 2.62545 10.2915 2.55634 10.168C2.48724 10.0446 2.49502 9.85954 2.51058 9.48947C2.58903 7.62339 2.84091 6.47823 3.64958 5.67157C4.82407 4.5 6.71439 4.5 10.495 4.5ZM16.0478 8.96967C16.3415 9.26256 16.3415 9.73744 16.0478 10.0303L10.0329 16.0303C9.73927 16.3232 9.26321 16.3232 8.96959 16.0303C8.67596 15.7374 8.67596 15.2626 8.96959 14.9697L14.9845 8.96967C15.2782 8.67678 15.7542 8.67678 16.0478 8.96967ZM15.0149 16C15.5686 16 16.0174 15.5523 16.0174 15C16.0174 14.4477 15.5686 14 15.0149 14C14.4613 14 14.0124 14.4477 14.0124 15C14.0124 15.5523 14.4613 16 15.0149 16ZM10.0025 11C10.5561 11 11.005 10.5523 11.005 10C11.005 9.44772 10.5561 9 10.0025 9C9.44882 9 8.99999 9.44772 8.99999 10C8.99999 10.5523 9.44882 11 10.0025 11Z" fill="#1C274C"/>
</svg>
