<svg width="25" height="25" viewBox="0 0 25 25" fill="none" xmlns="http://www.w3.org/2000/svg">
<path fill-rule="evenodd" clip-rule="evenodd" d="M14.303 5.83333C14.303 3.99238 15.8022 2.5 17.6515 2.5C19.5008 2.5 21 3.99238 21 5.83333C21 7.67428 19.5008 9.16667 17.6515 9.16667C16.7177 9.16667 15.8738 8.78596 15.2671 8.17347L10.6317 11.3295C10.6745 11.5425 10.697 11.7625 10.697 11.9872C10.697 12.4322 10.609 12.8576 10.4496 13.2464L15.5323 16.5858C16.1092 16.1161 16.8473 15.8333 17.6515 15.8333C19.5008 15.8333 21 17.3257 21 19.1667C21 21.0076 19.5008 22.5 17.6515 22.5C15.8022 22.5 14.303 21.0076 14.303 19.1667C14.303 18.6845 14.4062 18.2255 14.5917 17.8111L9.55007 14.4987C8.96196 15.0098 8.1916 15.3205 7.34848 15.3205C5.49917 15.3205 4 13.8281 4 11.9872C4 10.1462 5.49917 8.65385 7.34848 8.65385C8.4119 8.65385 9.35853 9.14725 9.97145 9.91518L14.4639 6.85642C14.3594 6.53359 14.303 6.1896 14.303 5.83333Z" fill="#1C274C"/>
</svg>
