<svg width="25" height="25" viewBox="0 0 25 25" fill="none" xmlns="http://www.w3.org/2000/svg">
<path d="M10 2.5C9.17157 2.5 8.5 3.17157 8.5 4V5C8.5 5.82843 9.17157 6.5 10 6.5H15C15.8284 6.5 16.5 5.82843 16.5 5V4C16.5 3.17157 15.8284 2.5 15 2.5H10Z" fill="#1C274C"/>
<path fill-rule="evenodd" clip-rule="evenodd" d="M7 4.53906C5.74209 4.60963 4.94798 4.81008 4.37868 5.37938C3.5 6.25806 3.5 7.67227 3.5 10.5007V16.5007C3.5 19.3291 3.5 20.7433 4.37868 21.622C5.25736 22.5007 6.67157 22.5007 9.5 22.5007H15.5C18.3284 22.5007 19.7426 22.5007 20.6213 21.622C21.5 20.7433 21.5 19.3291 21.5 16.5007V10.5007C21.5 7.67227 21.5 6.25806 20.6213 5.37938C20.052 4.81008 19.2579 4.60963 18 4.53906V5.00244C18 6.65929 16.6569 8.00244 15 8.00244H10C8.34315 8.00244 7 6.65929 7 5.00244V4.53906ZM7.5 10.2524C7.08579 10.2524 6.75 10.5882 6.75 11.0024C6.75 11.4166 7.08579 11.7524 7.5 11.7524H8C8.41421 11.7524 8.75 11.4166 8.75 11.0024C8.75 10.5882 8.41421 10.2524 8 10.2524H7.5ZM11 10.2524C10.5858 10.2524 10.25 10.5882 10.25 11.0024C10.25 11.4166 10.5858 11.7524 11 11.7524H17.5C17.9142 11.7524 18.25 11.4166 18.25 11.0024C18.25 10.5882 17.9142 10.2524 17.5 10.2524H11ZM7.5 13.7524C7.08579 13.7524 6.75 14.0882 6.75 14.5024C6.75 14.9166 7.08579 15.2524 7.5 15.2524H8C8.41421 15.2524 8.75 14.9166 8.75 14.5024C8.75 14.0882 8.41421 13.7524 8 13.7524H7.5ZM11 13.7524C10.5858 13.7524 10.25 14.0882 10.25 14.5024C10.25 14.9166 10.5858 15.2524 11 15.2524H17.5C17.9142 15.2524 18.25 14.9166 18.25 14.5024C18.25 14.0882 17.9142 13.7524 17.5 13.7524H11ZM7.5 17.2524C7.08579 17.2524 6.75 17.5882 6.75 18.0024C6.75 18.4166 7.08579 18.7524 7.5 18.7524H8C8.41421 18.7524 8.75 18.4166 8.75 18.0024C8.75 17.5882 8.41421 17.2524 8 17.2524H7.5ZM11 17.2524C10.5858 17.2524 10.25 17.5882 10.25 18.0024C10.25 18.4166 10.5858 18.7524 11 18.7524H17.5C17.9142 18.7524 18.25 18.4166 18.25 18.0024C18.25 17.5882 17.9142 17.2524 17.5 17.2524H11Z" fill="#1C274C"/>
</svg>
