<svg width="25" height="25" viewBox="0 0 25 25" fill="none" xmlns="http://www.w3.org/2000/svg">
<path d="M20.3999 2.80719C20.239 2.3976 19.6614 2.3976 19.5005 2.80719L19.0701 3.90247C19.021 4.02752 18.9224 4.12651 18.7978 4.17583L17.7065 4.6078C17.2984 4.76934 17.2984 5.349 17.7065 5.51054L18.7978 5.94252C18.9224 5.99184 19.021 6.09082 19.0701 6.21587L19.5005 7.31115C19.6614 7.72074 20.239 7.72074 20.3999 7.31116L20.8303 6.21587C20.8794 6.09082 20.978 5.99184 21.1026 5.94252L22.1939 5.51054C22.602 5.349 22.602 4.76934 22.1939 4.6078L21.1026 4.17583C20.978 4.12651 20.8794 4.02752 20.8303 3.90247L20.3999 2.80719Z" fill="#00B2CC"/>
<path d="M16.5327 8.6275C16.3717 8.21792 15.7942 8.21792 15.6332 8.6275L15.4763 9.02685C15.4272 9.1519 15.3286 9.25088 15.204 9.3002L14.8061 9.4577C14.398 9.61924 14.398 10.1989 14.8061 10.3604L15.204 10.5179C15.3286 10.5672 15.4272 10.6662 15.4763 10.7913L15.6332 11.1906C15.7942 11.6002 16.3717 11.6002 16.5327 11.1906L16.6896 10.7913C16.7387 10.6662 16.8373 10.5672 16.9619 10.5179L17.3598 10.3604C17.7679 10.1989 17.7679 9.61924 17.3598 9.4577L16.9619 9.3002C16.8373 9.25088 16.7387 9.1519 16.6896 9.02685L16.5327 8.6275Z" fill="#00B2CC"/>
<path d="M12.5 22.5C18.0228 22.5 22.5 18.0228 22.5 12.5C22.5 12.0373 21.8065 11.9608 21.5672 12.3568C20.4289 14.2406 18.3615 15.5 16 15.5C12.4101 15.5 9.5 12.5899 9.5 9C9.5 6.63845 10.7594 4.57105 12.6432 3.43276C13.0392 3.19347 12.9627 2.5 12.5 2.5C6.97715 2.5 2.5 6.97715 2.5 12.5C2.5 18.0228 6.97715 22.5 12.5 22.5Z" fill="#00B2CC"/>
</svg>
