<svg width="15" height="15" viewBox="0 0 15 15" fill="none" xmlns="http://www.w3.org/2000/svg">
<g clip-path="url(#clip0_260_526)">
<path d="M1.5 0.5C0.957627 0.5 0.5 0.957627 0.5 1.5V3.5C0.5 4.05932 0.988617 4.5 1.5 4.5V2.5H13.5V4.5C14.0114 4.5 14.5 4.01429 14.5 3.5V1.5C14.5 0.957627 14.0085 0.5 13.5 0.5H1.5ZM2.5 3.5V11.5C2.5 12.0992 2.90076 12.5 3.5 12.5H11.5C12.0273 12.5 12.5 12.0513 12.5 11.5V3.5H11.5V9.5C10.5 9.5 9.5 10.5 9.5 11.5H5.5C5.5 10.5 4.5 9.5 3.5 9.5V3.5H2.5ZM7.5 4.5C5.9292 4.5 4.5 5.4528 4.5 6.5C4.5 7.5472 5.9292 8.5 7.5 8.5C9.0708 8.5 10.5 7.5472 10.5 6.5C10.5 5.4528 9.0708 4.5 7.5 4.5ZM2.5 13C2.5 14.0547 2.92473 14.5 3.5 14.5H11.5C12.0273 14.5 12.5 14.0547 12.5 13C12.1949 13.2712 12.0034 13.4927 11.5 13.4688L3.5 13.5312C3.02061 13.5073 2.80509 13.3051 2.5 13Z" fill="black"/>
</g>
<defs>
<clipPath id="clip0_260_526">
<rect width="14" height="14" fill="white" transform="translate(0.5 0.5)"/>
</clipPath>
</defs>
</svg>
