<svg width="22" height="22" viewBox="0 0 22 22" fill="none" xmlns="http://www.w3.org/2000/svg">
<g clip-path="url(#clip0_260_532)">
<mask id="mask0_260_532" style="mask-type:luminance" maskUnits="userSpaceOnUse" x="0" y="0" width="22" height="22">
<path d="M0.5 0.5H21.5V21.5H0.5V0.5Z" fill="white"/>
</mask>
<g mask="url(#mask0_260_532)">
<path d="M20.1889 9.6875H1.81388C1.47205 9.69694 1.14739 9.83936 0.908955 10.0845C0.670516 10.3296 0.537109 10.658 0.537109 11C0.537109 11.342 0.670516 11.6704 0.908955 11.9155C1.14739 12.1606 1.47205 12.3031 1.81388 12.3125H20.1889C20.5307 12.3031 20.8554 12.1606 21.0938 11.9155C21.3322 11.6704 21.4656 11.342 21.4656 11C21.4656 10.658 21.3322 10.3296 21.0938 10.0845C20.8554 9.83936 20.5307 9.69694 20.1889 9.6875Z" fill="#343F53"/>
<path d="M1.81348 6.1875H20.1885C20.5366 6.1875 20.8704 6.04922 21.1166 5.80308C21.3627 5.55694 21.501 5.2231 21.501 4.875C21.501 4.5269 21.3627 4.19306 21.1166 3.94692C20.8704 3.70078 20.5366 3.5625 20.1885 3.5625H1.81348C1.46538 3.5625 1.13154 3.70078 0.885399 3.94692C0.639257 4.19306 0.500977 4.5269 0.500977 4.875C0.500977 5.2231 0.639257 5.55694 0.885399 5.80308C1.13154 6.04922 1.46538 6.1875 1.81348 6.1875Z" fill="#343F53"/>
<path d="M20.1889 15.8125H1.81388C1.47205 15.8219 1.14739 15.9644 0.908955 16.2095C0.670516 16.4546 0.537109 16.783 0.537109 17.125C0.537109 17.467 0.670516 17.7954 0.908955 18.0405C1.14739 18.2856 1.47205 18.4281 1.81388 18.4375H20.1889C20.5307 18.4281 20.8554 18.2856 21.0938 18.0405C21.3322 17.7954 21.4656 17.467 21.4656 17.125C21.4656 16.783 21.3322 16.4546 21.0938 16.2095C20.8554 15.9644 20.5307 15.8219 20.1889 15.8125Z" fill="#343F53"/>
</g>
</g>
<defs>
<clipPath id="clip0_260_532">
<rect width="21" height="21" fill="white" transform="translate(0.5 0.5)"/>
</clipPath>
</defs>
</svg>
