<svg width="19" height="19" viewBox="0 0 19 19" fill="none" xmlns="http://www.w3.org/2000/svg">
<path fill-rule="evenodd" clip-rule="evenodd" d="M16.25 11C16.25 14.728 13.228 17.75 9.5 17.75C5.77208 17.75 2.75 14.728 2.75 11C2.75 7.27208 5.77208 4.25 9.5 4.25C13.228 4.25 16.25 7.27208 16.25 11ZM10.0625 8C10.0625 7.68934 9.81065 7.4375 9.5 7.4375C9.18935 7.4375 8.9375 7.68934 8.9375 8V11C8.9375 11.3106 9.18935 11.5625 9.5 11.5625C9.81065 11.5625 10.0625 11.3106 10.0625 11V8Z" fill="#00B2CC"/>
<path fill-rule="evenodd" clip-rule="evenodd" d="M7.4375 2.5625C7.4375 2.25184 7.68934 2 8 2H11C11.3107 2 11.5625 2.25184 11.5625 2.5625C11.5625 2.87316 11.3107 3.125 11 3.125H8C7.68934 3.125 7.4375 2.87316 7.4375 2.5625Z" fill="#00B2CC"/>
</svg>
