<svg width="19" height="19" viewBox="0 0 19 19" fill="none" xmlns="http://www.w3.org/2000/svg">
<path fill-rule="evenodd" clip-rule="evenodd" d="M2.9375 17C2.9375 16.6894 3.18934 16.4375 3.5 16.4375H15.5C15.8106 16.4375 16.0625 16.6894 16.0625 17C16.0625 17.3106 15.8106 17.5625 15.5 17.5625H3.5C3.18934 17.5625 2.9375 17.3106 2.9375 17Z" fill="#00B2CC"/>
<path d="M9.14008 11.6963L13.5776 7.25873C12.9736 7.00737 12.2583 6.59445 11.5818 5.91795C10.9052 5.24132 10.4922 4.52588 10.2409 3.92188L5.8033 8.35947C5.45703 8.70574 5.28385 8.87891 5.13494 9.06986C4.95928 9.29501 4.80868 9.53869 4.6858 9.79654C4.58164 10.0151 4.50421 10.2474 4.34934 10.712L3.53267 13.162C3.45646 13.3907 3.51596 13.6427 3.68638 13.8131C3.8568 13.9835 4.10887 14.0431 4.3375 13.9668L6.78751 13.1502C7.25211 12.9953 7.48442 12.9179 7.70299 12.8137C7.96081 12.6908 8.20453 12.5402 8.42968 12.3646C8.62063 12.2156 8.7938 12.0425 9.14008 11.6963Z" fill="#00B2CC"/>
<path d="M14.8086 6.02783C15.7299 5.10641 15.7299 3.61249 14.8086 2.69106C13.8871 1.76965 12.3932 1.76965 11.4718 2.69106L10.9395 3.22329C10.9468 3.2453 10.9544 3.26761 10.9623 3.29021C11.1573 3.8525 11.5254 4.58961 12.2178 5.28201C12.9102 5.97442 13.6473 6.34249 14.2096 6.53757C14.2321 6.54537 14.2543 6.5529 14.2762 6.56016L14.8086 6.02783Z" fill="#00B2CC"/>
</svg>
