<svg width="233" height="234" viewBox="0 0 233 234" fill="none" xmlns="http://www.w3.org/2000/svg">
<path d="M9.5 178.123L96.0207 70.5L149.481 85.9753L130.488 232.99L9.5 178.123Z" fill="url(#paint0_linear_260_661)"/>
<path d="M164.686 66.9361C167.136 57.7929 165.854 48.0509 161.121 39.8533C156.388 31.6557 148.592 25.674 139.449 23.224C130.306 20.7741 120.564 22.0567 112.366 26.7896C104.169 31.5225 98.1872 39.318 95.7373 48.4612L130.212 57.6987L164.686 66.9361Z" fill="url(#paint1_linear_260_661)"/>
<path d="M122.716 85.6709C169.547 98.2193 209.236 101.957 211.363 94.0184C213.49 86.0801 177.25 69.4724 130.419 56.924C83.5873 44.3756 43.8987 40.6383 41.7717 48.5766C39.6446 56.5148 75.8846 73.1225 122.716 85.6709Z" fill="url(#paint2_linear_260_661)"/>
<path d="M122.659 85.8767C158.133 95.382 187.759 99.8464 188.83 95.8483C189.901 91.8502 162.012 80.9036 126.538 71.3983C91.0641 61.893 61.4382 57.4286 60.3669 61.4267C59.2956 65.4248 87.1847 76.3714 122.659 85.8767Z" fill="#00B2CC"/>
<path d="M122.716 85.6697C141.756 90.7714 157.606 93.3571 158.118 91.445C158.631 89.5328 143.611 83.847 124.571 78.7453C105.532 73.6436 89.6813 71.0579 89.169 72.97C88.6566 74.8822 103.676 80.568 122.716 85.6697Z" fill="#87B4FF"/>
<defs>
<linearGradient id="paint0_linear_260_661" x1="123.454" y1="80.3479" x2="67.8839" y2="203.447" gradientUnits="userSpaceOnUse">
<stop stop-color="#0079FF" stop-opacity="0.12"/>
<stop offset="1" stop-color="#0079FF" stop-opacity="0"/>
</linearGradient>
<linearGradient id="paint1_linear_260_661" x1="95.7408" y1="48.4629" x2="164.686" y2="66.9369" gradientUnits="userSpaceOnUse">
<stop stop-color="#F46595"/>
<stop offset="1" stop-color="#F89597"/>
</linearGradient>
<linearGradient id="paint2_linear_260_661" x1="41.7674" y1="48.5766" x2="211.357" y2="94.0179" gradientUnits="userSpaceOnUse">
<stop stop-color="#79BFFD"/>
<stop offset="1" stop-color="#6568EB"/>
</linearGradient>
</defs>
</svg>
