<svg width="25" height="25" viewBox="0 0 25 25" fill="none" xmlns="http://www.w3.org/2000/svg">
<path fill-rule="evenodd" clip-rule="evenodd" d="M3.96447 3.96447C2.5 5.42893 2.5 7.78595 2.5 12.5C2.5 17.214 2.5 19.5711 3.96447 21.0355C5.42893 22.5 7.78595 22.5 12.5 22.5C17.214 22.5 19.5711 22.5 21.0355 21.0355C22.5 19.5711 22.5 17.214 22.5 12.5C22.5 7.78595 22.5 5.42893 21.0355 3.96447C19.5711 2.5 17.214 2.5 12.5 2.5C7.78595 2.5 5.42893 2.5 3.96447 3.96447ZM16.5 10.5C17.6046 10.5 18.5 9.60457 18.5 8.5C18.5 7.39543 17.6046 6.5 16.5 6.5C15.3954 6.5 14.5 7.39543 14.5 8.5C14.5 9.60457 15.3954 10.5 16.5 10.5ZM6.82092 13.6038C7.44501 13.0241 8.41991 13.0566 9.00397 13.6766L11.6515 16.4869C12.4509 17.3356 13.7596 17.4499 14.6941 16.7527C15.3073 16.2953 16.161 16.3473 16.7141 16.8757L18.9819 19.0423C19.2814 19.3284 19.7562 19.3176 20.0423 19.0181C20.3284 18.7186 20.3176 18.2438 20.0181 17.9577L17.7503 15.7911C16.6679 14.757 14.9971 14.6553 13.7972 15.5504C13.4735 15.7919 13.0202 15.7523 12.7433 15.4584L10.0958 12.6481C8.94651 11.4281 7.02816 11.3641 5.8001 12.5047L4.9896 13.2575C4.6861 13.5394 4.66858 14.0139 4.95047 14.3174C5.23236 14.6209 5.70691 14.6385 6.01041 14.3566L6.82092 13.6038Z" fill="#00B2CC"/>
</svg>
