<svg width="19" height="19" viewBox="0 0 19 19" fill="none" xmlns="http://www.w3.org/2000/svg">
<path d="M12.125 6.125C12.125 7.57475 10.9497 8.75 9.5 8.75C8.05025 8.75 6.875 7.57475 6.875 6.125C6.875 4.67525 8.05025 3.5 9.5 3.5C10.9497 3.5 12.125 4.67525 12.125 6.125Z" fill="#00B2CC"/>
<path d="M14 12.875C14 14.3247 11.9853 15.5 9.5 15.5C7.01472 15.5 5 14.3247 5 12.875C5 11.4253 7.01472 10.25 9.5 10.25C11.9853 10.25 14 11.4253 14 12.875Z" fill="#00B2CC"/>
<path d="M5.84167 4.25C5.97476 4.25 6.1047 4.26306 6.23017 4.28792C5.9245 4.83084 5.75013 5.45756 5.75013 6.125C5.75013 6.77619 5.91611 7.38862 6.20807 7.92227C6.08947 7.94437 5.96697 7.95595 5.84167 7.95595C4.78085 7.95595 3.9209 7.12634 3.9209 6.10297C3.9209 5.07961 4.78085 4.25 5.84167 4.25Z" fill="#00B2CC"/>
<path d="M4.58551 14.7367C4.15956 14.2275 3.875 13.6027 3.875 12.8722C3.875 12.164 4.14243 11.5552 4.54683 11.0547C3.11832 11.1655 2 11.9468 2 12.8942C2 13.8505 3.13797 14.6375 4.58551 14.7367Z" fill="#00B2CC"/>
<path d="M13.2495 6.125C13.2495 6.77619 13.0835 7.38862 12.7915 7.92227C12.9102 7.94437 13.0327 7.95595 13.158 7.95595C14.2188 7.95595 15.0787 7.12634 15.0787 6.10297C15.0787 5.07961 14.2188 4.25 13.158 4.25C13.0249 4.25 12.895 4.26306 12.7695 4.28792C13.0751 4.83084 13.2495 5.45756 13.2495 6.125Z" fill="#00B2CC"/>
<path d="M14.4141 14.7367C15.8616 14.6375 16.9996 13.8505 16.9996 12.8942C16.9996 11.9468 15.8813 11.1655 14.4528 11.0547C14.8572 11.5552 15.1246 12.164 15.1246 12.8722C15.1246 13.6027 14.8401 14.2275 14.4141 14.7367Z" fill="#00B2CC"/>
</svg>
