<svg width="25" height="26" viewBox="0 0 25 26" fill="none" xmlns="http://www.w3.org/2000/svg">
<path fill-rule="evenodd" clip-rule="evenodd" d="M5.57868 6.06891C9.37402 2.27893 15.5437 2.31923 19.3622 6.13778C23.1824 9.95797 23.2211 16.1313 19.4262 19.9262C15.6312 23.7211 9.45793 23.6824 5.63774 19.8622C3.37389 17.5984 2.43904 14.5099 2.84047 11.5812C2.89672 11.1708 3.275 10.8838 3.68537 10.94C4.09575 10.9963 4.38282 11.3745 4.32658 11.7849C3.9866 14.2652 4.77782 16.881 6.6984 18.8016C9.94288 22.0461 15.1664 22.0646 18.3655 18.8655C21.5646 15.6664 21.546 10.4429 18.3015 7.19844C15.0587 3.95561 9.83889 3.93539 6.63935 7.12957L7.38705 7.13333C7.80126 7.13541 8.13535 7.47288 8.13327 7.88709C8.13119 8.3013 7.79372 8.63539 7.37951 8.63331L4.83396 8.62052C4.42269 8.61845 4.08981 8.28556 4.08774 7.8743L4.07495 5.32874C4.07286 4.91454 4.40696 4.57707 4.82117 4.57498C5.23538 4.5729 5.57285 4.907 5.57493 5.32121L5.57868 6.06891ZM12.4999 8.24992C12.9141 8.24992 13.2499 8.58571 13.2499 8.99992V12.6893L15.5302 14.9696C15.8231 15.2625 15.8231 15.7374 15.5302 16.0302C15.2373 16.3231 14.7624 16.3231 14.4696 16.0302L11.7499 13.3106V8.99992C11.7499 8.58571 12.0857 8.24992 12.4999 8.24992Z" fill="#00B2CC"/>
</svg>
