<svg width="26" height="25" viewBox="0 0 26 25" fill="none" xmlns="http://www.w3.org/2000/svg">
<path fill-rule="evenodd" clip-rule="evenodd" d="M3.5192 8.32274C3 9.27128 3 10.4155 3 12.7039V14.225C3 18.1258 3 20.0763 4.17157 21.2881C5.34315 22.5 7.22876 22.5 11 22.5H15C18.7712 22.5 20.6569 22.5 21.8284 21.2881C23 20.0763 23 18.1258 23 14.225V12.7039C23 10.4155 23 9.27128 22.4808 8.32274C21.9616 7.37421 21.0131 6.78551 19.116 5.60812L17.116 4.36687C15.1106 3.12229 14.1079 2.5 13 2.5C11.8921 2.5 10.8894 3.12229 8.88403 4.36687L6.88403 5.60813C4.98695 6.78551 4.0384 7.37421 3.5192 8.32274ZM9.39752 16.0534C9.64418 15.7207 10.1139 15.6509 10.4467 15.8975C11.175 16.4374 12.0541 16.75 13 16.75C13.9459 16.75 14.8251 16.4374 15.5534 15.8975C15.8862 15.6509 16.3559 15.7207 16.6026 16.0534C16.8492 16.3862 16.7794 16.8559 16.4467 17.1026C15.4742 17.8234 14.285 18.25 13 18.25C11.7151 18.25 10.5259 17.8234 9.55343 17.1026C9.22067 16.8559 9.15086 16.3862 9.39752 16.0534Z" fill="#212121"/>
</svg>
