<svg width="46" height="45" viewBox="0 0 46 45" fill="none" xmlns="http://www.w3.org/2000/svg">
<g clip-path="url(#clip0_260_691)">
<path d="M38.8262 0.5H6.82617C3.51246 0.5 0.826172 3.18629 0.826172 6.5V38.5C0.826172 41.8137 3.51246 44.5 6.82617 44.5H38.8262C42.1399 44.5 44.8262 41.8137 44.8262 38.5V6.5C44.8262 3.18629 42.1399 0.5 38.8262 0.5Z" fill="#0079FF" fill-opacity="0.12"/>
<path fill-rule="evenodd" clip-rule="evenodd" d="M21.6069 20.3708C21.4639 20.2914 21.3252 20.212 21.1885 20.1337C20.8129 19.9186 20.4522 19.7121 20.0595 19.5376C19.7024 19.3591 19.7024 19.24 19.9405 18.9425C20.5058 18.2879 21.0711 17.6184 21.6365 16.9489C22.2019 16.2794 22.7674 15.6096 23.3328 14.955C23.9875 14.1813 24.6421 13.4076 25.2373 12.6339C25.4158 12.4554 25.4753 12.4554 25.6539 12.6339C27.0822 13.8242 28.5106 15.0145 29.9985 16.2048C30.2365 16.4428 30.177 16.5619 29.9985 16.7999C28.7784 18.2581 27.5583 19.7013 26.3383 21.1445C25.1184 22.5876 23.8981 24.0311 22.6782 25.4891C22.5591 25.6676 22.4996 25.6676 22.3211 25.5486C21.0713 24.4773 19.881 23.4656 18.6312 22.4538L18.6907 22.3348C19.2858 22.5729 19.881 22.7514 20.5356 22.9299C21.2498 23.1085 21.964 22.8109 22.202 22.0967C22.4996 21.4421 22.2616 20.7279 21.6069 20.3708ZM27.8559 31.0835C27.6774 31.143 27.5584 31.143 27.4393 30.9644C27.0822 30.4883 26.5466 30.3693 25.9515 30.3693C25.6164 30.3693 25.2748 30.3628 24.931 30.3562C24.2367 30.3429 23.5334 30.3295 22.8567 30.3693C21.8449 30.3693 21.0117 30.0122 20.2976 29.3575L17.9765 27.3935C17.5599 26.9769 17.5004 26.5008 17.8575 26.1437C18.0955 25.7867 18.5716 25.7271 18.9882 26.0247C19.7619 26.5008 20.4761 26.9769 21.1903 27.5126C21.6664 27.8697 22.202 28.0482 22.7972 28.0482H25.7729C26.011 28.0482 26.249 28.0482 26.1895 27.8102C26.1895 27.5126 26.011 27.5126 25.7729 27.5126H23.9875C23.5114 27.4531 23.2138 27.1555 23.2138 26.7389C23.1543 26.3223 23.4518 25.9652 23.928 25.9652C24.3701 25.9652 24.8122 25.9555 25.2543 25.9458C26.3596 25.9215 27.4648 25.8972 28.5701 26.0247C29.5819 26.0842 30.2365 26.6794 30.6531 27.4531C31.0727 28.1664 31.374 28.9388 31.682 29.7287C31.8109 30.0591 31.941 30.3929 32.0815 30.7264C30.5939 30.8454 29.2245 30.9645 27.8559 31.0835ZM21.6664 21.8587C21.7854 21.3826 21.6069 21.085 21.1903 20.8469C20.3571 20.4303 19.5834 19.9542 18.8097 19.4781C18.5121 19.3591 18.3336 19.1805 18.4526 18.8234C18.5121 18.5259 18.7502 18.4663 19.0478 18.4663C19.1093 18.4663 19.1708 18.4743 19.2302 18.482C19.4009 18.504 19.5546 18.5239 19.6429 18.3473C20.1454 17.7946 20.6479 17.1994 21.1862 16.5619C21.2853 16.4445 21.3861 16.325 21.4879 16.2048C21.2498 16.1651 21.0646 16.1254 20.8795 16.0858C20.787 16.066 20.6943 16.0461 20.5951 16.0262C20.4816 16.0062 20.3688 15.9854 20.2565 15.9647C19.3682 15.801 18.5109 15.643 17.5599 15.9072C17.4581 15.939 17.357 15.9708 17.2564 16.0025C16.4155 16.267 15.6068 16.5214 14.7032 16.6809C14.4651 16.6809 14.4651 16.8595 14.4651 16.9785V20.6684C14.6224 20.6235 14.7712 20.587 14.9115 20.5526C15.1429 20.4959 15.3512 20.4449 15.5364 20.3708C16.0125 20.1923 16.4291 20.3113 16.7267 20.7279C16.9647 20.966 17.2028 21.204 17.5599 21.3231C18.5716 21.6801 19.5834 22.0372 20.5951 22.3348C21.1308 22.5133 21.5474 22.2753 21.6664 21.8587ZM32.3789 31.3215C32.617 31.3215 32.6171 31.4405 32.6171 31.5596C32.7361 32.5118 32.6766 32.5118 31.7839 32.5118H27.5584C27.3798 32.5118 27.2608 32.4523 27.2608 32.2142C27.2608 32.1923 27.2599 32.1694 27.259 32.1462C27.2524 31.9808 27.2452 31.7976 27.5584 31.7976C29.1652 31.6786 30.7721 31.5001 32.3789 31.3215ZM13.3939 16.2048H12.9773C12.7392 16.1453 12.6797 16.2643 12.6797 16.5619C12.8582 18.1093 12.9773 19.6566 13.0963 21.204C13.1558 21.5016 13.2748 21.5016 13.5129 21.5016C13.8105 21.5611 13.87 21.3826 13.87 21.1445C13.8305 20.631 13.8434 20.1436 13.8566 19.6477C13.8633 19.3965 13.87 19.1431 13.87 18.8829C13.87 18.6228 13.8633 18.3694 13.8566 18.1182C13.8434 17.6223 13.8305 17.1349 13.87 16.6214C13.87 16.2643 13.751 16.1453 13.3939 16.2048ZM23.9678 16.9949C24.109 17.281 24.3208 17.4956 24.6737 17.4956C24.9752 17.4956 25.1736 17.3913 25.401 17.2717C25.4399 17.2512 25.4796 17.2304 25.5208 17.2095C25.662 17.138 25.8031 17.0664 25.9443 17.2095C26.0855 17.3526 25.9443 17.4956 25.8031 17.6387C25.7325 17.7102 25.662 17.7818 25.5208 17.8533C25.5101 17.8587 25.499 17.8641 25.4878 17.8696C25.35 17.9369 25.1838 18.018 25.3796 18.2825C25.5208 18.4971 25.662 18.5686 25.9443 18.4256C26.0149 18.2825 26.1561 18.0679 26.3678 18.211C26.509 18.354 26.5796 18.354 26.7208 18.211C26.862 17.9964 26.862 17.9248 26.7208 17.7102C26.5796 17.6387 26.6502 17.4241 26.7208 17.3526C26.7208 16.4226 26.1561 16.065 25.309 16.4942C25.241 16.5171 25.1731 16.5622 25.1074 16.6057C24.9686 16.6978 24.8402 16.7829 24.7443 16.6372C24.6303 16.4062 24.7924 16.2684 24.9334 16.1486C24.967 16.1201 24.9995 16.0925 25.0267 16.065C25.0537 16.0512 25.0808 16.0401 25.1064 16.0297C25.2142 15.9855 25.2955 15.9523 25.2384 15.7788C25.0786 15.3739 24.8509 15.4962 24.6321 15.6137C24.4645 15.7037 24.3021 15.791 24.1796 15.6358C24.0384 15.5642 23.8267 15.9219 23.8267 15.9219C24.0334 16.0895 23.9979 16.3063 23.9614 16.529C23.9356 16.6864 23.9094 16.8468 23.9678 16.9949Z" fill="#00B2CC"/>
</g>
<defs>
<clipPath id="clip0_260_691">
<rect width="45" height="44" fill="white" transform="translate(0.5 0.5)"/>
</clipPath>
</defs>
</svg>
