<svg width="46" height="45" viewBox="0 0 46 45" fill="none" xmlns="http://www.w3.org/2000/svg">
<g clip-path="url(#clip0_260_694)">
<path d="M38.8262 0.5H6.82617C3.51246 0.5 0.826172 3.18629 0.826172 6.5V38.5C0.826172 41.8137 3.51246 44.5 6.82617 44.5H38.8262C42.1399 44.5 44.8262 41.8137 44.8262 38.5V6.5C44.8262 3.18629 42.1399 0.5 38.8262 0.5Z" fill="#FF5805" fill-opacity="0.12"/>
<mask id="mask0_260_694" style="mask-type:luminance" maskUnits="userSpaceOnUse" x="10" y="10" width="25" height="25">
<path d="M34.8271 10.5H10.8271V34.5H34.8271V10.5Z" fill="white"/>
</mask>
<g mask="url(#mask0_260_694)">
<path d="M10.8271 16.8219C10.8271 15.5369 11.1952 14.4433 11.9862 13.6641L13.3498 15.0311C11.8362 16.5485 13.1589 21.2646 17.4816 25.5979C21.8043 29.9312 26.5089 31.2572 28.0225 29.7398L29.3862 31.1068C26.8225 33.6767 20.9998 31.845 16.118 26.9649C12.7362 23.5611 10.8271 19.7199 10.8271 16.8219Z" fill="#009A46"/>
<path d="M19.4312 32.2765C18.1494 32.2765 17.0586 31.9074 16.2812 31.1146L17.6449 29.7476C19.1585 31.265 23.8632 29.939 28.1859 25.6057C32.5086 21.2723 33.8313 16.5562 32.3176 15.0389L33.6814 13.6719C36.245 16.2418 34.4176 22.0788 29.5494 26.9726C26.154 30.3627 22.3085 32.2765 19.4312 32.2765Z" fill="#FF5805"/>
<path d="M29.9857 25.0244C29.1539 22.6322 27.463 20.076 25.2266 17.8341C20.3448 12.9403 14.5221 11.1222 11.9585 13.6785C11.7812 13.8699 11.9448 14.321 12.313 14.6901C12.6812 15.0592 13.1448 15.2232 13.3221 15.0455C14.8357 13.5281 19.5403 14.8541 23.863 19.1874C25.9085 21.2379 27.4357 23.5344 28.1721 25.6533C28.813 27.5124 28.7585 29.016 28.0085 29.7679C27.8312 29.9456 27.9812 30.3967 28.363 30.7794C28.7448 31.1622 29.1948 31.3126 29.3721 31.1349C30.6812 29.8089 30.8994 27.6354 29.9857 25.0244Z" fill="#F5AFCB"/>
<path d="M33.6678 13.6752C32.3587 12.3629 30.1905 12.1442 27.5859 13.0464C25.1996 13.8803 22.6496 15.5753 20.4132 17.8172C15.5314 22.711 13.7178 28.548 16.2814 31.1179C16.4587 31.2956 16.9223 31.1452 17.2905 30.7625C17.6587 30.3797 17.8223 29.9286 17.645 29.7509C16.1314 28.2336 17.4541 23.5175 21.7769 19.1841C23.8223 17.1337 26.1132 15.6026 28.2132 14.8645C30.0678 14.222 31.5678 14.2767 32.3178 15.0285C32.495 15.2062 32.945 15.0559 33.3269 14.6731C33.7087 14.2903 33.8587 13.8666 33.6678 13.6752Z" fill="#FF9B00"/>
</g>
</g>
<defs>
<clipPath id="clip0_260_694">
<rect width="45" height="44" fill="white" transform="translate(0.5 0.5)"/>
</clipPath>
</defs>
</svg>
