<svg width="46" height="45" viewBox="0 0 46 45" fill="none" xmlns="http://www.w3.org/2000/svg">
<g clip-path="url(#clip0_260_704)">
<path d="M38.8262 0.5H6.82617C3.51246 0.5 0.826172 3.18629 0.826172 6.5V38.5C0.826172 41.8137 3.51246 44.5 6.82617 44.5H38.8262C42.1399 44.5 44.8262 41.8137 44.8262 38.5V6.5C44.8262 3.18629 42.1399 0.5 38.8262 0.5Z" fill="#00C3F7" fill-opacity="0.12"/>
<mask id="mask0_260_704" style="mask-type:luminance" maskUnits="userSpaceOnUse" x="10" y="10" width="25" height="25">
<path d="M34.8271 10.5H10.8271V34.5H34.8271V10.5Z" fill="white"/>
</mask>
<g mask="url(#mask0_260_704)">
<path d="M32.2979 10.5H12.0647C11.419 10.5 10.8271 11.0959 10.8271 11.8002V14.0756C10.8271 14.7799 11.419 15.3758 12.0647 15.3758H32.2979C32.9975 15.3758 33.5356 14.7799 33.5894 14.0756V11.8002C33.5894 11.0959 32.9975 10.5 32.2979 10.5ZM32.2979 23.2856H12.0647C11.7419 23.2856 11.419 23.4481 11.1499 23.6648C10.9347 23.8815 10.8271 24.2065 10.8271 24.5858V26.8612C10.8271 27.5655 11.419 28.1614 12.0647 28.1614H32.2979C32.9975 28.1614 33.5356 27.6196 33.5894 26.8612V24.5858C33.5894 23.8273 32.9975 23.2856 32.2979 23.2856ZM23.4728 29.6783H12.0647C11.7419 29.6783 11.419 29.7867 11.2037 30.0576C10.9885 30.2743 10.8271 30.5993 10.8271 30.9786V33.2539C10.8271 33.9582 11.419 34.5542 12.0647 34.5542H23.419C24.1185 34.5542 24.6567 33.9582 24.6567 33.2539V30.9244C24.7105 30.2201 24.1724 29.6783 23.4728 29.6783ZM33.5894 16.8928H12.0647C11.7419 16.8928 11.419 17.0011 11.2037 17.272C10.9885 17.4887 10.8271 17.8138 10.8271 18.193V20.4684C10.8271 21.1727 11.419 21.7686 12.0647 21.7686H33.5356C34.2351 21.7686 34.7732 21.1727 34.7732 20.4684V18.193C34.8271 17.4887 34.2889 16.8928 33.5894 16.8928Z" fill="#00C3F7"/>
</g>
</g>
<defs>
<clipPath id="clip0_260_704">
<rect width="45" height="44" fill="white" transform="translate(0.5 0.5)"/>
</clipPath>
</defs>
</svg>
