<svg width="46" height="45" viewBox="0 0 46 45" fill="none" xmlns="http://www.w3.org/2000/svg">
<g clip-path="url(#clip0_260_711)">
<path d="M38.8262 0.5H6.82617C3.51246 0.5 0.826172 3.18629 0.826172 6.5V38.5C0.826172 41.8137 3.51246 44.5 6.82617 44.5H38.8262C42.1399 44.5 44.8262 41.8137 44.8262 38.5V6.5C44.8262 3.18629 42.1399 0.5 38.8262 0.5Z" fill="#00B2CC" fill-opacity="0.12"/>
<path d="M30.3344 15.9966C30.3923 12.9843 27.9067 10.6719 24.4891 10.6719H17.4209C17.2562 10.672 17.0968 10.7308 16.9716 10.8379C16.8464 10.945 16.7635 11.0932 16.7378 11.256L13.9053 28.9539C13.8926 29.0341 13.8975 29.1161 13.9195 29.1942C13.9416 29.2723 13.9803 29.3448 14.033 29.4065C14.0857 29.4682 14.1512 29.5178 14.225 29.5518C14.2987 29.5858 14.3789 29.6034 14.4601 29.6034H18.648L17.9931 33.7021C17.9804 33.7823 17.9853 33.8643 18.0073 33.9425C18.0294 34.0207 18.0682 34.0931 18.121 34.1549C18.1738 34.2166 18.2393 34.2662 18.3131 34.3001C18.3869 34.3341 18.4672 34.3517 18.5484 34.3516H21.9596C22.1247 34.3516 22.2714 34.2921 22.3964 34.1854C22.5215 34.0783 22.542 33.9305 22.5675 33.7676L23.5689 27.8757C23.5943 27.7133 23.6771 27.5022 23.8027 27.395C23.9277 27.2878 24.0371 27.2294 24.2016 27.2288H26.2899C29.6367 27.2288 32.4768 24.8504 32.9959 21.5415C33.3629 19.1923 32.3556 17.0559 30.3344 15.9966Z" fill="#001C64"/>
<path d="M19.5545 23.08L18.5114 29.6945L17.8565 33.843C17.8438 33.9232 17.8486 34.0052 17.8707 34.0834C17.8928 34.1616 17.9316 34.234 17.9844 34.2958C18.0372 34.3575 18.1027 34.4071 18.1765 34.441C18.2503 34.475 18.3306 34.4926 18.4118 34.4925H22.0222C22.1869 34.4923 22.3461 34.4334 22.4712 34.3264C22.5963 34.2193 22.6791 34.0711 22.7048 33.9085L23.6563 27.8785C23.682 27.7159 23.7648 27.5678 23.89 27.4608C24.0151 27.3539 24.1743 27.2951 24.3389 27.295H26.4645C29.8113 27.295 32.6509 24.8538 33.17 21.5449C33.5381 19.1963 32.3559 17.0598 30.3347 16C30.3293 16.2501 30.3077 16.4996 30.2692 16.747C29.7501 20.0553 26.91 22.497 23.5632 22.497H20.237C20.0725 22.4971 19.9134 22.5558 19.7882 22.6627C19.6631 22.7695 19.5802 22.9175 19.5545 23.08Z" fill="#00B2CC"/>
<path d="M18.5102 29.694H14.3098C14.2286 29.6941 14.1484 29.6765 14.0746 29.6426C14.0008 29.6086 13.9353 29.559 13.8825 29.4973C13.8298 29.4355 13.7911 29.3631 13.7691 29.2849C13.747 29.2067 13.7422 29.1247 13.755 29.0445L16.587 11.0835C16.6127 10.9208 16.6956 10.7726 16.8209 10.6656C16.9461 10.5587 17.1054 10.4999 17.2701 10.5H24.4893C27.9064 10.5 30.392 12.9872 30.3341 15.9995C29.4837 15.5535 28.4845 15.2985 27.3895 15.2985H21.3709C21.2063 15.2987 21.0472 15.3575 20.9221 15.4645C20.797 15.5714 20.7141 15.7195 20.6884 15.882L19.5544 23.0795L18.5102 29.694Z" fill="#003087"/>
</g>
<defs>
<clipPath id="clip0_260_711">
<rect width="45" height="44" fill="white" transform="translate(0.5 0.5)"/>
</clipPath>
</defs>
</svg>
