<svg width="46" height="45" viewBox="0 0 46 45" fill="none" xmlns="http://www.w3.org/2000/svg">
<g clip-path="url(#clip0_260_716)">
<path d="M38.8262 0.5H6.82617C3.51246 0.5 0.826172 3.18629 0.826172 6.5V38.5C0.826172 41.8137 3.51246 44.5 6.82617 44.5H38.8262C42.1399 44.5 44.8262 41.8137 44.8262 38.5V6.5C44.8262 3.18629 42.1399 0.5 38.8262 0.5Z" fill="#3395FF" fill-opacity="0.12"/>
<path fill-rule="evenodd" clip-rule="evenodd" d="M21.8249 18.2711L20.6611 22.554L27.3204 18.247L22.9654 34.4959L27.3879 34.5L33.8213 10.5L21.8249 18.2711Z" fill="#3395FF"/>
<path fill-rule="evenodd" clip-rule="evenodd" d="M14.6579 27.6674L12.8271 34.4982H21.8921C21.8921 34.4982 25.5999 20.6056 25.601 20.6016C25.5975 20.6038 14.6579 27.6674 14.6579 27.6674Z" fill="#072654"/>
</g>
<defs>
<clipPath id="clip0_260_716">
<rect width="45" height="44" fill="white" transform="translate(0.5 0.5)"/>
</clipPath>
</defs>
</svg>
