<svg width="46" height="45" viewBox="0 0 46 45" fill="none" xmlns="http://www.w3.org/2000/svg">
<g clip-path="url(#clip0_260_720)">
<path d="M38.8262 0.5H6.82617C3.51246 0.5 0.826172 3.18629 0.826172 6.5V38.5C0.826172 41.8137 3.51246 44.5 6.82617 44.5H38.8262C42.1399 44.5 44.8262 41.8137 44.8262 38.5V6.5C44.8262 3.18629 42.1399 0.5 38.8262 0.5Z" fill="#635BFF" fill-opacity="0.12"/>
<path fill-rule="evenodd" clip-rule="evenodd" d="M21.5894 17.6455C21.5894 16.62 22.4416 16.2164 23.8583 16.2164C25.8948 16.2164 28.4625 16.8273 30.4989 17.9073V11.7109C28.2743 10.8382 26.0829 10.5 23.8694 10.5C18.4351 10.5 14.8271 13.2927 14.8271 17.9618C14.8271 25.2382 24.9983 24.0818 24.9983 27.2236C24.9983 28.4345 23.9247 28.8273 22.4306 28.8273C20.206 28.8273 17.3726 27.9327 15.1259 26.7218V32.9945C17.6161 34.0527 20.1285 34.5 22.4306 34.5C27.9976 34.5 31.8271 31.7836 31.8271 27.06C31.7828 19.2055 21.5894 20.6018 21.5894 17.6455Z" fill="#635BFF"/>
</g>
<defs>
<clipPath id="clip0_260_720">
<rect width="45" height="44" fill="white" transform="translate(0.5 0.5)"/>
</clipPath>
</defs>
</svg>
