<svg width="32" height="23" viewBox="0 0 32 23" fill="none" xmlns="http://www.w3.org/2000/svg">
<g clip-path="url(#clip0_260_723)">
<path d="M0.5 14.9453H31.5V21.8403H0.5V14.9453Z" fill="#399565"/>
<path d="M0.5 8.05469H31.5V14.9497H0.5V8.05469Z" fill="white"/>
<path d="M0.5 1.15625H31.5V8.05125H0.5V1.15625Z" fill="#FF9933"/>
<path d="M15.9853 8.375C15.368 8.375 14.7646 8.55805 14.2513 8.90099C13.7381 9.24393 13.3381 9.73136 13.1018 10.3016C12.8656 10.8719 12.8038 11.4995 12.9242 12.1049C13.0447 12.7103 13.3419 13.2664 13.7784 13.7029C14.2149 14.1394 14.771 14.4366 15.3764 14.557C15.9818 14.6775 16.6093 14.6156 17.1796 14.3794C17.7499 14.1432 18.2373 13.7432 18.5803 13.2299C18.9232 12.7167 19.1063 12.1133 19.1063 11.496C19.1064 11.0861 19.0258 10.6802 18.869 10.3015C18.7122 9.92277 18.4823 9.57867 18.1924 9.28883C17.9026 8.99899 17.5585 8.7691 17.1798 8.6123C16.8011 8.45551 16.3952 8.37487 15.9853 8.375ZM16.0443 9.059C16.4301 9.06678 16.8079 9.16983 17.1443 9.359L16.1343 10.872L16.0443 9.059ZM15.8063 10.842L14.7943 9.326C15.1306 9.13683 15.5085 9.03378 15.8943 9.026L15.8063 10.842ZM15.3303 11.674L13.8143 12.685C13.6251 12.3487 13.522 11.9708 13.5143 11.585L15.3303 11.674ZM13.5473 11.436C13.555 11.0502 13.6581 10.6723 13.8473 10.336L15.3633 11.347L13.5473 11.436ZM15.9263 13.96C15.5405 13.9522 15.1626 13.8492 14.8263 13.66L15.8373 12.144L15.9263 13.96ZM16.1643 12.147L17.1753 13.663C16.8389 13.8522 16.4611 13.9552 16.0753 13.963L16.1643 12.147ZM16.6403 11.315L18.1563 10.304C18.3454 10.6403 18.4485 11.0182 18.4563 11.404L16.6403 11.315ZM18.4523 11.56C18.4445 11.9458 18.3414 12.3237 18.1523 12.66L16.6363 11.649L18.4523 11.56ZM18.0663 10.223L16.4663 11.023L17.2663 9.423C17.5948 9.6175 17.8697 9.89071 18.0663 10.218V10.223ZM14.7073 9.423L15.5073 11.023L13.9073 10.223C14.1107 9.89763 14.3839 9.62162 14.7073 9.415V9.423ZM13.9073 12.782L15.5073 11.982L14.7073 13.582C14.3764 13.3841 14.1007 13.1063 13.9053 12.774L13.9073 12.782ZM17.2663 13.582L16.4663 11.982L18.0663 12.782C17.8768 13.1156 17.599 13.3904 17.2633 13.576L17.2663 13.582Z" fill="#2F3B7C"/>
</g>
<defs>
<clipPath id="clip0_260_723">
<rect width="31" height="22" fill="white" transform="translate(0.5 0.5)"/>
</clipPath>
</defs>
</svg>
