<svg width="25" height="25" viewBox="0 0 25 25" fill="none" xmlns="http://www.w3.org/2000/svg">
<path fill-rule="evenodd" clip-rule="evenodd" d="M3.67157 5.67157C2.5 6.84315 2.5 8.72876 2.5 12.5C2.5 16.2712 2.5 18.1569 3.67157 19.3284C4.84315 20.5 6.72876 20.5 10.5 20.5H14.5C18.2712 20.5 20.1569 20.5 21.3284 19.3284C22.5 18.1569 22.5 16.2712 22.5 12.5C22.5 8.72876 22.5 6.84315 21.3284 5.67157C20.1569 4.5 18.2712 4.5 14.5 4.5H10.5C6.72876 4.5 4.84315 4.5 3.67157 5.67157ZM19.0762 8.01986C19.3413 8.33807 19.2983 8.81099 18.9801 9.07617L16.7837 10.9066C15.8973 11.6452 15.1789 12.2439 14.5448 12.6517C13.8843 13.0765 13.2411 13.3449 12.5 13.3449C11.7589 13.3449 11.1157 13.0765 10.4552 12.6517C9.82112 12.2439 9.10271 11.6452 8.21636 10.9066L6.01986 9.07617C5.70165 8.81099 5.65866 8.33807 5.92383 8.01986C6.18901 7.70165 6.66193 7.65866 6.98014 7.92383L9.13903 9.72291C10.072 10.5004 10.7197 11.0384 11.2666 11.3901C11.7959 11.7306 12.1549 11.8449 12.5 11.8449C12.8451 11.8449 13.2041 11.7306 13.7334 11.3901C14.2803 11.0384 14.928 10.5004 15.861 9.72291L18.0199 7.92383C18.3381 7.65866 18.811 7.70165 19.0762 8.01986Z" fill="#00B2CC"/>
</svg>
