<svg width="14" height="14" viewBox="0 0 14 14" fill="none" xmlns="http://www.w3.org/2000/svg">
<g clip-path="url(#clip0_260_733)">
<path d="M7.141 4.726C6.66336 4.726 6.19644 4.86764 5.7993 5.133C5.40215 5.39836 5.09262 5.77554 4.90983 6.21682C4.72705 6.6581 4.67922 7.14368 4.7724 7.61214C4.86559 8.08061 5.09559 8.51092 5.43334 8.84866C5.77108 9.18641 6.20139 9.41641 6.66986 9.5096C7.13832 9.60278 7.6239 9.55496 8.06518 9.37217C8.50646 9.18938 8.88364 8.87985 9.149 8.4827C9.41436 8.08556 9.556 7.61864 9.556 7.141C9.55613 6.82382 9.49376 6.50972 9.37244 6.21666C9.25112 5.9236 9.07324 5.65732 8.84896 5.43304C8.62468 5.20876 8.3584 5.03088 8.06534 4.90956C7.77228 4.78824 7.45818 4.72587 7.141 4.726ZM12.541 6.537C12.404 5.31246 11.8546 4.17093 10.9831 3.29992C10.1115 2.42891 8.96962 1.88023 7.745 1.744V0.5H6.537V1.744C5.31292 1.88087 4.17173 2.42983 3.30078 3.30078C2.42983 4.17173 1.88087 5.31292 1.744 6.537H0.5V7.745H1.744C1.88065 8.96926 2.42953 10.1107 3.3005 10.9818C4.17147 11.853 5.31277 12.4021 6.537 12.539V13.783H7.745V12.538C8.96941 12.4013 10.1109 11.8523 10.9821 10.9811C11.8533 10.1099 12.4023 8.96842 12.539 7.744H13.783V6.537H12.541ZM7.141 11.367C6.30518 11.367 5.48812 11.1191 4.79316 10.6548C4.0982 10.1904 3.55654 9.53042 3.23669 8.75822C2.91683 7.98602 2.83314 7.13631 2.9962 6.31655C3.15926 5.49678 3.56175 4.74378 4.15277 4.15277C4.74378 3.56175 5.49678 3.15926 6.31655 2.9962C7.13631 2.83314 7.98602 2.91683 8.75822 3.23669C9.53042 3.55654 10.1904 4.0982 10.6548 4.79316C11.1191 5.48812 11.367 6.30518 11.367 7.141C11.3674 7.69608 11.2584 8.24579 11.0461 8.75869C10.8339 9.27159 10.5226 9.73761 10.1301 10.1301C9.73761 10.5226 9.27159 10.8339 8.75869 11.0461C8.24579 11.2584 7.69608 11.3674 7.141 11.367Z" fill="white"/>
</g>
<defs>
<clipPath id="clip0_260_733">
<rect width="13.282" height="13.282" fill="white" transform="translate(0.5 0.5)"/>
</clipPath>
</defs>
</svg>
