<svg xmlns="http://www.w3.org/2000/svg" width="119" height="125.326" viewBox="0 0 119 125.326">
  <g id="loginlogo" transform="translate(0 0)">
    <g id="popPROVIDER" transform="translate(0 0)">
      <g id="Group_5636" data-name="Group 5636" transform="translate(0 6.326)">
        <path id="Path_29399" data-name="Path 29399" d="M69.389,50.68A57.578,57.578,0,1,1,11.81,108.258,57.577,57.577,0,0,1,69.389,50.68Z" transform="translate(-9.888 -48.758)" fill="#00a0e3" fill-rule="evenodd"/>
        <path id="Path_29400" data-name="Path 29400" d="M59.5,157.87a59.319,59.319,0,1,1,23.159-4.676A59.14,59.14,0,0,1,59.5,157.87Zm0-115.156A55.656,55.656,0,1,0,115.157,98.37,55.719,55.719,0,0,0,59.5,42.714Z" transform="translate(0 -38.87)" fill="#fefefe"/>
      </g>
      <path id="Path_29401" data-name="Path 29401" d="M227.205,233.253a9.213,9.213,0,0,1-9.2,9.2H195.285a9.212,9.212,0,0,1-9.2-9.2v-5.8a9.213,9.213,0,0,1,9.2-9.2H218a9.215,9.215,0,0,1,9.2,9.2v5.8Zm-6.888-23.463H192.97a17.089,17.089,0,0,0-17.07,17.069v6.986a17.089,17.089,0,0,0,17.069,17.069h27.348a17.088,17.088,0,0,0,17.069-17.069v-6.986A17.088,17.088,0,0,0,220.317,209.79Z" transform="translate(-147.271 -175.645)" fill="#fefefe" fill-rule="evenodd"/>
      <path id="Path_29402" data-name="Path 29402" d="M585.523,306.186A5.607,5.607,0,0,1,584,315.2c.036-.514.034-9.582,0-10.1A5.633,5.633,0,0,1,585.523,306.186Z" transform="translate(-488.948 -255.442)" fill="#fefefe" fill-rule="evenodd"/>
      <path id="Path_29403" data-name="Path 29403" d="M314.983,133.03a10.013,10.013,0,0,1,9.681,7.5H305.3A10.016,10.016,0,0,1,314.983,133.03Z" transform="translate(-255.61 -111.378)" fill="#fefefe" fill-rule="evenodd"/>
      <path id="Path_29404" data-name="Path 29404" d="M126.13,310.149A5.62,5.62,0,0,1,129.3,305.1c-.036.514-.036,9.582,0,10.094A5.612,5.612,0,0,1,126.13,310.149Z" transform="translate(-105.601 -255.442)" fill="#fefefe" fill-rule="evenodd"/>
      <path id="Path_29405" data-name="Path 29405" d="M139.858,560.877a3.209,3.209,0,1,1-4.538-4.539l11.007-11.007v9.079l-6.47,6.468Z" transform="translate(-112.508 -456.572)" fill="#fefefe" fill-rule="evenodd"/>
      <path id="Path_29406" data-name="Path 29406" d="M273.177,526.8l-.02-10.2a11.092,11.092,0,0,0-11.081-11.079h-6.984a11.092,11.092,0,0,0-11.081,11.079l-.112,9.93c-3.8-1.1-2.694-.322-5.96-1.748l.085-38.447a21.962,21.962,0,0,0,6.886,1.1h27.348a21.973,21.973,0,0,0,6.888-1.1l-.024,38.419c-3.761,1.333-1.079.547-5.946,2.044Z" transform="translate(-199.213 -407.184)" fill="#fefefe" fill-rule="evenodd"/>
      <path id="Path_29407" data-name="Path 29407" d="M532.789,560.868a3.208,3.208,0,0,1-4.539,0l-6.47-6.468v-9.08l11.009,11.009a3.208,3.208,0,0,1,0,4.539h0Z" transform="translate(-436.855 -456.564)" fill="#fefefe" fill-rule="evenodd"/>
      <path id="Path_29408" data-name="Path 29408" d="M364.782,133.03h0v7.5h9.684A10.016,10.016,0,0,0,364.782,133.03Z" transform="translate(-305.409 -111.378)" fill="#ebecec" fill-rule="evenodd"/>
      <path id="Path_29409" data-name="Path 29409" d="M368.273,505.526a11.092,11.092,0,0,1,11.081,11.079l0,10.1c4.626-8.708,5.988-4.718,5.986-9.891V486.34a21.971,21.971,0,0,1-6.888,1.1H364.78v18.083h3.493Z" transform="translate(-305.409 -407.183)" fill="#ebecec" fill-rule="evenodd"/>
      <path id="Path_29410" data-name="Path 29410" d="M378.455,209.79H364.78v8.457h11.359a9.215,9.215,0,0,1,9.2,9.2v5.8a9.213,9.213,0,0,1-9.2,9.2H364.78v8.457h13.675a17.088,17.088,0,0,0,17.069-17.069v-6.986a17.088,17.088,0,0,0-17.069-17.069Z" transform="translate(-305.409 -175.645)" fill="#fefefe" fill-rule="evenodd"/>
      <g id="Group_5637" data-name="Group 5637" transform="translate(15.312)">
        <path id="Path_29411" data-name="Path 29411" d="M175.645,104.877a3.208,3.208,0,0,1-4.539,0l-6.47-6.47V89.329l11.009,11.009a3.208,3.208,0,0,1,0,4.539h0ZM152.758,75.841H125.409a17.089,17.089,0,0,1-17.069-17.07V51.787a17.089,17.089,0,0,1,17.069-17.07h27.348a17.089,17.089,0,0,1,17.069,17.07v6.984a17.089,17.089,0,0,1-17.069,17.07Zm6.9,42.723c-2.1.762-1.611.575-5.962,1.855l-.039-10.425a11.093,11.093,0,0,0-11.081-11.081H135.59a11.317,11.317,0,0,0-11.069,11.349l-.086,10.076a42.874,42.874,0,0,1-5.96-1.981l.047-38.629a21.978,21.978,0,0,0,6.888,1.1h27.348a21.978,21.978,0,0,0,6.888-1.1l.011,38.834Zm-10.843,3a30.563,30.563,0,0,1-6.575.858l-5.685.1c-2.222-.1-4.78-.749-7.052-1.021V109.994a6.1,6.1,0,0,1,6.089-6.09h6.986a6.062,6.062,0,0,1,6.086,6.053l.153,11.611Zm-9.73-99.344a10.013,10.013,0,0,1,9.681,7.5H129.4a10.017,10.017,0,0,1,9.684-7.5Zm0-16.055a2.378,2.378,0,1,1-2.38,2.378A2.381,2.381,0,0,1,139.084,6.17ZM113.531,98.408l-6.47,6.47a3.21,3.21,0,1,1-4.539-4.539l11.009-11.009v9.079h0ZM103.406,60.325a5.608,5.608,0,0,1,0-10.094c-.036.513-.036,9.58,0,10.094Zm72.879-9.01a5.605,5.605,0,0,1-1.523,9.01c.036-.514.036-9.58,0-10.1a5.608,5.608,0,0,1,1.523,1.086ZM164.636,82.27V77.353a22.157,22.157,0,0,0,9.036-11.567,10.594,10.594,0,0,0,0-21.016,22.106,22.106,0,0,0-19.806-15.016,15.026,15.026,0,0,0-12.287-12.31V15.482a7.369,7.369,0,1,0-4.992,0v1.963A15.026,15.026,0,0,0,124.3,29.754,22.1,22.1,0,0,0,104.495,44.77a10.594,10.594,0,0,0,0,21.016,22.174,22.174,0,0,0,9.038,11.567V82.27L98.994,96.808a8.2,8.2,0,1,0,11.6,11.6l2.941-2.939-.039,10.12c4.528,3.416,14.137,6.466,24.095,6.87l6.452-.27c7.5-.693,13.169-2.241,16.977-4.233a15.178,15.178,0,0,0,3.735-2.29l-.116-10.2,2.941,2.939a8.2,8.2,0,1,0,11.6-11.6Z" transform="translate(-95.06 -0.988)" fill="#a2d9f7" fill-rule="evenodd"/>
        <path id="Path_29412" data-name="Path 29412" d="M135.577,121.731a27.942,27.942,0,0,1-3.421-.428,54.964,54.964,0,0,1-14.8-3.781l-.052-.023a24.219,24.219,0,0,1-4.906-2.749l-.076-.059.037-9.751-2.611,2.611A8.392,8.392,0,1,1,97.88,95.683L112.361,81.2V76.469a22.407,22.407,0,0,1-8.989-11.5,10.787,10.787,0,0,1-6.134-18.309,10.658,10.658,0,0,1,6.134-3.055,22.3,22.3,0,0,1,19.787-15.026A15.173,15.173,0,0,1,135.416,16.3V14.627a7.589,7.589,0,0,1-4.873-7.067A7.569,7.569,0,0,1,138.1,0h0a7.56,7.56,0,0,1,2.689,14.627V16.3a15.175,15.175,0,0,1,12.257,12.287,22.3,22.3,0,0,1,19.787,15.026,10.785,10.785,0,0,1,9.294,10.685,10.806,10.806,0,0,1-9.294,10.68,22.4,22.4,0,0,1-8.988,11.5V81.2l14.481,14.481a8.392,8.392,0,1,1-11.868,11.868l-2.607-2.606.111,9.823-.076.059c-.243.182-.425.326-.576.444a15.549,15.549,0,0,1-3.187,1.864,41.854,41.854,0,0,1-13,3.773l-.446.1a25.912,25.912,0,0,1-5.409.623l-5.69.1Zm-3.337-.8c1.458.171,2.923.29,4.375.348l6.436-.27q2.068-.19,3.994-.475c.189-.041.382-.078.594-.116l-.151-11.445a5.885,5.885,0,0,0-5.894-5.864h-6.986a5.9,5.9,0,0,0-5.9,5.9v11.343c.864.109,1.779.272,2.664.428l.861.151Zm2.37-18.2H141.6a6.268,6.268,0,0,1,6.278,6.245l.15,11.413q2.378-.386,4.5-.91l-.039-10.464A10.9,10.9,0,0,0,141.6,98.12H134.61a11.167,11.167,0,0,0-10.877,11.157l-.086,10.006c1.507.407,3.078.763,4.683,1.058V109.008a6.289,6.289,0,0,1,6.281-6.283Zm0-4.99H141.6a11.286,11.286,0,0,1,11.273,11.273l.037,10.168c.885-.26,1.559-.457,2.093-.612,1.88-.547,2-.583,3.486-1.121l-.011-38.436a22.184,22.184,0,0,1-6.7,1.03H124.43a22.184,22.184,0,0,1-6.7-1.03l-.047,38.232c.737.278,1.217.464,1.567.6q.913.353,2.3.758c.422.122.97.283,1.709.5l.085-9.823a11.612,11.612,0,0,1,3.3-8.1,11.015,11.015,0,0,1,7.964-3.442Zm24.248-19.258v.265l.011,38.582q.559-.256,1.077-.529a15.271,15.271,0,0,0,3.128-1.826c.137-.106.3-.233.5-.389l-.12-10.571,3.275,3.273a8.01,8.01,0,0,0,11.326-11.328L163.464,81.359v-5.1l.088-.057a22.006,22.006,0,0,0,8.958-11.466l.039-.114.119-.015A10.4,10.4,0,0,0,178.7,46.932a10.275,10.275,0,0,0-6.03-2.961l-.12-.015-.039-.114a22.029,22.029,0,0,0-19.634-14.886l-.155-.008L152.7,28.8a14.794,14.794,0,0,0-12.129-12.152l-.16-.028V14.355l.127-.046A7.177,7.177,0,0,0,138.1.381h0a7.185,7.185,0,0,0-7.173,7.176,7.2,7.2,0,0,0,4.746,6.753l.127.046v2.261l-.16.028A14.792,14.792,0,0,0,123.512,28.8l-.026.153-.155.008A22.023,22.023,0,0,0,103.7,43.843l-.039.114-.119.015a10.4,10.4,0,0,0-9.075,10.317A10.419,10.419,0,0,0,103.54,64.6l.119.015.039.114a22.013,22.013,0,0,0,8.96,11.466l.088.057v5.1L98.151,95.952a8.01,8.01,0,0,0,11.326,11.328l3.271-3.27-.041,10.49a23.92,23.92,0,0,0,4.6,2.581l.047-38.608.252.083a21.806,21.806,0,0,0,6.828,1.092h27.348a21.806,21.806,0,0,0,6.828-1.092l.252-.083Zm13.537,26.546a3.374,3.374,0,0,1-2.4-1L163.464,97.5V87.875L174.8,99.212a3.4,3.4,0,0,1,0,4.81h0a3.387,3.387,0,0,1-2.406,1Zm-8.546-7.682,6.413,6.413a3.018,3.018,0,1,0,4.269-4.268L163.848,88.8v8.535Zm-60.035,7.682a3.4,3.4,0,0,1-2.406-5.807l11.336-11.336V97.5l-6.527,6.527a3.38,3.38,0,0,1-2.4,1ZM112.36,88.8,101.678,99.487a3.019,3.019,0,0,0,4.269,4.269l6.413-6.413V88.808Zm39.419-13.76H124.43a17.281,17.281,0,0,1-17.261-17.262V50.8A17.281,17.281,0,0,1,124.43,33.537h27.348A17.281,17.281,0,0,1,169.039,50.8v6.984a17.281,17.281,0,0,1-17.261,17.262ZM124.43,33.921A16.9,16.9,0,0,0,107.553,50.8v6.984A16.9,16.9,0,0,0,124.43,74.661h27.348a16.9,16.9,0,0,0,16.877-16.878V50.8a16.9,16.9,0,0,0-16.877-16.878H124.43Zm49.137,25.734.023-.332c.036-.518.036-9.551,0-10.07l-.023-.33.3.145a5.78,5.78,0,0,1,1.576,1.123h0a5.762,5.762,0,0,1,1.7,4.1,5.842,5.842,0,0,1-3.273,5.218l-.3.145Zm.415-10.093c.024,1.574.024,7.878,0,9.453a5.457,5.457,0,0,0,2.773-4.723,5.384,5.384,0,0,0-1.585-3.83,5.461,5.461,0,0,0-1.187-.9ZM102.641,59.655l-.3-.145a5.841,5.841,0,0,1-3.273-5.22,5.808,5.808,0,0,1,3.275-5.22l.3-.145-.023.33c-.036.516-.036,9.549,0,10.068l.023.332Zm-.415-10.091a5.419,5.419,0,0,0-2.772,4.727,5.455,5.455,0,0,0,2.773,4.725c-.024-1.576-.024-7.878,0-9.451ZM148.033,28.93H128.172l.062-.241a10.19,10.19,0,0,1,9.87-7.646h0a10.185,10.185,0,0,1,9.866,7.646l.062.239Zm-19.362-.384h18.864a9.808,9.808,0,0,0-18.864,0ZM138.1,10.13a2.57,2.57,0,1,1,2.572-2.57A2.572,2.572,0,0,1,138.1,10.13Zm0-4.756a2.186,2.186,0,1,0,2.186,2.186A2.189,2.189,0,0,0,138.1,5.374Z" transform="translate(-94.08 0)" fill="#00b2cc"/>
      </g>
      <path id="Path_29413" data-name="Path 29413" d="M257.216,264.655a6.1,6.1,0,0,1-6.089,6.089H223.781a6.1,6.1,0,0,1-6.09-6.089v-6.986a6.1,6.1,0,0,1,6.089-6.089h27.348a6.1,6.1,0,0,1,6.089,6.089Zm-6.089-18.065H223.781A11.093,11.093,0,0,0,212.7,257.669v6.986a11.091,11.091,0,0,0,11.079,11.079h27.348a11.091,11.091,0,0,0,11.079-11.079v-6.986a11.092,11.092,0,0,0-11.079-11.079Z" transform="translate(-178.081 -206.455)" fill="#00b2cc" fill-rule="evenodd"/>
      <path id="Path_29414" data-name="Path 29414" d="M283.123,320.816a3.693,3.693,0,1,0-3.693-3.693A3.694,3.694,0,0,0,283.123,320.816Z" transform="translate(-233.95 -262.416)" fill="#fefefe" fill-rule="evenodd"/>
      <path id="Path_29415" data-name="Path 29415" d="M408.453,320.816a3.693,3.693,0,1,0-3.693-3.693A3.693,3.693,0,0,0,408.453,320.816Z" transform="translate(-338.881 -262.416)" fill="#fefefe" fill-rule="evenodd"/>
    </g>
  </g>
</svg>
