<svg width="25" height="25" viewBox="0 0 25 25" fill="none" xmlns="http://www.w3.org/2000/svg">
<path fill-rule="evenodd" clip-rule="evenodd" d="M12.5 1.5C7.52944 1.5 3.5 5.14588 3.5 9.6433C3.5 13.4878 7.85914 18.6273 10.0136 21.1675C10.3598 21.5757 10.649 21.9167 10.8542 22.1745C11.8989 23.6085 13.1011 23.6085 14.1458 22.1745C14.351 21.9167 14.6403 21.5756 14.9865 21.1673C17.141 18.6271 21.5 13.4877 21.5 9.6433C21.5 5.14588 17.4706 1.5 12.5 1.5ZM12.5 5.5C12.8954 5.5 13.093 5.5 13.249 5.5609C13.4569 5.64209 13.6221 5.79783 13.7082 5.99385C13.7475 6.08333 13.7629 6.18739 13.7689 6.33918C13.7778 6.56226 13.8991 6.76876 14.1042 6.88038C14.3092 6.99201 14.5596 6.98784 14.7689 6.88352C14.9113 6.81254 15.0146 6.77308 15.1165 6.76044C15.3396 6.73274 15.5652 6.78974 15.7437 6.91891C15.8776 7.01575 15.9764 7.17709 16.174 7.49971C16.3717 7.82252 16.4707 7.98422 16.4927 8.14199C16.5221 8.35235 16.4616 8.56509 16.3247 8.7334C16.2621 8.81028 16.1742 8.87484 16.0378 8.95568C15.8373 9.07444 15.7083 9.27672 15.7083 9.49996C15.7083 9.7232 15.8373 9.92556 16.0378 10.0443C16.1742 10.1251 16.2621 10.1897 16.3246 10.2666C16.4616 10.4349 16.5221 10.6476 16.4927 10.858C16.4706 11.0158 16.3718 11.1772 16.1741 11.5C15.9764 11.8228 15.8776 11.9842 15.7437 12.0811C15.5652 12.2102 15.3395 12.2672 15.1164 12.2395C15.0146 12.2269 14.9113 12.1874 14.7689 12.1165C14.5595 12.0122 14.3092 12.008 14.1041 12.1196C13.8991 12.2312 13.7778 12.4377 13.7689 12.6608C13.7629 12.8126 13.7475 12.9167 13.7082 13.0062C13.6221 13.2022 13.4569 13.3579 13.249 13.4391C13.093 13.5 12.8954 13.5 12.5 13.5C12.1046 13.5 11.9069 13.5 11.751 13.4391C11.5431 13.3579 11.3779 13.2022 11.2918 13.0062C11.2525 12.9167 11.2371 12.8126 11.2311 12.6608C11.2222 12.4377 11.1009 12.2312 10.8958 12.1196C10.6908 12.008 10.4404 12.0122 10.2311 12.1165C10.0887 12.1874 9.98538 12.2269 9.88353 12.2396C9.66041 12.2672 9.43477 12.2102 9.25623 12.0811C9.12237 11.9843 9.02355 11.8229 8.82599 11.5003C8.62831 11.1775 8.52929 11.0158 8.50726 10.858C8.47789 10.6476 8.53835 10.4349 8.67535 10.2666C8.73788 10.1898 8.82578 10.1252 8.96219 10.0443C9.16268 9.92556 9.29169 9.72324 9.2917 9.5C9.29171 9.27676 9.1627 9.0744 8.96219 8.9556C8.8258 8.8748 8.73792 8.81024 8.67539 8.7334C8.53839 8.56506 8.47793 8.35232 8.5073 8.14196C8.52933 7.98419 8.62817 7.82279 8.82585 7.49997C9.02353 7.17716 9.12237 7.01575 9.25628 6.91888C9.43481 6.78972 9.66046 6.73271 9.88357 6.76041C9.98542 6.77305 10.0887 6.81252 10.2311 6.8835C10.4405 6.98782 10.6908 6.99198 10.8959 6.88037C11.1009 6.76876 11.2222 6.56227 11.2311 6.3392C11.2371 6.1874 11.2525 6.08334 11.2918 5.99385C11.3779 5.79783 11.5431 5.64209 11.751 5.5609C11.9069 5.5 12.1046 5.5 12.5 5.5ZM13.7728 9.5C13.7728 10.1628 13.2029 10.7 12.5 10.7C11.797 10.7 11.2272 10.1628 11.2272 9.5C11.2272 8.83724 11.797 8.3 12.5 8.3C13.2029 8.3 13.7728 8.83724 13.7728 9.5Z" fill="#00B2CC"/>
</svg>
