<svg width="25" height="25" viewBox="0 0 25 25" fill="none" xmlns="http://www.w3.org/2000/svg">
<path fill-rule="evenodd" clip-rule="evenodd" d="M5.67157 3.67157C4.5 4.84315 4.5 6.72876 4.5 10.5V14.5C4.5 18.2712 4.5 20.1569 5.67157 21.3284C6.84315 22.5 8.72876 22.5 12.5 22.5C16.2712 22.5 18.1569 22.5 19.3284 21.3284C20.5 20.1569 20.5 18.2712 20.5 14.5V10.5C20.5 6.72876 20.5 4.84315 19.3284 3.67157C18.1569 2.5 16.2712 2.5 12.5 2.5C8.72876 2.5 6.84315 2.5 5.67157 3.67157ZM9.5 4.75C9.08579 4.75 8.75 5.08579 8.75 5.5C8.75 5.91421 9.08579 6.25 9.5 6.25H15.5C15.9142 6.25 16.25 5.91421 16.25 5.5C16.25 5.08579 15.9142 4.75 15.5 4.75H9.5ZM12.5 19.5C13.6046 19.5 14.5 18.6046 14.5 17.5C14.5 16.3954 13.6046 15.5 12.5 15.5C11.3954 15.5 10.5 16.3954 10.5 17.5C10.5 18.6046 11.3954 19.5 12.5 19.5Z" fill="#1C274C"/>
</svg>
