<svg xmlns="http://www.w3.org/2000/svg" xmlns:xlink="http://www.w3.org/1999/xlink" width="329.699" height="213.7" viewBox="0 0 329.699 213.7">
  <defs>
    <clipPath id="clip-path">
      <rect id="Rectangle_18173" data-name="Rectangle 18173" width="329.7" height="213.7" fill="none"/>
    </clipPath>
    <linearGradient id="linear-gradient" x1="0.735" y1="-4.173" x2="0.133" y2="-4.224" gradientUnits="objectBoundingBox">
      <stop offset="0" stop-color="#00d8ff"/>
      <stop offset="1" stop-color="#42d9f4"/>
    </linearGradient>
    <linearGradient id="linear-gradient-2" y1="0.504" x2="0.99" y2="0.504" gradientUnits="objectBoundingBox">
      <stop offset="0" stop-color="#2b0246"/>
      <stop offset="1" stop-color="#6a4586"/>
    </linearGradient>
    <linearGradient id="linear-gradient-3" y1="45.319" x2="1" y2="45.319" gradientUnits="objectBoundingBox">
      <stop offset="0" stop-color="#ea84de"/>
      <stop offset="1" stop-color="#c352f7"/>
    </linearGradient>
    <linearGradient id="linear-gradient-4" y1="1.019" x2="0.999" y2="1.019" gradientUnits="objectBoundingBox">
      <stop offset="0" stop-color="#f46595"/>
      <stop offset="1" stop-color="#f89597"/>
    </linearGradient>
    <linearGradient id="linear-gradient-5" x1="0" y1="4.995" x2="1.001" y2="4.995" xlink:href="#linear-gradient-3"/>
    <linearGradient id="linear-gradient-6" x1="0" y1="12.102" x2="1" y2="12.102" xlink:href="#linear-gradient-4"/>
    <linearGradient id="linear-gradient-7" x1="0" y1="14.861" x2="1" y2="14.861" xlink:href="#linear-gradient-4"/>
    <linearGradient id="linear-gradient-8" x1="-0.014" y1="19.444" x2="1" y2="19.444" xlink:href="#linear-gradient-4"/>
    <linearGradient id="linear-gradient-9" x1="-0.022" y1="43.66" x2="0.978" y2="43.66" xlink:href="#linear-gradient-3"/>
    <linearGradient id="linear-gradient-10" x1="0" y1="52.514" x2="1.021" y2="52.514" xlink:href="#linear-gradient-3"/>
    <linearGradient id="linear-gradient-11" x1="-0.016" y1="26.047" x2="1" y2="26.047" xlink:href="#linear-gradient-2"/>
    <linearGradient id="linear-gradient-12" x1="-0.016" y1="6.391" x2="1" y2="6.391" xlink:href="#linear-gradient-2"/>
    <linearGradient id="linear-gradient-13" x1="0.022" y1="-14.543" x2="1" y2="-14.543" xlink:href="#linear-gradient-2"/>
    <linearGradient id="linear-gradient-14" x1="0" y1="42.423" x2="1" y2="42.423" xlink:href="#linear-gradient-2"/>
    <linearGradient id="linear-gradient-15" x1="0.011" y1="-0.317" x2="1" y2="-0.317" xlink:href="#linear-gradient-2"/>
    <linearGradient id="linear-gradient-16" x1="0.023" y1="-0.358" x2="0.976" y2="-0.138" xlink:href="#linear-gradient-4"/>
    <linearGradient id="linear-gradient-17" x1="-0.06" y1="-1.23" x2="0.635" y2="-0.075" gradientUnits="objectBoundingBox">
      <stop offset="0" stop-color="#79bffd"/>
      <stop offset="1" stop-color="#3bddeb"/>
    </linearGradient>
    <linearGradient id="linear-gradient-18" x1="0.632" y1="-20.02" x2="-0.369" y2="-20.02" xlink:href="#linear-gradient-2"/>
    <linearGradient id="linear-gradient-19" x1="1.299" y1="-20.02" x2="0.297" y2="-20.02" xlink:href="#linear-gradient-2"/>
    <linearGradient id="linear-gradient-20" x1="0.359" y1="5.25" x2="2.795" y2="4.023" xlink:href="#linear-gradient-2"/>
    <linearGradient id="linear-gradient-21" x1="0.565" y1="1.058" x2="0.494" y2="1.667" xlink:href="#linear-gradient-2"/>
    <linearGradient id="linear-gradient-22" x1="0.562" y1="4.5" x2="0.455" y2="5.59" xlink:href="#linear-gradient-2"/>
  </defs>
  <g id="no_data_found" clip-path="url(#clip-path)">
    <g id="Group_5625" data-name="Group 5625">
      <path id="Path_29239" data-name="Path 29239" d="M329.7,79.1c-3.1-2.5-7.5-1.8-11.4-2.2a19.914,19.914,0,0,1-7.6-2.4c-2.9-1.6-5.8-4.1-9.1-3.4-1.7.4-3,1.5-4.6,2.2-3.2,1.4-6.9.5-10.1-.8-2.8-1.2-5.8-2.8-8.8-2.1a12.373,12.373,0,0,0-3.3,1.5,94.539,94.539,0,0,1-16.9,7.5l71.7-.3Z" fill="#ebebff"/>
      <path id="Path_29240" data-name="Path 29240" d="M177.1,31c-4.8-3.9-11.8-2.8-17.9-3.4a30.143,30.143,0,0,1-12-3.8c-4.5-2.6-9.2-6.5-14.3-5.4-2.6.6-4.8,2.4-7.3,3.4-5,2.1-10.9.9-15.9-1.3-4.4-1.9-9.1-4.4-13.8-3.3a17.51,17.51,0,0,0-5.2,2.4A146.672,146.672,0,0,1,64.1,31.4L177,31Z" fill="#ebebff"/>
      <path id="Path_29241" data-name="Path 29241" d="M112.9,89.8c-4.8-3.9-11.8-2.8-17.9-3.4a30.143,30.143,0,0,1-12-3.8c-4.5-2.6-9.2-6.5-14.3-5.4-2.6.6-4.8,2.4-7.3,3.4-5,2.1-10.9.9-15.9-1.3-4.4-1.9-9.1-4.4-13.8-3.3a17.51,17.51,0,0,0-5.2,2.4A146.672,146.672,0,0,1-.1,90.2l112.9-.4Z" fill="#ebebff"/>
      <path id="Path_29242" data-name="Path 29242" d="M104.8,209.9s-28.1-42-18.7-57.7,25.5,28.6,29.4,52.4l-10.7,5.3Z" fill="#00b2cc"/>
      <path id="Path_29243" data-name="Path 29243" d="M113.1,206s-13.2-34.8-4-44.9,13.5,24.6,12.5,42.6l-8.5,2.3Z" fill="#00b2cc"/>
      <path id="Path_29244" data-name="Path 29244" d="M198.6,212.6s18.9-28.2,12.6-38.7-17.1,19.2-19.8,35.2l7.2,3.6Z" fill="#00b2cc"/>
      <path id="Path_29245" data-name="Path 29245" d="M193,210.3s8.9-23.4,2.7-30.2-9.1,16.5-8.4,28.6l5.7,1.6Z" fill="#00b2cc"/>
      <path id="Path_29246" data-name="Path 29246" d="M302.7,213.6c-11.7-3.5-19.1-8.6-27.7-12.9-7.6-3.9-14.5-9.2-22.4-12.4s-17.6-3.9-24.4,1.3c-5.4,4.1-8.1,11.2-13.8,14.8-9.9,6.2-22.7-.7-31.7-8-9.1-7.4-20-15.9-31.2-12.5-4.2,1.3-7.8,4.1-11.5,6.5-9.3,5.9-21,8.9-31.3,5.3-13.9-4.7-24.1-20.3-38.8-19.2-9.2.7-16.4,8-22.7,14.8-6.4,7-12.8,15.3-19.2,22.3H302.7Z" fill="url(#linear-gradient)"/>
      <path id="Path_29247" data-name="Path 29247" d="M149.6,6.8V213.7H160V6.8a5.2,5.2,0,1,0-10.4,0Z" fill="url(#linear-gradient-2)"/>
      <path id="Path_29248" data-name="Path 29248" d="M186.3.3l2.3.8L187.2,5l-2.3-.8L186.3.3Z" fill="url(#linear-gradient-3)"/>
      <path id="Path_29249" data-name="Path 29249" d="M191.9,92l-16.5,29.7a3.343,3.343,0,0,1-4.7,1.3L120.9,95.3a3.754,3.754,0,0,1-1.6-1.9l-8.6-24.6a3.4,3.4,0,0,1,2.6-4.5l25.1-5.1a3.442,3.442,0,0,1,2.4.4l49.9,27.7A3.343,3.343,0,0,1,192,92Z" fill="url(#linear-gradient-4)"/>
      <path id="Path_29250" data-name="Path 29250" d="M137.2,124.9l-7.4,21.2a2.268,2.268,0,0,0,1.4,2.9l35.5,12.4a2.208,2.208,0,0,0,1.6,0l15.9-6.6a2.22,2.22,0,0,0,1.1-3.2L176.8,137a2.335,2.335,0,0,0-1.2-1l-35.5-12.4a2.268,2.268,0,0,0-2.9,1.4Z" fill="#00b2cc"/>
      <path id="Path_29251" data-name="Path 29251" d="M147,43.9l-4.1,13a1.391,1.391,0,0,0,.9,1.7l21.7,6.9a3.352,3.352,0,0,0,1,0l9.5-4.3a1.386,1.386,0,0,0,.6-2l-5.4-8.7a1.242,1.242,0,0,0-.8-.6L148.7,43A1.391,1.391,0,0,0,147,43.9Z" fill="#00b2cc"/>
      <path id="Path_29252" data-name="Path 29252" d="M128.9,17.7l4.2,24.5a2.512,2.512,0,0,0,2.9,2.1l41.1-7a2.143,2.143,0,0,0,1.5-.9l11.9-14.9a2.45,2.45,0,0,0-.7-3.7L173.7,8.2a2.492,2.492,0,0,0-1.7-.3l-41.1,7a2.512,2.512,0,0,0-2.1,2.9Z" fill="url(#linear-gradient-5)"/>
      <path id="Path_29253" data-name="Path 29253" d="M108.9,48.5l4.5-2.2,3.7,7.6-4.5,2.2Z" fill="url(#linear-gradient-6)"/>
      <path id="Path_29254" data-name="Path 29254" d="M101.6,56.2l2.2-3.5,5.8,3.7-2.2,3.5Z" fill="url(#linear-gradient-7)"/>
      <path id="Path_29255" data-name="Path 29255" d="M99.7,67.6l-.2-4.1,6.8-.4.2,4.1Z" fill="url(#linear-gradient-8)"/>
      <path id="Path_29256" data-name="Path 29256" d="M192.4,4.2l1.9,1.6-2.7,3.1-1.9-1.6Z" fill="url(#linear-gradient-9)"/>
      <path id="Path_29257" data-name="Path 29257" d="M198,9.9l.8,2.3-3.9,1.4-.8-2.3Z" fill="url(#linear-gradient-10)"/>
      <path id="Path_29258" data-name="Path 29258" d="M154.8,29.5a3.222,3.222,0,0,0,3.2-3.2,3.2,3.2,0,1,0-3.2,3.2Z" fill="url(#linear-gradient-11)"/>
      <path id="Path_29259" data-name="Path 29259" d="M154.8,92.4a3.222,3.222,0,0,0,3.2-3.2,3.2,3.2,0,1,0-3.2,3.2Z" fill="url(#linear-gradient-12)"/>
      <path id="Path_29260" data-name="Path 29260" d="M154.4,144.9a2.3,2.3,0,1,0-2.3-2.3A2.263,2.263,0,0,0,154.4,144.9Z" fill="url(#linear-gradient-13)"/>
      <path id="Path_29261" data-name="Path 29261" d="M154.8,54.8a1.3,1.3,0,1,0-1.3-1.3A1.324,1.324,0,0,0,154.8,54.8Z" fill="url(#linear-gradient-14)"/>
      <path id="Path_29262" data-name="Path 29262" d="M68.1,103.8V213.5h9.1V103.8c0-3.5-2-6.4-4.6-6.4s-4.6,2.9-4.6,6.4Z" fill="url(#linear-gradient-15)"/>
      <path id="Path_29263" data-name="Path 29263" d="M36.6,110.9l65.6-9.1a6.663,6.663,0,0,1,7.5,5.7l3.8,27.1a6.592,6.592,0,0,1-5.7,7.5l-65.6,9.1a6.592,6.592,0,0,1-7.5-5.7l-3.8-27.1a6.592,6.592,0,0,1,5.7-7.5Z" fill="url(#linear-gradient-16)"/>
      <path id="Path_29264" data-name="Path 29264" d="M75.1,124.2a3.4,3.4,0,1,1-3.4-3.4A3.372,3.372,0,0,1,75.1,124.2Z" fill="#fff"/>
      <path id="Path_29265" data-name="Path 29265" d="M77.4,132.8c0,1.9-2.6,3.4-5.8,3.4s-5.8-1.5-5.8-3.4,2.6-3.4,5.8-3.4S77.4,130.9,77.4,132.8Z" fill="#fff"/>
      <path id="Path_29266" data-name="Path 29266" d="M67,121.8h.5a4.708,4.708,0,0,0,0,4.6H67a2.4,2.4,0,1,1,0-4.8Z" fill="#fff"/>
      <path id="Path_29267" data-name="Path 29267" d="M65.4,135.2a3.923,3.923,0,0,1-.9-2.4,3.013,3.013,0,0,1,.9-2.3c-1.8.1-3.3,1.1-3.3,2.4s1.5,2.2,3.3,2.4Z" fill="#fff"/>
      <path id="Path_29268" data-name="Path 29268" d="M76.5,124.2a4.645,4.645,0,0,1-.6,2.3h.5a2.4,2.4,0,1,0,0-4.8h-.5a4.645,4.645,0,0,1,.6,2.3Z" fill="#fff"/>
      <path id="Path_29269" data-name="Path 29269" d="M78,135.2c1.8-.1,3.3-1.1,3.3-2.4s-1.4-2.2-3.3-2.4a3.642,3.642,0,0,1,.9,2.3,4.169,4.169,0,0,1-.9,2.4Z" fill="#fff"/>
      <path id="Path_29270" data-name="Path 29270" d="M82.4,115.2a.454.454,0,0,1,.5,0l3.2,3.2,3.2-3.2a.354.354,0,0,1,.5.5l-3.2,3.2,3.2,3.2a.354.354,0,0,1-.5.5l-3.2-3.2-3.2,3.2a.354.354,0,0,1-.5-.5l3.2-3.2-3.2-3.2A.454.454,0,0,1,82.4,115.2Z" fill="#fff" fill-rule="evenodd"/>
      <path id="Path_29271" data-name="Path 29271" d="M231.8,127.4c1.4.6,1.6-1.3,1.6-1.3,1.4.2.4-5.3.4-5.5a3.231,3.231,0,0,0,2.2,1.7l-1.7-7c.4-3.4-2.2-7-2.2-7l.8-5.4,3.2-35.6c.7-4.5-8.4-6.9-8.4-6,0,8.3-1.3,57.3-1.3,57.3l3.6,7.7c.8,1.5,1.8,1.2,1.8,1.2Z" fill="#fdbfba"/>
      <path id="Path_29272" data-name="Path 29272" d="M231.9,97.4l.8,41.9a13.4,13.4,0,0,0,0,4l10.6,61.4h13.8L249,142.5l7.7-45.1H231.9Z" fill="url(#linear-gradient-17)"/>
      <path id="Path_29273" data-name="Path 29273" d="M258.1,213.4H230.9s-2.4-3.5,7.2-6.7a10.38,10.38,0,0,0,1-.4l4-2.2,14.6-.4.4,9.8Z" fill="url(#linear-gradient-18)"/>
      <path id="Path_29274" data-name="Path 29274" d="M266.7,213.4H239.5s-2.4-3.5,7.2-6.7c.3-.1.7-.3,1-.4l4.8-2.6h13.8l.4,9.8Z" fill="url(#linear-gradient-19)"/>
      <path id="Path_29275" data-name="Path 29275" d="M266.5,101.9l-6.1,42.7,6.1,59.3H252.3l-10.4-60.6c0-.5-.1-1.1-.1-1.6l1.2-39.8h23.5Z" fill="#00b2cc"/>
      <path id="Path_29276" data-name="Path 29276" d="M253.2,21.7,252,39.3l-10.2.5V29.7h-.1C232.5,28.3,235.8,6,235.8,6c9.9-4.4,17,.2,19.4,6.8,2.4,6.5-1.8,9-1.8,9Z" fill="#fdbfba"/>
      <path id="Path_29277" data-name="Path 29277" d="M230.6,44.4l-4.5,22h7.8l-3.2-22Z" fill="url(#linear-gradient-20)"/>
      <path id="Path_29278" data-name="Path 29278" d="M272.3,50.6c-.3.8-.6,1.6-.9,2.5-4.1,12.4-5.1,53-5.1,53l-34.5.5-1.3-62.3c-.4.2,10.5-6.9,10.6-7,6.7,4.2,11.3-2.5,11.3-2.5a120.524,120.524,0,0,1,16.3,5.3.367.367,0,0,1,.3.1h0a6.543,6.543,0,0,1,3.8,5.4,16.368,16.368,0,0,1-.6,4.8Z" fill="url(#linear-gradient-21)"/>
      <path id="Path_29279" data-name="Path 29279" d="M272.3,50.6c-.3.8-.6,1.6-.9,2.5q-1.65,4.2-4.5,9.9c-1.9,3.8-11-4.4-11-4.4l5.1-15a5.781,5.781,0,0,1,4.5-3.9,5.2,5.2,0,0,1,3.2.4.367.367,0,0,1,.3.1h0a6.543,6.543,0,0,1,3.8,5.4,16.368,16.368,0,0,1-.6,4.8Z" fill="url(#linear-gradient-22)"/>
      <path id="Path_29280" data-name="Path 29280" d="M266.5,63.9l-2.9,4.2-8.8,12.8a5,5,0,0,1-9-1.8l-2.4-11.6-1.5-8.9-.3-2.1L240,46.7s-2.9-2.9-3.4-4.4c0,0-1-5.3-.5-6.3s1.5,0,1.5,0,.3-4.3.3-5.3c0-1.9.2-1.9.6-1.9,1.3,0,1.9,1.9,2,5.3l1,3.9,2.6,2.5-.2-3.5s2.4-.5,2.4,3.4l-1,3.9,4.1,14.3,2.7,9.1,3.7-9.1h.3c0,.1,10.5,5.3,10.5,5.3Z" fill="#fdbfba"/>
      <path id="Path_29281" data-name="Path 29281" d="M249.9,16.1s-3.1-5-1.4-7.3c0,0-8.8,6.6-13.1.2-4.4-6.7,4.8-12.7,15.7-6.2,0,0,3.2-1,5.9,3a24.448,24.448,0,0,1-4.4,18.5V21.1s3.3-5.8-.8-6.4a2.552,2.552,0,0,0-1.9,1.5Z" fill="#473765"/>
      <path id="Path_29282" data-name="Path 29282" d="M250.5,25.9c-2.5,6.6-6.8,8.7-8.8,9.3V29.7h0c0-.1,0-.1-.1-.1a21.245,21.245,0,0,0,8.9-3.7Z" opacity="0.1"/>
      <path id="Path_29283" data-name="Path 29283" d="M266.5,63.9l-2.9,4.2L256,58.7l10.5,5.2Z" opacity="0.1"/>
    </g>
  </g>
</svg>
