<svg id="noImageAvailable" xmlns="http://www.w3.org/2000/svg" width="88" height="88.001" viewBox="0 0 88 88.001">
  <g id="Workings_Pro">
    <g id="Group_5628" data-name="Group 5628">
      <path id="Path_29308" data-name="Path 29308" d="M103,59A44,44,0,1,1,17.711,43.761a1.486,1.486,0,0,0,1.031-2.544A44.007,44.007,0,0,1,103,59Z" transform="translate(-15 -15)" fill="#00b2cc"/>
      <g id="Group_5627" data-name="Group 5627" transform="translate(6.338 25.956)">
        <path id="Path_29309" data-name="Path 29309" d="M62.785,208.659a1.3,1.3,0,0,1-1.561.93A1.363,1.363,0,0,1,61.3,206.9C62.452,206.706,62.949,207.612,62.785,208.659Z" transform="translate(-60.101 -205.862)" fill="#fefefe"/>
        <path id="Path_29310" data-name="Path 29310" d="M69.13,240.761a2.12,2.12,0,1,1-2.119-2.121A2.12,2.12,0,0,1,69.13,240.761Z" transform="translate(-64.217 -233.168)" fill="#fefefe"/>
        <path id="Path_29311" data-name="Path 29311" d="M92.76,202.671a2.97,2.97,0,1,1-2.971-2.971A2.97,2.97,0,0,1,92.76,202.671Z" transform="translate(-83.065 -199.7)" fill="#fefefe"/>
        <circle id="Ellipse_447" data-name="Ellipse 447" cx="1.974" cy="1.974" r="1.974" transform="translate(9.776 8.197) rotate(-76.72)" fill="#fefefe"/>
        <path id="Path_29312" data-name="Path 29312" d="M160.7,216.376c-2.553,4.608-5.371,9.109-8.027,13.661-1.695,2.906-3.838,7.965-7.153,9.2-3.536,1.322-6.345-.932-8.253-3.692l-6.588-11.331a14.115,14.115,0,0,0-1.039,1.626c-2.09,3.47-4.044,7.2-6.228,10.588a5.558,5.558,0,0,1-3.255,2.719c-6.022,1.842-8.443-3.4-10.86-7.7-1.733-3.086-3.437-6.141-5.239-9.191-.663-1.124-1.238-2.715-2.286-3.5-1.117-.838-2.17-.725-2.73-2.324a3.331,3.331,0,0,1,4.046-4.323c2.411.514,1.914,2.87,2.1,4.7.381,3.7,5.713,2.985,5.415-.544-.174-2.06-3.148-2.44-2.07-5.28a2.866,2.866,0,0,1,5.209-.156c.51,1.173.471,2.365,1.128,3.65,1.721,3.36,3.763,6.963,5.638,10.26a18.932,18.932,0,0,0,1.945,3.064c-.361-3.26-2.036-6.313-2.694-9.482a3.447,3.447,0,0,1,.635-3.286c.534-.912,1.172-1.781,1.707-2.7,2.212-3.808,3.858-8.5,9.219-8.055,4.623.379,7.171,6.959,9.129,10.444,2.167,3.855,4.463,8,6.871,11.694a4.132,4.132,0,0,0,.773,1.019c-.538-2.05-1.081-4.116-1.721-6.136-.422-1.329-1.314-2.868-1.217-4.293.083-1.218,1.537-3.484,2.188-4.612,2.48-4.3,5.278-10.186,11.382-7.583,5.389,2.3,4.274,7.417,1.976,11.566Z" transform="translate(-93.39 -203.541)" fill="#fefefe"/>
      </g>
    </g>
    <g id="Group_5629" data-name="Group 5629" transform="translate(51.326 52.002)">
      <path id="Path_29313" data-name="Path 29313" d="M382.521,386.741c.055.051.164-.133.2-.171a3.73,3.73,0,0,1,3.491-1.37c3.515.488,4.286,4.934,2.94,7.663a3.82,3.82,0,0,1-6.277.937c-.087-.093-.2-.27-.287-.343a.061.061,0,0,0-.066-.02v3.807c-.021.655-.268,1.365-1.02,1.421-.891.067-1.2-.4-1.27-1.231v-11.1c.062-.6.318-1.143.982-1.193C382.228,385.061,382.574,385.85,382.521,386.741Zm2.209.216c-3.049.311-2.723,6.889.711,6.166C388.2,392.542,387.972,386.629,384.73,386.958Z" transform="translate(-380.23 -385.12)"/>
      <path id="Path_29314" data-name="Path 29314" d="M505.107,385.047l.358-.007a4.99,4.99,0,0,1,.741,9.861c-2.885.448-5.318-1.109-5.711-4.054-.422-3.141,1.355-5.677,4.612-5.8Zm-.038,1.811c-2.32.183-2.643,3.534-1.737,5.157a2.22,2.22,0,0,0,3.946-.051C508.241,390.165,507.71,386.651,505.069,386.859Z" transform="translate(-483.542 -385.04)"/>
      <path id="Path_29315" data-name="Path 29315" d="M459.3,386.623c.035.008.038-.01.053-.032.089-.114.167-.273.254-.393a2.268,2.268,0,0,1,1.269-1,3.187,3.187,0,0,1,2.364.533,1.007,1.007,0,0,1-.833,1.788,4.561,4.561,0,0,0-1.494-.261c-1.168.09-1.387,1.613-1.48,2.528a34.835,34.835,0,0,0-.077,3.492,2.146,2.146,0,0,1-.247,1.3,1.188,1.188,0,0,1-1.852.094c-.458-.571-.318-1.765-.3-2.441,0-.134-.09-3.956-.021-5.554.037-.861.351-1.592,1.346-1.515.8.062.947.807,1.022,1.469Z" transform="translate(-446.133 -385.135)"/>
    </g>
  </g>
</svg>
