<svg xmlns="http://www.w3.org/2000/svg" width="189.904" height="200" viewBox="0 0 189.904 200">
  <g id="noImageFound" transform="translate(0 0)">
    <g id="popPROVIDER" transform="translate(0 0)" opacity="0.55">
      <g id="Group_5636" data-name="Group 5636" transform="translate(0 10.096)">
        <path id="Path_29399" data-name="Path 29399" d="M103.7,50.68A91.884,91.884,0,1,1,11.81,142.565,91.883,91.883,0,0,1,103.7,50.68Z" transform="translate(-8.743 -47.613)" fill="#707070" fill-rule="evenodd"/>
        <path id="Path_29400" data-name="Path 29400" d="M94.955,228.774a94.663,94.663,0,1,1,36.958-7.462,94.377,94.377,0,0,1-36.958,7.462Zm0-183.769a88.817,88.817,0,1,0,88.817,88.817A88.919,88.919,0,0,0,94.955,45.005Z" transform="translate(0 -38.87)" fill="#fefefe"/>
      </g>
      <path id="Path_29401" data-name="Path 29401" d="M257.774,247.234a14.7,14.7,0,0,1-14.688,14.686H206.835a14.7,14.7,0,0,1-14.686-14.686v-9.26a14.7,14.7,0,0,1,14.686-14.688h36.251a14.705,14.705,0,0,1,14.688,14.688v9.26ZM246.782,209.79H203.141A27.272,27.272,0,0,0,175.9,237.029v11.148a27.271,27.271,0,0,0,27.239,27.239h43.644a27.27,27.27,0,0,0,27.239-27.239V237.029A27.27,27.27,0,0,0,246.782,209.79Z" transform="translate(-130.212 -155.3)" fill="#fefefe" fill-rule="evenodd"/>
      <path id="Path_29402" data-name="Path 29402" d="M586.431,306.832A8.948,8.948,0,0,1,584,321.211c.057-.821.055-15.291,0-16.111A8.987,8.987,0,0,1,586.431,306.832Z" transform="translate(-432.314 -225.854)" fill="#fefefe" fill-rule="evenodd"/>
      <path id="Path_29403" data-name="Path 29403" d="M320.752,133.03A15.979,15.979,0,0,1,336.2,145H305.3A15.985,15.985,0,0,1,320.752,133.03Z" transform="translate(-226.002 -98.477)" fill="#fefefe" fill-rule="evenodd"/>
      <path id="Path_29404" data-name="Path 29404" d="M126.13,313.157a8.968,8.968,0,0,1,5.052-8.057c-.057.821-.057,15.291,0,16.109A8.955,8.955,0,0,1,126.13,313.157Z" transform="translate(-93.369 -225.854)" fill="#fefefe" fill-rule="evenodd"/>
      <path id="Path_29405" data-name="Path 29405" d="M143.123,570.14a5.121,5.121,0,1,1-7.241-7.244l17.566-17.566v14.488L143.123,570.14Z" transform="translate(-99.477 -403.688)" fill="#fefefe" fill-rule="evenodd"/>
      <path id="Path_29406" data-name="Path 29406" d="M294.173,550.913l-.031-16.275a17.7,17.7,0,0,0-17.683-17.68H265.314a17.7,17.7,0,0,0-17.683,17.68l-.179,15.847c-6.06-1.753-4.3-.514-9.512-2.79l.135-61.355a35.045,35.045,0,0,0,10.989,1.761h43.643A35.064,35.064,0,0,0,303.7,486.34l-.039,61.311c-6,2.127-1.722.873-9.488,3.262Z" transform="translate(-176.138 -360.02)" fill="#fefefe" fill-rule="evenodd"/>
      <path id="Path_29407" data-name="Path 29407" d="M539.349,570.133a5.12,5.12,0,0,1-7.244,0L521.78,559.811V545.32l17.569,17.569a5.12,5.12,0,0,1,0,7.244h0Z" transform="translate(-386.254 -403.68)" fill="#fefefe" fill-rule="evenodd"/>
      <path id="Path_29408" data-name="Path 29408" d="M364.783,133.03h0V145h15.454A15.984,15.984,0,0,0,364.783,133.03Z" transform="translate(-270.033 -98.477)" fill="#ebecec" fill-rule="evenodd"/>
      <path id="Path_29409" data-name="Path 29409" d="M370.354,516.958a17.7,17.7,0,0,1,17.683,17.68l.005,16.114c7.382-13.9,9.556-7.53,9.553-15.784V486.34A35.06,35.06,0,0,1,386.6,488.1H364.78v28.857h5.574Z" transform="translate(-270.033 -360.02)" fill="#ebecec" fill-rule="evenodd"/>
      <path id="Path_29410" data-name="Path 29410" d="M386.6,209.79H364.78v13.5h18.127A14.705,14.705,0,0,1,397.6,237.974v9.26a14.7,14.7,0,0,1-14.688,14.686H364.78v13.5H386.6a27.27,27.27,0,0,0,27.239-27.239V237.029A27.27,27.27,0,0,0,386.6,209.79Z" transform="translate(-270.033 -155.3)" fill="#fefefe" fill-rule="evenodd"/>
      <g id="Group_5637" data-name="Group 5637" transform="translate(24.436)">
        <path id="Path_29411" data-name="Path 29411" d="M223.547,166.664a5.12,5.12,0,0,1-7.244,0l-10.325-10.325V141.851l17.569,17.569a5.12,5.12,0,0,1,0,7.244Zm-36.524-46.337H143.379a27.272,27.272,0,0,1-27.239-27.241V81.94A27.272,27.272,0,0,1,143.379,54.7h43.644A27.272,27.272,0,0,1,214.261,81.94V93.085a27.272,27.272,0,0,1-27.239,27.241Zm11.01,68.178c-3.348,1.216-2.571.917-9.514,2.961l-.062-16.636a17.7,17.7,0,0,0-17.683-17.683H159.626c-9.748,0-17.665,8.361-17.665,18.111l-.138,16.08a68.418,68.418,0,0,1-9.512-3.161l.075-61.646a35.073,35.073,0,0,0,10.992,1.758h43.644a35.073,35.073,0,0,0,10.992-1.758l.018,61.973Zm-17.3,4.795a48.772,48.772,0,0,1-10.493,1.369l-9.073.161c-3.545-.158-7.628-1.195-11.254-1.629V174.83a9.729,9.729,0,0,1,9.717-9.719h11.148a9.674,9.674,0,0,1,9.712,9.66l.244,18.53ZM165.2,34.764a15.979,15.979,0,0,1,15.449,11.971h-30.9A15.985,15.985,0,0,1,165.2,34.764Zm0-25.62a3.795,3.795,0,1,1-3.8,3.795A3.8,3.8,0,0,1,165.2,9.144Zm-40.779,147.2L114.1,166.664a5.122,5.122,0,1,1-7.244-7.244l17.569-17.569v14.488h0ZM108.265,95.566a8.949,8.949,0,0,1,0-16.109c-.057.818-.057,15.288,0,16.109Zm116.3-14.379a8.945,8.945,0,0,1-2.431,14.379c.057-.821.057-15.288,0-16.111A8.948,8.948,0,0,1,224.568,81.187Zm-18.589,49.4v-7.847A35.359,35.359,0,0,0,220.4,104.28a16.906,16.906,0,0,0,0-33.537,35.278,35.278,0,0,0-31.607-23.963,23.979,23.979,0,0,0-19.608-19.644V24a11.76,11.76,0,1,0-7.966,0v3.132A23.979,23.979,0,0,0,141.61,46.779,35.275,35.275,0,0,0,110,70.743a16.906,16.906,0,0,0,0,33.537,35.386,35.386,0,0,0,14.423,18.459v7.847l-23.2,23.2a13.087,13.087,0,1,0,18.506,18.509l4.693-4.691-.062,16.15c7.226,5.452,22.561,10.319,38.451,10.964l10.3-.431c11.963-1.106,21.015-3.577,27.093-6.756,4.654-2.436,3.727-1.964,5.961-3.655l-.184-16.273,4.693,4.691a13.087,13.087,0,1,0,18.506-18.509Z" transform="translate(-94.946 -0.873)" fill="#575757" fill-rule="evenodd"/>
        <path id="Path_29412" data-name="Path 29412" d="M160.3,194.262a44.589,44.589,0,0,1-5.46-.683,87.713,87.713,0,0,1-23.62-6.034l-.083-.036a38.65,38.65,0,0,1-7.828-4.387l-.122-.093.06-15.561-4.166,4.166a13.392,13.392,0,1,1-18.937-18.94l23.109-23.109v-7.553a35.758,35.758,0,0,1-14.345-18.348,17.215,17.215,0,0,1-9.789-29.218,17.008,17.008,0,0,1,9.789-4.875,35.584,35.584,0,0,1,31.576-23.979A24.214,24.214,0,0,1,160.045,26V23.343a12.111,12.111,0,0,1-7.777-11.278A12.078,12.078,0,0,1,164.328,0h.005a12.065,12.065,0,0,1,4.291,23.343V26a24.217,24.217,0,0,1,19.561,19.608,35.592,35.592,0,0,1,31.576,23.979,17.211,17.211,0,0,1,14.831,17.052,17.245,17.245,0,0,1-14.831,17.044,35.747,35.747,0,0,1-14.343,18.348v7.553L228.528,152.7a13.393,13.393,0,1,1-18.94,18.94l-4.161-4.158.177,15.675-.122.093c-.387.291-.678.519-.919.709-1.166.912-1.213.948-5.086,2.974-5.213,2.727-12.306,4.777-20.753,6.021-.239.052-.473.1-.712.158a41.351,41.351,0,0,1-8.631.995l-9.08.161Zm-5.325-1.28c2.327.273,4.665.462,6.982.556l10.27-.431q3.3-.3,6.374-.758c.3-.065.61-.125.948-.184L179.31,173.9a9.391,9.391,0,0,0-9.405-9.358H158.757a9.422,9.422,0,0,0-9.41,9.413v18.1c1.379.174,2.839.434,4.252.683l1.374.242Zm3.782-29.052h11.148a10,10,0,0,1,10.018,9.966l.239,18.213q3.795-.616,7.182-1.452l-.062-16.7a17.4,17.4,0,0,0-17.376-17.376H158.76c-9.41,0-17.358,8.153-17.358,17.8l-.138,15.969c2.405.649,4.912,1.218,7.473,1.688V173.959a10.036,10.036,0,0,1,10.023-10.026Zm0-7.964h11.148A18.01,18.01,0,0,1,187.9,173.956l.06,16.226c1.413-.416,2.488-.73,3.34-.977,3-.873,3.192-.93,5.564-1.79l-.018-61.337a35.4,35.4,0,0,1-10.686,1.644H142.513a35.4,35.4,0,0,1-10.686-1.644l-.075,61.012c1.177.444,1.943.74,2.5.956q1.457.564,3.673,1.21c.673.195,1.548.452,2.727.8l.135-15.675a18.531,18.531,0,0,1,5.262-12.922,17.578,17.578,0,0,1,12.709-5.493Zm38.7-30.732v.423l.018,61.571q.892-.409,1.719-.844c3.823-2,3.844-2.018,4.992-2.914.218-.169.475-.371.8-.621l-.192-16.87,5.226,5.223A12.782,12.782,0,0,0,228.1,153.125l-23.291-23.291v-8.14l.14-.091a35.118,35.118,0,0,0,14.3-18.3l.062-.182.19-.023a16.6,16.6,0,0,0,9.626-28.2A16.4,16.4,0,0,0,219.5,70.17l-.192-.023-.062-.182A35.154,35.154,0,0,0,187.91,46.21l-.247-.013-.042-.244a23.609,23.609,0,0,0-19.356-19.392l-.255-.044V22.909l.2-.073A11.453,11.453,0,0,0,164.334.608h-.005A11.466,11.466,0,0,0,152.882,12.06a11.493,11.493,0,0,0,7.574,10.776l.2.073v3.608l-.255.044a23.606,23.606,0,0,0-19.356,19.392l-.042.244-.247.013a35.145,35.145,0,0,0-31.332,23.756l-.062.182-.19.023A16.591,16.591,0,0,0,94.693,86.635,16.627,16.627,0,0,0,109.176,103.1l.19.023.062.182a35.129,35.129,0,0,0,14.3,18.3l.14.091v8.14l-23.291,23.291A12.782,12.782,0,0,0,118.651,171.2l5.221-5.218-.065,16.74a38.172,38.172,0,0,0,7.338,4.119l.075-61.612.4.132a34.8,34.8,0,0,0,10.9,1.743h43.644a34.8,34.8,0,0,0,10.9-1.743l.4-.132Zm21.6,42.363a5.385,5.385,0,0,1-3.836-1.592L204.806,155.59V140.234L222.9,158.325a5.427,5.427,0,0,1,0,7.675h0a5.4,5.4,0,0,1-3.839,1.592Zm-13.639-12.26,10.234,10.234a4.817,4.817,0,1,0,6.813-6.81l-17.047-17.047v13.621ZM109.612,167.6a5.427,5.427,0,0,1-3.839-9.267l18.091-18.091V155.6l-10.415,10.415a5.394,5.394,0,0,1-3.836,1.592Zm13.639-25.88L106.2,158.764a4.817,4.817,0,0,0,6.813,6.813l10.234-10.234V141.723Zm62.906-21.958H142.513a27.577,27.577,0,0,1-27.545-27.548V81.066a27.577,27.577,0,0,1,27.545-27.548h43.644A27.577,27.577,0,0,1,213.7,81.066V92.212A27.577,27.577,0,0,1,186.157,119.759ZM142.513,54.132a26.965,26.965,0,0,0-26.932,26.935V92.212a26.965,26.965,0,0,0,26.932,26.935h43.644a26.965,26.965,0,0,0,26.932-26.935V81.066a26.963,26.963,0,0,0-26.932-26.935H142.513ZM220.928,95.2l.036-.53c.057-.826.057-15.241,0-16.07l-.036-.527.475.231a9.224,9.224,0,0,1,2.514,1.792h0a9.2,9.2,0,0,1,2.712,6.543,9.323,9.323,0,0,1-5.223,8.327l-.475.231Zm.662-16.106c.039,2.512.039,12.571,0,15.086a8.708,8.708,0,0,0,4.426-7.538,8.592,8.592,0,0,0-2.53-6.112,8.715,8.715,0,0,0-1.894-1.436ZM107.742,95.2l-.475-.231a9.322,9.322,0,0,1-5.223-8.33,9.268,9.268,0,0,1,5.226-8.33l.475-.231-.036.527c-.057.823-.057,15.239,0,16.067l.036.53Zm-.662-16.1a8.647,8.647,0,0,0-4.423,7.543,8.706,8.706,0,0,0,4.426,7.54c-.039-2.514-.039-12.571,0-15.083Zm73.1-32.927h-31.7l.1-.384a16.262,16.262,0,0,1,15.75-12.2h0a16.254,16.254,0,0,1,15.745,12.2l.1.382Zm-30.9-.613h30.1a15.652,15.652,0,0,0-30.1,0Zm15.052-29.389a4.1,4.1,0,1,1,4.1-4.1A4.1,4.1,0,0,1,164.334,16.166Zm0-7.59a3.488,3.488,0,1,0,3.488,3.488A3.493,3.493,0,0,0,164.336,8.576Z" transform="translate(-94.08 0)" fill="#989898"/>
      </g>
      <path id="Path_29413" data-name="Path 29413" d="M283.741,275.418a9.727,9.727,0,0,1-9.717,9.717H230.383a9.729,9.729,0,0,1-9.719-9.717V264.27a9.73,9.73,0,0,1,9.717-9.717h43.644a9.727,9.727,0,0,1,9.717,9.717Zm-9.717-28.828H230.383A17.7,17.7,0,0,0,212.7,264.27v11.148a17.7,17.7,0,0,0,17.68,17.68h43.644a17.7,17.7,0,0,0,17.68-17.68V264.27a17.7,17.7,0,0,0-17.68-17.68Z" transform="translate(-157.454 -182.542)" fill="#575757" fill-rule="evenodd"/>
      <path id="Path_29414" data-name="Path 29414" d="M285.323,325.217a5.893,5.893,0,1,0-5.893-5.893A5.894,5.894,0,0,0,285.323,325.217Z" transform="translate(-206.852 -232.021)" fill="#fefefe" fill-rule="evenodd"/>
      <path id="Path_29415" data-name="Path 29415" d="M410.653,325.217a5.893,5.893,0,1,0-5.893-5.893A5.894,5.894,0,0,0,410.653,325.217Z" transform="translate(-299.629 -232.021)" fill="#fefefe" fill-rule="evenodd"/>
    </g>
  </g>
</svg>
