<svg xmlns="http://www.w3.org/2000/svg" width="88" height="92.678" viewBox="0 0 88 92.678">
  <g id="noImageAvailable" transform="translate(0 0)">
    <g id="popPROVIDER" transform="translate(0 0)">
      <g id="Group_5636" data-name="Group 5636" transform="translate(0 4.678)">
        <path id="Path_29399" data-name="Path 29399" d="M54.39,50.68A42.579,42.579,0,1,1,11.81,93.259,42.578,42.578,0,0,1,54.39,50.68Z" transform="translate(-10.389 -49.259)" fill="#00a0e3" fill-rule="evenodd"/>
        <path id="Path_29400" data-name="Path 29400" d="M44,126.87a43.866,43.866,0,1,1,17.126-3.458A43.734,43.734,0,0,1,44,126.87Zm0-85.157A41.157,41.157,0,1,0,85.158,82.87,41.2,41.2,0,0,0,44,41.713Z" transform="translate(0 -38.87)" fill="#fefefe"/>
      </g>
      <path id="Path_29401" data-name="Path 29401" d="M213.84,227.141a6.813,6.813,0,0,1-6.806,6.805h-16.8a6.812,6.812,0,0,1-6.805-6.805V222.85a6.813,6.813,0,0,1,6.805-6.806h16.8a6.814,6.814,0,0,1,6.806,6.806v4.291Zm-5.094-17.351H188.523A12.638,12.638,0,0,0,175.9,222.412v5.166A12.637,12.637,0,0,0,188.522,240.2h20.224a12.637,12.637,0,0,0,12.622-12.622v-5.166A12.637,12.637,0,0,0,208.746,209.79Z" transform="translate(-154.729 -184.54)" fill="#fefefe" fill-rule="evenodd"/>
      <path id="Path_29402" data-name="Path 29402" d="M585.127,305.9A4.147,4.147,0,0,1,584,312.566c.026-.38.025-7.086,0-7.466A4.166,4.166,0,0,1,585.127,305.9Z" transform="translate(-513.71 -268.378)" fill="#fefefe" fill-rule="evenodd"/>
      <path id="Path_29403" data-name="Path 29403" d="M312.46,133.03a7.4,7.4,0,0,1,7.159,5.547H305.3A7.407,7.407,0,0,1,312.46,133.03Z" transform="translate(-268.554 -117.019)" fill="#fefefe" fill-rule="evenodd"/>
      <path id="Path_29404" data-name="Path 29404" d="M126.13,308.834a4.156,4.156,0,0,1,2.341-3.734c-.026.38-.026,7.086,0,7.465A4.15,4.15,0,0,1,126.13,308.834Z" transform="translate(-110.949 -268.378)" fill="#fefefe" fill-rule="evenodd"/>
      <path id="Path_29405" data-name="Path 29405" d="M138.431,556.827a2.373,2.373,0,1,1-3.356-3.357l8.14-8.14v6.714l-4.784,4.783Z" transform="translate(-118.206 -479.694)" fill="#fefefe" fill-rule="evenodd"/>
      <path id="Path_29406" data-name="Path 29406" d="M264,516.263l-.014-7.542a8.2,8.2,0,0,0-8.194-8.193h-5.165a8.2,8.2,0,0,0-8.194,8.193l-.083,7.343c-2.808-.812-1.992-.238-4.408-1.293L238,486.34a16.24,16.24,0,0,0,5.092.816h20.224a16.249,16.249,0,0,0,5.094-.816l-.018,28.411c-2.781.986-.8.4-4.4,1.512Z" transform="translate(-209.302 -427.804)" fill="#fefefe" fill-rule="evenodd"/>
      <path id="Path_29407" data-name="Path 29407" d="M529.921,556.818a2.372,2.372,0,0,1-3.357,0l-4.784-4.783V545.32l8.141,8.141a2.373,2.373,0,0,1,0,3.357h0Z" transform="translate(-458.979 -479.685)" fill="#fefefe" fill-rule="evenodd"/>
      <path id="Path_29408" data-name="Path 29408" d="M364.781,133.03h0v5.547h7.161A7.407,7.407,0,0,0,364.781,133.03Z" transform="translate(-320.875 -117.019)" fill="#ebecec" fill-rule="evenodd"/>
      <path id="Path_29409" data-name="Path 29409" d="M367.363,500.528a8.2,8.2,0,0,1,8.194,8.193l0,7.467c3.421-6.439,4.428-3.489,4.427-7.314V486.34a16.247,16.247,0,0,1-5.094.816H364.78v13.372h2.583Z" transform="translate(-320.875 -427.804)" fill="#ebecec" fill-rule="evenodd"/>
      <path id="Path_29410" data-name="Path 29410" d="M374.893,209.79H364.78v6.254h8.4a6.814,6.814,0,0,1,6.806,6.806v4.291a6.813,6.813,0,0,1-6.806,6.805h-8.4V240.2h10.113a12.637,12.637,0,0,0,12.622-12.622v-5.166a12.637,12.637,0,0,0-12.622-12.622Z" transform="translate(-320.875 -184.54)" fill="#fefefe" fill-rule="evenodd"/>
      <g id="Group_5637" data-name="Group 5637" transform="translate(11.323)">
        <path id="Path_29411" data-name="Path 29411" d="M154.7,77.864a2.373,2.373,0,0,1-3.357,0l-4.784-4.784V66.366l8.141,8.141a2.373,2.373,0,0,1,0,3.357ZM137.777,56.392H117.553a12.638,12.638,0,0,1-12.622-12.623V38.6A12.638,12.638,0,0,1,117.553,25.98h20.224A12.638,12.638,0,0,1,150.4,38.6v5.165a12.638,12.638,0,0,1-12.622,12.623Zm5.1,31.593c-1.551.563-1.192.425-4.409,1.372l-.029-7.709a8.2,8.2,0,0,0-8.194-8.194h-5.166a8.369,8.369,0,0,0-8.186,8.393l-.064,7.451a31.705,31.705,0,0,1-4.408-1.465l.035-28.566a16.253,16.253,0,0,0,5.094.815h20.224a16.253,16.253,0,0,0,5.094-.815l.008,28.718Zm-8.018,2.222a22.6,22.6,0,0,1-4.863.634l-4.2.075c-1.643-.073-3.535-.554-5.215-.755V81.648a4.508,4.508,0,0,1,4.5-4.5h5.166a4.483,4.483,0,0,1,4.5,4.476l.113,8.586Zm-7.2-73.464a7.4,7.4,0,0,1,7.159,5.547H120.5a7.407,7.407,0,0,1,7.161-5.547Zm0-11.872a1.758,1.758,0,1,1-1.76,1.758A1.761,1.761,0,0,1,127.665,4.87Zm-18.9,68.209-4.784,4.784a2.374,2.374,0,1,1-3.357-3.357l8.141-8.141v6.714h0Zm-7.488-28.162a4.147,4.147,0,0,1,0-7.465c-.026.379-.026,7.084,0,7.465Zm53.894-6.663a4.145,4.145,0,0,1-1.127,6.663c.026-.38.026-7.084,0-7.466A4.147,4.147,0,0,1,155.175,38.254Zm-8.614,22.891V57.51a16.385,16.385,0,0,0,6.682-8.554,7.834,7.834,0,0,0,0-15.541A16.348,16.348,0,0,0,138.6,22.31a11.112,11.112,0,0,0-9.086-9.1V11.756a5.449,5.449,0,1,0-3.691,0v1.452a11.112,11.112,0,0,0-9.086,9.1,16.346,16.346,0,0,0-14.647,11.1,7.834,7.834,0,0,0,0,15.541,16.4,16.4,0,0,0,6.684,8.554v3.636L98.018,71.9a6.064,6.064,0,1,0,8.576,8.577l2.175-2.174-.029,7.484c3.348,2.526,10.454,4.782,17.818,5.08l4.771-.2c5.544-.513,9.738-1.657,12.555-3.131a11.225,11.225,0,0,0,2.762-1.693l-.085-7.541,2.175,2.174a6.064,6.064,0,1,0,8.576-8.577Z" transform="translate(-95.109 -1.038)" fill="#a2d9f7" fill-rule="evenodd"/>
        <path id="Path_29412" data-name="Path 29412" d="M124.767,90.02a20.662,20.662,0,0,1-2.53-.317,40.645,40.645,0,0,1-10.946-2.8l-.039-.017a17.91,17.91,0,0,1-3.628-2.033l-.057-.043L107.6,77.6l-1.931,1.931a6.206,6.206,0,1,1-8.775-8.777L107.6,60.049v-3.5a16.57,16.57,0,0,1-6.647-8.5,7.977,7.977,0,0,1-4.536-13.539,7.881,7.881,0,0,1,4.536-2.259,16.49,16.49,0,0,1,14.632-11.112,11.221,11.221,0,0,1,9.064-9.086V10.817a5.612,5.612,0,0,1-3.6-5.226A5.6,5.6,0,0,1,126.633,0h0a5.591,5.591,0,0,1,1.988,10.817V12.05a11.222,11.222,0,0,1,9.064,9.086A16.493,16.493,0,0,1,152.32,32.248a7.976,7.976,0,0,1,6.873,7.9,7.991,7.991,0,0,1-6.873,7.9,16.565,16.565,0,0,1-6.646,8.5v3.5l10.708,10.708a6.206,6.206,0,1,1-8.777,8.777l-1.928-1.927.082,7.264-.057.043c-.179.135-.314.241-.426.329a11.5,11.5,0,0,1-2.357,1.378,30.951,30.951,0,0,1-9.617,2.79l-.33.073a19.162,19.162,0,0,1-4,.461l-4.208.075Zm-2.467-.593c1.078.126,2.162.214,3.235.258l4.759-.2q1.529-.141,2.954-.351c.14-.03.283-.058.439-.085l-.112-8.464a4.352,4.352,0,0,0-4.358-4.337h-5.166a4.366,4.366,0,0,0-4.361,4.362V89c.639.081,1.316.2,1.97.317l.637.112Zm1.752-13.462h5.166a4.635,4.635,0,0,1,4.642,4.618l.111,8.44q1.758-.285,3.328-.673l-.029-7.738a8.061,8.061,0,0,0-8.052-8.052h-5.166a8.258,8.258,0,0,0-8.044,8.251l-.064,7.4c1.115.3,2.276.564,3.463.782V80.611a4.651,4.651,0,0,1,4.645-4.646Zm0-3.69h5.166a8.346,8.346,0,0,1,8.336,8.336l.028,7.519c.655-.193,1.153-.338,1.548-.453,1.39-.4,1.479-.431,2.578-.829L141.7,58.424a16.4,16.4,0,0,1-4.952.762H116.524a16.4,16.4,0,0,1-4.952-.762L111.537,86.7c.545.206.9.343,1.159.443q.675.261,1.7.561c.312.09.717.209,1.264.371l.063-7.264a8.587,8.587,0,0,1,2.438-5.988,8.146,8.146,0,0,1,5.889-2.546Zm17.931-14.241v.2l.008,28.531q.413-.19.8-.391a11.293,11.293,0,0,0,2.313-1.35c.1-.078.22-.172.372-.288l-.089-7.817,2.422,2.42a5.923,5.923,0,0,0,8.376-8.377L145.389,60.164V56.392l.065-.042a16.274,16.274,0,0,0,6.625-8.479l.029-.084.088-.011a7.694,7.694,0,0,0,4.461-13.07,7.6,7.6,0,0,0-4.459-2.189l-.089-.011-.029-.084A16.29,16.29,0,0,0,137.56,21.413l-.114-.006-.019-.113a10.94,10.94,0,0,0-8.969-8.986l-.118-.02V10.616l.094-.034a5.307,5.307,0,0,0-1.8-10.3h0a5.313,5.313,0,0,0-5.3,5.307,5.326,5.326,0,0,0,3.51,4.994l.094.034v1.672l-.118.02a10.939,10.939,0,0,0-8.969,8.986l-.019.113-.114.006a16.286,16.286,0,0,0-14.519,11.008l-.029.084-.088.011a7.688,7.688,0,0,0-6.711,7.63,7.7,7.7,0,0,0,6.711,7.628l.088.011.029.084a16.278,16.278,0,0,0,6.626,8.479l.065.042v3.772L97.09,70.956a5.923,5.923,0,0,0,8.376,8.377l2.419-2.418-.03,7.757a17.689,17.689,0,0,0,3.4,1.909l.035-28.551.187.061a16.125,16.125,0,0,0,5.049.808H136.75a16.125,16.125,0,0,0,5.049-.808l.187-.061Zm10.01,19.631a2.5,2.5,0,0,1-1.778-.738L145.389,72.1V64.984l8.383,8.383a2.515,2.515,0,0,1,0,3.557h0a2.5,2.5,0,0,1-1.779.738Zm-6.32-5.681,4.742,4.742a2.232,2.232,0,1,0,3.157-3.156l-7.9-7.9v6.312Zm-44.4,5.681A2.515,2.515,0,0,1,99.5,73.369l8.383-8.383V72.1l-4.826,4.826a2.5,2.5,0,0,1-1.778.738Zm6.32-11.993-7.9,7.9a2.232,2.232,0,0,0,3.157,3.157l4.742-4.742V65.673ZM136.748,55.5H116.524A12.779,12.779,0,0,1,103.759,42.73V37.566A12.779,12.779,0,0,1,116.524,24.8h20.224a12.779,12.779,0,0,1,12.764,12.765V42.73A12.779,12.779,0,0,1,136.748,55.5ZM116.524,25.084a12.5,12.5,0,0,0-12.48,12.481V42.73a12.5,12.5,0,0,0,12.48,12.481h20.224a12.5,12.5,0,0,0,12.48-12.481V37.566a12.494,12.494,0,0,0-12.48-12.481H116.524Zm36.337,19.03.017-.246c.026-.383.026-7.063,0-7.447l-.017-.244.22.107a4.274,4.274,0,0,1,1.165.83h0a4.261,4.261,0,0,1,1.257,3.032,4.32,4.32,0,0,1-2.42,3.859l-.22.107Zm.307-7.464c.018,1.164.018,5.825,0,6.991a4.035,4.035,0,0,0,2.051-3.493,3.981,3.981,0,0,0-1.172-2.832,4.038,4.038,0,0,0-.877-.666Zm-52.756,7.464-.22-.107a4.32,4.32,0,0,1-2.42-3.86,4.295,4.295,0,0,1,2.422-3.86l.22-.107-.017.244c-.026.382-.026,7.062,0,7.445l.017.246Zm-.307-7.462a4.007,4.007,0,0,0-2.05,3.5,4.034,4.034,0,0,0,2.051,3.494c-.018-1.165-.018-5.825,0-6.989Zm33.874-15.258H119.291l.046-.178a7.536,7.536,0,0,1,7.3-5.655h0a7.532,7.532,0,0,1,7.3,5.655l.046.177ZM119.66,21.11h13.95a7.253,7.253,0,0,0-13.95,0Zm6.975-13.619a1.9,1.9,0,1,1,1.9-1.9A1.9,1.9,0,0,1,126.635,7.491Zm0-3.517a1.616,1.616,0,1,0,1.616,1.616A1.619,1.619,0,0,0,126.636,3.974Z" transform="translate(-94.08 0)" fill="#00b2cc"/>
      </g>
      <path id="Path_29413" data-name="Path 29413" d="M245.62,259.949a4.507,4.507,0,0,1-4.5,4.5H220.894a4.508,4.508,0,0,1-4.5-4.5v-5.166a4.509,4.509,0,0,1,4.5-4.5h20.224a4.507,4.507,0,0,1,4.5,4.5Zm-4.5-13.359H220.894a8.2,8.2,0,0,0-8.194,8.193v5.166a8.2,8.2,0,0,0,8.193,8.193h20.224a8.2,8.2,0,0,0,8.193-8.193v-5.166a8.2,8.2,0,0,0-8.193-8.193Z" transform="translate(-187.099 -216.91)" fill="#00b2cc" fill-rule="evenodd"/>
      <path id="Path_29414" data-name="Path 29414" d="M282.161,318.892a2.731,2.731,0,1,0-2.731-2.731A2.731,2.731,0,0,0,282.161,318.892Z" transform="translate(-245.798 -275.706)" fill="#fefefe" fill-rule="evenodd"/>
      <path id="Path_29415" data-name="Path 29415" d="M407.491,318.892a2.731,2.731,0,1,0-2.731-2.731A2.731,2.731,0,0,0,407.491,318.892Z" transform="translate(-356.043 -275.706)" fill="#fefefe" fill-rule="evenodd"/>
    </g>
  </g>
</svg>
