<svg id="noImageFound" xmlns="http://www.w3.org/2000/svg" width="200" height="200.003" viewBox="0 0 200 200.003">
  <g id="Workings_Pro" opacity="0.55">
    <g id="Group_5628" data-name="Group 5628">
      <path id="Path_29308" data-name="Path 29308" d="M215,115A100,100,0,1,1,21.161,80.366a3.376,3.376,0,0,0,2.344-5.781A100.015,100.015,0,0,1,215,115Z" transform="translate(-15 -15)" fill="none"/>
      <g id="Group_5627" data-name="Group 5627" transform="translate(14.405 58.991)">
        <path id="Path_29309" data-name="Path 29309" d="M66.2,210.936c-.249,1.594-2.1,2.408-3.548,2.114a3.1,3.1,0,0,1,.166-6.123C65.444,206.5,66.574,208.556,66.2,210.936Z" transform="translate(-60.101 -204.58)" fill="#707070"/>
        <path id="Path_29310" data-name="Path 29310" d="M74.526,243.46a4.818,4.818,0,1,1-4.816-4.82A4.818,4.818,0,0,1,74.526,243.46Z" transform="translate(-63.36 -226.203)" fill="#707070"/>
        <path id="Path_29311" data-name="Path 29311" d="M100.32,206.452a6.75,6.75,0,1,1-6.752-6.752A6.749,6.749,0,0,1,100.32,206.452Z" transform="translate(-78.286 -199.7)" fill="#707070"/>
        <circle id="Ellipse_447" data-name="Ellipse 447" cx="4.487" cy="4.487" r="4.487" transform="translate(22.218 18.63) rotate(-76.72)" fill="#707070"/>
        <path id="Path_29312" data-name="Path 29312" d="M239.442,231.911c-5.8,10.473-12.207,20.7-18.243,31.048-3.852,6.6-8.722,18.1-16.257,20.92-8.036,3.005-14.42-2.118-18.758-8.39l-14.973-25.752a32.075,32.075,0,0,0-2.36,3.7c-4.749,7.886-9.192,16.369-14.155,24.063-1.974,3.057-3.785,5.075-7.4,6.18-13.686,4.187-19.189-7.729-24.682-17.509-3.938-7.014-7.812-13.957-11.907-20.888-1.507-2.555-2.814-6.171-5.2-7.956-2.539-1.9-4.931-1.648-6.206-5.283-2.121-6.049,3.2-11.1,9.2-9.824,5.481,1.169,4.35,6.522,4.775,10.68.866,8.406,12.983,6.784,12.306-1.236-.4-4.682-7.154-5.545-4.7-12,1.923-5.056,9.633-5.433,11.84-.355,1.159,2.667,1.07,5.375,2.565,8.294,3.912,7.636,8.553,15.826,12.814,23.318a43.027,43.027,0,0,0,4.42,6.963c-.821-7.41-4.628-14.347-6.123-21.549-.763-3.676-.348-4.408,1.444-7.467,1.214-2.073,2.664-4.047,3.881-6.142,5.027-8.655,8.767-19.31,20.952-18.307,10.508.862,16.3,15.816,20.747,23.737,4.925,8.761,10.144,18.189,15.615,26.576a9.391,9.391,0,0,0,1.757,2.316c-1.223-4.66-2.456-9.355-3.912-13.944-.958-3.021-2.986-6.519-2.766-9.757.188-2.769,3.494-7.918,4.973-10.482,5.637-9.773,12-23.149,25.867-17.234,12.248,5.225,9.713,16.857,4.491,26.286Z" transform="translate(-86.463 -202.742)" fill="#707070"/>
      </g>
    </g>
    <g id="Group_5629" data-name="Group 5629" transform="translate(116.65 118.186)">
      <path id="Path_29313" data-name="Path 29313" d="M385.436,388.789c.125.115.374-.3.454-.39,2.172-2.386,4.625-3.574,7.934-3.114,7.988,1.108,9.741,11.214,6.682,17.416a8.681,8.681,0,0,1-14.267,2.13c-.2-.211-.46-.613-.652-.779a.138.138,0,0,0-.15-.045v8.652c-.048,1.488-.61,3.1-2.319,3.229-2.025.153-2.734-.913-2.887-2.8V387.856c.141-1.357.722-2.6,2.233-2.712C384.772,384.969,385.557,386.764,385.436,388.789Zm5.021.492c-6.931.706-6.19,15.656,1.616,14.015C398.346,401.973,397.825,388.533,390.457,389.281Z" transform="translate(-380.23 -385.103)"/>
      <path id="Path_29314" data-name="Path 29314" d="M511.055,385.056l.815-.016c6.321.163,10.38,4.564,10.648,10.776.253,5.854-3.018,10.709-8.965,11.635-6.557,1.019-12.086-2.52-12.98-9.214-.958-7.138,3.079-12.9,10.482-13.184Zm-.086,4.117c-5.273.415-6.008,8.033-3.948,11.722a5.045,5.045,0,0,0,8.968-.115C518.178,396.688,516.97,388.7,510.969,389.173Z" transform="translate(-462.042 -385.04)"/>
      <path id="Path_29315" data-name="Path 29315" d="M462.351,388.5c.08.019.086-.022.121-.074.2-.259.38-.62.578-.894a5.156,5.156,0,0,1,2.884-2.277,7.244,7.244,0,0,1,5.372,1.211,2.288,2.288,0,0,1-1.894,4.063,10.364,10.364,0,0,0-3.4-.594c-2.654.2-3.152,3.667-3.363,5.746a79.192,79.192,0,0,0-.176,7.937,4.878,4.878,0,0,1-.562,2.948,2.7,2.7,0,0,1-4.21.214c-1.041-1.3-.722-4.012-.693-5.548.006-.3-.2-8.991-.048-12.622.083-1.958.8-3.619,3.06-3.443,1.814.141,2.153,1.833,2.322,3.338Z" transform="translate(-432.418 -385.115)"/>
    </g>
  </g>
</svg>
