<svg xmlns="http://www.w3.org/2000/svg" xmlns:xlink="http://www.w3.org/1999/xlink" width="329.699" height="213.7" viewBox="0 0 329.699 213.7">
  <defs>
    <clipPath id="clip-path">
      <rect id="Rectangle_18172" data-name="Rectangle 18172" width="329.7" height="213.7" fill="none"/>
    </clipPath>
    <linearGradient id="linear-gradient" x1="-0.297" y1="-6.815" x2="0.703" y2="-6.815" gradientUnits="objectBoundingBox">
      <stop offset="0" stop-color="#2b0246"/>
      <stop offset="1" stop-color="#6a4586"/>
    </linearGradient>
    <linearGradient id="linear-gradient-2" x1="-0.3" y1="-11.629" x2="0.695" y2="-11.629" xlink:href="#linear-gradient"/>
    <linearGradient id="linear-gradient-3" x1="-0.315" y1="-0.946" x2="0.685" y2="-0.946" xlink:href="#linear-gradient"/>
    <linearGradient id="linear-gradient-4" x1="0.397" y1="1.271" x2="0.527" y2="1.879" xlink:href="#linear-gradient"/>
    <linearGradient id="linear-gradient-5" x1="0.491" y1="0.078" x2="0.573" y2="0.685" xlink:href="#linear-gradient"/>
    <linearGradient id="linear-gradient-6" x1="0.323" y1="0.905" x2="0.651" y2="1.504" xlink:href="#linear-gradient"/>
    <linearGradient id="linear-gradient-7" x1="-1.179" y1="0.823" x2="0.513" y2="1.365" xlink:href="#linear-gradient"/>
    <linearGradient id="linear-gradient-8" x1="0.117" y1="2.042" x2="0.779" y2="2.629" xlink:href="#linear-gradient"/>
    <linearGradient id="linear-gradient-9" x1="0.074" y1="2.028" x2="0.704" y2="2.611" xlink:href="#linear-gradient"/>
    <linearGradient id="linear-gradient-10" x1="-0.295" y1="6.546" x2="0.698" y2="6.546" xlink:href="#linear-gradient"/>
    <clipPath id="clip-path-2">
      <rect id="Rectangle_18171" data-name="Rectangle 18171" width="99.5" height="99.5" transform="translate(78 57)" fill="none"/>
    </clipPath>
    <linearGradient id="linear-gradient-11" x1="0.413" y1="1.171" x2="0.587" y2="2.16" gradientUnits="objectBoundingBox">
      <stop offset="0" stop-color="#f46595"/>
      <stop offset="1" stop-color="#f89597"/>
    </linearGradient>
  </defs>
  <g id="noInternet" clip-path="url(#clip-path)">
    <g id="Group_5624" data-name="Group 5624">
      <path id="Path_29170" data-name="Path 29170" d="M319.7,89.1c-3.1-2.5-7.5-1.8-11.4-2.2a19.914,19.914,0,0,1-7.6-2.4c-2.9-1.6-5.8-4.1-9.1-3.4-1.7.4-3,1.5-4.6,2.2-3.2,1.4-6.9.5-10.1-.8-2.8-1.2-5.8-2.8-8.8-2.1a12.373,12.373,0,0,0-3.3,1.5,94.539,94.539,0,0,1-16.9,7.5l71.7-.3Z" fill="#eefffd"/>
      <path id="Path_29171" data-name="Path 29171" d="M197.1,31c-4.8-3.9-11.8-2.8-17.9-3.4a30.143,30.143,0,0,1-12-3.8c-4.5-2.6-9.2-6.5-14.3-5.4-2.6.6-4.8,2.4-7.3,3.4-5,2.1-10.9.9-15.9-1.3-4.4-1.9-9.1-4.4-13.8-3.3a17.51,17.51,0,0,0-5.2,2.4A146.672,146.672,0,0,1,84.1,31.4L197,31Z" fill="#eefffd"/>
      <path id="Path_29172" data-name="Path 29172" d="M112.9,89.8c-4.8-3.9-11.8-2.8-17.9-3.4a30.143,30.143,0,0,1-12-3.8c-4.5-2.6-9.2-6.5-14.3-5.4-2.6.6-4.8,2.4-7.3,3.4-5,2.1-10.9.9-15.9-1.3-4.4-1.9-9.1-4.4-13.8-3.3a17.51,17.51,0,0,0-5.2,2.4A157.293,157.293,0,0,1,0,90.2l112.9-.4Z" fill="#eefffd"/>
      <path id="Path_29173" data-name="Path 29173" d="M90.6,209.9s-28.1-42-18.7-57.7,25.5,28.6,29.4,52.4l-10.7,5.3Z" fill="#00b2cc"/>
      <path id="Path_29174" data-name="Path 29174" d="M98.9,206.5s-13.2-34.8-4-44.9,13.5,24.6,12.5,42.6l-8.5,2.3Z" fill="#00b2cc"/>
      <path id="Path_29175" data-name="Path 29175" d="M198.6,213.1s18.9-28.2,12.6-38.7-17.1,19.2-19.8,35.2l7.2,3.6Z" fill="#00b2cc"/>
      <path id="Path_29176" data-name="Path 29176" d="M193,210.8s8.9-23.4,2.7-30.2-9.1,16.5-8.4,28.6l5.7,1.6Z" fill="#00b2cc"/>
      <path id="Path_29177" data-name="Path 29177" d="M302.7,213.6c-11.7-3.5-19.1-8.6-27.7-12.9-7.6-3.9-14.5-9.2-22.4-12.4s-17.6-3.9-24.4,1.3c-5.4,4.1-8.1,11.2-13.8,14.8-9.9,6.2-22.7-.7-31.7-8-9.1-7.4-20-15.9-31.2-12.5-4.2,1.3-7.8,4.1-11.5,6.5-9.3,5.9-21,8.9-31.3,5.3-13.9-4.7-24.1-20.3-38.8-19.2-9.2.7-16.4,8-22.7,14.8-6.4,7-12.8,15.3-19.2,22.3H302.7Z" fill="#00b2cc"/>
      <path id="Path_29178" data-name="Path 29178" d="M235.9,188.2l12.3,10.1-12.5,15.3c-1.4-1.3,2.1-11.6,2.1-11.6l-8.1-6.1Z" fill="url(#linear-gradient)"/>
      <g id="Group_5617" data-name="Group 5617" opacity="0.6">
        <path id="Path_29179" data-name="Path 29179" d="M241,196.8a.781.781,0,0,1,1,1.2.8.8,0,0,1-1.1-.2.829.829,0,0,1,.3-1.1" fill="#fff"/>
      </g>
      <g id="Group_5618" data-name="Group 5618" opacity="0.6">
        <path id="Path_29180" data-name="Path 29180" d="M248.1,198.3l-1.2-1-11.4,15.2s-.3.9.3,1.2l12.4-15.4Z" fill="#fff"/>
      </g>
      <path id="Path_29181" data-name="Path 29181" d="M237.6,202.2a3.86,3.86,0,0,1,1-.5c.5-.2,1-.1,1-.2a1.42,1.42,0,0,0-1.1-.1c-.6.2-.9.7-.8.8Z" fill="#263238"/>
      <path id="Path_29182" data-name="Path 29182" d="M236.9,204.4a4.536,4.536,0,0,1,1-.1c.5,0,.9.2,1,.1a1.179,1.179,0,0,0-1-.5A1.12,1.12,0,0,0,236.9,204.4Z" fill="#263238"/>
      <path id="Path_29183" data-name="Path 29183" d="M238.1,206.9a1.067,1.067,0,0,0-.8-.6c-.6-.1-1,0-1,.2a2.679,2.679,0,0,1,.9.2,8.492,8.492,0,0,1,.9.3Z" fill="#263238"/>
      <path id="Path_29184" data-name="Path 29184" d="M235.9,200.6l.6-.8c.4-.4.8-.6.7-.7a1.384,1.384,0,0,0-1,.5c-.4.5-.5,1-.4,1Z" fill="#263238"/>
      <path id="Path_29185" data-name="Path 29185" d="M234.3,198.8a2.134,2.134,0,0,0,.6-.8,10.372,10.372,0,0,0,.4-1,1.268,1.268,0,0,1,.1-.6V196c0-.1-.2-.4-.4-.4s-.3,0-.4.2c0,.1-.1.2-.2.3,0,.2-.2.4-.2.6a4.484,4.484,0,0,0-.1,1.1c0,.6.2,1,.3,1v-1a1.978,1.978,0,0,1,.2-1,1.422,1.422,0,0,1,.2-.6.319.319,0,0,1,.3-.3h0v.9a2.935,2.935,0,0,1-.3,1c-.2.5-.5.8-.4.9Z" fill="#263238"/>
      <path id="Path_29186" data-name="Path 29186" d="M234.5,198.8a1.679,1.679,0,0,0-.6-.8,3.49,3.49,0,0,0-.9-.6,1.422,1.422,0,0,1-.6-.2,1.345,1.345,0,0,0-.8.2.454.454,0,0,0,0,.5c0,.1.1.2.2.3a1.755,1.755,0,0,0,.5.4,2.279,2.279,0,0,0,1.1.3,2.427,2.427,0,0,0,1-.2h-.9a1.613,1.613,0,0,1-.9-.3.781.781,0,0,1-.4-.4c-.1-.2-.2-.3-.2-.4a.781.781,0,0,1,.5,0,1.268,1.268,0,0,1,.6.1,1.934,1.934,0,0,1,.9.5c.5.4.7.7.7.6Z" fill="#263238"/>
      <path id="Path_29187" data-name="Path 29187" d="M241.5,196.5v15.9H221.6c.1-1.9,10.4-5.6,10.4-5.6l-.3-10.2h9.9Z" fill="url(#linear-gradient-2)"/>
      <g id="Group_5619" data-name="Group 5619" opacity="0.6">
        <path id="Path_29188" data-name="Path 29188" d="M238,205.8a.875.875,0,0,1,.6.9.73.73,0,0,1-.9.6.887.887,0,0,1-.6-1c.1-.4.7-.7,1-.5" fill="#fff"/>
      </g>
      <g id="Group_5620" data-name="Group 5620" opacity="0.6">
        <path id="Path_29189" data-name="Path 29189" d="M241.3,212.3v-1.6l-19,.6s-.9.4-.8,1Z" fill="#fff"/>
      </g>
      <path id="Path_29190" data-name="Path 29190" d="M231.6,206.5a2.594,2.594,0,0,1,1,.5c.5.3.7.7.8.7a1.292,1.292,0,0,0-.6-1c-.6-.4-1.2-.3-1.1-.2Z" fill="#263238"/>
      <path id="Path_29191" data-name="Path 29191" d="M229.5,207.4a3.988,3.988,0,0,1,.7.7c.3.4.4.8.5.8a1.123,1.123,0,0,0-.3-1.1,1.384,1.384,0,0,0-1-.5Z" fill="#263238"/>
      <path id="Path_29192" data-name="Path 29192" d="M228.3,209.8a1.482,1.482,0,0,0,0-1,1.376,1.376,0,0,0-.7-.7l.4.8C228.2,209.3,228.2,209.7,228.3,209.8Z" fill="#263238"/>
      <path id="Path_29193" data-name="Path 29193" d="M231.8,204.2h1c.5,0,1,.2,1,.1a2.02,2.02,0,0,0-1-.5,2.386,2.386,0,0,0-1.1.3Z" fill="#263238"/>
      <path id="Path_29194" data-name="Path 29194" d="M232.3,201.9a2.686,2.686,0,0,0,1,0,1.929,1.929,0,0,0,1-.3c.2,0,.4-.2.6-.3a1.439,1.439,0,0,0,.3-.2c.1-.1.2-.4,0-.5a.4.4,0,0,0-.4-.2h-.4a1.422,1.422,0,0,0-.6.2,3.49,3.49,0,0,0-.9.6,1.679,1.679,0,0,0-.6.8,7.282,7.282,0,0,1,.7-.6,1.934,1.934,0,0,1,.9-.5,1.422,1.422,0,0,0,.6-.2h.4v.1l-.2.2a2.186,2.186,0,0,0-.5.3,4.179,4.179,0,0,1-1,.4,3.234,3.234,0,0,1-.9.2Z" fill="#263238"/>
      <path id="Path_29195" data-name="Path 29195" d="M232.4,202a2.611,2.611,0,0,0,.3-1,4.484,4.484,0,0,0-.1-1.1,1.422,1.422,0,0,0-.2-.6c-.1-.2-.3-.5-.6-.5-.2,0-.4.1-.4.3a.756.756,0,0,1-.1.4v.7a1.528,1.528,0,0,0,.4,1,1.679,1.679,0,0,0,.8.6,2.3,2.3,0,0,1-.6-.7,2.39,2.39,0,0,1-.3-.9v-.6c0-.2.1-.4.2-.4,0,0,.3.2.3.3,0,.2.2.4.2.5a4.4,4.4,0,0,1,.2,1v1Z" fill="#263238"/>
      <path id="Path_29196" data-name="Path 29196" d="M239.8,104.4a27.327,27.327,0,0,1,4.1,5.8c1.4,2.8,2.2,9.6,2.2,9.6s3.8,8.5,3.2,12.9-4.5,34.2-4.5,34.2.2,29-2.6,34.2l-.6,2.8-11.1-2v-1.7l-2.6-56.8-6.7-38.7,18.5-.3Z" fill="#00b2cc"/>
      <path id="Path_29197" data-name="Path 29197" d="M215.2,112.9s-6.7,36.7-7.2,43c-.6,6.4,22.1,39.9,22.1,39.9L240.5,185l-14.9-27.7,4.8-27.9-6.7-24.6-7.1.2-1.4,7.8Z" fill="#00b2cc"/>
      <path id="Path_29198" data-name="Path 29198" d="M244.1,192v.8a15.867,15.867,0,0,1-.4,2.3c-.4,2-1,4.9-1.8,8.6h0c-3.1-.6-6.9-1.2-11.2-2h0c-.3-7.6-.7-16.8-1.1-26.6-.4-10.5-.8-20.3-1.1-28.4h0c-.8-6.4-1.5-11.8-2-15.5-.2-1.9-.4-3.3-.5-4.3,0-.5-.1-.9-.1-1.1v0a2.557,2.557,0,0,0,.2,1.1c.1,1,.3,2.5.6,4.3.5,3.7,1.2,9.1,2.1,15.5h0c.3,8,.7,17.8,1.1,28.4.4,9.8.7,18.9,1,26.6h0c4.2.7,8,1.3,11.1,1.9h0c.8-3.6,1.5-6.5,1.9-8.5.2-1,.3-1.8.4-2.3V192Z" fill="url(#linear-gradient-3)"/>
      <path id="Path_29199" data-name="Path 29199" d="M241.2,73.6A11.689,11.689,0,0,1,251.8,83c1.9,8.8,2.5,21.2,2.5,21.2l-8.9-.9-4.1-29.7Z" fill="url(#linear-gradient-4)"/>
      <path id="Path_29200" data-name="Path 29200" d="M237.2,71.6l-1.5-2.7-12.6-.3-.9,2.3-7.5,2.7.6,33.1-5.5,30.5s0,4.4,14.8,5.8l1.2-16,7.4-.2-.2,15.6s13-.2,17.1-3.1c0,0,1.2-14.9-2.3-25.5-3.1-9.4-4.3-11.8-4.3-11.8l-.3-28.1Z" fill="url(#linear-gradient-5)"/>
      <path id="Path_29201" data-name="Path 29201" d="M216.3,73.2c-3,.6-5.4,3.8-6.1,7.3-.4,2-1.6,11.8-1.6,11.8l-.7,3.6s-.5,12.3,2.1,13.7c3.1,1.6,4.8-.2,5.8-1.4,1-1.3,2.1-9.7,2.1-9.7l-1.1-20.1-.5-5.1Z" fill="url(#linear-gradient-6)"/>
      <path id="Path_29202" data-name="Path 29202" d="M214.9,78.1v.4a3.751,3.751,0,0,0,.1,1c.1.9.3,2.2.6,3.7.3,1.6.6,3.4.9,5.5.2,1,.3,2.1.5,3.2s.4,2.3.5,3.5v2.1h0c-.9,4.2-1.8,8-2.5,10.7-.3,1.3-.6,2.4-.8,3.2,0,.4-.2.6-.2.9v.3l.1-.3a4.116,4.116,0,0,1,.3-.8c.2-.7.5-1.8.9-3.1.7-2.7,1.6-6.4,2.6-10.7h0V95.6a19.678,19.678,0,0,0-.5-3.5c-.2-1.1-.4-2.2-.5-3.2-.4-2.1-.7-3.9-.9-5.5-.3-1.5-.5-2.8-.6-3.7a2.509,2.509,0,0,0-.2-1v-.4Z" fill="url(#linear-gradient-7)"/>
      <path id="Path_29203" data-name="Path 29203" d="M232.6,74.8s.1,0,.3-.3c.2-.2.4-.5.7-.8h-.1c.3.9.8,2.2,1.3,3.7v.2l.2-.2a1.439,1.439,0,0,1,.2-.3,9.494,9.494,0,0,0,.9-2.1c.2-.6.4-1.2.6-1.7s.3-.9.4-1.2c0-.3.2-.4.1-.4a1.094,1.094,0,0,0-.2.4,9.745,9.745,0,0,1-.5,1.1c-.2.5-.4,1.1-.6,1.7a11.33,11.33,0,0,1-.9,2c0,.1-.1.2-.2.3h.2c-.6-1.4-1.1-2.8-1.4-3.7h0a7,7,0,0,0-.8,1.2Z" fill="#263238"/>
      <path id="Path_29204" data-name="Path 29204" d="M222.5,72.7a.619.619,0,0,0,.2.4c.1.3.3.6.5,1.1s.5,1,.8,1.6.7,1.2,1.1,1.9v.2c.1,0,.2-.2.2-.2v-.1c.4-1.5.7-2.9.9-3.9h-.1c.4.4.8.6,1,.8s.3.3.4.3c0,0,0-.2-.3-.4a5.738,5.738,0,0,1-.9-.8h0c-.3,1-.6,2.4-.9,3.9v.1h.2a13.035,13.035,0,0,1-1.1-1.9c-.3-.6-.6-1.1-.8-1.6a10.9,10.9,0,0,0-.6-1.1,1.1,1.1,0,0,0-.2-.4Z" fill="#263238"/>
      <path id="Path_29205" data-name="Path 29205" d="M233.7,61.5l-.8,18.8-6.9.3V67h0c-6.2-.9-4-15.9-4-15.9,6.6-3,11.4.2,13,4.5,1.6,4.4-1.2,6-1.2,6Z" fill="#fdbfba"/>
      <path id="Path_29206" data-name="Path 29206" d="M231.5,57.8s-2.1-3.4-.9-4.9c0,0-5.9,4.4-8.8.1-3-4.5,3.2-8.5,10.5-4.2,0,0,2.1-.7,4,2a16.338,16.338,0,0,1-2.9,12.4V61s2.2-3.9-.6-4.3a1.586,1.586,0,0,0-1.3,1Z" fill="#473765"/>
      <path id="Path_29207" data-name="Path 29207" d="M233.3,74.7s1.7,15.9,2.1,18c.4,2-2.3,34.4-2.3,34.4l-7.2.4s-1.4-26.8-1.3-26.9c.1-.2,0-18.7,0-18.7l1.5-7.4,4.5,3.3,2.8-3.1Z" fill="#fff"/>
      <path id="Path_29208" data-name="Path 29208" d="M224.3,89.8s.3,0,.4.4v.6a.481.481,0,0,1-.6.2.458.458,0,0,1-.5-.4.735.735,0,0,1,.2-.6c.2-.3.5-.2.5-.3h-.2a.4.4,0,0,0-.4.2.779.779,0,0,0-.3.7.669.669,0,0,0,.7.6c.3,0,.7,0,.8-.4a1.579,1.579,0,0,0,0-.7c0-.2-.2-.3-.4-.3h-.2Z" fill="#263238"/>
      <path id="Path_29209" data-name="Path 29209" d="M224.3,103.7s.3,0,.4.4v.6a.481.481,0,0,1-.6.2.458.458,0,0,1-.5-.4.735.735,0,0,1,.2-.6c.2-.3.5-.2.5-.3h-.2a.4.4,0,0,0-.4.2.779.779,0,0,0-.3.7.669.669,0,0,0,.7.6c.3,0,.7,0,.8-.4a1.579,1.579,0,0,0,0-.7c0-.2-.2-.3-.4-.3h-.2Z" fill="#263238"/>
      <path id="Path_29210" data-name="Path 29210" d="M223.7,120.6s.3,0,.4.4v.6a.481.481,0,0,1-.6.2.458.458,0,0,1-.5-.4.735.735,0,0,1,.2-.6c.2-.3.5-.2.5-.3h-.2a.4.4,0,0,0-.4.2.779.779,0,0,0-.3.7.669.669,0,0,0,.7.6c.3,0,.7,0,.8-.4a1.579,1.579,0,0,0,0-.7.319.319,0,0,0-.3-.3h-.2Z" fill="#263238"/>
      <g id="Group_5621" data-name="Group 5621" opacity="0.3">
        <path id="Path_29211" data-name="Path 29211" d="M214.4,89.7c.2-1.3.5-2.5.6-3.8a35.33,35.33,0,0,1,.1-4.6,11.643,11.643,0,0,1,1.3,5.9c0,2-.2,4.1,0,6.1.2,1.4.6,3,.8,4.4s-.2,2.1-.6,4.2c-1.4-3.9-2.8-8-2.3-12.1Z"/>
      </g>
      <path id="Path_29212" data-name="Path 29212" d="M216.8,86.5a16.1,16.1,0,0,0,1.8,14.3Z" fill="url(#linear-gradient-8)"/>
      <path id="Path_29213" data-name="Path 29213" d="M218.6,100.7s-.4-.7-1-1.9a11.256,11.256,0,0,1-.8-2.2,12.662,12.662,0,0,1-.6-2.8c-.1-1-.1-2-.1-2.9a7.55,7.55,0,0,1,.3-2.3c.3-1.3.5-2.1.5-2.1a1.01,1.01,0,0,1-.2.5,2.544,2.544,0,0,1-.2.7c0,.3-.2.6-.2.9A8.751,8.751,0,0,0,216,91v2.9a24.746,24.746,0,0,0,.6,2.9,16.476,16.476,0,0,0,.9,2.2,5.94,5.94,0,0,0,.4.8c.1.2.3.4.4.6.2.3.3.5.4.5Z" fill="url(#linear-gradient-9)"/>
      <path id="Path_29214" data-name="Path 29214" d="M238.5,107.5a6.038,6.038,0,0,0,.8-.7c.5-.5,1.1-1.1,1.8-1.9a10.51,10.51,0,0,0,1.5-2.1,4.42,4.42,0,0,0,.5-.9,3.713,3.713,0,0,0-.6.9,19.818,19.818,0,0,1-1.6,2c-.6.8-1.3,1.4-1.7,1.9a6.038,6.038,0,0,0-.7.8Z" fill="#263238"/>
      <path id="Path_29215" data-name="Path 29215" d="M241.4,108a4.768,4.768,0,0,0,.4-.8c.2-.5.5-1.3.8-2.1a11.216,11.216,0,0,0,.5-2.2c0-.6.1-.9,0-.9,0,0-.3,1.4-.8,3.1s-1.1,3-1,3Z" fill="#263238"/>
      <path id="Path_29216" data-name="Path 29216" d="M227.3,99.7a5.945,5.945,0,0,0,.7-.3,4.5,4.5,0,0,1,1.8-.3,3.8,3.8,0,0,1,1.7.5,2.475,2.475,0,0,1,.6.4,1.665,1.665,0,0,0-.6-.5,2.961,2.961,0,0,0-1.8-.6,5.412,5.412,0,0,0-1.9.3c-.4.2-.6.4-.6.5Z" fill="#263238"/>
      <path id="Path_29217" data-name="Path 29217" d="M251.6,98.6s3.2,3.5,3,5.9-1.4,7.8-4.4,7.6-5.7-5-6.1-8.8,0-12.9,0-12.9l4.3,1,3.3,7.2Z" fill="#fdbfba"/>
      <path id="Path_29218" data-name="Path 29218" d="M258,76.3c-2.2,2.8-7.7,9.7-7.7,9.7l-5.2-1.3a.773.773,0,0,1-.7-.8.952.952,0,0,1,.2-.7l7.2-9.2a2.087,2.087,0,0,1,2.3-.7l3.3,1.2a1.078,1.078,0,0,1,.5,1.7Z" fill="#263238"/>
      <path id="Path_29219" data-name="Path 29219" d="M244.9,83.5l.5-.5c.3-.3.7-.8,1.3-1.4a60.682,60.682,0,0,0,3.9-4.8c.4-.5.7-1,1-1.4a4.263,4.263,0,0,1,1.1-1.2c.4-.3.9-.1,1.4,0,.4.1.8.3,1.2.4a18.879,18.879,0,0,1,1.8.6c.4.1.7.2.7.2l-.6-.3c-.5-.2-1-.4-1.8-.7-.4-.1-.8-.3-1.2-.4-.2,0-.5-.2-.7-.2a1.2,1.2,0,0,0-.8.2,6.815,6.815,0,0,0-1.2,1.2c-.3.5-.7.9-1,1.4a60.686,60.686,0,0,1-3.9,4.8c-.5.6-.9,1.1-1.2,1.4a2.22,2.22,0,0,0-.4.5Z" fill="url(#linear-gradient-10)"/>
      <path id="Path_29220" data-name="Path 29220" d="M255,75.3a.481.481,0,0,0-.6.2c0,.2,0,.5.2.6a.447.447,0,1,0,.4-.8Z" fill="#fff"/>
      <path id="Path_29221" data-name="Path 29221" d="M250.6,81.5l2.4.4.9.8a.924.924,0,0,1,.3.9,2.772,2.772,0,0,1-.5,1.2,7.21,7.21,0,0,1-1,1,1.5,1.5,0,0,1-.5,2.1,1.61,1.61,0,0,1-1.3,1.6s-.4,1.3-1.4,1.4L248.4,92l.3.6H244a30.519,30.519,0,0,1,.2-3.6,6.357,6.357,0,0,1,.4-1.5c-.2-1.3.8-1.9.9-1.8,0,0-2.3-.6-2-2.2l2.2.6,4,.8-2.6-1.7a1.38,1.38,0,0,1-.3-.4c-.2-.3-.5-1-.3-1.3.1-.2,3.3,1.2,3.3,1.2l1.9,1.8.6-.9s-2-.4-1.7-1.9Z" fill="#fdbfba"/>
      <path id="Path_29222" data-name="Path 29222" d="M245.1,85.6s.8.2,1.9.5c1,.3,1.8.6,1.8.6a6.16,6.16,0,0,0-1.8-.8,7.393,7.393,0,0,0-1.9-.3Z" fill="#fdbfba"/>
      <path id="Path_29223" data-name="Path 29223" d="M246.2,89.7a4.98,4.98,0,0,1-.8-.8h0c0,.2-.2.3-.4.4h-.6v-.6a1.077,1.077,0,0,1,.2-.8c0-.2.3-.4.5-.4a1.7,1.7,0,0,1,.7.1c.5.1.9.2,1.3.3.7.2,1.2.3,1.2.2a6.448,6.448,0,0,0-1.2-.4,9.287,9.287,0,0,1-1.3-.4c-.2,0-.5-.2-.8-.2a.6.6,0,0,0-.4.1c-.1,0-.2.2-.3.4-.1.3-.1.6-.2.9v.4c0,.1,0,.4.2.4a.762.762,0,0,0,.8,0,1.205,1.205,0,0,0,.5-.5h-.1a3.289,3.289,0,0,0,.6.6c.2.1.3.2.3.1Z" fill="#fdbfba"/>
      <path id="Path_29224" data-name="Path 29224" d="M250.4,83.1s.5.6,1.1,1.4,1.1,1.4,1.1,1.4a8.138,8.138,0,0,0-.9-1.5c-.6-.8-1.2-1.3-1.2-1.2Z" fill="#fdbfba"/>
      <path id="Path_29225" data-name="Path 29225" d="M249.4,84.7a2.458,2.458,0,0,1,.9.7,1.753,1.753,0,0,1,.4,1V86a1.009,1.009,0,0,0-.3-.8,1.035,1.035,0,0,0-.7-.5h-.3Z" fill="#fdbfba"/>
      <path id="Path_29226" data-name="Path 29226" d="M210.9,92.2,209,88c-.3-1.3-1.6-1.7-3.3-1.8l-1.7-.7s-1.2-1.8-2.4-1.8c-.2,0-.3.1-.4.3v.4l1.4,2.2,1.1.6s-1,.3-1.5-.1c-.4-.4-1.8-1.5-1.8-1.5s-1.1-1.9-2.5-1.8c-.2,0-.3.2-.2.4l1.1,2.1s-1.9-2.9-3.8-1.8l2.1,2.2s-3-1.7-4.2-.3l7.5,3.1,4.3.9,1.5,4.1,1.3-.8,3.2-1.4Z" fill="#fdbfba"/>
      <path id="Path_29227" data-name="Path 29227" d="M206.4,97.6s-.2,7.4,1.1,9.4c1.4,2,3.9,4.8,7,2.6l2-7.4s-3.2-3.5-3.8-4.9c-1.4-3.6-3.8-9.2-3.8-9.2L204.7,90l1.6,7.7Z" fill="#fdbfba"/>
      <path id="Path_29228" data-name="Path 29228" d="M212.3,96.5s.2.4.5.9l1.1,2.2c.4.9.7,1.7,1,2.3a8.409,8.409,0,0,0,.4,1,3.5,3.5,0,0,0-.2-1c-.2-.6-.5-1.5-.9-2.4a10.845,10.845,0,0,0-1.2-2.2c-.3-.5-.6-.9-.6-.8Z" fill="#fdbfba"/>
      <path id="Path_29229" data-name="Path 29229" d="M202.7,86.5a7.194,7.194,0,0,0,1,.6,4.877,4.877,0,0,0,1.1.4,7.194,7.194,0,0,0-1-.6A4.877,4.877,0,0,0,202.7,86.5Z" fill="#fdbfba"/>
      <path id="Path_29230" data-name="Path 29230" d="M202,88.5a1.363,1.363,0,0,0-.6-.3c-.2,0-.4-.2-.6-.3-.1,0-.2-.1-.4-.2-.1,0-.2-.1-.3-.2a7.444,7.444,0,0,1-.9-1.2c-.2-.3-.4-.5-.5-.4V86c0,.1.2.3.2.4a7.444,7.444,0,0,0,.9,1.2l.2.2a.31.31,0,0,1,.2.1c.1,0,.3.1.4.1.2,0,.5.2.6.2a3.224,3.224,0,0,1,.6.2Z" fill="#fdbfba"/>
      <g id="Group_5623" data-name="Group 5623" clip-path="url(#clip-path-2)">
        <g id="Group_5622" data-name="Group 5622">
          <path id="Path_29231" data-name="Path 29231" d="M176.1,118.4a49.734,49.734,0,1,0-60,36.7,49.748,49.748,0,0,0,60-36.7Z" fill="#fff"/>
          <path id="Path_29232" data-name="Path 29232" d="M130,128.7a4.1,4.1,0,1,1-4.1-4.1A4.185,4.185,0,0,1,130,128.7Z" fill="#00b2cc"/>
          <path id="Path_29233" data-name="Path 29233" d="M117.7,123.4a11.417,11.417,0,0,1,16.5-.2c2.1,2.1,5.4-1.1,3.3-3.2a16,16,0,0,0-23,.2c-2.1,2.2,1.2,5.4,3.3,3.3Z" fill="#00b2cc"/>
          <path id="Path_29234" data-name="Path 29234" d="M103.7,104.2c6.2-5.4,13.7-8.8,22.1-8.8a32.623,32.623,0,0,1,22.5,8.6c2.2,2,5.5-1.2,3.3-3.2a37.77,37.77,0,0,0-25.8-10c-9.6,0-18.2,3.9-25.3,10.2-2.3,2,1,5.2,3.2,3.3Z" fill="#00b2cc"/>
          <path id="Path_29235" data-name="Path 29235" d="M109.2,114.8a22.736,22.736,0,0,1,33.3-.5c2.1,2.1,5.4-1.1,3.3-3.2a27.2,27.2,0,0,0-39.7.4c-2,2.2,1.2,5.5,3.2,3.3Z" fill="#00b2cc"/>
          <path id="Path_29236" data-name="Path 29236" d="M164.7,95.5a12.594,12.594,0,1,0-14.6,10.2A12.606,12.606,0,0,0,164.7,95.5Z" fill="url(#linear-gradient-11)"/>
          <path id="Path_29237" data-name="Path 29237" d="M157.5,89.8,155.7,88l-8,8,1.8,1.8Z" fill="#fff"/>
          <path id="Path_29238" data-name="Path 29238" d="M149.5,88l-1.8,1.8,8,8,1.8-1.8Z" fill="#fff"/>
        </g>
      </g>
    </g>
  </g>
</svg>
