<svg width="25" height="25" viewBox="0 0 25 25" fill="none" xmlns="http://www.w3.org/2000/svg">
<path d="M17.0189 17.0008C17.1939 16.8643 17.3526 16.7056 17.6701 16.3881L21.6275 12.4307C21.7231 12.3351 21.6793 12.1703 21.5515 12.1259C21.0844 11.9639 20.4767 11.6596 19.9083 11.0912C19.3399 10.5228 19.0356 9.91511 18.8736 9.44799C18.8292 9.32016 18.6644 9.27637 18.5688 9.37204L14.6114 13.3294C14.2939 13.6469 14.1352 13.8056 13.9987 13.9806C13.8377 14.1871 13.6996 14.4104 13.587 14.6468C13.4915 14.8471 13.4205 15.0601 13.2786 15.486L13.0951 16.0363L12.8034 16.9113L12.5299 17.7318C12.4601 17.9414 12.5146 18.1724 12.6708 18.3287C12.8271 18.4849 13.0581 18.5394 13.2677 18.4696L14.0882 18.1961L14.9632 17.9044L15.5135 17.7209C15.9393 17.579 16.1524 17.508 16.3527 17.4125C16.5891 17.2999 16.8124 17.1618 17.0189 17.0008Z" fill="#00B2CC"/>
<path d="M22.8663 11.1922C23.711 10.3475 23.711 8.97812 22.8663 8.13348C22.0217 7.28884 20.6523 7.28884 19.8076 8.13348L19.6804 8.26071C19.5576 8.38348 19.502 8.55496 19.5327 8.72586C19.552 8.83336 19.5877 8.99053 19.6528 9.17807C19.7829 9.55314 20.0286 10.0455 20.4915 10.5083C20.9543 10.9712 21.4467 11.2169 21.8217 11.347C22.0093 11.4121 22.1664 11.4478 22.2739 11.4671C22.4448 11.4978 22.6163 11.4422 22.7391 11.3194L22.8663 11.1922Z" fill="#00B2CC"/>
<path fill-rule="evenodd" clip-rule="evenodd" d="M4.67157 3.67157C3.5 4.84315 3.5 6.72876 3.5 10.5V14.5C3.5 18.2712 3.5 20.1569 4.67157 21.3284C5.84315 22.5 7.72876 22.5 11.5 22.5H13.5C17.2712 22.5 19.1569 22.5 20.3284 21.3284C21.4812 20.1756 21.4997 18.3316 21.5 14.6801L18.6817 17.4984C18.4119 17.7683 18.191 17.9894 17.9415 18.1841C17.6491 18.4121 17.3328 18.6076 16.9981 18.7671C16.7124 18.9032 16.4159 19.002 16.0538 19.1225L13.7421 19.8931C12.9935 20.1426 12.1682 19.9478 11.6102 19.3898C11.0523 18.8318 10.8574 18.0065 11.107 17.2579L11.3805 16.4375L11.8556 15.0121L11.8775 14.9463C11.9981 14.5842 12.0968 14.2876 12.2329 14.0019C12.3924 13.6672 12.5879 13.3509 12.816 13.0586C13.0106 12.809 13.2317 12.5881 13.5017 12.3183L17.5081 8.31188L18.62 7.20004L18.7472 7.07282C19.4626 6.35741 20.4003 5.99981 21.338 6C21.1867 4.96945 20.8941 4.23727 20.3284 3.67157C19.1569 2.5 17.2712 2.5 13.5 2.5H11.5C7.72876 2.5 5.84315 2.5 4.67157 3.67157ZM7.75 9.5C7.75 9.08579 8.08579 8.75 8.5 8.75H15C15.4142 8.75 15.75 9.08579 15.75 9.5C15.75 9.91421 15.4142 10.25 15 10.25H8.5C8.08579 10.25 7.75 9.91421 7.75 9.5ZM7.75 13.5C7.75 13.0858 8.08579 12.75 8.5 12.75H11C11.4142 12.75 11.75 13.0858 11.75 13.5C11.75 13.9142 11.4142 14.25 11 14.25H8.5C8.08579 14.25 7.75 13.9142 7.75 13.5ZM7.75 17.5C7.75 17.0858 8.08579 16.75 8.5 16.75H10C10.4142 16.75 10.75 17.0858 10.75 17.5C10.75 17.9142 10.4142 18.25 10 18.25H8.5C8.08579 18.25 7.75 17.9142 7.75 17.5Z" fill="#00B2CC"/>
</svg>
