<svg width="25" height="25" viewBox="0 0 25 25" fill="none" xmlns="http://www.w3.org/2000/svg">
<path d="M19.2491 9.5V10.2041C19.2491 11.0491 19.4903 11.8752 19.9422 12.5782L21.0496 14.3012C22.0612 15.8749 21.289 18.0139 19.5296 18.5116C14.9273 19.8134 10.0727 19.8134 5.47036 18.5116C3.71105 18.0139 2.93882 15.8749 3.95036 14.3012L5.0578 12.5782C5.50972 11.8752 5.75087 11.0491 5.75087 10.2041V9.5C5.75087 5.63401 8.77256 2.5 12.5 2.5C16.2274 2.5 19.2491 5.63401 19.2491 9.5Z" fill="#00B2CC"/>
<path d="M7.74316 19.0469C8.3941 21.0521 10.2777 22.5017 12.4998 22.5017C14.722 22.5017 16.6055 21.0521 17.2565 19.0469C14.111 19.6372 10.8886 19.6372 7.74316 19.0469Z" fill="#00B2CC"/>
</svg>
