<svg width="25" height="25" viewBox="0 0 25 25" fill="none" xmlns="http://www.w3.org/2000/svg">
<path fill-rule="evenodd" clip-rule="evenodd" d="M22.4999 12.5V14.5C22.4999 18.2712 22.4999 20.1569 21.3287 21.3284C20.1574 22.5 18.2723 22.5 14.5022 22.5H10.5033C6.73314 22.5 4.84806 22.5 3.67681 21.3284C2.50557 20.1569 2.50557 18.2712 2.50557 14.5V12.5C2.50557 12.1997 2.50395 11.9435 2.50245 11.7076C2.49977 11.2845 2.49751 10.9272 2.50579 10.5H22.4743C22.4761 10.5935 22.4779 10.6837 22.4797 10.7719C22.4905 11.3114 22.4999 11.7789 22.4999 12.5ZM16.9999 18.5C17.8283 18.5 18.4999 17.8284 18.4999 17C18.4999 16.1716 17.8283 15.5 16.9999 15.5C16.1715 15.5 15.4999 16.1716 15.4999 17C15.4999 17.8284 16.1715 18.5 16.9999 18.5Z" fill="#212121" fill-opacity="0.35"/>
<path d="M7.46006 2.5C7.87758 2.5 8.21605 2.80996 8.21605 3.19231V4.58883C8.88663 4.57692 9.63829 4.57692 10.484 4.57692H14.516C15.3617 4.57692 16.1134 4.57692 16.784 4.58883V3.19231C16.784 2.80996 17.1224 2.5 17.5399 2.5C17.9575 2.5 18.2959 2.80996 18.2959 3.19231V4.65008C19.7468 4.75647 20.6992 5.01758 21.399 5.65838C22.0987 6.29917 22.3838 7.17139 22.5 8.5V9.5H2.5V8.5C2.61618 7.17139 2.9013 6.29917 3.60104 5.65838C4.30079 5.01758 5.25323 4.75647 6.70406 4.65008V3.19231C6.70406 2.80996 7.04253 2.5 7.46006 2.5Z" fill="#212121" fill-opacity="0.35"/>
</svg>
