<svg width="25" height="25" viewBox="0 0 25 25" fill="none" xmlns="http://www.w3.org/2000/svg">
<path fill-rule="evenodd" clip-rule="evenodd" d="M12.552 1.75H12.448C11.5495 1.74997 10.8003 1.74995 10.2055 1.82991C9.57773 1.91432 9.01093 2.09999 8.55546 2.55546C8.09999 3.01093 7.91432 3.57773 7.82991 4.20552C7.77259 4.63189 7.75637 5.65147 7.75179 6.52566C5.72954 6.59171 4.51536 6.82778 3.67157 7.67157C2.5 8.84315 2.5 10.7288 2.5 14.5C2.5 18.2712 2.5 20.1569 3.67157 21.3284C4.84314 22.5 6.72876 22.5 10.5 22.5H14.5C18.2712 22.5 20.1569 22.5 21.3284 21.3284C22.5 20.1569 22.5 18.2712 22.5 14.5C22.5 10.7288 22.5 8.84315 21.3284 7.67157C20.4846 6.82778 19.2705 6.59171 17.2482 6.52566C17.2436 5.65147 17.2274 4.63189 17.1701 4.20552C17.0857 3.57773 16.9 3.01093 16.4445 2.55546C15.9891 2.09999 15.4223 1.91432 14.7945 1.82991C14.1997 1.74995 13.4505 1.74997 12.552 1.75ZM15.7479 6.50188C15.7434 5.65523 15.729 4.74407 15.6835 4.4054C15.6214 3.94393 15.5142 3.74644 15.3839 3.61612C15.2536 3.4858 15.0561 3.37858 14.5946 3.31654C14.1116 3.2516 13.464 3.25 12.5 3.25C11.536 3.25 10.8884 3.2516 10.4054 3.31654C9.94393 3.37858 9.74644 3.4858 9.61612 3.61612C9.4858 3.74644 9.37858 3.94393 9.31654 4.4054C9.271 4.74407 9.25661 5.65523 9.25208 6.50188C9.6435 6.5 10.0588 6.5 10.5 6.5H14.5C14.9412 6.5 15.3565 6.5 15.7479 6.50188ZM12.5 9.75C12.9142 9.75 13.25 10.0858 13.25 10.5V10.5102C14.3388 10.7845 15.25 11.643 15.25 12.8333C15.25 13.2475 14.9142 13.5833 14.5 13.5833C14.0858 13.5833 13.75 13.2475 13.75 12.8333C13.75 12.4493 13.3242 11.9167 12.5 11.9167C11.6758 11.9167 11.25 12.4493 11.25 12.8333C11.25 13.2174 11.6758 13.75 12.5 13.75C13.8849 13.75 15.25 14.7098 15.25 16.1667C15.25 17.357 14.3388 18.2155 13.25 18.4898V18.5C13.25 18.9142 12.9142 19.25 12.5 19.25C12.0858 19.25 11.75 18.9142 11.75 18.5V18.4898C10.6612 18.2155 9.75 17.357 9.75 16.1667C9.75 15.7525 10.0858 15.4167 10.5 15.4167C10.9142 15.4167 11.25 15.7525 11.25 16.1667C11.25 16.5507 11.6758 17.0833 12.5 17.0833C13.3242 17.0833 13.75 16.5507 13.75 16.1667C13.75 15.7826 13.3242 15.25 12.5 15.25C11.1151 15.25 9.75 14.2903 9.75 12.8333C9.75 11.643 10.6612 10.7845 11.75 10.5102V10.5C11.75 10.0858 12.0858 9.75 12.5 9.75Z" fill="#212121" fill-opacity="0.35"/>
</svg>
