<svg width="25" height="25" viewBox="0 0 25 25" fill="none" xmlns="http://www.w3.org/2000/svg">
<path fill-rule="evenodd" clip-rule="evenodd" d="M22.5 12.5C22.5 18.0228 18.0228 22.5 12.5 22.5C6.97715 22.5 2.5 18.0228 2.5 12.5C2.5 6.97715 6.97715 2.5 12.5 2.5C18.0228 2.5 22.5 6.97715 22.5 12.5ZM12.5 8.25C11.8787 8.25 11.375 8.75368 11.375 9.375C11.375 9.78921 11.0392 10.125 10.625 10.125C10.2108 10.125 9.875 9.78921 9.875 9.375C9.875 7.92525 11.0503 6.75 12.5 6.75C13.9497 6.75 15.125 7.92525 15.125 9.375C15.125 10.0858 14.8415 10.732 14.383 11.204C14.2907 11.2989 14.2027 11.3869 14.1187 11.4708C13.9029 11.6864 13.7138 11.8753 13.5479 12.0885C13.3289 12.3699 13.25 12.5768 13.25 12.75V13.5C13.25 13.9142 12.9142 14.25 12.5 14.25C12.0858 14.25 11.75 13.9142 11.75 13.5V12.75C11.75 12.0948 12.055 11.5644 12.3642 11.1672C12.5929 10.8733 12.8804 10.5863 13.1138 10.3535C13.1842 10.2832 13.2496 10.2179 13.307 10.1588C13.5046 9.95543 13.625 9.68004 13.625 9.375C13.625 8.75368 13.1213 8.25 12.5 8.25ZM12.5 17.5C13.0523 17.5 13.5 17.0523 13.5 16.5C13.5 15.9477 13.0523 15.5 12.5 15.5C11.9477 15.5 11.5 15.9477 11.5 16.5C11.5 17.0523 11.9477 17.5 12.5 17.5Z" fill="#212121" fill-opacity="0.35"/>
</svg>
