<svg id="placeholder" xmlns="http://www.w3.org/2000/svg" width="108.332" height="108.334" viewBox="0 0 108.332 108.334">
  <g id="Workings_Pro" opacity="0.55">
    <g id="Group_5628" data-name="Group 5628">
      <path id="Path_29308" data-name="Path 29308" d="M123.332,69.166A54.166,54.166,0,1,1,18.337,50.406a1.829,1.829,0,0,0,1.27-3.131A54.174,54.174,0,0,1,123.332,69.166Z" transform="translate(-15 -15)" fill="#00b2cc"/>
      <g id="Group_5627" data-name="Group 5627" transform="translate(7.802 31.953)">
        <path id="Path_29309" data-name="Path 29309" d="M63.4,209.072a1.6,1.6,0,0,1-1.922,1.145,1.678,1.678,0,0,1,.09-3.316C62.995,206.668,63.607,207.784,63.4,209.072Z" transform="translate(-60.101 -205.63)" fill="#fefefe"/>
        <path id="Path_29310" data-name="Path 29310" d="M70.109,241.251A2.61,2.61,0,1,1,67.5,238.64,2.61,2.61,0,0,1,70.109,241.251Z" transform="translate(-64.061 -231.903)" fill="#fefefe"/>
        <path id="Path_29311" data-name="Path 29311" d="M94.133,203.357a3.656,3.656,0,1,1-3.657-3.657A3.656,3.656,0,0,1,94.133,203.357Z" transform="translate(-82.198 -199.7)" fill="#fefefe"/>
        <circle id="Ellipse_447" data-name="Ellipse 447" cx="2.431" cy="2.431" r="2.431" transform="translate(12.035 10.091) rotate(-76.72)" fill="#fefefe"/>
        <path id="Path_29312" data-name="Path 29312" d="M175,219.2c-3.143,5.673-6.612,11.214-9.882,16.817-2.086,3.578-4.725,9.806-8.806,11.331-4.353,1.628-7.811-1.147-10.16-4.545l-8.11-13.949a17.371,17.371,0,0,0-1.278,2c-2.573,4.271-4.979,8.866-7.667,13.034a6.842,6.842,0,0,1-4.007,3.348c-7.413,2.268-10.394-4.187-13.369-9.484-2.133-3.8-4.232-7.56-6.449-11.314-.817-1.384-1.524-3.342-2.815-4.309-1.375-1.031-2.671-.893-3.361-2.861-1.149-3.277,1.735-6.013,4.981-5.321,2.969.633,2.356,3.533,2.586,5.785.469,4.553,7.032,3.675,6.666-.669-.215-2.536-3.875-3-2.548-6.5a3.528,3.528,0,0,1,6.413-.192c.628,1.445.58,2.912,1.389,4.493,2.119,4.136,4.633,8.572,6.941,12.631a23.307,23.307,0,0,0,2.394,3.771c-.445-4.014-2.507-7.771-3.316-11.672-.413-1.991-.189-2.387.782-4.045.657-1.123,1.443-2.192,2.1-3.327,2.723-4.688,4.749-10.46,11.349-9.916,5.692.467,8.828,8.567,11.238,12.857,2.668,4.745,5.494,9.852,8.458,14.4a5.088,5.088,0,0,0,.951,1.254c-.663-2.524-1.33-5.067-2.119-7.553-.519-1.637-1.618-3.531-1.5-5.285.1-1.5,1.893-4.289,2.694-5.678,3.053-5.294,6.5-12.539,14.011-9.335C179.2,207.788,177.824,214.089,175,219.2Z" transform="translate(-92.133 -203.396)" fill="#fefefe"/>
      </g>
    </g>
    <g id="Group_5629" data-name="Group 5629" transform="translate(63.184 64.017)">
      <path id="Path_29313" data-name="Path 29313" d="M383.05,387.113c.067.062.2-.164.246-.211a4.591,4.591,0,0,1,4.3-1.687c4.327.6,5.276,6.074,3.619,9.434a4.7,4.7,0,0,1-7.728,1.154c-.107-.114-.249-.332-.353-.422a.075.075,0,0,0-.081-.024v4.686c-.026.806-.33,1.68-1.256,1.749-1.1.083-1.481-.495-1.564-1.516V386.608c.076-.735.391-1.406,1.209-1.469C382.69,385.044,383.116,386.016,383.05,387.113Zm2.72.266c-3.754.382-3.353,8.48.875,7.591C390.043,394.254,389.761,386.975,385.769,387.38Z" transform="translate(-380.23 -385.117)"/>
      <path id="Path_29314" data-name="Path 29314" d="M506.187,385.049l.441-.009a5.712,5.712,0,0,1,5.768,5.837c.137,3.171-1.635,5.8-4.856,6.3-3.552.552-6.546-1.365-7.031-4.991-.519-3.867,1.668-6.989,5.678-7.141Zm-.047,2.23c-2.856.225-3.254,4.351-2.138,6.349a2.733,2.733,0,0,0,4.858-.062C510.045,391.349,509.391,387.023,506.14,387.279Z" transform="translate(-479.639 -385.04)"/>
      <path id="Path_29315" data-name="Path 29315" d="M459.857,386.963c.043.01.047-.012.066-.04.109-.14.206-.336.313-.484a2.793,2.793,0,0,1,1.562-1.233,3.924,3.924,0,0,1,2.91.656,1.239,1.239,0,0,1-1.026,2.2,5.614,5.614,0,0,0-1.839-.322c-1.438.111-1.708,1.986-1.822,3.112a42.893,42.893,0,0,0-.1,4.3,2.642,2.642,0,0,1-.3,1.6,1.462,1.462,0,0,1-2.28.116c-.564-.7-.391-2.173-.375-3.005,0-.164-.111-4.87-.026-6.837.045-1.06.433-1.96,1.657-1.865.983.076,1.166.993,1.258,1.808Z" transform="translate(-443.643 -385.131)"/>
    </g>
  </g>
</svg>
