<svg xmlns="http://www.w3.org/2000/svg" width="108.33" height="114.089" viewBox="0 0 108.33 114.089">
  <g id="placeholder" transform="translate(0 0)">
    <g id="popPROVIDER" transform="translate(0 0)" opacity="0.5">
      <g id="Group_5636" data-name="Group 5636" transform="translate(0 5.759)">
        <path id="Path_29399" data-name="Path 29399" d="M64.227,50.68A52.415,52.415,0,1,1,11.81,103.1,52.414,52.414,0,0,1,64.227,50.68Z" transform="translate(-10.06 -48.93)" fill="#00a0e3" fill-rule="evenodd"/>
        <path id="Path_29400" data-name="Path 29400" d="M54.166,147.2a54,54,0,1,1,21.083-4.257A53.837,53.837,0,0,1,54.166,147.2Zm0-104.83a50.665,50.665,0,1,0,50.665,50.665A50.723,50.723,0,0,0,54.166,42.37Z" transform="translate(0 -38.87)" fill="#fefefe"/>
      </g>
      <path id="Path_29401" data-name="Path 29401" d="M222.6,231.15a8.387,8.387,0,0,1-8.379,8.377h-20.68a8.386,8.386,0,0,1-8.377-8.377v-5.282a8.387,8.387,0,0,1,8.377-8.379h20.68a8.389,8.389,0,0,1,8.379,8.379v5.282Zm-6.27-21.36H191.44a15.557,15.557,0,0,0-15.54,15.538v6.359a15.557,15.557,0,0,0,15.538,15.538h24.9a15.556,15.556,0,0,0,15.538-15.538v-6.359A15.556,15.556,0,0,0,216.334,209.79Z" transform="translate(-149.838 -178.706)" fill="#fefefe" fill-rule="evenodd"/>
      <path id="Path_29402" data-name="Path 29402" d="M585.387,306.088a5.1,5.1,0,0,1-1.387,8.2c.033-.468.031-8.723,0-9.191A5.128,5.128,0,0,1,585.387,306.088Z" transform="translate(-497.471 -259.895)" fill="#fefefe" fill-rule="evenodd"/>
      <path id="Path_29403" data-name="Path 29403" d="M314.114,133.03a9.115,9.115,0,0,1,8.813,6.829H305.3A9.118,9.118,0,0,1,314.114,133.03Z" transform="translate(-260.065 -113.319)" fill="#fefefe" fill-rule="evenodd"/>
      <path id="Path_29404" data-name="Path 29404" d="M126.13,309.7a5.116,5.116,0,0,1,2.882-4.6c-.033.468-.033,8.723,0,9.189A5.108,5.108,0,0,1,126.13,309.7Z" transform="translate(-107.442 -259.895)" fill="#fefefe" fill-rule="evenodd"/>
      <path id="Path_29405" data-name="Path 29405" d="M139.367,559.483a2.921,2.921,0,1,1-4.131-4.132l10.02-10.021v8.265l-5.89,5.888Z" transform="translate(-114.469 -464.531)" fill="#fefefe" fill-rule="evenodd"/>
      <path id="Path_29406" data-name="Path 29406" d="M270.018,523.176,270,513.892a10.1,10.1,0,0,0-10.087-10.086h-6.358a10.1,10.1,0,0,0-10.087,10.086l-.1,9.04c-3.457-1-2.452-.293-5.426-1.591l.077-35a19.992,19.992,0,0,0,6.269,1h24.9a20,20,0,0,0,6.27-1l-.022,34.975c-3.424,1.214-.982.5-5.413,1.861Z" transform="translate(-202.685 -414.281)" fill="#fefefe" fill-rule="evenodd"/>
      <path id="Path_29407" data-name="Path 29407" d="M531.8,559.474a2.921,2.921,0,0,1-4.132,0l-5.89-5.888V545.32L531.8,555.342a2.921,2.921,0,0,1,0,4.132h0Z" transform="translate(-444.47 -464.522)" fill="#fefefe" fill-rule="evenodd"/>
      <path id="Path_29408" data-name="Path 29408" d="M364.781,133.03h0v6.829H373.6A9.118,9.118,0,0,0,364.781,133.03Z" transform="translate(-310.732 -113.319)" fill="#ebecec" fill-rule="evenodd"/>
      <path id="Path_29409" data-name="Path 29409" d="M367.96,503.806a10.1,10.1,0,0,1,10.087,10.086l0,9.192c4.211-7.927,5.451-4.3,5.45-9V486.34a20,20,0,0,1-6.27,1H364.78v16.461h3.18Z" transform="translate(-310.732 -414.281)" fill="#ebecec" fill-rule="evenodd"/>
      <path id="Path_29410" data-name="Path 29410" d="M377.229,209.79H364.78v7.7h10.34a8.389,8.389,0,0,1,8.379,8.379v5.282a8.387,8.387,0,0,1-8.379,8.377H364.78v7.7h12.449a15.556,15.556,0,0,0,15.538-15.538v-6.359a15.556,15.556,0,0,0-15.538-15.538Z" transform="translate(-310.732 -178.706)" fill="#fefefe" fill-rule="evenodd"/>
      <g id="Group_5637" data-name="Group 5637" transform="translate(13.939)">
        <path id="Path_29411" data-name="Path 29411" d="M168.437,95.579a2.921,2.921,0,0,1-4.132,0l-5.89-5.89V81.425l10.022,10.022a2.921,2.921,0,0,1,0,4.132ZM147.6,69.147h-24.9a15.557,15.557,0,0,1-15.538-15.54V47.249a15.557,15.557,0,0,1,15.538-15.54h24.9a15.557,15.557,0,0,1,15.538,15.54v6.358A15.557,15.557,0,0,1,147.6,69.147Zm6.281,38.892c-1.91.693-1.467.523-5.427,1.689l-.036-9.49a10.1,10.1,0,0,0-10.087-10.087h-6.359A10.3,10.3,0,0,0,121.9,100.482l-.079,9.173a39.029,39.029,0,0,1-5.426-1.8l.043-35.166a20.007,20.007,0,0,0,6.27,1h24.9a20.007,20.007,0,0,0,6.27-1l.01,35.352Zm-9.871,2.735a27.822,27.822,0,0,1-5.986.781l-5.175.092c-2.022-.09-4.352-.682-6.42-.929v-10.48a5.55,5.55,0,0,1,5.543-5.544h6.359a5.518,5.518,0,0,1,5.54,5.51l.139,10.57Zm-8.857-90.436a9.115,9.115,0,0,1,8.813,6.829H126.338a9.118,9.118,0,0,1,8.816-6.829Zm0-14.615a2.165,2.165,0,1,1-2.166,2.165A2.167,2.167,0,0,1,135.154,5.723ZM111.892,89.69,106,95.579a2.922,2.922,0,1,1-4.132-4.132l10.022-10.022V89.69h0Zm-9.217-34.668a5.1,5.1,0,0,1,0-9.189c-.033.467-.033,8.721,0,9.189Zm66.344-8.2a5.1,5.1,0,0,1-1.387,8.2c.033-.468.033-8.721,0-9.191A5.1,5.1,0,0,1,169.019,46.82ZM158.415,75V70.523a20.17,20.17,0,0,0,8.226-10.53,9.644,9.644,0,0,0,0-19.131,20.124,20.124,0,0,0-18.03-13.67,13.679,13.679,0,0,0-11.185-11.206V14.2a6.708,6.708,0,1,0-4.544,0v1.787A13.679,13.679,0,0,0,121.7,27.192a20.123,20.123,0,0,0-18.03,13.67,9.644,9.644,0,0,0,0,19.131,20.186,20.186,0,0,0,8.228,10.53V75L98.658,88.233a7.465,7.465,0,1,0,10.557,10.558l2.677-2.676-.036,9.213c4.122,3.11,12.87,5.887,21.934,6.254l5.873-.246c6.825-.631,11.988-2.04,15.455-3.854a13.819,13.819,0,0,0,3.4-2.085l-.105-9.283,2.677,2.676a7.465,7.465,0,1,0,10.557-10.558Z" transform="translate(-95.077 -1.005)" fill="#a2d9f7" fill-rule="evenodd"/>
        <path id="Path_29412" data-name="Path 29412" d="M131.856,110.816a25.435,25.435,0,0,1-3.114-.39,50.035,50.035,0,0,1-13.474-3.442l-.047-.021a22.047,22.047,0,0,1-4.466-2.5l-.07-.053.034-8.877-2.377,2.377a7.639,7.639,0,1,1-10.8-10.8l13.182-13.182V69.613a20.4,20.4,0,0,1-8.183-10.466,9.82,9.82,0,0,1-5.584-16.667,9.7,9.7,0,0,1,5.584-2.781,20.3,20.3,0,0,1,18.013-13.679A13.813,13.813,0,0,1,131.71,14.834V13.316a6.908,6.908,0,0,1-4.436-6.433A6.89,6.89,0,0,1,134.153,0h0A6.883,6.883,0,0,1,136.6,13.316v1.519a13.815,13.815,0,0,1,11.158,11.185A20.3,20.3,0,0,1,165.774,39.7a9.818,9.818,0,0,1,8.46,9.727,9.838,9.838,0,0,1-8.46,9.723,20.392,20.392,0,0,1-8.182,10.466v4.309l13.182,13.182a7.64,7.64,0,1,1-10.8,10.8L157.6,95.537l.1,8.942-.07.053c-.221.166-.387.3-.525.4a14.156,14.156,0,0,1-2.9,1.7,38.1,38.1,0,0,1-11.838,3.434l-.406.09a23.588,23.588,0,0,1-4.924.567l-5.18.092Zm-3.037-.73c1.328.156,2.661.264,3.983.317l5.858-.246q1.882-.173,3.636-.433c.172-.037.348-.071.541-.105L142.7,99.2a5.357,5.357,0,0,0-5.365-5.338h-6.359a5.375,5.375,0,0,0-5.368,5.37v10.326c.787.1,1.619.247,2.425.39l.784.138Zm2.157-16.572h6.359A5.706,5.706,0,0,1,143.05,99.2l.136,10.389q2.165-.351,4.1-.828l-.036-9.526a9.923,9.923,0,0,0-9.912-9.912h-6.359a10.166,10.166,0,0,0-9.9,10.157L121,108.588c1.372.37,2.8.695,4.263.963V99.234a5.725,5.725,0,0,1,5.718-5.719Zm0-4.543h6.359A10.274,10.274,0,0,1,147.6,99.233l.034,9.256c.806-.237,1.419-.416,1.905-.557,1.711-.5,1.821-.53,3.174-1.021l-.01-34.989a20.2,20.2,0,0,1-6.1.938h-24.9a20.2,20.2,0,0,1-6.1-.938l-.043,34.8c.671.253,1.108.422,1.427.545q.831.322,2.1.69c.384.111.883.258,1.556.456l.077-8.942a10.571,10.571,0,0,1,3-7.371,10.027,10.027,0,0,1,7.25-3.134ZM153.05,71.44v.242l.01,35.123q.509-.233.981-.482a13.9,13.9,0,0,0,2.848-1.662c.124-.1.271-.212.458-.354l-.11-9.623,2.981,2.98A7.291,7.291,0,0,0,170.529,87.35L157.243,74.064V69.42l.08-.052a20.033,20.033,0,0,0,8.155-10.438l.036-.1.108-.013a9.471,9.471,0,0,0,5.491-16.089,9.354,9.354,0,0,0-5.49-2.7l-.11-.013-.036-.1A20.054,20.054,0,0,0,147.6,26.36l-.141-.007-.024-.139A13.468,13.468,0,0,0,136.4,15.151l-.145-.025V13.068l.116-.041A6.533,6.533,0,0,0,134.156.347h0a6.541,6.541,0,0,0-6.53,6.533,6.556,6.556,0,0,0,4.32,6.147l.116.041v2.058l-.145.025a13.466,13.466,0,0,0-11.041,11.062l-.024.139-.141.007a20.048,20.048,0,0,0-17.873,13.551l-.036.1-.108.013a9.464,9.464,0,0,0-8.262,9.392,9.485,9.485,0,0,0,8.262,9.391l.108.013.036.1a20.039,20.039,0,0,0,8.157,10.438l.08.052v4.644L97.786,87.348A7.291,7.291,0,0,0,108.1,97.661l2.978-2.977-.037,9.549a21.775,21.775,0,0,0,4.186,2.35l.043-35.146.23.076a19.851,19.851,0,0,0,6.216.994h24.9a19.851,19.851,0,0,0,6.216-.994l.23-.076Zm12.323,24.166a3.072,3.072,0,0,1-2.188-.908l-5.941-5.941V80l10.32,10.32a3.1,3.1,0,0,1,0,4.378h0a3.083,3.083,0,0,1-2.19.908Zm-7.78-6.993,5.838,5.838a2.748,2.748,0,1,0,3.886-3.885l-9.724-9.724v7.77ZM102.94,95.605a3.1,3.1,0,0,1-2.19-5.287L111.07,80v8.76L105.129,94.7a3.077,3.077,0,0,1-2.188.908Zm7.78-14.763L101,90.566a2.748,2.748,0,0,0,3.886,3.886l5.838-5.838v-7.77ZM146.6,68.316h-24.9A15.731,15.731,0,0,1,106,52.6V46.244A15.731,15.731,0,0,1,121.708,30.53h24.9a15.731,15.731,0,0,1,15.713,15.714V52.6A15.731,15.731,0,0,1,146.6,68.316Zm-24.9-37.437a15.382,15.382,0,0,0-15.363,15.365V52.6a15.382,15.382,0,0,0,15.363,15.365h24.9A15.382,15.382,0,0,0,161.968,52.6V46.244A15.381,15.381,0,0,0,146.6,30.879h-24.9ZM166.44,54.306l.021-.3c.033-.471.033-8.694,0-9.167l-.021-.3.271.132a5.261,5.261,0,0,1,1.434,1.022h0a5.245,5.245,0,0,1,1.547,3.732,5.318,5.318,0,0,1-2.98,4.75l-.271.132Zm.378-9.188c.022,1.433.022,7.171,0,8.605a4.967,4.967,0,0,0,2.525-4.3,4.9,4.9,0,0,0-1.443-3.486,4.972,4.972,0,0,0-1.08-.819Zm-64.944,9.188-.271-.132a5.318,5.318,0,0,1-2.98-4.752A5.287,5.287,0,0,1,101.6,44.67l.271-.132-.021.3c-.033.47-.033,8.693,0,9.166l.021.3Zm-.378-9.186a4.933,4.933,0,0,0-2.523,4.3,4.966,4.966,0,0,0,2.525,4.3c-.022-1.434-.022-7.171,0-8.6Zm41.7-18.783H125.115l.056-.219a9.276,9.276,0,0,1,8.985-6.961h0a9.272,9.272,0,0,1,8.982,6.961l.056.218Zm-17.626-.35h17.172a8.929,8.929,0,0,0-17.172,0Zm8.586-16.765a2.34,2.34,0,1,1,2.341-2.34A2.342,2.342,0,0,1,134.156,9.222Zm0-4.329a1.99,1.99,0,1,0,1.99,1.99A1.993,1.993,0,0,0,134.157,4.892Z" transform="translate(-94.08 0)" fill="#00b2cc"/>
      </g>
      <path id="Path_29413" data-name="Path 29413" d="M253.225,263.035a5.549,5.549,0,0,1-5.543,5.543H222.787a5.55,5.55,0,0,1-5.544-5.543v-6.359a5.551,5.551,0,0,1,5.543-5.543h24.9a5.549,5.549,0,0,1,5.543,5.543Zm-5.543-16.445H222.787A10.1,10.1,0,0,0,212.7,256.676v6.359a10.1,10.1,0,0,0,10.086,10.086h24.9a10.1,10.1,0,0,0,10.086-10.086v-6.359a10.1,10.1,0,0,0-10.086-10.086Z" transform="translate(-181.185 -210.054)" fill="#00b2cc" fill-rule="evenodd"/>
      <path id="Path_29414" data-name="Path 29414" d="M282.792,320.154a3.362,3.362,0,1,0-3.362-3.362A3.362,3.362,0,0,0,282.792,320.154Z" transform="translate(-238.028 -266.99)" fill="#fefefe" fill-rule="evenodd"/>
      <path id="Path_29415" data-name="Path 29415" d="M408.122,320.154a3.362,3.362,0,1,0-3.362-3.362A3.362,3.362,0,0,0,408.122,320.154Z" transform="translate(-344.788 -266.99)" fill="#fefefe" fill-rule="evenodd"/>
    </g>
  </g>
</svg>
