<svg width="32" height="23" viewBox="0 0 32 23" fill="none" xmlns="http://www.w3.org/2000/svg">
<g clip-path="url(#clip0_260_913)">
<path d="M0.5 0.5H31.5V22.5H0.5V0.5Z" fill="white"/>
<path d="M0.5 1.16406H31.793V21.8311H0.5V1.16406Z" fill="#FF0000"/>
<path d="M0.5 1.16406H13.017V21.8311H0.5V1.16406Z" fill="#006600"/>
<path fill-rule="evenodd" clip-rule="evenodd" d="M17.0971 14.7053C15.5211 14.6583 8.29707 10.1903 8.24707 9.47931L8.64707 8.82031C9.36407 9.85231 16.7471 14.1963 17.4751 14.0423L17.0971 14.7053Z" fill="#FFFF00" stroke="black" stroke-width="0.03" stroke-linecap="round" stroke-linejoin="round"/>
<path fill-rule="evenodd" clip-rule="evenodd" d="M8.56345 8.73138C8.42245 9.10838 10.4484 10.3494 12.8874 11.8184C15.3264 13.2874 17.4284 14.1954 17.5874 14.0654C17.6135 14.0234 17.6372 13.98 17.6584 13.9354C17.6294 13.9794 17.5584 13.9924 17.4474 13.9614C15.8746 13.3677 14.3667 12.6144 12.9474 11.7134C10.8104 10.4344 8.95945 9.25638 8.67245 8.75638C8.64981 8.7108 8.63915 8.66021 8.64145 8.60938H8.63245L8.57245 8.71438L8.56345 8.73138ZM17.1354 14.7314C17.1084 14.7794 17.0584 14.7814 16.9644 14.7704C15.3775 14.2429 13.8671 13.5082 12.4724 12.5854C10.0084 11.1254 7.97245 9.79438 8.19545 9.44638L8.25545 9.34137H8.26745C8.06745 9.93037 12.2804 12.3164 12.5284 12.4684C14.9654 13.9684 17.0194 14.8374 17.2014 14.6104L17.1354 14.7234V14.7314Z" fill="#FFFF00" stroke="black" stroke-width="0.03" stroke-linecap="round" stroke-linejoin="round"/>
<path fill-rule="evenodd" clip-rule="evenodd" d="M13.0262 9.91106C14.6003 9.93758 16.1689 9.7162 17.6742 9.25506L17.4282 8.86706C16.0029 9.32643 14.5102 9.5418 13.0132 9.50406C10.8882 9.48506 9.38918 9.28906 8.63718 8.78906L8.40918 9.20306C9.88406 9.75041 11.4551 9.99132 13.0262 9.91106Z" fill="#FFFF00" stroke="black" stroke-width="0.03" stroke-linecap="round" stroke-linejoin="round"/>
<path fill-rule="evenodd" clip-rule="evenodd" d="M17.7347 9.269C17.146 9.51976 16.5249 9.6864 15.8897 9.764C14.9399 9.90414 13.9809 9.973 13.0207 9.97C12.1008 9.97297 11.1818 9.91417 10.2697 9.794C9.60861 9.7057 8.961 9.53573 8.34173 9.288L8.39573 9.181C9.00478 9.42074 9.63975 9.58855 10.2877 9.681C11.1915 9.79978 12.1022 9.85758 13.0137 9.854C13.9697 9.85372 14.9243 9.78252 15.8697 9.641C16.4949 9.59349 17.104 9.42037 17.6607 9.132L17.7387 9.265L17.7347 9.269ZM17.5237 8.869C16.9653 9.12079 16.3694 9.27955 15.7597 9.339C14.8567 9.4668 13.9457 9.52996 13.0337 9.528C12.1532 9.53459 11.2733 9.47845 10.4007 9.36C9.77332 9.28799 9.15787 9.13505 8.56973 8.905L8.63173 8.805C9.2015 9.04174 9.80289 9.19369 10.4167 9.256C11.2856 9.37028 12.1614 9.42441 13.0377 9.418C13.9431 9.41918 14.8475 9.35535 15.7437 9.227C16.3376 9.17658 16.9167 9.01476 17.4507 8.75L17.5277 8.877L17.5237 8.869ZM7.84873 11.795C9.50263 12.3898 11.2554 12.6614 13.0117 12.595C14.7694 12.6509 16.523 12.3939 18.1907 11.836L18.1657 11.319C17.8827 11.757 15.2917 12.177 12.9917 12.16C11.2376 12.2419 9.4854 11.961 7.84473 11.335V11.8" fill="#FFFF00"/>
<path d="M7.84873 11.795C9.50263 12.3898 11.2554 12.6614 13.0117 12.595C14.7694 12.6509 16.523 12.3939 18.1907 11.836L18.1657 11.319C17.8827 11.757 15.2917 12.177 12.9917 12.16C11.2376 12.2419 9.4854 11.961 7.84473 11.335V11.8M17.7347 9.269C17.146 9.51976 16.5249 9.6864 15.8897 9.764C14.9399 9.90414 13.9809 9.973 13.0207 9.97C12.1008 9.97297 11.1818 9.91417 10.2697 9.794C9.60861 9.7057 8.961 9.53573 8.34173 9.288L8.39573 9.181C9.00478 9.42074 9.63975 9.58855 10.2877 9.681C11.1915 9.79978 12.1022 9.85758 13.0137 9.854C13.9697 9.85372 14.9243 9.78252 15.8697 9.641C16.4949 9.59349 17.104 9.42037 17.6607 9.132L17.7387 9.265L17.7347 9.269ZM17.5237 8.869C16.9653 9.12079 16.3694 9.27955 15.7597 9.339C14.8567 9.4668 13.9457 9.52996 13.0337 9.528C12.1532 9.53459 11.2733 9.47845 10.4007 9.36C9.77332 9.28799 9.15787 9.13505 8.56973 8.905L8.63173 8.805C9.2015 9.04174 9.80289 9.19369 10.4167 9.256C11.2856 9.37028 12.1614 9.42441 13.0377 9.418C13.9431 9.41918 14.8475 9.35535 15.7437 9.227C16.3376 9.17658 16.9167 9.01476 17.4507 8.75L17.5277 8.877L17.5237 8.869Z" stroke="black" stroke-width="0.03" stroke-linecap="round" stroke-linejoin="round"/>
<path fill-rule="evenodd" clip-rule="evenodd" d="M18.2393 11.7166V11.8396C17.5959 12.159 16.898 12.3544 16.1823 12.4156C15.1226 12.5678 14.0529 12.6404 12.9823 12.6326C11.9675 12.6398 10.9537 12.5706 9.9493 12.4256C9.20129 12.3405 8.47002 12.1451 7.7793 11.8456V11.7016C8.47423 12.0107 9.21073 12.2162 9.9653 12.3116C10.9637 12.4554 11.9716 12.5239 12.9803 12.5166C14.0435 12.5243 15.1058 12.4524 16.1583 12.3016C16.8768 12.2207 17.5774 12.0231 18.2323 11.7166H18.2393ZM18.2393 11.2776V11.4006C17.5958 11.72 16.898 11.9154 16.1823 11.9766C15.1226 12.1288 14.0529 12.2014 12.9823 12.1936C11.9675 12.2008 10.9537 12.1316 9.9493 11.9866C9.20132 11.902 8.47003 11.7068 7.7793 11.4076V11.2656C8.47427 11.5744 9.21078 11.7796 9.9653 11.8746C10.9637 12.0185 11.9716 12.087 12.9803 12.0796C14.0468 12.0882 15.1125 12.0167 16.1683 11.8656C16.8868 11.7847 17.5874 11.5871 18.2423 11.2806L18.2393 11.2776ZM13.0063 14.6156C11.4672 14.5784 9.9393 14.3431 8.4603 13.9156L8.7543 14.3716C10.1267 14.8525 11.5733 15.0864 13.0273 15.0626C14.4654 15.1126 15.8994 14.8806 17.2483 14.3796L17.5483 13.9066C16.075 14.3574 14.5449 14.5958 13.0043 14.6146" fill="#FFFF00"/>
<path d="M13.0063 14.6156C11.4672 14.5784 9.9393 14.3431 8.4603 13.9156L8.7543 14.3716C10.1267 14.8525 11.5733 15.0864 13.0273 15.0626C14.4654 15.1126 15.8994 14.8806 17.2483 14.3796L17.5483 13.9066C16.075 14.3574 14.5449 14.5958 13.0043 14.6146M18.2393 11.7166V11.8396C17.5959 12.159 16.898 12.3544 16.1823 12.4156C15.1226 12.5678 14.0529 12.6404 12.9823 12.6326C11.9675 12.6398 10.9537 12.5706 9.9493 12.4256C9.20129 12.3405 8.47002 12.1451 7.7793 11.8456V11.7016C8.47423 12.0107 9.21073 12.2162 9.9653 12.3116C10.9637 12.4554 11.9716 12.5239 12.9803 12.5166C14.0435 12.5243 15.1058 12.4524 16.1583 12.3016C16.8768 12.2207 17.5774 12.0231 18.2323 11.7166H18.2393ZM18.2393 11.2776V11.4006C17.5958 11.72 16.898 11.9154 16.1823 11.9766C15.1226 12.1288 14.0529 12.2014 12.9823 12.1936C11.9675 12.2008 10.9537 12.1316 9.9493 11.9866C9.20132 11.902 8.47003 11.7068 7.7793 11.4076V11.2656C8.47427 11.5744 9.21078 11.7796 9.9653 11.8746C10.9637 12.0185 11.9716 12.087 12.9803 12.0796C14.0468 12.0882 15.1125 12.0167 16.1683 11.8656C16.8868 11.7847 17.5874 11.5871 18.2423 11.2806L18.2393 11.2776Z" stroke="black" stroke-width="0.03" stroke-linecap="round" stroke-linejoin="round"/>
<path fill-rule="evenodd" clip-rule="evenodd" d="M17.362 14.2796C17.318 14.3462 17.273 14.4129 17.227 14.4796C16.7036 14.6512 16.169 14.7866 15.627 14.8846C14.762 15.0428 13.8844 15.1225 13.005 15.1226C11.5213 15.1329 10.0473 14.8828 8.65002 14.3836L8.58902 14.2836L8.59902 14.2676L8.69902 14.3076C10.0914 14.7649 11.5465 15.0027 13.012 15.0126C13.8742 15.0091 14.7345 14.9305 15.583 14.7776C16.178 14.6896 16.7604 14.5311 17.318 14.3056L17.354 14.2856L17.362 14.2796ZM17.624 13.8516L17.524 14.0206C16.8671 14.2304 16.1923 14.379 15.508 14.4646C14.6893 14.5976 13.8615 14.6672 13.032 14.6726C11.4748 14.6554 9.92722 14.426 8.43202 13.9906L8.37402 13.8846C9.89542 14.2973 11.4611 14.525 13.037 14.5626C13.8606 14.5512 14.6823 14.4814 15.496 14.3536C16.1765 14.2603 16.8483 14.1125 17.505 13.9116L17.497 13.9016L17.629 13.8526L17.624 13.8516Z" fill="#FFFF00" stroke="black" stroke-width="0.028" stroke-linecap="round" stroke-linejoin="round"/>
<path fill-rule="evenodd" clip-rule="evenodd" d="M17.6504 11.3843C17.6387 12.6263 17.1566 13.8176 16.3014 14.7183C15.4093 15.5766 14.2242 16.0635 12.9864 16.0803C11.7746 16.0451 10.6182 15.5653 9.7374 14.7323C8.89621 13.8502 8.41598 12.685 8.3914 11.4663C8.40106 10.8081 8.55164 10.1596 8.83298 9.56453C9.11431 8.96942 9.51989 8.4415 10.0224 8.0163C10.9077 7.29552 12.0168 6.90646 13.1584 6.9163C13.8243 6.94778 14.4764 7.11708 15.0735 7.41348C15.6706 7.70988 16.1997 8.12695 16.6274 8.6383C17.2485 9.42422 17.6068 10.3856 17.6514 11.3863L17.6504 11.3843ZM12.9994 6.4063C14.3612 6.40015 15.6701 6.93299 16.6404 7.8885C17.6107 8.84401 18.1636 10.1446 18.1784 11.5063C18.1923 12.5313 17.9011 13.5373 17.3419 14.3965C16.7828 15.2556 15.9808 15.9292 15.0379 16.3315C14.0951 16.7338 13.0539 16.8468 12.0467 16.656C11.0395 16.4652 10.1117 15.9793 9.38133 15.26C8.65092 14.5408 8.15082 13.6206 7.94458 12.6164C7.73834 11.6123 7.83527 10.5695 8.22305 9.62057C8.61083 8.67164 9.27196 7.85941 10.1224 7.28709C10.9729 6.71476 11.9743 6.40818 12.9994 6.4063Z" fill="#FFFF00" stroke="black" stroke-width="0.03" stroke-linecap="round" stroke-linejoin="round"/>
<path fill-rule="evenodd" clip-rule="evenodd" d="M13.0136 6.39062C14.0233 6.4001 15.0076 6.70815 15.8426 7.27599C16.6776 7.84383 17.3258 8.64605 17.7057 9.58162C18.0856 10.5172 18.1802 11.5442 17.9775 12.5334C17.7748 13.5226 17.2839 14.4297 16.5666 15.1405C15.8493 15.8512 14.9378 16.3338 13.9468 16.5274C12.9558 16.7211 11.9296 16.6172 10.9976 16.2287C10.0655 15.8403 9.26925 15.1847 8.70907 14.3446C8.14889 13.5045 7.84985 12.5174 7.84961 11.5076C7.8586 10.1452 8.40707 8.84191 9.37494 7.88304C10.3428 6.92417 11.6512 6.38689 13.0136 6.39062ZM7.96361 11.5066C7.9535 12.5078 8.24115 13.4893 8.79002 14.3267C9.3389 15.164 10.1242 15.8193 11.0463 16.2094C11.9684 16.5995 12.9856 16.7068 13.9687 16.5176C14.9519 16.3285 15.8567 15.8514 16.5681 15.1469C17.2796 14.4425 17.7657 13.5426 17.9646 12.5613C18.1636 11.5801 18.0664 10.5619 17.6855 9.63596C17.3046 8.71005 16.6571 7.91823 15.8253 7.36106C14.9935 6.80388 14.0148 6.50648 13.0136 6.50662C11.6823 6.50551 10.4045 7.03046 9.45843 7.96715C8.51238 8.90383 7.97474 10.1764 7.96261 11.5076L7.96361 11.5066Z" fill="#FFFF00" stroke="black" stroke-width="0.03" stroke-linecap="round" stroke-linejoin="round"/>
<path fill-rule="evenodd" clip-rule="evenodd" d="M13.0171 6.82031C13.9423 6.8288 14.8442 7.11091 15.6093 7.6311C16.3745 8.1513 16.9685 8.88629 17.3166 9.7435C17.6648 10.6007 17.7514 11.5418 17.5657 12.4481C17.3799 13.3545 16.9301 14.1856 16.2728 14.8368C15.6155 15.4879 14.7802 15.93 13.8722 16.1073C12.9641 16.2846 12.0239 16.1891 11.17 15.833C10.3161 15.4769 9.58666 14.876 9.07364 14.106C8.56062 13.3361 8.28695 12.4315 8.28711 11.5063C8.29793 10.2592 8.80113 9.06696 9.68709 8.18924C10.5731 7.31151 11.77 6.81948 13.0171 6.82031ZM8.40011 11.5063C8.39159 12.4213 8.65511 13.3181 9.15722 14.083C9.65934 14.8479 10.3774 15.4463 11.2203 15.8024C12.0631 16.1585 12.9928 16.256 13.8912 16.0828C14.7896 15.9095 15.6163 15.4732 16.2663 14.8293C16.9163 14.1853 17.3603 13.3627 17.542 12.466C17.7237 11.5692 17.6348 10.6387 17.2866 9.79254C16.9385 8.94638 16.3468 8.22275 15.5866 7.7135C14.8264 7.20426 13.9321 6.93235 13.0171 6.93231C11.7998 6.93148 10.6314 7.41175 9.76665 8.26849C8.90185 9.12524 8.41066 10.289 8.40011 11.5063Z" fill="#FFFF00" stroke="black" stroke-width="0.03" stroke-linecap="round" stroke-linejoin="round"/>
<path fill-rule="evenodd" clip-rule="evenodd" d="M13.2252 6.36719H12.7822V16.6472H13.2262L13.2252 6.36719Z" fill="#FFFF00" stroke="black" stroke-width="0.03" stroke-linecap="round" stroke-linejoin="round"/>
<path fill-rule="evenodd" clip-rule="evenodd" d="M13.1802 6.3125H13.2932V16.7125H13.1802V6.3125ZM12.7412 6.3125H12.8542V16.7125H12.7402L12.7412 6.3125Z" fill="#FFFF00" stroke="black" stroke-width="0.03" stroke-linecap="round" stroke-linejoin="round"/>
<path fill-rule="evenodd" clip-rule="evenodd" d="M18.1792 11.7045V11.3245L17.8682 11.0355L16.0942 10.5675L13.5382 10.3125L10.4612 10.4675L8.26817 10.9845L7.82617 11.3085V11.6885L8.94617 11.1885L11.6062 10.7755H14.1682L16.0462 10.9825L17.3462 11.2925L18.1792 11.7045Z" fill="#FFFF00" stroke="black" stroke-width="0.03" stroke-linecap="round" stroke-linejoin="round"/>
<path fill-rule="evenodd" clip-rule="evenodd" d="M13.0141 10.7131C14.1347 10.7093 15.2532 10.8097 16.3551 11.0131C17.0331 11.0783 17.6822 11.3196 18.2381 11.7131V11.8461C17.6743 11.4519 17.0214 11.2038 16.3381 11.1241C15.2429 10.9238 14.1315 10.8257 13.0181 10.8311C11.8817 10.8276 10.7473 10.928 9.62911 11.1311C8.89311 11.2761 7.91011 11.5631 7.78811 11.8471V11.7081C7.85511 11.5081 8.58811 11.2181 9.61311 11.0151C10.7369 10.8114 11.877 10.711 13.0191 10.7151L13.0141 10.7131ZM13.0141 10.2741C14.1347 10.2703 15.2531 10.3708 16.3551 10.5741C17.0331 10.6393 17.6822 10.8806 18.2381 11.2741V11.4071C17.6743 11.0129 17.0214 10.7648 16.3381 10.6851C15.2429 10.4847 14.1315 10.3866 13.0181 10.3921C11.8833 10.3885 10.7506 10.489 9.63411 10.6921C8.92311 10.8261 7.90111 11.1241 7.78711 11.4081V11.2671C8.31573 10.8647 8.94961 10.624 9.61211 10.5741C10.7359 10.3705 11.876 10.27 13.0181 10.2741H13.0141ZM12.9901 8.0371C14.4742 7.96373 15.958 8.18639 17.3551 8.6921L17.6351 9.1711C16.1516 8.62564 14.5703 8.39707 12.9931 8.5001C11.429 8.42475 9.86556 8.66029 8.39311 9.1931L8.72711 8.6401C10.0992 8.18124 11.5437 7.97788 12.9891 8.0401" fill="#FFFF00"/>
<path d="M12.9901 8.0371C14.4742 7.96373 15.958 8.18639 17.3551 8.6921L17.6351 9.1711C16.1516 8.62564 14.5703 8.39707 12.9931 8.5001C11.429 8.42475 9.86556 8.66029 8.39311 9.1931L8.72711 8.6401C10.0992 8.18124 11.5437 7.97788 12.9891 8.0401M13.0141 10.7131C14.1347 10.7093 15.2532 10.8097 16.3551 11.0131C17.0331 11.0783 17.6822 11.3196 18.2381 11.7131V11.8461C17.6743 11.4519 17.0214 11.2038 16.3381 11.1241C15.2429 10.9238 14.1315 10.8257 13.0181 10.8311C11.8817 10.8276 10.7473 10.928 9.62911 11.1311C8.89311 11.2761 7.91011 11.5631 7.78811 11.8471V11.7081C7.85511 11.5081 8.58811 11.2181 9.61311 11.0151C10.7369 10.8114 11.877 10.711 13.0191 10.7151L13.0141 10.7131ZM13.0141 10.2741C14.1347 10.2703 15.2531 10.3708 16.3551 10.5741C17.0331 10.6393 17.6822 10.8806 18.2381 11.2741V11.4071C17.6743 11.0129 17.0214 10.7648 16.3381 10.6851C15.2429 10.4847 14.1315 10.3866 13.0181 10.3921C11.8833 10.3885 10.7506 10.489 9.63411 10.6921C8.92311 10.8261 7.90111 11.1241 7.78711 11.4081V11.2671C8.31573 10.8647 8.94961 10.624 9.61211 10.5741C10.7359 10.3705 11.876 10.27 13.0181 10.2741H13.0141Z" stroke="black" stroke-width="0.03" stroke-linecap="round" stroke-linejoin="round"/>
<path fill-rule="evenodd" clip-rule="evenodd" d="M13.0152 8.43629C14.0193 8.42024 15.023 8.49016 16.0152 8.64529C16.5834 8.71824 17.1368 8.87952 17.6552 9.12329L17.7382 9.26829C17.1876 9.01122 16.6013 8.83861 15.9992 8.75629C15.0127 8.602 14.0145 8.53508 13.0162 8.55629C12.0047 8.53521 10.9932 8.60212 9.99321 8.75629C9.42774 8.83537 8.8785 9.00416 8.36621 9.25629L8.44721 9.10329C8.93069 8.87649 9.44483 8.72184 9.97321 8.64429C10.9811 8.48872 12.0005 8.41947 13.0202 8.43729L13.0152 8.43629ZM13.0152 7.99829C13.9831 7.98339 14.9506 8.0503 15.9072 8.19829C16.4309 8.27471 16.9379 8.43866 17.4072 8.68329L17.5282 8.87429C17.0211 8.5646 16.4512 8.37223 15.8602 8.31129C14.9191 8.17197 13.9686 8.1051 13.0172 8.11129C12.0437 8.10076 11.0709 8.17167 10.1092 8.32329C9.60716 8.39255 9.11937 8.54142 8.66421 8.76429L8.77321 8.60529C9.1935 8.41394 9.6374 8.27942 10.0932 8.20529C11.0609 8.05322 12.0397 7.9823 13.0192 7.99329L13.0152 7.99829ZM15.5802 13.6363C14.7326 13.491 13.8731 13.4264 13.0132 13.4433C9.81321 13.4803 8.77621 14.0953 8.64921 14.2813L8.41021 13.8943C9.83955 13.1804 11.4385 12.8758 13.0302 13.0143C13.9586 13.0149 14.8852 13.0942 15.8002 13.2513L15.5792 13.6373" fill="#FFFF00"/>
<path d="M15.5802 13.6363C14.7326 13.491 13.8731 13.4264 13.0132 13.4433C9.81321 13.4803 8.77621 14.0953 8.64921 14.2813L8.41021 13.8943C9.83955 13.1804 11.4385 12.8758 13.0302 13.0143C13.9586 13.0149 14.8852 13.0942 15.8002 13.2513L15.5792 13.6373M13.0152 8.43629C14.0193 8.42024 15.023 8.49016 16.0152 8.64529C16.5834 8.71824 17.1368 8.87952 17.6552 9.12329L17.7382 9.26829C17.1876 9.01122 16.6013 8.83861 15.9992 8.75629C15.0127 8.602 14.0145 8.53508 13.0162 8.55629C12.0047 8.53521 10.9932 8.60212 9.99321 8.75629C9.42774 8.83537 8.8785 9.00416 8.36621 9.25629L8.44721 9.10329C8.93069 8.87649 9.44483 8.72184 9.97321 8.64429C10.9811 8.48872 12.0005 8.41947 13.0202 8.43729L13.0152 8.43629ZM13.0152 7.99829C13.9831 7.98339 14.9506 8.0503 15.9072 8.19829C16.4309 8.27471 16.9379 8.43866 17.4072 8.68329L17.5282 8.87429C17.0211 8.5646 16.4512 8.37223 15.8602 8.31129C14.9191 8.17197 13.9686 8.1051 13.0172 8.11129C12.0437 8.10076 11.0709 8.17167 10.1092 8.32329C9.60716 8.39255 9.11937 8.54142 8.66421 8.76429L8.77321 8.60529C9.1935 8.41394 9.6374 8.27942 10.0932 8.20529C11.0609 8.05322 12.0397 7.9823 13.0192 7.99329L13.0152 7.99829Z" stroke="black" stroke-width="0.03" stroke-linecap="round" stroke-linejoin="round"/>
<path fill-rule="evenodd" clip-rule="evenodd" d="M12.9953 13.3896C13.8691 13.3854 14.7419 13.4543 15.6043 13.5956L15.5433 13.7026C14.7028 13.5591 13.8508 13.4941 12.9983 13.5086C11.8459 13.4826 10.6955 13.6172 9.58026 13.9086C9.25226 13.9996 8.70826 14.2086 8.65226 14.3816L8.59126 14.2816C8.60926 14.1816 8.93726 13.9676 9.55126 13.7966C10.6748 13.5041 11.8336 13.3695 12.9943 13.3966L12.9953 13.3896ZM13.0353 12.9456C13.9738 12.9443 14.9107 13.0249 15.8353 13.1866L15.7713 13.2976C14.8692 13.1341 13.9539 13.0551 13.0373 13.0616C11.8294 13.0344 10.6236 13.1727 9.45326 13.4726C9.08426 13.5796 8.44726 13.8096 8.42526 13.9916L8.36426 13.8846C8.37826 13.7186 8.92926 13.5026 9.42626 13.3596C10.6041 13.0555 11.8181 12.9145 13.0343 12.9406L13.0353 12.9456Z" fill="#FFFF00" stroke="black" stroke-width="0.028" stroke-linecap="round" stroke-linejoin="round"/>
<path fill-rule="evenodd" clip-rule="evenodd" d="M17.5855 13.9504L17.2005 14.5424L16.0945 13.5694L13.2255 11.6574L9.99248 9.90138L8.31348 9.33238L8.67348 8.67537L8.79548 8.60938L9.83648 8.86937L13.2735 10.6244L15.2555 11.8644L16.9245 13.0524L17.6025 13.8274L17.5855 13.9504Z" fill="#FFFF00" stroke="black" stroke-width="0.03" stroke-linecap="round" stroke-linejoin="round"/>
<path fill-rule="evenodd" clip-rule="evenodd" d="M8.25348 9.34472C8.54748 9.14472 10.7125 10.1017 12.9765 11.4547C15.2405 12.8077 17.3925 14.3437 17.1985 14.6307L17.1345 14.7307L17.1055 14.7537C17.1115 14.7537 17.1445 14.7097 17.1055 14.6037C17.0055 14.2897 15.4785 13.0797 12.9385 11.5607C10.4585 10.0977 8.39448 9.21672 8.18848 9.46672L8.25348 9.34372V9.34472ZM17.6645 13.9397C17.8505 13.5757 15.8435 12.0777 13.3545 10.6187C10.8085 9.18972 8.97248 8.34772 8.63848 8.59872L8.56448 8.73272C8.56448 8.73972 8.56448 8.72372 8.58248 8.71172C8.64436 8.67249 8.71752 8.6549 8.79048 8.66172C9.36748 8.67072 11.0155 9.42172 13.3285 10.7347C14.3415 11.3197 17.6085 13.3947 17.5965 13.9787C17.5965 14.0287 17.5965 14.0387 17.5815 14.0637L17.6645 13.9397Z" fill="#FFFF00" stroke="black" stroke-width="0.03" stroke-linecap="round" stroke-linejoin="round"/>
<path d="M9.91897 12.0706C9.9194 12.4726 10.0001 12.8705 10.1564 13.2409C10.3126 13.6113 10.5413 13.9467 10.829 14.2276C11.4085 14.8066 12.1937 15.1326 13.0129 15.1345C13.8321 15.1364 14.6188 14.8139 15.201 14.2376C15.4888 13.9554 15.7175 13.6187 15.8737 13.2471C16.03 12.8756 16.1106 12.4766 16.111 12.0736V7.98356L9.91797 7.97656V12.0766L9.91897 12.0706Z" fill="white" stroke="black" stroke-width="0.035"/>
<path d="M10.0352 12.0744C10.0363 12.4598 10.1143 12.8411 10.2646 13.196C10.4148 13.5509 10.6343 13.8723 10.9102 14.1414C11.4691 14.6946 12.2237 15.005 13.0102 15.005C13.7966 15.005 14.5513 14.6946 15.1102 14.1414C15.3856 13.8717 15.6044 13.5498 15.754 13.1946C15.9035 12.8393 15.9808 12.4578 15.9812 12.0724V8.10938H10.0382V12.0744M14.7852 9.29737V12.0904C14.785 12.1636 14.7807 12.2367 14.7722 12.3094C14.7241 12.6968 14.5448 13.056 14.2642 13.3274C13.9302 13.6572 13.4795 13.8419 13.0102 13.8414C12.5444 13.8367 12.099 13.6501 11.769 13.3214C11.439 12.9928 11.2507 12.5481 11.2442 12.0824V9.29037L14.7872 9.29638L14.7852 9.29737Z" fill="#FF0000"/>
<path d="M10.0352 12.0744C10.0363 12.4598 10.1143 12.8411 10.2646 13.196C10.4148 13.5509 10.6343 13.8723 10.9102 14.1414C11.4691 14.6946 12.2237 15.005 13.0102 15.005C13.7966 15.005 14.5513 14.6946 15.1102 14.1414C15.3856 13.8717 15.6044 13.5498 15.754 13.1946C15.9035 12.8393 15.9808 12.4578 15.9812 12.0724V8.10938H10.0382V12.0744M14.7852 9.29737V12.0904C14.785 12.1636 14.7807 12.2367 14.7722 12.3094C14.7241 12.6968 14.5448 13.056 14.2642 13.3274C13.9302 13.6572 13.4795 13.8419 13.0102 13.8414C12.5444 13.8367 12.099 13.6501 11.769 13.3214C11.439 12.9928 11.2507 12.5481 11.2442 12.0824V9.29037L14.7872 9.29638L14.7852 9.29737Z" stroke="black" stroke-width="0.026"/>
<path d="M10.4189 9.14306C10.4136 9.0693 10.4312 8.99571 10.4694 8.93235C10.5075 8.86899 10.5642 8.81895 10.6319 8.78906C10.7016 8.81731 10.7606 8.86706 10.8001 8.93107C10.8397 8.99509 10.8578 9.07004 10.8519 9.14506H10.4189" fill="#FFFF00"/>
<path d="M10.2429 8.79887L10.2069 9.12687H10.4229C10.4149 9.05772 10.4318 8.98797 10.4707 8.93021C10.5096 8.87245 10.5678 8.83049 10.6349 8.81187C10.6998 8.83415 10.7556 8.87692 10.7941 8.93375C10.8325 8.99058 10.8514 9.05837 10.8479 9.12687H11.0639L11.0249 8.79688H10.2419L10.2429 8.79887ZM10.1899 9.12787H11.0739C11.0835 9.1294 11.0923 9.13431 11.0987 9.14174C11.105 9.14916 11.1085 9.15861 11.1085 9.16837C11.1085 9.17814 11.105 9.18759 11.0987 9.19501C11.0923 9.20244 11.0835 9.20735 11.0739 9.20888H10.1899C10.1802 9.20735 10.1715 9.20244 10.1651 9.19501C10.1588 9.18759 10.1553 9.17814 10.1553 9.16837C10.1553 9.15861 10.1588 9.14916 10.1651 9.14174C10.1715 9.13431 10.1802 9.1294 10.1899 9.12787Z" fill="#FFFF00" stroke="black" stroke-width="0.026"/>
<path d="M10.5146 9.1255C10.5108 9.08135 10.52 9.03705 10.5412 8.99811C10.5623 8.95917 10.5945 8.92732 10.6336 8.9065C10.6732 8.92705 10.706 8.95872 10.7278 8.99763C10.7497 9.03654 10.7597 9.08098 10.7566 9.1255H10.5146ZM10.2146 8.6615H11.0616C11.0702 8.66294 11.0781 8.66739 11.0838 8.67408C11.0894 8.68076 11.0925 8.68924 11.0925 8.698C11.0925 8.70676 11.0894 8.71524 11.0838 8.72192C11.0781 8.72861 11.0702 8.73306 11.0616 8.7345H10.2116C10.203 8.73306 10.1951 8.72861 10.1894 8.72192C10.1838 8.71524 10.1807 8.70676 10.1807 8.698C10.1807 8.68924 10.1838 8.68076 10.1894 8.67408C10.1951 8.66739 10.203 8.66294 10.2116 8.6615H10.2146ZM10.2326 8.7345H11.0426C11.0512 8.73594 11.0591 8.74039 11.0648 8.74708C11.0704 8.75376 11.0735 8.76224 11.0735 8.771C11.0735 8.77976 11.0704 8.78824 11.0648 8.79492C11.0591 8.80161 11.0512 8.80606 11.0426 8.8075H10.2326C10.224 8.80606 10.2161 8.80161 10.2104 8.79492C10.2048 8.78824 10.2017 8.77976 10.2017 8.771C10.2017 8.76224 10.2048 8.75376 10.2104 8.74708C10.2161 8.74039 10.224 8.73594 10.2326 8.7345ZM10.4906 8.1875H10.5546V8.2325H10.6016V8.1875H10.6676V8.2335H10.7146V8.1875H10.7806V8.2875C10.7806 8.29122 10.7799 8.2949 10.7784 8.29832C10.7769 8.30173 10.7747 8.3048 10.772 8.30734C10.7693 8.30987 10.7661 8.31182 10.7625 8.31305C10.759 8.31428 10.7553 8.31478 10.7516 8.3145H10.5216C10.5141 8.31478 10.5067 8.31211 10.5011 8.30708C10.4955 8.30204 10.4921 8.29502 10.4916 8.2875V8.1875H10.4906ZM10.7316 8.3265L10.7456 8.6595H10.5226L10.5376 8.3265H10.7376" fill="#FFFF00"/>
<path d="M10.7316 8.3265L10.7456 8.6595H10.5226L10.5376 8.3265H10.7376M10.5146 9.1255C10.5108 9.08135 10.52 9.03705 10.5412 8.99811C10.5623 8.95917 10.5945 8.92732 10.6336 8.9065C10.6732 8.92705 10.706 8.95872 10.7278 8.99763C10.7497 9.03654 10.7597 9.08098 10.7566 9.1255H10.5146ZM10.2146 8.6615H11.0616C11.0702 8.66294 11.0781 8.66739 11.0838 8.67408C11.0894 8.68076 11.0925 8.68924 11.0925 8.698C11.0925 8.70676 11.0894 8.71524 11.0838 8.72192C11.0781 8.72861 11.0702 8.73306 11.0616 8.7345H10.2116C10.203 8.73306 10.1951 8.72861 10.1894 8.72192C10.1838 8.71524 10.1807 8.70676 10.1807 8.698C10.1807 8.68924 10.1838 8.68076 10.1894 8.67408C10.1951 8.66739 10.203 8.66294 10.2116 8.6615H10.2146ZM10.2326 8.7345H11.0426C11.0512 8.73594 11.0591 8.74039 11.0648 8.74708C11.0704 8.75376 11.0735 8.76224 11.0735 8.771C11.0735 8.77976 11.0704 8.78824 11.0648 8.79492C11.0591 8.80161 11.0512 8.80606 11.0426 8.8075H10.2326C10.224 8.80606 10.2161 8.80161 10.2104 8.79492C10.2048 8.78824 10.2017 8.77976 10.2017 8.771C10.2017 8.76224 10.2048 8.75376 10.2104 8.74708C10.2161 8.74039 10.224 8.73594 10.2326 8.7345ZM10.4906 8.1875H10.5546V8.2325H10.6016V8.1875H10.6676V8.2335H10.7146V8.1875H10.7806V8.2875C10.7806 8.29122 10.7799 8.2949 10.7784 8.29832C10.7769 8.30173 10.7747 8.3048 10.772 8.30734C10.7693 8.30987 10.7661 8.31182 10.7625 8.31305C10.759 8.31428 10.7553 8.31478 10.7516 8.3145H10.5216C10.5141 8.31478 10.5067 8.31211 10.5011 8.30708C10.4955 8.30204 10.4921 8.29502 10.4916 8.2875V8.1875H10.4906Z" stroke="black" stroke-width="0.026"/>
<path d="M10.458 8.47656L10.465 8.65656H10.25L10.256 8.47656H10.456H10.458Z" fill="#FFFF00" stroke="black" stroke-width="0.026"/>
<path d="M11.0117 8.47656L11.0187 8.65656H10.8037L10.8097 8.47656H11.0097H11.0117Z" fill="#FFFF00" stroke="black" stroke-width="0.026"/>
<path d="M10.2158 8.35256H10.2788V8.39756H10.3248V8.35156H10.3908V8.39756H10.4368V8.35156H10.5008V8.45156C10.5008 8.45519 10.5001 8.45879 10.4987 8.46213C10.4973 8.46547 10.4952 8.4685 10.4926 8.47102C10.4899 8.47354 10.4869 8.4755 10.4835 8.4768C10.4801 8.4781 10.4764 8.4787 10.4728 8.47856H10.2458C10.2385 8.47858 10.2314 8.4758 10.226 8.47079C10.2206 8.46577 10.2173 8.4589 10.2168 8.45156V8.35156L10.2158 8.35256Z" fill="#FFFF00" stroke="black" stroke-width="0.026"/>
<path d="M10.7686 8.35256H10.8316V8.39756H10.8776V8.35156H10.9436V8.39756H10.9896V8.35156H11.0536V8.45156C11.0536 8.45519 11.0528 8.45879 11.0514 8.46213C11.05 8.46547 11.0479 8.4685 11.0453 8.47102C11.0427 8.47354 11.0396 8.4755 11.0362 8.4768C11.0328 8.4781 11.0292 8.4787 11.0256 8.47856H10.7986C10.7912 8.47858 10.7841 8.4758 10.7787 8.47079C10.7733 8.46577 10.7701 8.4589 10.7696 8.45156V8.35156L10.7686 8.35256Z" fill="#FFFF00" stroke="black" stroke-width="0.026"/>
<path d="M10.6128 8.43402C10.6121 8.43067 10.6121 8.4272 10.6129 8.42387C10.6137 8.42054 10.6153 8.41743 10.6174 8.41477C10.6196 8.41211 10.6223 8.40996 10.6254 8.40849C10.6285 8.40702 10.6319 8.40625 10.6353 8.40625C10.6387 8.40625 10.6421 8.40702 10.6452 8.40849C10.6483 8.40996 10.651 8.41211 10.6532 8.41477C10.6553 8.41743 10.6569 8.42054 10.6577 8.42387C10.6585 8.4272 10.6585 8.43067 10.6578 8.43402V8.51302H10.6128V8.43402Z" fill="black"/>
<path d="M10.3355 8.54229C10.3348 8.53908 10.3348 8.53575 10.3356 8.53256C10.3363 8.52936 10.3378 8.52637 10.3398 8.52382C10.3419 8.52126 10.3445 8.51919 10.3475 8.51778C10.3504 8.51636 10.3537 8.51562 10.357 8.51562C10.3602 8.51562 10.3635 8.51636 10.3665 8.51778C10.3694 8.51919 10.372 8.52126 10.3741 8.52382C10.3761 8.52637 10.3776 8.52936 10.3784 8.53256C10.3791 8.53575 10.3792 8.53908 10.3785 8.54229V8.60329H10.3355V8.54229Z" fill="black"/>
<path d="M10.8901 8.54229C10.8895 8.53908 10.8895 8.53575 10.8902 8.53256C10.891 8.52936 10.8925 8.52637 10.8945 8.52382C10.8966 8.52126 10.8992 8.5192 10.9022 8.51778C10.9051 8.51636 10.9084 8.51562 10.9116 8.51562C10.9149 8.51562 10.9182 8.51636 10.9211 8.51778C10.9241 8.5192 10.9267 8.52126 10.9288 8.52382C10.9308 8.52637 10.9323 8.52936 10.9331 8.53256C10.9338 8.53575 10.9338 8.53908 10.9331 8.54229V8.60329H10.8901V8.54229Z" fill="black" stroke="black" stroke-width="0.026"/>
<path d="M10.4189 11.5337C10.4136 11.4599 10.4312 11.3863 10.4694 11.323C10.5075 11.2596 10.5642 11.2096 10.6319 11.1797C10.7016 11.2079 10.7606 11.2577 10.8001 11.3217C10.8397 11.3857 10.8578 11.4607 10.8519 11.5357H10.4189" fill="#FFFF00"/>
<path d="M10.2429 11.1895L10.2069 11.5175H10.4229C10.4149 11.4483 10.4318 11.3786 10.4707 11.3208C10.5096 11.2631 10.5678 11.2211 10.6349 11.2025C10.6998 11.2248 10.7556 11.2675 10.7941 11.3244C10.8325 11.3812 10.8514 11.449 10.8479 11.5175H11.0639L11.0249 11.1875H10.2419L10.2429 11.1895ZM10.1899 11.5185H11.0739C11.0835 11.52 11.0923 11.5249 11.0987 11.5324C11.105 11.5398 11.1085 11.5492 11.1085 11.559C11.1085 11.5688 11.105 11.5782 11.0987 11.5856C11.0923 11.5931 11.0835 11.598 11.0739 11.5995H10.1899C10.1802 11.598 10.1715 11.5931 10.1651 11.5856C10.1588 11.5782 10.1553 11.5688 10.1553 11.559C10.1553 11.5492 10.1588 11.5398 10.1651 11.5324C10.1715 11.5249 10.1802 11.52 10.1899 11.5185Z" fill="#FFFF00" stroke="black" stroke-width="0.026"/>
<path d="M10.5146 11.5161C10.5108 11.472 10.52 11.4277 10.5412 11.3887C10.5623 11.3498 10.5945 11.3179 10.6336 11.2971C10.6732 11.3177 10.706 11.3493 10.7278 11.3883C10.7497 11.4272 10.7597 11.4716 10.7566 11.5161H10.5146ZM10.2146 11.0521H11.0616C11.0702 11.0536 11.0781 11.058 11.0838 11.0647C11.0894 11.0714 11.0925 11.0799 11.0925 11.0886C11.0925 11.0974 11.0894 11.1059 11.0838 11.1125C11.0781 11.1192 11.0702 11.1237 11.0616 11.1251H10.2116C10.203 11.1237 10.1951 11.1192 10.1894 11.1125C10.1838 11.1059 10.1807 11.0974 10.1807 11.0886C10.1807 11.0799 10.1838 11.0714 10.1894 11.0647C10.1951 11.058 10.203 11.0536 10.2116 11.0521H10.2146ZM10.2326 11.1251H11.0426C11.0512 11.1266 11.0591 11.131 11.0648 11.1377C11.0704 11.1444 11.0735 11.1529 11.0735 11.1616C11.0735 11.1704 11.0704 11.1789 11.0648 11.1855C11.0591 11.1922 11.0512 11.1967 11.0426 11.1981H10.2326C10.224 11.1967 10.2161 11.1922 10.2104 11.1855C10.2048 11.1789 10.2017 11.1704 10.2017 11.1616C10.2017 11.1529 10.2048 11.1444 10.2104 11.1377C10.2161 11.131 10.224 11.1266 10.2326 11.1251ZM10.4906 10.5781H10.5546V10.6231H10.6016V10.5781H10.6676V10.6241H10.7146V10.5781H10.7806V10.6781C10.7806 10.6818 10.7799 10.6855 10.7784 10.6889C10.7769 10.6924 10.7747 10.6954 10.772 10.698C10.7693 10.7005 10.7661 10.7024 10.7625 10.7037C10.759 10.7049 10.7553 10.7054 10.7516 10.7051H10.5216C10.5141 10.7054 10.5067 10.7027 10.5011 10.6977C10.4955 10.6927 10.4921 10.6856 10.4916 10.6781V10.5781H10.4906ZM10.7316 10.7171L10.7456 11.0501H10.5226L10.5376 10.7171H10.7376" fill="#FFFF00"/>
<path d="M10.7316 10.7171L10.7456 11.0501H10.5226L10.5376 10.7171H10.7376M10.5146 11.5161C10.5108 11.472 10.52 11.4277 10.5412 11.3887C10.5623 11.3498 10.5945 11.3179 10.6336 11.2971C10.6732 11.3177 10.706 11.3493 10.7278 11.3883C10.7497 11.4272 10.7597 11.4716 10.7566 11.5161H10.5146ZM10.2146 11.0521H11.0616C11.0702 11.0536 11.0781 11.058 11.0838 11.0647C11.0894 11.0714 11.0925 11.0799 11.0925 11.0886C11.0925 11.0974 11.0894 11.1059 11.0838 11.1125C11.0781 11.1192 11.0702 11.1237 11.0616 11.1251H10.2116C10.203 11.1237 10.1951 11.1192 10.1894 11.1125C10.1838 11.1059 10.1807 11.0974 10.1807 11.0886C10.1807 11.0799 10.1838 11.0714 10.1894 11.0647C10.1951 11.058 10.203 11.0536 10.2116 11.0521H10.2146ZM10.2326 11.1251H11.0426C11.0512 11.1266 11.0591 11.131 11.0648 11.1377C11.0704 11.1444 11.0735 11.1529 11.0735 11.1616C11.0735 11.1704 11.0704 11.1789 11.0648 11.1855C11.0591 11.1922 11.0512 11.1967 11.0426 11.1981H10.2326C10.224 11.1967 10.2161 11.1922 10.2104 11.1855C10.2048 11.1789 10.2017 11.1704 10.2017 11.1616C10.2017 11.1529 10.2048 11.1444 10.2104 11.1377C10.2161 11.131 10.224 11.1266 10.2326 11.1251ZM10.4906 10.5781H10.5546V10.6231H10.6016V10.5781H10.6676V10.6241H10.7146V10.5781H10.7806V10.6781C10.7806 10.6818 10.7799 10.6855 10.7784 10.6889C10.7769 10.6924 10.7747 10.6954 10.772 10.698C10.7693 10.7005 10.7661 10.7024 10.7625 10.7037C10.759 10.7049 10.7553 10.7054 10.7516 10.7051H10.5216C10.5141 10.7054 10.5067 10.7027 10.5011 10.6977C10.4955 10.6927 10.4921 10.6856 10.4916 10.6781V10.5781H10.4906Z" stroke="black" stroke-width="0.026"/>
<path d="M10.458 10.875L10.465 11.055H10.25L10.256 10.875H10.456H10.458Z" fill="#FFFF00" stroke="black" stroke-width="0.026"/>
<path d="M11.0117 10.875L11.0187 11.055H10.8037L10.8097 10.875H11.0097H11.0117Z" fill="#FFFF00" stroke="black" stroke-width="0.026"/>
<path d="M10.2158 10.7432H10.2788V10.7882H10.3248V10.7422H10.3908V10.7882H10.4368V10.7422H10.5008V10.8422C10.5008 10.8458 10.5001 10.8494 10.4987 10.8528C10.4973 10.8561 10.4952 10.8591 10.4926 10.8616C10.4899 10.8642 10.4869 10.8661 10.4835 10.8674C10.4801 10.8687 10.4764 10.8693 10.4728 10.8692H10.2458C10.2385 10.8692 10.2314 10.8664 10.226 10.8614C10.2206 10.8564 10.2173 10.8495 10.2168 10.8422V10.7422L10.2158 10.7432Z" fill="#FFFF00" stroke="black" stroke-width="0.026"/>
<path d="M10.7686 10.7432H10.8316V10.7882H10.8776V10.7422H10.9436V10.7882H10.9896V10.7422H11.0536V10.8422C11.0536 10.8458 11.0528 10.8494 11.0514 10.8528C11.05 10.8561 11.0479 10.8591 11.0453 10.8616C11.0427 10.8642 11.0396 10.8661 11.0362 10.8674C11.0328 10.8687 11.0292 10.8693 11.0256 10.8692H10.7986C10.7912 10.8692 10.7841 10.8664 10.7787 10.8614C10.7733 10.8564 10.7701 10.8495 10.7696 10.8422V10.7422L10.7686 10.7432Z" fill="#FFFF00" stroke="black" stroke-width="0.026"/>
<path d="M10.6128 10.8246C10.6121 10.8213 10.6121 10.8178 10.6129 10.8145C10.6137 10.8112 10.6153 10.8081 10.6174 10.8054C10.6196 10.8027 10.6223 10.8006 10.6254 10.7991C10.6285 10.7976 10.6319 10.7969 10.6353 10.7969C10.6387 10.7969 10.6421 10.7976 10.6452 10.7991C10.6483 10.8006 10.651 10.8027 10.6532 10.8054C10.6553 10.8081 10.6569 10.8112 10.6577 10.8145C10.6585 10.8178 10.6585 10.8213 10.6578 10.8246V10.9036H10.6128V10.8246Z" fill="black"/>
<path d="M10.3345 10.9407C10.3338 10.9375 10.3338 10.9342 10.3346 10.931C10.3353 10.9278 10.3368 10.9248 10.3389 10.9223C10.3409 10.9197 10.3435 10.9176 10.3465 10.9162C10.3495 10.9148 10.3527 10.9141 10.356 10.9141C10.3593 10.9141 10.3625 10.9148 10.3655 10.9162C10.3684 10.9176 10.371 10.9197 10.3731 10.9223C10.3752 10.9248 10.3766 10.9278 10.3774 10.931C10.3781 10.9342 10.3782 10.9375 10.3775 10.9407V11.0017H10.3345V10.9407Z" fill="black"/>
<path d="M10.8901 10.9407C10.8895 10.9375 10.8895 10.9342 10.8902 10.931C10.891 10.9278 10.8925 10.9248 10.8945 10.9223C10.8966 10.9197 10.8992 10.9176 10.9022 10.9162C10.9051 10.9148 10.9084 10.9141 10.9116 10.9141C10.9149 10.9141 10.9182 10.9148 10.9211 10.9162C10.9241 10.9176 10.9267 10.9197 10.9288 10.9223C10.9308 10.9248 10.9323 10.9278 10.9331 10.931C10.9338 10.9342 10.9338 10.9375 10.9331 10.9407V11.0017H10.8901V10.9407Z" fill="black" stroke="black" stroke-width="0.026"/>
<path d="M11.3614 14.0299C11.305 13.9823 11.2649 13.9184 11.2464 13.8471C11.2279 13.7757 11.232 13.7003 11.2582 13.6314C11.328 13.6025 11.4051 13.5963 11.4787 13.6137C11.5522 13.6311 11.6184 13.6711 11.6679 13.7283L11.3642 14.0341" fill="#FFFF00"/>
<path d="M10.9858 13.9044L11.1982 14.1589L11.3497 14.0063C11.2947 13.9638 11.2569 13.903 11.243 13.8349C11.2291 13.7668 11.2402 13.696 11.2741 13.6354C11.3363 13.6053 11.4065 13.5961 11.4743 13.6091C11.5421 13.6221 11.6039 13.6567 11.6505 13.7076L11.802 13.555L11.539 13.3502L10.9858 13.9044ZM11.189 14.1695L11.8091 13.5451C11.8132 13.5418 11.8179 13.5394 11.8229 13.5381C11.828 13.5367 11.8333 13.5364 11.8385 13.5372C11.8437 13.538 11.8486 13.5398 11.8531 13.5426C11.8575 13.5454 11.8613 13.5491 11.8643 13.5534C11.868 13.5565 11.8711 13.5604 11.8733 13.5647C11.8756 13.569 11.8769 13.5738 11.8773 13.5786C11.8778 13.5835 11.8772 13.5884 11.8757 13.593C11.8742 13.5977 11.8718 13.602 11.8687 13.6057L11.2486 14.2301C11.2445 14.2334 11.2398 14.2358 11.2347 14.2372C11.2297 14.2385 11.2244 14.2388 11.2192 14.2381C11.214 14.2373 11.2091 14.2354 11.2046 14.2327C11.2002 14.2299 11.1964 14.2262 11.1934 14.2219C11.1897 14.2187 11.1866 14.2149 11.1844 14.2105C11.1821 14.2062 11.1808 14.2015 11.1803 14.1966C11.1799 14.1918 11.1805 14.1869 11.182 14.1822C11.1835 14.1776 11.1859 14.1733 11.189 14.1695Z" fill="#FFFF00" stroke="black" stroke-width="0.026"/>
<path d="M11.4133 13.9416C11.3791 13.9137 11.3539 13.8762 11.3409 13.834C11.328 13.7917 11.3278 13.7466 11.3404 13.7043C11.3831 13.6917 11.4286 13.6917 11.4714 13.7042C11.5142 13.7167 11.5525 13.7412 11.5817 13.7748L11.4147 13.943M10.8684 13.8276L11.4632 13.2343C11.4665 13.2308 11.4705 13.228 11.4749 13.226C11.4794 13.2241 11.4842 13.2232 11.4891 13.2232C11.4939 13.2233 11.4987 13.2243 11.5031 13.2263C11.5076 13.2283 11.5115 13.2312 11.5148 13.2348C11.5184 13.238 11.5213 13.2419 11.5233 13.2463C11.5253 13.2507 11.5263 13.2554 11.5263 13.2603C11.5263 13.2651 11.5253 13.2698 11.5234 13.2742C11.5214 13.2786 11.5185 13.2826 11.515 13.2858L10.9202 13.879C10.9133 13.8849 10.9043 13.8879 10.8952 13.8873C10.886 13.8866 10.8775 13.8825 10.8714 13.8756C10.8681 13.8727 10.8653 13.8691 10.8634 13.8651C10.8614 13.8611 10.8602 13.8567 10.86 13.8522C10.8597 13.8478 10.8603 13.8433 10.8617 13.839C10.8632 13.8348 10.8655 13.8309 10.8684 13.8276ZM10.9336 13.8669L11.5023 13.2943C11.5059 13.2914 11.5102 13.2894 11.5147 13.2882C11.5192 13.287 11.5239 13.2867 11.5285 13.2873C11.5331 13.288 11.5375 13.2895 11.5415 13.2919C11.5455 13.2943 11.549 13.2974 11.5518 13.3012C11.5587 13.3068 11.5631 13.315 11.564 13.3238C11.565 13.3327 11.5624 13.3416 11.5569 13.3485L10.9883 13.9212C10.9845 13.9243 10.9802 13.9265 10.9756 13.9279C10.9709 13.9292 10.9661 13.9295 10.9613 13.9289C10.9565 13.9282 10.9519 13.9266 10.9478 13.9241C10.9437 13.9216 10.9401 13.9182 10.9373 13.9143C10.9307 13.9084 10.9265 13.9002 10.9258 13.8914C10.9251 13.8825 10.9279 13.8737 10.9336 13.8669ZM10.7259 13.297L10.7709 13.2516L10.8036 13.284L10.836 13.2514L10.8034 13.219L10.8492 13.1728L10.8818 13.2053L10.9149 13.1719L10.8823 13.1395L10.9281 13.0934L10.999 13.1638C11.0021 13.1659 11.0047 13.1685 11.0067 13.1716C11.0088 13.1747 11.0101 13.1782 11.0107 13.1819C11.0113 13.1855 11.0112 13.1892 11.0103 13.1928C11.0094 13.1964 11.0078 13.1998 11.0055 13.2027L10.8407 13.3687C10.8352 13.3743 10.8278 13.3775 10.82 13.3776C10.8122 13.3778 10.8046 13.3749 10.7989 13.3696L10.728 13.2991L10.7259 13.297ZM10.995 13.2261L11.244 13.4508L11.0869 13.609L10.8569 13.3623L10.9936 13.2247" fill="#FFFF00"/>
<path d="M11.4133 13.9416C11.3791 13.9137 11.3539 13.8762 11.3409 13.834C11.328 13.7917 11.3278 13.7466 11.3404 13.7043C11.3831 13.6917 11.4286 13.6917 11.4714 13.7042C11.5142 13.7167 11.5525 13.7412 11.5817 13.7748L11.4147 13.943M10.995 13.2261L11.244 13.4508L11.0869 13.609L10.8569 13.3623L10.9936 13.2247M10.8684 13.8276L11.4632 13.2343C11.4665 13.2308 11.4705 13.228 11.4749 13.226C11.4794 13.2241 11.4842 13.2232 11.4891 13.2232C11.4939 13.2233 11.4987 13.2243 11.5031 13.2263C11.5076 13.2283 11.5115 13.2312 11.5148 13.2348C11.5184 13.238 11.5213 13.2419 11.5233 13.2463C11.5253 13.2507 11.5263 13.2554 11.5263 13.2603C11.5263 13.2651 11.5253 13.2698 11.5234 13.2742C11.5214 13.2786 11.5185 13.2826 11.515 13.2858L10.9202 13.879C10.9133 13.8849 10.9043 13.8879 10.8952 13.8873C10.886 13.8866 10.8775 13.8825 10.8714 13.8756C10.8681 13.8727 10.8653 13.8691 10.8634 13.8651C10.8614 13.8611 10.8602 13.8567 10.86 13.8522C10.8597 13.8478 10.8603 13.8433 10.8617 13.839C10.8632 13.8348 10.8655 13.8309 10.8684 13.8276ZM10.9336 13.8669L11.5023 13.2943C11.5059 13.2914 11.5102 13.2894 11.5147 13.2882C11.5192 13.287 11.5239 13.2867 11.5285 13.2873C11.5331 13.288 11.5375 13.2895 11.5415 13.2919C11.5455 13.2943 11.549 13.2974 11.5518 13.3012C11.5587 13.3068 11.5631 13.315 11.564 13.3238C11.565 13.3327 11.5624 13.3416 11.5569 13.3485L10.9883 13.9212C10.9845 13.9243 10.9802 13.9265 10.9756 13.9279C10.9709 13.9292 10.9661 13.9295 10.9613 13.9289C10.9565 13.9282 10.9519 13.9266 10.9478 13.9241C10.9437 13.9216 10.9401 13.9182 10.9373 13.9143C10.9307 13.9084 10.9265 13.9002 10.9258 13.8914C10.9251 13.8825 10.9279 13.8737 10.9336 13.8669ZM10.7259 13.297L10.7709 13.2516L10.8036 13.284L10.836 13.2514L10.8034 13.219L10.8492 13.1728L10.8818 13.2053L10.9149 13.1719L10.8823 13.1395L10.9281 13.0934L10.999 13.1638C11.0021 13.1659 11.0047 13.1685 11.0067 13.1716C11.0088 13.1747 11.0101 13.1782 11.0107 13.1819C11.0113 13.1855 11.0112 13.1892 11.0103 13.1928C11.0094 13.1964 11.0078 13.1998 11.0055 13.2027L10.8407 13.3687C10.8352 13.3743 10.8278 13.3775 10.82 13.3776C10.8122 13.3778 10.8046 13.3749 10.7989 13.3696L10.728 13.2991L10.7259 13.297Z" stroke="black" stroke-width="0.026"/>
<path d="M10.9125 13.5342L11.0465 13.6561L10.8957 13.8079L10.7701 13.6761L10.911 13.5342L10.9125 13.5342Z" fill="#FFFF00" stroke="black" stroke-width="0.026"/>
<path d="M11.3021 13.1436L11.4362 13.2654L11.2854 13.4173L11.1598 13.2855L11.3007 13.1436L11.3021 13.1436Z" fill="#FFFF00" stroke="black" stroke-width="0.026"/>
<path d="M10.6484 13.6094L10.6928 13.5647L10.7255 13.5971L10.7572 13.5652L10.7245 13.5327L10.7696 13.4873L10.8023 13.5197L10.8347 13.4871L10.802 13.4547L10.8471 13.4093L10.9181 13.4797C10.9217 13.4819 10.9247 13.4849 10.9268 13.4884C10.929 13.492 10.9303 13.496 10.9306 13.5002C10.9309 13.5043 10.9302 13.5085 10.9285 13.5123C10.9269 13.5161 10.9243 13.5195 10.9211 13.5221L10.7632 13.6811C10.7578 13.6866 10.7505 13.6896 10.7428 13.6897C10.7351 13.6897 10.7277 13.6867 10.7222 13.6812L10.6513 13.6108L10.6484 13.6094Z" fill="#FFFF00" stroke="black" stroke-width="0.026"/>
<path d="M11.0381 13.2188L11.0825 13.174L11.1151 13.2065L11.1468 13.1745L11.1142 13.1421L11.1593 13.0967L11.1919 13.1291L11.2243 13.0965L11.1917 13.0641L11.2368 13.0186L11.3077 13.0891C11.3113 13.0913 11.3143 13.0942 11.3165 13.0978C11.3187 13.1014 11.3199 13.1054 11.3202 13.1095C11.3205 13.1137 11.3198 13.1179 11.3182 13.1217C11.3165 13.1255 11.314 13.1289 11.3107 13.1315L11.1529 13.2905C11.1475 13.2959 11.1401 13.299 11.1324 13.299C11.1247 13.2991 11.1173 13.296 11.1119 13.2906L11.0409 13.2202L11.0381 13.2188Z" fill="#FFFF00" stroke="black" stroke-width="0.026"/>
<path d="M10.9826 13.3935C10.9798 13.3916 10.9775 13.3891 10.9758 13.3861C10.9741 13.3832 10.9731 13.38 10.9727 13.3766C10.9724 13.3733 10.9729 13.3699 10.974 13.3667C10.9752 13.3636 10.977 13.3607 10.9794 13.3583C10.9818 13.3559 10.9847 13.3541 10.9878 13.3529C10.991 13.3518 10.9944 13.3514 10.9977 13.3517C11.0011 13.352 11.0043 13.353 11.0072 13.3547C11.0102 13.3564 11.0127 13.3587 11.0146 13.3615L11.0716 13.4175L11.0436 13.4465L10.9866 13.3895" fill="black"/>
<path d="M10.8695 13.6655C10.8667 13.6638 10.8644 13.6614 10.8627 13.6586C10.861 13.6559 10.8599 13.6528 10.8595 13.6495C10.8591 13.6463 10.8595 13.643 10.8605 13.6399C10.8616 13.6369 10.8633 13.634 10.8656 13.6317C10.8678 13.6294 10.8706 13.6276 10.8736 13.6264C10.8767 13.6253 10.8799 13.6248 10.8832 13.6251C10.8864 13.6253 10.8896 13.6263 10.8924 13.628C10.8952 13.6296 10.8976 13.6318 10.8995 13.6345L10.9445 13.6785L10.9145 13.7085L10.8705 13.6655" fill="black"/>
<path d="M11.2605 13.2762C11.2577 13.2745 11.2554 13.2721 11.2536 13.2693C11.2519 13.2665 11.2508 13.2634 11.2505 13.2601C11.2501 13.2569 11.2505 13.2536 11.2516 13.2505C11.2526 13.2474 11.2544 13.2445 11.2567 13.2422C11.259 13.2399 11.2618 13.2381 11.2649 13.237C11.268 13.2359 11.2713 13.2355 11.2746 13.2358C11.2779 13.2362 11.281 13.2372 11.2838 13.2389C11.2866 13.2407 11.289 13.243 11.2908 13.2457L11.3348 13.2894L11.3045 13.3199L11.2605 13.2762Z" fill="black" stroke="black" stroke-width="0.026"/>
<path d="M12.8027 9.14306C12.7974 9.0693 12.815 8.99571 12.8531 8.93235C12.8913 8.86899 12.948 8.81895 13.0157 8.78906C13.0854 8.81731 13.1444 8.86706 13.1839 8.93107C13.2235 8.99509 13.2416 9.07004 13.2357 9.14506H12.8027" fill="#FFFF00"/>
<path d="M12.6267 8.79887L12.5907 9.12687H12.8067C12.7987 9.05772 12.8156 8.98797 12.8545 8.93021C12.8934 8.87245 12.9516 8.83049 13.0187 8.81187C13.0836 8.83415 13.1394 8.87692 13.1779 8.93375C13.2163 8.99058 13.2352 9.05837 13.2317 9.12687H13.4477L13.4087 8.79688H12.6257L12.6267 8.79887ZM12.5737 9.12787H13.4577C13.4673 9.1294 13.4761 9.13431 13.4825 9.14174C13.4888 9.14916 13.4923 9.15861 13.4923 9.16837C13.4923 9.17814 13.4888 9.18759 13.4825 9.19501C13.4761 9.20244 13.4673 9.20735 13.4577 9.20888H12.5737C12.564 9.20735 12.5552 9.20244 12.5489 9.19501C12.5425 9.18759 12.5391 9.17814 12.5391 9.16837C12.5391 9.15861 12.5425 9.14916 12.5489 9.14174C12.5552 9.13431 12.564 9.1294 12.5737 9.12787Z" fill="#FFFF00" stroke="black" stroke-width="0.026"/>
<path d="M12.8984 9.1255C12.8946 9.08135 12.9038 9.03705 12.925 8.99811C12.9461 8.95917 12.9783 8.92732 13.0174 8.9065C13.057 8.92705 13.0897 8.95872 13.1116 8.99763C13.1334 9.03654 13.1435 9.08098 13.1404 9.1255H12.8984ZM12.5984 8.6615H13.4454C13.454 8.66294 13.4619 8.66739 13.4676 8.67408C13.4732 8.68076 13.4763 8.68924 13.4763 8.698C13.4763 8.70676 13.4732 8.71524 13.4676 8.72192C13.4619 8.72861 13.454 8.73306 13.4454 8.7345H12.5954C12.5867 8.73306 12.5789 8.72861 12.5732 8.72192C12.5676 8.71524 12.5645 8.70676 12.5645 8.698C12.5645 8.68924 12.5676 8.68076 12.5732 8.67408C12.5789 8.66739 12.5867 8.66294 12.5954 8.6615H12.5984ZM12.6164 8.7345H13.4264C13.435 8.73594 13.4429 8.74039 13.4486 8.74708C13.4542 8.75376 13.4573 8.76224 13.4573 8.771C13.4573 8.77976 13.4542 8.78824 13.4486 8.79492C13.4429 8.80161 13.435 8.80606 13.4264 8.8075H12.6164C12.6077 8.80606 12.5999 8.80161 12.5942 8.79492C12.5886 8.78824 12.5855 8.77976 12.5855 8.771C12.5855 8.76224 12.5886 8.75376 12.5942 8.74708C12.5999 8.74039 12.6077 8.73594 12.6164 8.7345ZM12.8744 8.1875H12.9384V8.2325H12.9854V8.1875H13.0514V8.2335H13.0984V8.1875H13.1644V8.2875C13.1644 8.29122 13.1636 8.2949 13.1622 8.29832C13.1607 8.30173 13.1585 8.3048 13.1558 8.30734C13.1531 8.30987 13.1498 8.31182 13.1463 8.31305C13.1428 8.31428 13.1391 8.31478 13.1354 8.3145H12.9054C12.8979 8.31478 12.8905 8.31211 12.8849 8.30708C12.8793 8.30204 12.8759 8.29502 12.8754 8.2875V8.1875H12.8744ZM13.1154 8.3265L13.1294 8.6595H12.9064L12.9214 8.3265H13.1214" fill="#FFFF00"/>
<path d="M13.1154 8.3265L13.1294 8.6595H12.9064L12.9214 8.3265H13.1214M12.8984 9.1255C12.8946 9.08135 12.9038 9.03705 12.925 8.99811C12.9461 8.95917 12.9783 8.92732 13.0174 8.9065C13.057 8.92705 13.0897 8.95872 13.1116 8.99763C13.1334 9.03654 13.1435 9.08098 13.1404 9.1255H12.8984ZM12.5984 8.6615H13.4454C13.454 8.66294 13.4619 8.66739 13.4676 8.67408C13.4732 8.68076 13.4763 8.68924 13.4763 8.698C13.4763 8.70676 13.4732 8.71524 13.4676 8.72192C13.4619 8.72861 13.454 8.73306 13.4454 8.7345H12.5954C12.5867 8.73306 12.5789 8.72861 12.5732 8.72192C12.5676 8.71524 12.5645 8.70676 12.5645 8.698C12.5645 8.68924 12.5676 8.68076 12.5732 8.67408C12.5789 8.66739 12.5867 8.66294 12.5954 8.6615H12.5984ZM12.6164 8.7345H13.4264C13.435 8.73594 13.4429 8.74039 13.4486 8.74708C13.4542 8.75376 13.4573 8.76224 13.4573 8.771C13.4573 8.77976 13.4542 8.78824 13.4486 8.79492C13.4429 8.80161 13.435 8.80606 13.4264 8.8075H12.6164C12.6077 8.80606 12.5999 8.80161 12.5942 8.79492C12.5886 8.78824 12.5855 8.77976 12.5855 8.771C12.5855 8.76224 12.5886 8.75376 12.5942 8.74708C12.5999 8.74039 12.6077 8.73594 12.6164 8.7345ZM12.8744 8.1875H12.9384V8.2325H12.9854V8.1875H13.0514V8.2335H13.0984V8.1875H13.1644V8.2875C13.1644 8.29122 13.1636 8.2949 13.1622 8.29832C13.1607 8.30173 13.1585 8.3048 13.1558 8.30734C13.1531 8.30987 13.1498 8.31182 13.1463 8.31305C13.1428 8.31428 13.1391 8.31478 13.1354 8.3145H12.9054C12.8979 8.31478 12.8905 8.31211 12.8849 8.30708C12.8793 8.30204 12.8759 8.29502 12.8754 8.2875V8.1875H12.8744Z" stroke="black" stroke-width="0.026"/>
<path d="M12.8418 8.48438L12.8488 8.66437H12.6338L12.6398 8.48438H12.8398H12.8418Z" fill="#FFFF00" stroke="black" stroke-width="0.026"/>
<path d="M13.3955 8.48438L13.4025 8.66437H13.1875L13.1935 8.48438H13.3935H13.3955Z" fill="#FFFF00" stroke="black" stroke-width="0.026"/>
<path d="M12.5996 8.35256H12.6626V8.39756H12.7086V8.35156H12.7746V8.39756H12.8206V8.35156H12.8846V8.45156C12.8846 8.45519 12.8839 8.45879 12.8825 8.46213C12.881 8.46547 12.879 8.4685 12.8764 8.47102C12.8737 8.47354 12.8706 8.4755 12.8672 8.4768C12.8639 8.4781 12.8602 8.4787 12.8566 8.47856H12.6296C12.6223 8.47858 12.6152 8.4758 12.6098 8.47079C12.6044 8.46577 12.6011 8.4589 12.6006 8.45156V8.35156L12.5996 8.35256Z" fill="#FFFF00" stroke="black" stroke-width="0.026"/>
<path d="M13.1523 8.35256H13.2153V8.39756H13.2613V8.35156H13.3273V8.39756H13.3733V8.35156H13.4373V8.45156C13.4373 8.45519 13.4366 8.45879 13.4352 8.46213C13.4338 8.46547 13.4317 8.4685 13.4291 8.47102C13.4265 8.47354 13.4234 8.4755 13.42 8.4768C13.4166 8.4781 13.413 8.4787 13.4093 8.47856H13.1823C13.175 8.47858 13.1679 8.4758 13.1625 8.47079C13.1571 8.46577 13.1539 8.4589 13.1533 8.45156V8.35156L13.1523 8.35256Z" fill="#FFFF00" stroke="black" stroke-width="0.026"/>
<path d="M12.9966 8.43402C12.9959 8.43067 12.9959 8.4272 12.9967 8.42387C12.9975 8.42054 12.9991 8.41743 13.0012 8.41477C13.0034 8.41211 13.0061 8.40996 13.0092 8.40849C13.0123 8.40702 13.0157 8.40625 13.0191 8.40625C13.0225 8.40625 13.0259 8.40702 13.029 8.40849C13.0321 8.40996 13.0348 8.41211 13.037 8.41477C13.0391 8.41743 13.0407 8.42054 13.0415 8.42387C13.0423 8.4272 13.0423 8.43067 13.0416 8.43402V8.51302H12.9966V8.43402Z" fill="black"/>
<path d="M12.7183 8.5501C12.7176 8.54689 12.7176 8.54356 12.7184 8.54037C12.7191 8.53717 12.7206 8.53418 12.7226 8.53163C12.7247 8.52907 12.7273 8.52701 12.7303 8.52559C12.7332 8.52417 12.7365 8.52344 12.7398 8.52344C12.7431 8.52344 12.7463 8.52417 12.7493 8.52559C12.7522 8.52701 12.7548 8.52907 12.7569 8.53163C12.759 8.53418 12.7604 8.53717 12.7612 8.54037C12.7619 8.54356 12.762 8.54689 12.7613 8.5501V8.6111H12.7183V8.5501Z" fill="black"/>
<path d="M13.2739 8.5501C13.2732 8.54689 13.2733 8.54357 13.274 8.54037C13.2748 8.53717 13.2762 8.53419 13.2783 8.53163C13.2804 8.52907 13.283 8.52701 13.2859 8.52559C13.2889 8.52417 13.2922 8.52344 13.2954 8.52344C13.2987 8.52344 13.302 8.52417 13.3049 8.52559C13.3079 8.52701 13.3105 8.52907 13.3126 8.53163C13.3146 8.53419 13.3161 8.53717 13.3168 8.54037C13.3176 8.54357 13.3176 8.54689 13.3169 8.5501V8.6111H13.2739V8.5501Z" fill="black" stroke="black" stroke-width="0.026"/>
<path d="M15.6044 9.14844C15.6101 9.07435 15.5927 9.00032 15.5545 8.93656C15.5164 8.87279 15.4594 8.82244 15.3914 8.79244C15.3217 8.82069 15.2627 8.87043 15.2232 8.93445C15.1836 8.99846 15.1655 9.07342 15.1714 9.14844H15.6044Z" fill="#FFFF00"/>
<path d="M15.7801 8.80094L15.8161 9.12894H15.6001C15.6089 9.05917 15.5921 8.98859 15.553 8.93017C15.5139 8.87175 15.455 8.82942 15.3871 8.81094C15.3217 8.83335 15.2655 8.87658 15.227 8.93402C15.1885 8.99146 15.17 9.05993 15.1741 9.12894H14.9571L14.9971 8.79894L15.7801 8.80094ZM15.8301 9.12994H14.9461C14.9362 9.13095 14.9271 9.13582 14.9207 9.14348C14.9144 9.15115 14.9113 9.16101 14.9121 9.17094C14.9116 9.1807 14.9148 9.1903 14.9211 9.19775C14.9274 9.2052 14.9364 9.20992 14.9461 9.21094H15.8301C15.8398 9.20992 15.8488 9.2052 15.8551 9.19775C15.8615 9.1903 15.8647 9.1807 15.8641 9.17094C15.865 9.16101 15.8619 9.15115 15.8555 9.14348C15.8491 9.13582 15.84 9.13095 15.8301 9.12994Z" fill="#FFFF00" stroke="black" stroke-width="0.026"/>
<path d="M15.5098 9.125C15.5136 9.08085 15.5044 9.03655 15.4832 8.99761C15.4621 8.95867 15.4299 8.92682 15.3908 8.906C15.3512 8.92655 15.3185 8.95822 15.2966 8.99713C15.2748 9.03604 15.2647 9.08048 15.2678 9.125H15.5098ZM15.8098 8.661H14.9648C14.9562 8.66244 14.9483 8.66689 14.9426 8.67358C14.937 8.68026 14.9339 8.68874 14.9339 8.6975C14.9339 8.70626 14.937 8.71474 14.9426 8.72142C14.9483 8.72811 14.9562 8.73256 14.9648 8.734H15.8128C15.8215 8.73256 15.8293 8.72811 15.835 8.72142C15.8406 8.71474 15.8438 8.70626 15.8438 8.6975C15.8438 8.68874 15.8406 8.68026 15.835 8.67358C15.8293 8.66689 15.8215 8.66244 15.8128 8.661H15.8098ZM15.7948 8.734H14.9848C14.9803 8.73425 14.9758 8.73542 14.9717 8.73743C14.9676 8.73944 14.9639 8.74225 14.961 8.74571C14.958 8.74916 14.9557 8.75318 14.9543 8.75753C14.9529 8.76187 14.9524 8.76645 14.9528 8.771C14.9523 8.77986 14.9552 8.78859 14.961 8.79531C14.9668 8.80204 14.975 8.80623 14.9838 8.807H15.7948C15.8037 8.80623 15.8119 8.80204 15.8176 8.79531C15.8234 8.78859 15.8264 8.77986 15.8258 8.771C15.8262 8.76653 15.8257 8.76203 15.8244 8.75774C15.8231 8.75346 15.8209 8.74948 15.818 8.74604C15.8151 8.7426 15.8116 8.73977 15.8076 8.7377C15.8036 8.73564 15.7993 8.73438 15.7948 8.734ZM15.5328 8.187H15.4688V8.232H15.4218V8.186H15.3568V8.232H15.3098V8.186H15.2448V8.286C15.2442 8.28995 15.2445 8.29399 15.2457 8.29781C15.2468 8.30164 15.2488 8.30516 15.2515 8.30813C15.2542 8.31109 15.2575 8.31343 15.2611 8.31496C15.2648 8.3165 15.2688 8.31719 15.2728 8.317H15.5028C15.5103 8.31728 15.5177 8.31461 15.5233 8.30958C15.5289 8.30454 15.5323 8.29752 15.5328 8.29V8.19V8.187ZM15.2918 8.325L15.2778 8.66H15.5018L15.4868 8.325H15.2868" fill="#FFFF00"/>
<path d="M15.2918 8.325L15.2778 8.66H15.5018L15.4868 8.325H15.2868M15.5098 9.125C15.5136 9.08085 15.5044 9.03655 15.4832 8.99761C15.4621 8.95867 15.4299 8.92682 15.3908 8.906C15.3512 8.92655 15.3185 8.95822 15.2966 8.99713C15.2748 9.03604 15.2647 9.08048 15.2678 9.125H15.5098ZM15.8098 8.661H14.9648C14.9562 8.66244 14.9483 8.66689 14.9426 8.67358C14.937 8.68026 14.9339 8.68874 14.9339 8.6975C14.9339 8.70626 14.937 8.71474 14.9426 8.72142C14.9483 8.72811 14.9562 8.73256 14.9648 8.734H15.8128C15.8215 8.73256 15.8293 8.72811 15.835 8.72142C15.8406 8.71474 15.8438 8.70626 15.8438 8.6975C15.8438 8.68874 15.8406 8.68026 15.835 8.67358C15.8293 8.66689 15.8215 8.66244 15.8128 8.661H15.8098ZM15.7948 8.734H14.9848C14.9803 8.73425 14.9758 8.73542 14.9717 8.73743C14.9676 8.73944 14.9639 8.74225 14.961 8.74571C14.958 8.74916 14.9557 8.75318 14.9543 8.75753C14.9529 8.76187 14.9524 8.76645 14.9528 8.771C14.9523 8.77986 14.9552 8.78859 14.961 8.79531C14.9668 8.80204 14.975 8.80623 14.9838 8.807H15.7948C15.8037 8.80623 15.8119 8.80204 15.8176 8.79531C15.8234 8.78859 15.8264 8.77986 15.8258 8.771C15.8262 8.76653 15.8257 8.76203 15.8244 8.75774C15.8231 8.75346 15.8209 8.74948 15.818 8.74604C15.8151 8.7426 15.8116 8.73977 15.8076 8.7377C15.8036 8.73564 15.7993 8.73438 15.7948 8.734ZM15.5328 8.187H15.4688V8.232H15.4218V8.186H15.3568V8.232H15.3098V8.186H15.2448V8.286C15.2442 8.28995 15.2445 8.29399 15.2457 8.29781C15.2468 8.30164 15.2488 8.30516 15.2515 8.30813C15.2542 8.31109 15.2575 8.31343 15.2611 8.31496C15.2648 8.3165 15.2688 8.31719 15.2728 8.317H15.5028C15.5103 8.31728 15.5177 8.31461 15.5233 8.30958C15.5289 8.30454 15.5323 8.29752 15.5328 8.29V8.19V8.187Z" stroke="black" stroke-width="0.026"/>
<path d="M15.5664 8.48406L15.5594 8.66406H15.7744L15.7684 8.48406H15.5684H15.5664Z" fill="#FFFF00" stroke="black" stroke-width="0.026"/>
<path d="M15.0127 8.48406L15.0057 8.66406H15.2207L15.2147 8.48406H15.0147H15.0127Z" fill="#FFFF00" stroke="black" stroke-width="0.026"/>
<path d="M15.8086 8.35428H15.7456V8.39928H15.7006V8.35328H15.6356V8.39928H15.5906V8.35328H15.5256V8.45328C15.525 8.45732 15.5253 8.46144 15.5265 8.46535C15.5277 8.46925 15.5298 8.47284 15.5326 8.47582C15.5354 8.47881 15.5388 8.48112 15.5426 8.48258C15.5464 8.48405 15.5505 8.48463 15.5546 8.48428H15.7796C15.787 8.48429 15.794 8.48151 15.7994 8.4765C15.8048 8.47149 15.8081 8.46462 15.8086 8.45728V8.35728V8.35428Z" fill="#FFFF00" stroke="black" stroke-width="0.026"/>
<path d="M15.2539 8.35428H15.1909V8.39928H15.1459V8.35328H15.0809V8.39928H15.0359V8.35328H14.9709V8.45328C14.9703 8.45732 14.9706 8.46144 14.9718 8.46535C14.973 8.46925 14.9751 8.47284 14.9779 8.47582C14.9807 8.47881 14.9841 8.48112 14.9879 8.48258C14.9917 8.48405 14.9958 8.48463 14.9999 8.48428H15.2249C15.2323 8.48429 15.2394 8.48151 15.2447 8.4765C15.2501 8.47149 15.2534 8.46462 15.2539 8.45728V8.35728V8.35428Z" fill="#FFFF00" stroke="black" stroke-width="0.026"/>
<path d="M15.4107 8.43402C15.4114 8.43067 15.4114 8.4272 15.4106 8.42387C15.4098 8.42054 15.4083 8.41743 15.4061 8.41477C15.4039 8.41211 15.4012 8.40996 15.3981 8.40849C15.395 8.40702 15.3917 8.40625 15.3882 8.40625C15.3848 8.40625 15.3814 8.40702 15.3783 8.40849C15.3752 8.40996 15.3725 8.41211 15.3704 8.41477C15.3682 8.41743 15.3667 8.42054 15.3659 8.42387C15.3651 8.4272 15.365 8.43067 15.3657 8.43402V8.51302H15.4107V8.43402Z" fill="black"/>
<path d="M15.688 8.5501C15.6887 8.54689 15.6887 8.54357 15.6879 8.54037C15.6872 8.53717 15.6857 8.53419 15.6837 8.53163C15.6816 8.52907 15.679 8.52701 15.676 8.52559C15.6731 8.52417 15.6698 8.52344 15.6665 8.52344C15.6632 8.52344 15.66 8.52417 15.657 8.52559C15.6541 8.52701 15.6515 8.52907 15.6494 8.53163C15.6473 8.53419 15.6459 8.53717 15.6451 8.54037C15.6444 8.54357 15.6443 8.54689 15.645 8.5501V8.6111H15.688V8.5501Z" fill="black"/>
<path d="M15.1343 8.54837C15.135 8.54516 15.1349 8.54184 15.1342 8.53864C15.1334 8.53545 15.132 8.53246 15.1299 8.5299C15.1278 8.52734 15.1252 8.52528 15.1223 8.52386C15.1193 8.52245 15.1161 8.52171 15.1128 8.52171C15.1095 8.52171 15.1062 8.52245 15.1033 8.52386C15.1003 8.52528 15.0977 8.52734 15.0956 8.5299C15.0936 8.53246 15.0921 8.53545 15.0914 8.53864C15.0906 8.54184 15.0906 8.54516 15.0913 8.54837V8.60938H15.1343V8.54837Z" fill="black" stroke="black" stroke-width="0.026"/>
<path d="M15.6044 11.5391C15.6101 11.465 15.5927 11.3909 15.5545 11.3272C15.5164 11.2634 15.4594 11.2131 15.3914 11.1831C15.3217 11.2113 15.2627 11.2611 15.2232 11.3251C15.1836 11.3891 15.1655 11.464 15.1714 11.5391H15.6044Z" fill="#FFFF00"/>
<path d="M15.7801 11.1838L15.8161 11.5117H15.6001C15.6089 11.442 15.5921 11.3714 15.553 11.313C15.5139 11.2546 15.455 11.2122 15.3871 11.1937C15.3217 11.2162 15.2655 11.2594 15.227 11.3168C15.1885 11.3743 15.17 11.4427 15.1741 11.5117H14.9571L14.9971 11.1817L15.7801 11.1838ZM15.8301 11.5127H14.9461C14.9362 11.5138 14.9271 11.5186 14.9207 11.5263C14.9144 11.534 14.9113 11.5438 14.9121 11.5538C14.9116 11.5635 14.9148 11.5731 14.9211 11.5806C14.9274 11.588 14.9364 11.5927 14.9461 11.5938H15.8301C15.8398 11.5927 15.8488 11.588 15.8551 11.5806C15.8615 11.5731 15.8647 11.5635 15.8641 11.5538C15.865 11.5438 15.8619 11.534 15.8555 11.5263C15.8491 11.5186 15.84 11.5138 15.8301 11.5127Z" fill="#FFFF00" stroke="black" stroke-width="0.026"/>
<path d="M15.5098 11.5156C15.5136 11.4715 15.5044 11.4272 15.4832 11.3882C15.4621 11.3493 15.4299 11.3174 15.3908 11.2966C15.3512 11.3172 15.3185 11.3488 15.2966 11.3878C15.2748 11.4267 15.2647 11.4711 15.2678 11.5156H15.5098ZM15.8098 11.0516H14.9648C14.9562 11.0531 14.9483 11.0575 14.9426 11.0642C14.937 11.0709 14.9339 11.0794 14.9339 11.0881C14.9339 11.0969 14.937 11.1054 14.9426 11.112C14.9483 11.1187 14.9562 11.1232 14.9648 11.1246H15.8128C15.8215 11.1232 15.8293 11.1187 15.835 11.112C15.8406 11.1054 15.8438 11.0969 15.8438 11.0881C15.8438 11.0794 15.8406 11.0709 15.835 11.0642C15.8293 11.0575 15.8215 11.0531 15.8128 11.0516H15.8098ZM15.7948 11.1246H14.9848C14.9803 11.1249 14.9758 11.126 14.9717 11.1281C14.9676 11.1301 14.9639 11.1329 14.961 11.1363C14.958 11.1398 14.9557 11.1438 14.9543 11.1482C14.9529 11.1525 14.9524 11.1571 14.9528 11.1616C14.9523 11.1705 14.9552 11.1792 14.961 11.1859C14.9668 11.1927 14.975 11.1969 14.9838 11.1976H15.7948C15.8037 11.1969 15.8119 11.1927 15.8176 11.1859C15.8234 11.1792 15.8264 11.1705 15.8258 11.1616C15.8262 11.1572 15.8257 11.1527 15.8244 11.1484C15.8231 11.1441 15.8209 11.1401 15.818 11.1367C15.8151 11.1332 15.8116 11.1304 15.8076 11.1283C15.8036 11.1263 15.7993 11.125 15.7948 11.1246ZM15.5328 10.5776H15.4688V10.6226H15.4218V10.5766H15.3568V10.6226H15.3098V10.5766H15.2448V10.6766C15.2442 10.6806 15.2445 10.6846 15.2457 10.6884C15.2468 10.6923 15.2488 10.6958 15.2515 10.6988C15.2542 10.7017 15.2575 10.7041 15.2611 10.7056C15.2648 10.7071 15.2688 10.7078 15.2728 10.7076H15.5028C15.5103 10.7079 15.5177 10.7052 15.5233 10.7002C15.5289 10.6952 15.5323 10.6881 15.5328 10.6806V10.5806V10.5776ZM15.2918 10.7156L15.2778 11.0506H15.5018L15.4868 10.7156H15.2868" fill="#FFFF00"/>
<path d="M15.2918 10.7156L15.2778 11.0506H15.5018L15.4868 10.7156H15.2868M15.5098 11.5156C15.5136 11.4715 15.5044 11.4272 15.4832 11.3882C15.4621 11.3493 15.4299 11.3174 15.3908 11.2966C15.3512 11.3172 15.3185 11.3488 15.2966 11.3878C15.2748 11.4267 15.2647 11.4711 15.2678 11.5156H15.5098ZM15.8098 11.0516H14.9648C14.9562 11.0531 14.9483 11.0575 14.9426 11.0642C14.937 11.0709 14.9339 11.0794 14.9339 11.0881C14.9339 11.0969 14.937 11.1054 14.9426 11.112C14.9483 11.1187 14.9562 11.1232 14.9648 11.1246H15.8128C15.8215 11.1232 15.8293 11.1187 15.835 11.112C15.8406 11.1054 15.8438 11.0969 15.8438 11.0881C15.8438 11.0794 15.8406 11.0709 15.835 11.0642C15.8293 11.0575 15.8215 11.0531 15.8128 11.0516H15.8098ZM15.7948 11.1246H14.9848C14.9803 11.1249 14.9758 11.126 14.9717 11.1281C14.9676 11.1301 14.9639 11.1329 14.961 11.1363C14.958 11.1398 14.9557 11.1438 14.9543 11.1482C14.9529 11.1525 14.9524 11.1571 14.9528 11.1616C14.9523 11.1705 14.9552 11.1792 14.961 11.1859C14.9668 11.1927 14.975 11.1969 14.9838 11.1976H15.7948C15.8037 11.1969 15.8119 11.1927 15.8176 11.1859C15.8234 11.1792 15.8264 11.1705 15.8258 11.1616C15.8262 11.1572 15.8257 11.1527 15.8244 11.1484C15.8231 11.1441 15.8209 11.1401 15.818 11.1367C15.8151 11.1332 15.8116 11.1304 15.8076 11.1283C15.8036 11.1263 15.7993 11.125 15.7948 11.1246ZM15.5328 10.5776H15.4688V10.6226H15.4218V10.5766H15.3568V10.6226H15.3098V10.5766H15.2448V10.6766C15.2442 10.6806 15.2445 10.6846 15.2457 10.6884C15.2468 10.6923 15.2488 10.6958 15.2515 10.6988C15.2542 10.7017 15.2575 10.7041 15.2611 10.7056C15.2648 10.7071 15.2688 10.7078 15.2728 10.7076H15.5028C15.5103 10.7079 15.5177 10.7052 15.5233 10.7002C15.5289 10.6952 15.5323 10.6881 15.5328 10.6806V10.5806V10.5776Z" stroke="black" stroke-width="0.026"/>
<path d="M15.5664 10.8747L15.5594 11.0547H15.7744L15.7684 10.8747H15.5684H15.5664Z" fill="#FFFF00" stroke="black" stroke-width="0.026"/>
<path d="M15.0127 10.8747L15.0057 11.0547H15.2207L15.2147 10.8747H15.0147H15.0127Z" fill="#FFFF00" stroke="black" stroke-width="0.026"/>
<path d="M15.8086 10.7449H15.7456V10.7899H15.7006V10.7439H15.6356V10.7899H15.5906V10.7439H15.5256V10.8439C15.525 10.8479 15.5253 10.8521 15.5265 10.856C15.5277 10.8599 15.5298 10.8635 15.5326 10.8664C15.5354 10.8694 15.5388 10.8717 15.5426 10.8732C15.5464 10.8747 15.5505 10.8753 15.5546 10.8749H15.7796C15.787 10.8749 15.794 10.8721 15.7994 10.8671C15.8048 10.8621 15.8081 10.8552 15.8086 10.8479V10.7479V10.7449Z" fill="#FFFF00" stroke="black" stroke-width="0.026"/>
<path d="M15.2539 10.7449H15.1909V10.7899H15.1459V10.7439H15.0809V10.7899H15.0359V10.7439H14.9709V10.8439C14.9703 10.8479 14.9706 10.8521 14.9718 10.856C14.973 10.8599 14.9751 10.8635 14.9779 10.8664C14.9807 10.8694 14.9841 10.8717 14.9879 10.8732C14.9917 10.8747 14.9958 10.8753 14.9999 10.8749H15.2249C15.2323 10.8749 15.2394 10.8721 15.2447 10.8671C15.2501 10.8621 15.2534 10.8552 15.2539 10.8479V10.7479V10.7449Z" fill="#FFFF00" stroke="black" stroke-width="0.026"/>
<path d="M15.4107 10.8246C15.4114 10.8213 15.4114 10.8178 15.4106 10.8145C15.4098 10.8112 15.4083 10.8081 15.4061 10.8054C15.4039 10.8027 15.4012 10.8006 15.3981 10.7991C15.395 10.7976 15.3917 10.7969 15.3882 10.7969C15.3848 10.7969 15.3814 10.7976 15.3783 10.7991C15.3752 10.8006 15.3725 10.8027 15.3704 10.8054C15.3682 10.8081 15.3667 10.8112 15.3659 10.8145C15.3651 10.8178 15.365 10.8213 15.3657 10.8246V10.9036H15.4107V10.8246Z" fill="black"/>
<path d="M15.688 10.9407C15.6887 10.9375 15.6887 10.9342 15.6879 10.931C15.6872 10.9278 15.6857 10.9248 15.6837 10.9223C15.6816 10.9197 15.679 10.9176 15.676 10.9162C15.6731 10.9148 15.6698 10.9141 15.6665 10.9141C15.6632 10.9141 15.66 10.9148 15.657 10.9162C15.6541 10.9176 15.6515 10.9197 15.6494 10.9223C15.6473 10.9248 15.6459 10.9278 15.6451 10.931C15.6444 10.9342 15.6443 10.9375 15.645 10.9407V11.0017H15.688V10.9407Z" fill="black"/>
<path d="M15.1343 10.939C15.135 10.9358 15.1349 10.9325 15.1342 10.9293C15.1334 10.9261 15.132 10.9231 15.1299 10.9205C15.1278 10.918 15.1252 10.9159 15.1223 10.9145C15.1193 10.9131 15.1161 10.9123 15.1128 10.9123C15.1095 10.9123 15.1062 10.9131 15.1033 10.9145C15.1003 10.9159 15.0977 10.918 15.0956 10.9205C15.0936 10.9231 15.0921 10.9261 15.0914 10.9293C15.0906 10.9325 15.0906 10.9358 15.0913 10.939V11H15.1343V10.939Z" fill="black" stroke="black" stroke-width="0.026"/>
<path d="M14.6623 14.0226C14.7186 13.9751 14.7588 13.9112 14.7773 13.8398C14.7958 13.7684 14.7917 13.6931 14.7655 13.6242C14.6964 13.5954 14.6202 13.5889 14.5472 13.6055C14.4743 13.6221 14.4084 13.661 14.3586 13.7168L14.6623 14.0226Z" fill="#FFFF00"/>
<path d="M15.0358 13.9006L14.8263 14.1566L14.6748 14.004C14.7309 13.9618 14.7698 13.9006 14.7842 13.8319C14.7986 13.7631 14.7876 13.6915 14.7532 13.6302C14.6902 13.5997 14.6191 13.5906 14.5505 13.6043C14.4819 13.618 14.4196 13.6537 14.3732 13.706L14.2217 13.5534L14.4855 13.3479L15.0358 13.9006ZM14.8354 14.1672L14.2154 13.5428C14.2113 13.5395 14.2066 13.5371 14.2015 13.5357C14.1965 13.5344 14.1912 13.5341 14.186 13.5349C14.1808 13.5356 14.1758 13.5375 14.1714 13.5403C14.167 13.5431 14.1631 13.5467 14.1602 13.5511C14.1565 13.5542 14.1534 13.558 14.1511 13.5624C14.1489 13.5667 14.1475 13.5714 14.1471 13.5763C14.1467 13.5812 14.1472 13.5861 14.1487 13.5907C14.1502 13.5954 14.1526 13.5997 14.1558 13.6034L14.7787 14.2236C14.7862 14.2291 14.7954 14.2316 14.8047 14.2307C14.8139 14.2299 14.8226 14.2256 14.8289 14.2188C14.8366 14.2128 14.8415 14.204 14.8428 14.1944C14.844 14.1847 14.8414 14.175 14.8354 14.1672Z" fill="#FFFF00" stroke="black" stroke-width="0.026"/>
<path d="M14.611 13.9487C14.6444 13.9207 14.6689 13.8835 14.6815 13.8417C14.6941 13.7999 14.6942 13.7553 14.6818 13.7135C14.6396 13.7003 14.5944 13.6994 14.5517 13.7108C14.509 13.7223 14.4704 13.7458 14.4405 13.7784L14.6103 13.9494M15.1537 13.8325L14.5598 13.2343C14.5561 13.2315 14.5519 13.2294 14.5474 13.2282C14.5428 13.227 14.5382 13.2267 14.5335 13.2274C14.5289 13.228 14.5245 13.2296 14.5205 13.232C14.5165 13.2343 14.513 13.2375 14.5102 13.2412C14.5067 13.2442 14.5038 13.2477 14.5017 13.2518C14.4996 13.2559 14.4984 13.2603 14.498 13.2648C14.4977 13.2694 14.4983 13.274 14.4997 13.2783C14.5012 13.2826 14.5035 13.2866 14.5065 13.29L15.1005 13.8882C15.1042 13.8916 15.1085 13.8942 15.1132 13.8957C15.118 13.8973 15.123 13.8979 15.1279 13.8973C15.1329 13.8968 15.1377 13.8952 15.142 13.8927C15.1463 13.8902 15.15 13.8868 15.1529 13.8827C15.1564 13.8798 15.1593 13.8762 15.1614 13.8722C15.1635 13.8681 15.1647 13.8637 15.1651 13.8591C15.1654 13.8546 15.1648 13.85 15.1634 13.8457C15.1619 13.8414 15.1596 13.8374 15.1566 13.834L15.1537 13.8325ZM15.0914 13.8733L14.5228 13.3007C14.519 13.2976 14.5147 13.2953 14.5101 13.294C14.5054 13.2927 14.5006 13.2923 14.4958 13.293C14.491 13.2936 14.4864 13.2953 14.4823 13.2978C14.4781 13.3003 14.4746 13.3036 14.4718 13.3076C14.4684 13.3104 14.4655 13.3139 14.4634 13.3179C14.4613 13.3219 14.46 13.3262 14.4596 13.3307C14.4592 13.3352 14.4597 13.3397 14.461 13.3439C14.4623 13.3482 14.4645 13.3522 14.4674 13.3556L15.036 13.9283C15.0398 13.9311 15.0441 13.933 15.0486 13.9341C15.0532 13.9352 15.0579 13.9354 15.0625 13.9346C15.0672 13.9338 15.0716 13.9321 15.0755 13.9296C15.0795 13.9271 15.0829 13.9238 15.0855 13.92C15.0923 13.9144 15.0967 13.9065 15.0978 13.8978C15.0989 13.8891 15.0966 13.8804 15.0914 13.8733ZM15.2984 13.3041L15.2533 13.2587L15.2214 13.2904L15.1869 13.2556L15.2195 13.2232L15.1751 13.1785L15.1418 13.2116L15.1094 13.179L15.142 13.1466L15.0962 13.1005L15.0253 13.1709C15.022 13.1733 15.0194 13.1763 15.0175 13.1799C15.0156 13.1834 15.0145 13.1873 15.0142 13.1913C15.014 13.1952 15.0147 13.1992 15.0162 13.2029C15.0177 13.2066 15.02 13.2099 15.023 13.2126L15.1843 13.3751C15.1896 13.3805 15.1966 13.3836 15.2041 13.3841C15.2115 13.3845 15.2188 13.3821 15.2246 13.3774L15.2956 13.3069L15.2984 13.3041ZM15.0293 13.2318L14.7803 13.4564L14.9388 13.6147L15.1674 13.3694L15.0307 13.2318" fill="#FFFF00"/>
<path d="M14.611 13.9487C14.6444 13.9207 14.6689 13.8835 14.6815 13.8417C14.6941 13.7999 14.6942 13.7553 14.6818 13.7135C14.6396 13.7003 14.5944 13.6994 14.5517 13.7108C14.509 13.7223 14.4704 13.7458 14.4405 13.7784L14.6103 13.9494M15.0293 13.2318L14.7803 13.4564L14.9388 13.6147L15.1674 13.3694L15.0307 13.2318M15.1537 13.8325L14.5598 13.2343C14.5561 13.2315 14.5519 13.2294 14.5474 13.2282C14.5428 13.227 14.5382 13.2267 14.5335 13.2274C14.5289 13.228 14.5245 13.2296 14.5205 13.232C14.5165 13.2343 14.513 13.2375 14.5102 13.2412C14.5067 13.2442 14.5038 13.2477 14.5017 13.2518C14.4996 13.2559 14.4984 13.2603 14.498 13.2648C14.4977 13.2694 14.4983 13.274 14.4997 13.2783C14.5012 13.2826 14.5035 13.2866 14.5065 13.29L15.1005 13.8882C15.1042 13.8916 15.1085 13.8942 15.1132 13.8957C15.118 13.8973 15.123 13.8979 15.1279 13.8973C15.1329 13.8968 15.1377 13.8952 15.142 13.8927C15.1463 13.8902 15.15 13.8868 15.1529 13.8827C15.1564 13.8798 15.1593 13.8762 15.1614 13.8722C15.1635 13.8681 15.1647 13.8637 15.1651 13.8591C15.1654 13.8546 15.1648 13.85 15.1634 13.8457C15.1619 13.8414 15.1596 13.8374 15.1566 13.834L15.1537 13.8325ZM15.0914 13.8733L14.5228 13.3007C14.519 13.2976 14.5147 13.2953 14.5101 13.294C14.5054 13.2927 14.5006 13.2923 14.4958 13.293C14.491 13.2936 14.4864 13.2953 14.4823 13.2978C14.4781 13.3003 14.4746 13.3036 14.4718 13.3076C14.4684 13.3104 14.4655 13.3139 14.4634 13.3179C14.4613 13.3219 14.46 13.3262 14.4596 13.3307C14.4592 13.3352 14.4597 13.3397 14.461 13.3439C14.4623 13.3482 14.4645 13.3522 14.4674 13.3556L15.036 13.9283C15.0398 13.9311 15.0441 13.933 15.0486 13.9341C15.0532 13.9352 15.0579 13.9354 15.0625 13.9346C15.0672 13.9338 15.0716 13.9321 15.0755 13.9296C15.0795 13.9271 15.0829 13.9238 15.0855 13.92C15.0923 13.9144 15.0967 13.9065 15.0978 13.8978C15.0989 13.8891 15.0966 13.8804 15.0914 13.8733ZM15.2984 13.3041L15.2533 13.2587L15.2214 13.2904L15.1869 13.2556L15.2195 13.2232L15.1751 13.1785L15.1418 13.2116L15.1094 13.179L15.142 13.1466L15.0962 13.1005L15.0253 13.1709C15.022 13.1733 15.0194 13.1763 15.0175 13.1799C15.0156 13.1834 15.0145 13.1873 15.0142 13.1913C15.014 13.1952 15.0147 13.1992 15.0162 13.2029C15.0177 13.2066 15.02 13.2099 15.023 13.2126L15.1843 13.3751C15.1896 13.3805 15.1966 13.3836 15.2041 13.3841C15.2115 13.3845 15.2188 13.3821 15.2246 13.3774L15.2956 13.3069L15.2984 13.3041Z" stroke="black" stroke-width="0.026"/>
<path d="M15.1115 13.5317L14.9781 13.6528L15.1289 13.8047L15.2538 13.6736L15.1129 13.5317L15.1115 13.5317Z" fill="#FFFF00" stroke="black" stroke-width="0.026"/>
<path d="M14.7209 13.1411L14.5875 13.2622L14.7383 13.4141L14.8632 13.283L14.7223 13.1411L14.7209 13.1411Z" fill="#FFFF00" stroke="black" stroke-width="0.026"/>
<path d="M15.3738 13.6044L15.3315 13.5618L15.2996 13.5935L15.2672 13.5609L15.2998 13.5285L15.2547 13.4831L15.2214 13.5162L15.1889 13.4835L15.2216 13.4511L15.1772 13.4064L15.1062 13.4769C15.1033 13.4792 15.1008 13.4822 15.0991 13.4855C15.0974 13.4889 15.0965 13.4926 15.0963 13.4963C15.0962 13.5001 15.0968 13.5038 15.0983 13.5073C15.0997 13.5108 15.1019 13.5139 15.1047 13.5165L15.2625 13.6754C15.2676 13.6803 15.2743 13.6831 15.2813 13.6834C15.2883 13.6837 15.2952 13.6814 15.3007 13.677L15.3717 13.6065L15.3738 13.6044Z" fill="#FFFF00" stroke="black" stroke-width="0.026"/>
<path d="M14.9832 13.2216L14.9409 13.179L14.9089 13.2107L14.8765 13.1781L14.9092 13.1457L14.8641 13.1003L14.8307 13.1334L14.7983 13.1007L14.831 13.0683L14.7866 13.0236L14.7156 13.0941C14.7126 13.0964 14.7102 13.0993 14.7085 13.1027C14.7068 13.1061 14.7058 13.1097 14.7057 13.1135C14.7055 13.1173 14.7062 13.121 14.7077 13.1245C14.7091 13.128 14.7113 13.1311 14.7141 13.1337L14.8719 13.2926C14.877 13.2975 14.8837 13.3003 14.8907 13.3006C14.8977 13.3008 14.9046 13.2986 14.9101 13.2942L14.981 13.2237L14.9832 13.2216Z" fill="#FFFF00" stroke="black" stroke-width="0.026"/>
<path d="M15.0372 13.3857C15.04 13.3837 15.0423 13.3812 15.044 13.3783C15.0457 13.3754 15.0468 13.3722 15.0471 13.3688C15.0474 13.3655 15.0469 13.3621 15.0458 13.3589C15.0446 13.3557 15.0428 13.3529 15.0404 13.3505C15.038 13.3481 15.0352 13.3463 15.032 13.3451C15.0288 13.344 15.0254 13.3435 15.0221 13.3438C15.0187 13.3441 15.0155 13.3452 15.0126 13.3469C15.0097 13.3486 15.0072 13.3509 15.0052 13.3537L14.9482 13.4097L14.9802 13.4417L15.0372 13.3857Z" fill="black"/>
<path d="M15.1511 13.6661C15.1541 13.6644 15.1566 13.6621 15.1585 13.6593C15.1604 13.6565 15.1616 13.6533 15.1621 13.6499C15.1625 13.6466 15.1622 13.6432 15.1611 13.64C15.16 13.6368 15.1582 13.6338 15.1558 13.6314C15.1534 13.629 15.1505 13.6272 15.1473 13.6262C15.1441 13.6251 15.1407 13.6247 15.1373 13.6252C15.134 13.6257 15.1308 13.6269 15.128 13.6288C15.1252 13.6307 15.1228 13.6332 15.1211 13.6361L15.0771 13.6791L15.1071 13.7091L15.1511 13.6661Z" fill="black"/>
<path d="M14.7595 13.2763C14.7622 13.2745 14.7646 13.2721 14.7663 13.2693C14.768 13.2666 14.7691 13.2634 14.7695 13.2602C14.7699 13.2569 14.7695 13.2536 14.7684 13.2505C14.7673 13.2474 14.7655 13.2446 14.7632 13.2422C14.7609 13.2399 14.7581 13.2381 14.755 13.237C14.7519 13.2359 14.7486 13.2355 14.7454 13.2358C14.7421 13.2362 14.7389 13.2373 14.7361 13.239C14.7333 13.2407 14.731 13.243 14.7292 13.2458L14.6852 13.2894L14.7155 13.32L14.7595 13.2763Z" fill="black" stroke="black" stroke-width="0.026"/>
<path d="M12.6338 11.6283C12.6334 11.7374 12.6745 11.8425 12.7488 11.9223C12.7838 11.9609 12.8264 11.9918 12.8741 12.0129C12.9217 12.034 12.9732 12.045 13.0253 12.045C13.0774 12.045 13.1289 12.034 13.1765 12.0129C13.2242 11.9918 13.2668 11.9609 13.3018 11.9223C13.3761 11.8425 13.4172 11.7374 13.4168 11.6283V11.0703H12.6348V11.6263" fill="#003399"/>
<path d="M12.8124 11.3571C12.8555 11.3571 12.8904 11.3227 12.8904 11.2801C12.8904 11.2376 12.8555 11.2031 12.8124 11.2031C12.7693 11.2031 12.7344 11.2376 12.7344 11.2801C12.7344 11.3227 12.7693 11.3571 12.8124 11.3571Z" fill="white"/>
<path d="M13.2469 11.3571C13.29 11.3571 13.3249 11.3227 13.3249 11.2801C13.3249 11.2376 13.29 11.2031 13.2469 11.2031C13.2039 11.2031 13.1689 11.2376 13.1689 11.2801C13.1689 11.3227 13.2039 11.3571 13.2469 11.3571Z" fill="white"/>
<path d="M13.0292 11.5681C13.0723 11.5681 13.1072 11.5336 13.1072 11.4911C13.1072 11.4485 13.0723 11.4141 13.0292 11.4141C12.9861 11.4141 12.9512 11.4485 12.9512 11.4911C12.9512 11.5336 12.9861 11.5681 13.0292 11.5681Z" fill="white"/>
<path d="M12.8124 11.7868C12.8555 11.7868 12.8904 11.7523 12.8904 11.7098C12.8904 11.6673 12.8555 11.6328 12.8124 11.6328C12.7693 11.6328 12.7344 11.6673 12.7344 11.7098C12.7344 11.7523 12.7693 11.7868 12.8124 11.7868Z" fill="white"/>
<path d="M13.246 11.779C13.289 11.779 13.324 11.7445 13.324 11.702C13.324 11.6595 13.289 11.625 13.246 11.625C13.2029 11.625 13.168 11.6595 13.168 11.702C13.168 11.7445 13.2029 11.779 13.246 11.779Z" fill="white"/>
<path d="M12.6338 10.2846C12.6334 10.3936 12.6745 10.4987 12.7488 10.5786C12.7838 10.6172 12.8264 10.648 12.8741 10.6692C12.9217 10.6903 12.9732 10.7012 13.0253 10.7012C13.0774 10.7012 13.1289 10.6903 13.1765 10.6692C13.2242 10.648 13.2668 10.6172 13.3018 10.5786C13.3761 10.4987 13.4172 10.3936 13.4168 10.2846V9.72656H12.6348V10.2826" fill="#003399"/>
<path d="M12.8124 10.0134C12.8555 10.0134 12.8904 9.9789 12.8904 9.93637C12.8904 9.89385 12.8555 9.85938 12.8124 9.85938C12.7693 9.85938 12.7344 9.89385 12.7344 9.93637C12.7344 9.9789 12.7693 10.0134 12.8124 10.0134Z" fill="white"/>
<path d="M13.2469 10.0134C13.29 10.0134 13.3249 9.9789 13.3249 9.93637C13.3249 9.89385 13.29 9.85938 13.2469 9.85938C13.2039 9.85938 13.1689 9.89385 13.1689 9.93637C13.1689 9.9789 13.2039 10.0134 13.2469 10.0134Z" fill="white"/>
<path d="M13.0292 10.2243C13.0723 10.2243 13.1072 10.1898 13.1072 10.1473C13.1072 10.1048 13.0723 10.0703 13.0292 10.0703C12.9861 10.0703 12.9512 10.1048 12.9512 10.1473C12.9512 10.1898 12.9861 10.2243 13.0292 10.2243Z" fill="white"/>
<path d="M12.8124 10.4431C12.8555 10.4431 12.8904 10.4086 12.8904 10.3661C12.8904 10.3235 12.8555 10.2891 12.8124 10.2891C12.7693 10.2891 12.7344 10.3235 12.7344 10.3661C12.7344 10.4086 12.7693 10.4431 12.8124 10.4431Z" fill="white"/>
<path d="M13.246 10.4352C13.289 10.4352 13.324 10.4008 13.324 10.3582C13.324 10.3157 13.289 10.2812 13.246 10.2812C13.2029 10.2812 13.168 10.3157 13.168 10.3582C13.168 10.4008 13.2029 10.4352 13.246 10.4352Z" fill="white"/>
<path d="M11.5488 11.6283C11.5484 11.7374 11.5895 11.8425 11.6638 11.9223C11.6988 11.9609 11.7415 11.9918 11.7891 12.0129C11.8367 12.034 11.8882 12.045 11.9403 12.045C11.9924 12.045 12.0439 12.034 12.0916 12.0129C12.1392 11.9918 12.1819 11.9609 12.2168 11.9223C12.2911 11.8425 12.3323 11.7374 12.3318 11.6283V11.0703H11.5498V11.6263" fill="#003399"/>
<path d="M11.7274 11.3571C11.7705 11.3571 11.8054 11.3227 11.8054 11.2801C11.8054 11.2376 11.7705 11.2031 11.7274 11.2031C11.6843 11.2031 11.6494 11.2376 11.6494 11.2801C11.6494 11.3227 11.6843 11.3571 11.7274 11.3571Z" fill="white"/>
<path d="M12.162 11.3571C12.2051 11.3571 12.24 11.3227 12.24 11.2801C12.24 11.2376 12.2051 11.2031 12.162 11.2031C12.1189 11.2031 12.084 11.2376 12.084 11.2801C12.084 11.3227 12.1189 11.3571 12.162 11.3571Z" fill="white"/>
<path d="M11.9442 11.5681C11.9873 11.5681 12.0222 11.5336 12.0222 11.4911C12.0222 11.4485 11.9873 11.4141 11.9442 11.4141C11.9011 11.4141 11.8662 11.4485 11.8662 11.4911C11.8662 11.5336 11.9011 11.5681 11.9442 11.5681Z" fill="white"/>
<path d="M11.7274 11.7868C11.7705 11.7868 11.8054 11.7523 11.8054 11.7098C11.8054 11.6673 11.7705 11.6328 11.7274 11.6328C11.6843 11.6328 11.6494 11.6673 11.6494 11.7098C11.6494 11.7523 11.6843 11.7868 11.7274 11.7868Z" fill="white"/>
<path d="M12.161 11.779C12.2041 11.779 12.239 11.7445 12.239 11.702C12.239 11.6595 12.2041 11.625 12.161 11.625C12.1179 11.625 12.083 11.6595 12.083 11.702C12.083 11.7445 12.1179 11.779 12.161 11.779Z" fill="white"/>
<path d="M13.7158 11.6283C13.7154 11.7374 13.7565 11.8425 13.8308 11.9223C13.8658 11.9609 13.9085 11.9918 13.9561 12.0129C14.0037 12.034 14.0552 12.045 14.1073 12.045C14.1594 12.045 14.2109 12.034 14.2586 12.0129C14.3062 11.9918 14.3489 11.9609 14.3838 11.9223C14.4581 11.8425 14.4993 11.7374 14.4988 11.6283V11.0703H13.7168V11.6263" fill="#003399"/>
<path d="M13.8944 11.3571C13.9375 11.3571 13.9724 11.3227 13.9724 11.2801C13.9724 11.2376 13.9375 11.2031 13.8944 11.2031C13.8513 11.2031 13.8164 11.2376 13.8164 11.2801C13.8164 11.3227 13.8513 11.3571 13.8944 11.3571Z" fill="white"/>
<path d="M14.329 11.3571C14.3721 11.3571 14.407 11.3227 14.407 11.2801C14.407 11.2376 14.3721 11.2031 14.329 11.2031C14.2859 11.2031 14.251 11.2376 14.251 11.2801C14.251 11.3227 14.2859 11.3571 14.329 11.3571Z" fill="white"/>
<path d="M14.1112 11.5681C14.1543 11.5681 14.1892 11.5336 14.1892 11.4911C14.1892 11.4485 14.1543 11.4141 14.1112 11.4141C14.0681 11.4141 14.0332 11.4485 14.0332 11.4911C14.0332 11.5336 14.0681 11.5681 14.1112 11.5681Z" fill="white"/>
<path d="M13.8944 11.7868C13.9375 11.7868 13.9724 11.7523 13.9724 11.7098C13.9724 11.6673 13.9375 11.6328 13.8944 11.6328C13.8513 11.6328 13.8164 11.6673 13.8164 11.7098C13.8164 11.7523 13.8513 11.7868 13.8944 11.7868Z" fill="white"/>
<path d="M14.328 11.779C14.3711 11.779 14.406 11.7445 14.406 11.702C14.406 11.6595 14.3711 11.625 14.328 11.625C14.2849 11.625 14.25 11.6595 14.25 11.702C14.25 11.7445 14.2849 11.779 14.328 11.779Z" fill="white"/>
<path d="M12.6338 12.9564C12.6334 13.0655 12.6745 13.1706 12.7488 13.2504C12.7838 13.2891 12.8264 13.3199 12.8741 13.341C12.9217 13.3622 12.9732 13.3731 13.0253 13.3731C13.0774 13.3731 13.1289 13.3622 13.1765 13.341C13.2242 13.3199 13.2668 13.2891 13.3018 13.2504C13.3761 13.1706 13.4172 13.0655 13.4168 12.9564V12.3984H12.6348V12.9544" fill="#003399"/>
<path d="M12.8124 12.6852C12.8555 12.6852 12.8904 12.6508 12.8904 12.6082C12.8904 12.5657 12.8555 12.5312 12.8124 12.5312C12.7693 12.5312 12.7344 12.5657 12.7344 12.6082C12.7344 12.6508 12.7693 12.6852 12.8124 12.6852Z" fill="white"/>
<path d="M13.2469 12.6852C13.29 12.6852 13.3249 12.6508 13.3249 12.6082C13.3249 12.5657 13.29 12.5312 13.2469 12.5312C13.2039 12.5312 13.1689 12.5657 13.1689 12.6082C13.1689 12.6508 13.2039 12.6852 13.2469 12.6852Z" fill="white"/>
<path d="M13.0292 12.8962C13.0723 12.8962 13.1072 12.8617 13.1072 12.8192C13.1072 12.7767 13.0723 12.7422 13.0292 12.7422C12.9861 12.7422 12.9512 12.7767 12.9512 12.8192C12.9512 12.8617 12.9861 12.8962 13.0292 12.8962Z" fill="white"/>
<path d="M12.8124 13.1149C12.8555 13.1149 12.8904 13.0805 12.8904 13.0379C12.8904 12.9954 12.8555 12.9609 12.8124 12.9609C12.7693 12.9609 12.7344 12.9954 12.7344 13.0379C12.7344 13.0805 12.7693 13.1149 12.8124 13.1149Z" fill="white"/>
<path d="M13.246 13.1071C13.289 13.1071 13.324 13.0727 13.324 13.0301C13.324 12.9876 13.289 12.9531 13.246 12.9531C13.2029 12.9531 13.168 12.9876 13.168 13.0301C13.168 13.0727 13.2029 13.1071 13.246 13.1071Z" fill="white"/>
</g>
<defs>
<clipPath id="clip0_260_913">
<rect width="31.293" height="22" fill="white" transform="translate(0.5 0.5)"/>
</clipPath>
</defs>
</svg>
