<svg width="306" height="306" viewBox="0 0 306 306" fill="none" xmlns="http://www.w3.org/2000/svg">
<g clip-path="url(#clip0_260_1049)">
<path d="M305.629 153.064C305.629 183.238 296.681 212.735 279.917 237.824C263.154 262.913 239.326 282.467 211.449 294.015C183.572 305.562 152.896 308.583 123.302 302.697C93.7072 296.81 66.5229 282.28 45.1864 260.943C23.8499 239.607 9.31947 212.423 3.43264 182.828C-2.45419 153.234 0.566947 122.558 12.114 94.681C23.6611 66.8035 43.2154 42.9762 68.3043 26.2122C93.3932 9.44809 122.89 0.500198 153.064 0.5C173.099 0.499869 192.938 4.44596 211.448 12.113C229.958 19.78 246.777 31.0177 260.944 45.1846C275.111 59.3515 286.349 76.1701 294.016 94.6801C301.683 113.19 305.629 133.029 305.629 153.064Z" fill="#F4F4F7"/>
<path fill-rule="evenodd" clip-rule="evenodd" d="M250.823 62.0266C250.823 60.7536 250.318 59.5326 249.417 58.6324C248.517 57.7323 247.296 57.2266 246.023 57.2266H135.499C134.226 57.2266 133.005 57.7323 132.105 58.6324C131.205 59.5326 130.699 60.7536 130.699 62.0266V237.396C130.699 238.669 131.205 239.889 132.105 240.79C133.005 241.69 134.226 242.196 135.499 242.196H246.009C247.282 242.196 248.503 241.69 249.403 240.79C250.303 239.889 250.809 238.669 250.809 237.396V62.0266H250.823Z" fill="url(#paint0_linear_260_1049)"/>
<path fill-rule="evenodd" clip-rule="evenodd" d="M130.699 67.6016V237.394C130.699 238.667 131.205 239.887 132.105 240.788C133.005 241.688 134.226 242.194 135.499 242.194H240.565V72.4156C240.565 71.1425 240.059 69.9217 239.159 69.0215C238.259 68.1213 237.038 67.6156 235.765 67.6156L130.699 67.6016Z" fill="url(#paint1_linear_260_1049)"/>
<path fill-rule="evenodd" clip-rule="evenodd" d="M237.01 75.3542C237.05 74.2161 236.637 73.1087 235.861 72.2748C235.086 71.4409 234.011 70.9487 232.873 70.9062H137.666C136.528 70.9487 135.453 71.4409 134.678 72.2748C133.902 73.1087 133.489 74.2161 133.529 75.3542V237.754C133.489 238.892 133.903 239.999 134.678 240.833C135.454 241.667 136.528 242.159 137.666 242.201H232.866C234.004 242.159 235.078 241.667 235.854 240.833C236.63 239.999 237.043 238.892 237.003 237.754V75.3542H237.01Z" fill="#F2F5FD"/>
<path fill-rule="evenodd" clip-rule="evenodd" d="M224.429 224.025C224.439 223.794 224.359 223.569 224.204 223.398C224.049 223.226 223.833 223.123 223.603 223.11H146.945C146.714 223.123 146.498 223.226 146.344 223.397C146.189 223.569 146.108 223.794 146.118 224.025V226.768C146.108 226.998 146.189 227.224 146.344 227.395C146.498 227.566 146.714 227.67 146.945 227.683H223.603C223.833 227.67 224.049 227.566 224.204 227.395C224.359 227.223 224.439 226.998 224.429 226.768V224.025ZM224.429 211.514C224.439 211.283 224.359 211.058 224.204 210.887C224.049 210.715 223.833 210.612 223.603 210.599H146.945C146.714 210.612 146.498 210.715 146.344 210.886C146.189 211.058 146.108 211.283 146.118 211.514V214.257C146.108 214.487 146.189 214.712 146.344 214.884C146.499 215.055 146.715 215.158 146.945 215.171H223.603C223.833 215.157 224.049 215.054 224.204 214.883C224.358 214.712 224.439 214.487 224.429 214.257V211.514ZM224.429 198.993C224.439 198.762 224.359 198.537 224.204 198.366C224.049 198.194 223.833 198.091 223.603 198.078H146.945C146.714 198.091 146.498 198.194 146.344 198.365C146.189 198.537 146.108 198.762 146.118 198.993V201.736C146.108 201.966 146.189 202.192 146.344 202.363C146.498 202.534 146.714 202.638 146.945 202.651H223.603C223.833 202.638 224.049 202.534 224.204 202.363C224.359 202.192 224.439 201.966 224.429 201.736V198.993ZM224.429 186.482C224.439 186.251 224.359 186.026 224.204 185.855C224.049 185.683 223.833 185.58 223.603 185.567H146.945C146.714 185.58 146.498 185.683 146.344 185.854C146.189 186.026 146.108 186.251 146.118 186.482V189.225C146.108 189.455 146.189 189.681 146.344 189.852C146.498 190.023 146.714 190.127 146.945 190.14H223.603C223.833 190.126 224.049 190.023 224.204 189.852C224.359 189.681 224.439 189.455 224.429 189.225V186.482ZM224.429 173.961C224.439 173.73 224.358 173.505 224.204 173.334C224.049 173.163 223.833 173.06 223.603 173.047H146.945C146.715 173.06 146.499 173.163 146.344 173.334C146.189 173.505 146.108 173.73 146.118 173.961V176.705C146.108 176.935 146.189 177.16 146.344 177.332C146.499 177.503 146.715 177.606 146.945 177.619H223.603C223.833 177.605 224.049 177.502 224.204 177.331C224.358 177.16 224.439 176.935 224.429 176.705V173.961ZM224.429 161.44C224.439 161.209 224.359 160.984 224.204 160.813C224.049 160.641 223.833 160.538 223.603 160.525H146.945C146.714 160.538 146.498 160.641 146.344 160.812C146.189 160.984 146.108 161.209 146.118 161.44V164.183C146.108 164.413 146.189 164.639 146.344 164.81C146.498 164.981 146.714 165.085 146.945 165.098H223.603C223.833 165.084 224.049 164.981 224.204 164.81C224.359 164.639 224.439 164.413 224.429 164.183V161.44ZM224.429 148.929C224.439 148.698 224.358 148.473 224.204 148.302C224.049 148.131 223.833 148.028 223.603 148.015H146.945C146.715 148.028 146.499 148.131 146.344 148.302C146.189 148.473 146.108 148.698 146.118 148.929V151.672C146.108 151.902 146.189 152.127 146.344 152.298C146.499 152.47 146.715 152.573 146.945 152.586H223.603C223.833 152.573 224.049 152.469 224.204 152.298C224.358 152.127 224.439 151.902 224.429 151.672V148.929ZM224.429 136.408C224.439 136.177 224.359 135.952 224.204 135.781C224.049 135.609 223.833 135.506 223.603 135.493H146.945C146.714 135.506 146.498 135.609 146.344 135.78C146.189 135.952 146.108 136.177 146.118 136.408V139.151C146.108 139.381 146.189 139.607 146.344 139.778C146.498 139.95 146.714 140.053 146.945 140.066H223.603C223.833 140.052 224.049 139.949 224.204 139.778C224.359 139.607 224.439 139.381 224.429 139.151V136.408ZM224.429 123.897C224.439 123.666 224.359 123.441 224.204 123.27C224.049 123.098 223.833 122.995 223.603 122.982H146.945C146.714 122.995 146.498 123.098 146.344 123.269C146.189 123.441 146.108 123.666 146.118 123.897V126.64C146.108 126.87 146.189 127.095 146.344 127.266C146.499 127.438 146.715 127.541 146.945 127.554H223.603C223.833 127.541 224.049 127.437 224.204 127.266C224.358 127.095 224.439 126.87 224.429 126.64V123.897ZM224.429 111.376C224.439 111.145 224.358 110.92 224.204 110.749C224.049 110.578 223.833 110.475 223.603 110.462H146.945C146.715 110.475 146.499 110.578 146.344 110.749C146.189 110.92 146.108 111.145 146.118 111.376V114.119C146.108 114.349 146.189 114.574 146.344 114.745C146.499 114.917 146.715 115.02 146.945 115.033H223.603C223.833 115.02 224.049 114.916 224.204 114.745C224.358 114.574 224.439 114.349 224.429 114.119V111.376ZM224.429 98.8647C224.439 98.6342 224.359 98.4089 224.204 98.2376C224.049 98.0663 223.833 97.9629 223.603 97.9497H146.945C146.714 97.9626 146.498 98.066 146.344 98.2373C146.189 98.4086 146.108 98.634 146.118 98.8647V101.608C146.108 101.838 146.189 102.063 146.344 102.234C146.499 102.406 146.715 102.509 146.945 102.522H223.603C223.833 102.509 224.049 102.405 224.204 102.234C224.358 102.063 224.439 101.838 224.429 101.608V98.8647ZM224.429 86.3437C224.439 86.1133 224.358 85.8883 224.204 85.7172C224.049 85.5462 223.833 85.4429 223.603 85.4297H146.945C146.715 85.4426 146.499 85.5458 146.344 85.7169C146.189 85.888 146.108 86.1132 146.118 86.3437V89.0867C146.108 89.3172 146.189 89.5424 146.344 89.7135C146.499 89.8846 146.715 89.9878 146.945 90.0007H223.603C223.833 89.9875 224.049 89.8842 224.204 89.7131C224.358 89.5421 224.439 89.3171 224.429 89.0867V86.3437Z" fill="#C3D6F2"/>
<path fill-rule="evenodd" clip-rule="evenodd" d="M128.794 165.74C122.134 154.964 119.881 142.037 122.501 129.643C125.12 117.249 132.412 106.34 142.863 99.1808C153.313 92.0211 166.119 89.1607 178.623 91.1935C191.126 93.2262 202.367 99.9958 210.011 110.097C217.656 120.198 221.116 132.856 219.675 145.441C218.234 158.027 212.002 169.574 202.272 177.686C192.542 185.798 180.062 189.851 167.423 189.005C154.783 188.158 142.955 182.477 134.394 173.14L41.4015 245.588C40.7064 246.13 39.9104 246.528 39.06 246.759C38.2095 246.989 37.3217 247.048 36.4482 246.933C35.5746 246.817 34.7328 246.528 33.972 246.084C33.2111 245.639 32.5464 245.047 32.0165 244.343C31.5289 243.697 31.1747 242.959 30.9743 242.175C30.7739 241.39 30.7314 240.573 30.8493 239.772C30.9672 238.97 31.243 238.2 31.6609 237.506C32.0788 236.812 32.6304 236.208 33.2836 235.729L128.799 165.737L128.794 165.74Z" fill="url(#paint2_linear_260_1049)"/>
<path fill-rule="evenodd" clip-rule="evenodd" d="M202.983 115.508C207.787 121.882 210.593 129.539 211.046 137.508C211.498 145.478 209.578 153.402 205.527 160.28C201.476 167.158 195.476 172.68 188.286 176.148C181.097 179.617 173.04 180.875 165.136 179.764C157.231 178.653 149.833 175.224 143.878 169.908C137.922 164.593 133.677 157.631 131.678 149.903C129.68 142.175 130.017 134.028 132.649 126.492C135.281 118.956 140.088 112.37 146.463 107.566C155.013 101.128 165.768 98.3491 176.367 99.8383C186.965 101.327 196.538 106.963 202.983 115.508Z" fill="#ECF7FF"/>
<path opacity="0.21" d="M231.46 88.3912L230.083 82.9493L226.966 83.7422C226.475 82.8489 225.87 82.0233 225.166 81.2863L226.83 78.4863L222.016 75.6113L220.407 78.2993C219.276 77.9321 218.095 77.7461 216.907 77.7482L216.092 74.5312L210.65 75.9083L211.465 79.1252C210.492 79.6511 209.602 80.3153 208.821 81.0972L206.287 79.5883L203.413 84.4022L205.946 85.9113C205.629 86.9695 205.466 88.0677 205.462 89.1722L202.345 89.9653L203.722 95.4072L206.839 94.6143C207.405 95.6593 208.13 96.6106 208.987 97.4343L207.379 100.122L212.193 102.997L213.856 100.197C214.839 100.467 215.855 100.603 216.875 100.604L217.69 103.82L223.131 102.443L222.316 99.2263C223.288 98.7003 224.178 98.0361 224.96 97.2543L227.912 99.0162L230.787 94.2023L227.835 92.4393C228.152 91.3815 228.315 90.2835 228.319 89.1793L231.46 88.3912ZM218.483 94.0532C212.083 96.0802 208.977 86.3973 215.332 84.3043C221.733 82.2663 224.839 91.9482 218.483 94.0532Z" fill="#00B2CC"/>
<path opacity="0.63" d="M144.182 239.364L144.105 237.37L142.343 237.436C142.183 236.062 141.773 234.729 141.132 233.504L142.632 232.567L141.575 230.867L140.075 231.804C139.241 230.7 138.22 229.753 137.057 229.004L137.883 227.44L136.121 226.504L135.295 228.068C134.023 227.527 132.665 227.218 131.285 227.154L131.219 225.391L129.225 225.468L129.291 227.23C127.917 227.39 126.585 227.8 125.359 228.442L124.422 226.942L122.722 228L123.659 229.5C122.556 230.334 121.608 231.356 120.859 232.519L119.295 231.692L118.359 233.455L119.923 234.281C119.383 235.553 119.074 236.911 119.009 238.291L117.247 238.357L117.324 240.35L119.086 240.284C119.246 241.658 119.656 242.991 120.297 244.217L118.797 245.153L119.855 246.853L121.355 245.916C122.189 247.019 123.21 247.967 124.373 248.716L123.547 250.28L125.309 251.217L126.135 249.653C127.407 250.193 128.765 250.502 130.145 250.567L130.211 252.329L132.205 252.252L132.139 250.49C133.513 250.33 134.846 249.919 136.071 249.278L137.008 250.778L138.708 249.72L137.771 248.22C138.875 247.386 139.822 246.364 140.571 245.202L142.135 246.028L143.071 244.266L141.507 243.44C142.047 242.168 142.356 240.81 142.421 239.43L144.182 239.364ZM130.974 246.464C120.95 246.664 120.41 231.758 130.423 231.23C140.437 231.036 140.988 245.94 130.975 246.469L130.974 246.464Z" fill="#343F53"/>
<path d="M180.357 139.561C181.139 139.379 181.858 138.994 182.443 138.445C183.027 137.895 183.455 137.201 183.684 136.432L185.369 131.475L186.041 131.707C186.192 131.757 186.356 131.747 186.499 131.676C186.641 131.606 186.75 131.482 186.801 131.332L187.701 128.677C187.752 128.526 187.741 128.362 187.671 128.219C187.601 128.077 187.478 127.968 187.327 127.917L165.494 120.493C165.344 120.442 165.179 120.453 165.037 120.523C164.895 120.593 164.786 120.716 164.734 120.867L163.834 123.522C163.784 123.672 163.794 123.837 163.865 123.979C163.935 124.122 164.059 124.23 164.209 124.282L164.881 124.513L163.163 129.558C162.363 131.937 162.888 132.741 163.901 133.964L168.318 139.251L167.818 140.694C166.133 141.057 161.718 142.027 161.118 142.194C160.337 142.375 159.618 142.76 159.033 143.309C158.449 143.858 158.02 144.553 157.791 145.322L156.337 149.585L155.665 149.353C155.515 149.302 155.35 149.313 155.208 149.383C155.065 149.453 154.957 149.577 154.905 149.728L154.005 152.383C153.954 152.533 153.965 152.697 154.035 152.84C154.105 152.982 154.229 153.091 154.379 153.143L176.212 160.568C176.363 160.619 176.527 160.608 176.67 160.537C176.812 160.467 176.921 160.343 176.972 160.193L177.872 157.538C177.923 157.387 177.912 157.223 177.842 157.08C177.772 156.938 177.648 156.829 177.497 156.778L176.825 156.547L178.301 152.196C179.116 149.817 178.576 149.012 177.563 147.796L173.146 142.509L173.646 141.066C175.345 140.697 179.762 139.739 180.357 139.561ZM171.137 143.427L175.937 149.177C176.198 149.435 176.407 149.74 176.553 150.077C176.584 150.568 176.493 151.06 176.288 151.509L174.812 155.86L158.399 150.275L159.853 146.012C159.973 145.569 160.214 145.169 160.55 144.857C160.886 144.545 161.303 144.334 161.753 144.249C162.227 144.117 166.291 143.224 168.902 142.649C169.084 142.611 169.252 142.526 169.391 142.403C169.53 142.281 169.635 142.124 169.695 141.949L170.576 139.36C170.634 139.185 170.648 138.999 170.615 138.818C170.582 138.637 170.505 138.467 170.389 138.324L165.597 132.585L165.586 132.563C165.326 132.304 165.116 131.999 164.969 131.663C164.938 131.171 165.029 130.679 165.233 130.231L166.952 125.186L183.365 130.771L181.68 135.728C181.561 136.17 181.32 136.57 180.984 136.882C180.648 137.194 180.231 137.405 179.78 137.491C179.306 137.623 175.242 138.515 172.631 139.091C172.45 139.128 172.281 139.213 172.142 139.336C172.003 139.458 171.898 139.615 171.838 139.791L170.956 142.38C170.891 142.555 170.873 142.744 170.905 142.929C170.937 143.113 171.017 143.286 171.137 143.429V143.427Z" fill="#00B2CC"/>
<path d="M172.405 138.411C173.385 138.29 179.323 137.067 179.323 137.067C179.323 137.067 179.796 136.867 179.201 136.767C177.801 136.536 175.201 137.098 172.349 136.36C169.497 135.622 168.913 133.11 167.062 132.934C166.654 132.901 166.598 133.055 166.951 133.463C167.304 133.871 170.52 137.418 170.96 137.913C171.122 138.133 171.347 138.299 171.605 138.388C171.863 138.476 172.142 138.485 172.405 138.411Z" fill="#00B2CC"/>
<path d="M161.422 149.727C160.805 150.002 160.486 150.233 161.554 150.597C162.424 150.897 171.171 153.869 172.283 154.243C173.395 154.617 173.083 154.1 172.735 153.428C171.774 151.477 170.103 149.967 168.064 149.209C165.863 148.549 163.495 148.734 161.422 149.727Z" fill="#00B2CC"/>
<path d="M171.281 139.341C171.126 139.286 170.962 139.408 170.896 139.595C170.86 139.673 170.855 139.764 170.884 139.846C170.913 139.928 170.973 139.996 171.05 140.034C171.204 140.089 171.371 139.969 171.436 139.782C171.47 139.702 171.473 139.613 171.444 139.531C171.416 139.45 171.358 139.382 171.281 139.341Z" fill="#00B2CC"/>
<path d="M170.807 140.74C170.653 140.685 170.488 140.806 170.422 140.993C170.385 141.072 170.381 141.162 170.409 141.245C170.438 141.327 170.498 141.395 170.576 141.434C170.731 141.489 170.896 141.368 170.961 141.18C170.993 141.1 170.995 141.012 170.966 140.931C170.938 140.85 170.882 140.782 170.807 140.74Z" fill="#00B2CC"/>
<path d="M170.091 142.831C170.245 142.886 170.411 142.765 170.477 142.578C170.514 142.499 170.518 142.409 170.49 142.327C170.461 142.245 170.401 142.177 170.323 142.138C170.169 142.083 170.003 142.204 169.937 142.391C169.918 142.43 169.907 142.473 169.904 142.516C169.901 142.559 169.907 142.603 169.922 142.644C169.936 142.685 169.958 142.722 169.987 142.755C170.017 142.787 170.052 142.813 170.091 142.831Z" fill="#00B2CC"/>
<path d="M169.617 144.239C169.771 144.294 169.937 144.173 170.002 143.986C170.039 143.906 170.044 143.816 170.015 143.734C169.986 143.651 169.926 143.583 169.848 143.545C169.694 143.49 169.528 143.611 169.463 143.798C169.426 143.877 169.422 143.967 169.45 144.049C169.479 144.132 169.539 144.2 169.617 144.239Z" fill="#00B2CC"/>
<path d="M169.134 145.636C169.288 145.691 169.453 145.57 169.52 145.383C169.557 145.304 169.561 145.214 169.532 145.132C169.503 145.049 169.444 144.982 169.365 144.943C169.211 144.888 169.046 145.009 168.98 145.196C168.949 145.276 168.947 145.364 168.975 145.445C169.003 145.526 169.06 145.594 169.134 145.636Z" fill="#00B2CC"/>
<path d="M168.66 147.037C168.814 147.092 168.979 146.971 169.046 146.783C169.082 146.703 169.087 146.613 169.058 146.531C169.029 146.448 168.969 146.38 168.891 146.341C168.736 146.286 168.571 146.408 168.506 146.595C168.47 146.674 168.466 146.764 168.494 146.846C168.523 146.928 168.582 146.997 168.66 147.037Z" fill="#00B2CC"/>
<path d="M168.185 148.433C168.339 148.488 168.505 148.367 168.57 148.18C168.606 148.101 168.611 148.011 168.582 147.929C168.553 147.846 168.494 147.779 168.416 147.74C168.261 147.685 168.096 147.806 168.031 147.993C168.011 148.032 168 148.074 167.998 148.117C167.995 148.161 168.001 148.204 168.015 148.245C168.03 148.286 168.052 148.324 168.081 148.356C168.11 148.388 168.145 148.414 168.185 148.433Z" fill="#00B2CC"/>
<path d="M184.103 163.869C183.618 164.145 183.134 164.398 182.638 164.64C182.559 164.68 182.481 164.724 182.406 164.772C182.327 164.801 182.25 164.834 182.175 164.872C180.049 165.866 177.801 166.577 175.489 166.987C175.456 166.987 175.434 166.998 175.401 166.998C174.861 167.098 174.301 167.174 173.76 167.241H173.738C172.725 167.352 171.706 167.407 170.686 167.406C165.055 167.4 159.563 165.651 154.965 162.399C150.368 159.146 146.89 154.55 145.009 149.242C144.954 149.077 144.899 148.923 144.844 148.758C142.993 143.187 142.993 137.167 144.844 131.596C144.866 131.541 144.877 131.475 144.899 131.419C144.954 131.265 145.009 131.1 145.064 130.946C145.086 130.869 145.119 130.802 145.141 130.725C146.692 126.567 149.232 122.849 152.54 119.892C155.849 116.935 159.827 114.827 164.132 113.75H164.154L164.554 113.65C164.565 113.65 164.587 113.639 164.598 113.639C166.55 113.193 168.545 112.963 170.546 112.956L170.568 115.756C170.579 116.626 171.119 116.88 171.791 116.318L177.706 111.306C177.861 111.185 177.985 111.03 178.07 110.854C178.155 110.677 178.198 110.483 178.196 110.287C178.193 110.091 178.146 109.898 178.057 109.723C177.969 109.548 177.841 109.396 177.684 109.279L171.691 104.366C171.019 103.815 170.479 104.08 170.479 104.95L170.501 107.75C161.956 107.776 153.771 111.193 147.743 117.25C147.149 117.845 146.576 118.473 146.025 119.1L146.014 119.111C145.993 119.13 145.974 119.152 145.959 119.177C141.17 124.779 138.451 131.857 138.259 139.225C138.259 139.28 138.248 139.335 138.248 139.401C138.237 139.654 138.237 139.901 138.237 140.15C138.237 140.558 138.248 140.976 138.259 141.384C138.259 141.428 138.27 141.484 138.27 141.527C138.525 148.235 140.875 154.695 144.989 160C145.001 160.021 145.016 160.039 145.033 160.055C145.433 160.573 145.859 161.09 146.289 161.575L146.377 161.663C146.818 162.163 147.269 162.643 147.743 163.117C152.479 167.877 158.583 171.039 165.203 172.161C165.222 172.164 165.24 172.167 165.258 172.172C165.274 172.17 165.289 172.174 165.302 172.183C167.075 172.474 168.869 172.622 170.666 172.624C175.397 172.636 180.072 171.606 184.358 169.606C184.446 169.562 184.535 169.518 184.622 169.463C184.72 169.427 184.815 169.387 184.908 169.342C185.503 169.055 186.087 168.747 186.659 168.416C186.958 168.248 187.221 168.022 187.432 167.752C187.644 167.481 187.799 167.172 187.891 166.841C187.982 166.51 188.007 166.165 187.964 165.824C187.921 165.484 187.811 165.156 187.64 164.858C187.476 164.558 187.253 164.294 186.985 164.082C186.717 163.869 186.409 163.712 186.08 163.62C185.75 163.528 185.406 163.503 185.066 163.545C184.727 163.588 184.4 163.698 184.103 163.869Z" fill="#00B2CC"/>
<path d="M193.287 124.992C193.477 125.279 193.722 125.526 194.007 125.718C194.293 125.909 194.613 126.043 194.95 126.11C195.288 126.178 195.635 126.178 195.972 126.111C196.31 126.043 196.63 125.91 196.916 125.718C197.202 125.526 197.446 125.28 197.636 124.993C197.826 124.706 197.958 124.385 198.023 124.047C198.088 123.709 198.086 123.362 198.016 123.025C197.946 122.688 197.811 122.368 197.617 122.084C197.253 121.533 196.868 120.993 196.461 120.476C196.255 120.197 195.996 119.962 195.699 119.784C195.401 119.606 195.071 119.489 194.727 119.44C194.384 119.391 194.034 119.411 193.699 119.499C193.364 119.587 193.049 119.741 192.774 119.952C192.498 120.163 192.268 120.426 192.095 120.727C191.923 121.028 191.813 121.36 191.771 121.704C191.728 122.049 191.755 122.398 191.849 122.732C191.943 123.065 192.103 123.377 192.319 123.648C192.651 124.078 192.981 124.529 193.287 124.992Z" fill="#00B2CC"/>
<path d="M196.607 131.834C196.772 132.363 196.926 132.891 197.07 133.434C197.213 133.994 197.539 134.491 197.995 134.846C198.452 135.201 199.014 135.393 199.592 135.394C199.811 135.395 200.029 135.369 200.242 135.317C200.574 135.233 200.886 135.084 201.161 134.879C201.435 134.674 201.666 134.416 201.841 134.122C202.016 133.827 202.132 133.501 202.18 133.162C202.229 132.823 202.21 132.477 202.126 132.145C201.96 131.506 201.784 130.867 201.575 130.251C201.354 129.605 200.889 129.071 200.279 128.763C199.67 128.456 198.963 128.4 198.313 128.608C197.662 128.816 197.119 129.27 196.8 129.874C196.481 130.478 196.412 131.183 196.607 131.837V131.834Z" fill="#00B2CC"/>
<path d="M194.942 157.733C194.684 157.508 194.384 157.336 194.058 157.228C193.733 157.119 193.39 157.076 193.048 157.1C192.706 157.125 192.372 157.217 192.066 157.371C191.76 157.525 191.487 157.738 191.263 157.998C190.9 158.417 190.526 158.825 190.14 159.221C189.673 159.718 189.419 160.378 189.433 161.06C189.447 161.742 189.728 162.392 190.215 162.869C190.702 163.346 191.357 163.613 192.04 163.613C192.722 163.613 193.377 163.345 193.864 162.867C194.326 162.393 194.764 161.909 195.197 161.413C195.423 161.156 195.595 160.855 195.705 160.531C195.814 160.206 195.859 159.862 195.835 159.52C195.812 159.178 195.721 158.844 195.567 158.538C195.414 158.231 195.202 157.958 194.942 157.733Z" fill="#00B2CC"/>
<path d="M200.585 138.478C200.242 138.467 199.901 138.525 199.58 138.646C199.259 138.768 198.966 138.952 198.716 139.187C198.466 139.422 198.266 139.705 198.125 140.017C197.985 140.33 197.907 140.668 197.897 141.011C197.886 141.562 197.842 142.124 197.797 142.663C197.766 143.004 197.801 143.347 197.903 143.674C198.004 144.001 198.169 144.305 198.388 144.568C198.607 144.831 198.876 145.048 199.179 145.207C199.483 145.366 199.814 145.463 200.155 145.494C200.236 145.503 200.316 145.507 200.397 145.505C201.047 145.504 201.674 145.26 202.154 144.823C202.635 144.385 202.935 143.784 202.997 143.137C203.051 142.487 203.097 141.815 203.118 141.154C203.137 140.463 202.88 139.793 202.406 139.292C201.931 138.79 201.276 138.497 200.585 138.478Z" fill="#00B2CC"/>
<path d="M199.427 148.588C199.108 148.462 198.767 148.401 198.424 148.407C198.082 148.413 197.743 148.487 197.429 148.624C197.115 148.761 196.831 148.959 196.594 149.206C196.356 149.453 196.169 149.744 196.045 150.064C195.845 150.582 195.627 151.089 195.395 151.595C195.104 152.222 195.075 152.938 195.312 153.586C195.55 154.235 196.035 154.763 196.662 155.054C197.003 155.213 197.376 155.296 197.753 155.296C198.25 155.295 198.737 155.153 199.156 154.886C199.575 154.618 199.91 154.237 200.121 153.787C200.396 153.192 200.661 152.575 200.903 151.969C201.029 151.65 201.091 151.309 201.085 150.966C201.079 150.624 201.005 150.285 200.868 149.971C200.731 149.657 200.533 149.373 200.286 149.135C200.038 148.898 199.746 148.712 199.427 148.588Z" fill="#00B2CC"/>
<path d="M190.535 117.757C190.739 117.482 190.888 117.17 190.971 116.838C191.054 116.506 191.071 116.161 191.021 115.822C190.971 115.483 190.855 115.158 190.679 114.864C190.503 114.571 190.271 114.315 189.996 114.111C189.467 113.726 188.915 113.34 188.376 112.987C187.796 112.613 187.092 112.484 186.417 112.628C185.743 112.771 185.152 113.176 184.775 113.754C184.398 114.332 184.265 115.036 184.405 115.711C184.545 116.387 184.947 116.98 185.522 117.36C185.985 117.66 186.447 117.977 186.888 118.308C187.339 118.638 187.883 118.816 188.441 118.815C188.849 118.816 189.251 118.721 189.615 118.537C189.979 118.353 190.294 118.086 190.535 117.757Z" fill="#00B2CC"/>
</g>
<defs>
<linearGradient id="paint0_linear_260_1049" x1="-83.7219" y1="308.414" x2="-83.6018" y2="308.414" gradientUnits="userSpaceOnUse">
<stop stop-color="#E2E8FA"/>
<stop offset="1" stop-color="#B9D3FA"/>
</linearGradient>
<linearGradient id="paint1_linear_260_1049" x1="-83.6495" y1="308.364" x2="-83.5397" y2="308.364" gradientUnits="userSpaceOnUse">
<stop stop-color="#D0DBF6"/>
<stop offset="1" stop-color="#A6C2EB"/>
</linearGradient>
<linearGradient id="paint2_linear_260_1049" x1="125.39" y1="90.5547" x2="125.39" y2="246.99" gradientUnits="userSpaceOnUse">
<stop stop-color="#259FFC"/>
<stop offset="1" stop-color="#143486"/>
</linearGradient>
<clipPath id="clip0_260_1049">
<rect width="305.129" height="305.129" fill="white" transform="translate(0.5 0.5)"/>
</clipPath>
</defs>
</svg>
