<svg width="801" height="801" viewBox="0 0 801 801" fill="none" xmlns="http://www.w3.org/2000/svg">
<path d="M305.606 180.777C347.827 105.035 368.937 67.1641 400.5 67.1641C432.064 67.1641 453.174 105.035 495.394 180.776L506.317 200.372C518.317 221.895 524.314 232.657 533.67 239.758C543.024 246.858 554.67 249.494 577.97 254.766L599.184 259.565C681.17 278.116 722.167 287.391 731.92 318.755C741.674 350.117 713.727 382.801 657.83 448.161L643.37 465.071C627.487 483.644 619.544 492.931 615.97 504.421C612.4 515.911 613.6 528.301 616 553.084L618.187 575.644C626.637 662.851 630.864 706.454 605.33 725.837C579.794 745.221 541.41 727.547 464.644 692.204L444.784 683.057C422.97 673.014 412.064 667.991 400.5 667.991C388.937 667.991 378.03 673.014 356.217 683.057L336.357 692.204C259.59 727.547 221.206 745.221 195.672 725.837C170.138 706.454 174.363 662.851 182.814 575.644L185 553.084C187.401 528.301 188.602 515.911 185.029 504.421C181.456 492.931 173.515 483.644 157.631 465.071L143.17 448.161C87.2754 382.801 59.3277 350.117 69.0811 318.755C78.8344 287.391 119.829 278.116 201.818 259.565L223.03 254.766C246.329 249.494 257.978 246.858 267.332 239.758C276.685 232.657 282.685 221.895 294.683 200.372L305.606 180.777Z" fill="#00B2CC"/>
</svg>
