<svg width="19" height="20" viewBox="0 0 19 20" fill="none" xmlns="http://www.w3.org/2000/svg">
<g clip-path="url(#clip0_260_1088)">
<path d="M18.2823 1.17936C18.1811 1.07862 18.0532 1.00887 17.9137 0.978308C17.7742 0.94775 17.6289 0.957657 17.4948 1.00686L0.994757 7.00687C0.852458 7.06084 0.729947 7.15683 0.643495 7.28208C0.557043 7.40734 0.510742 7.55593 0.510742 7.70812C0.510742 7.86031 0.557043 8.0089 0.643495 8.13415C0.729947 8.2594 0.852458 8.35539 0.994757 8.40937L7.43726 10.9819L12.1923 6.21187L13.2498 7.26937L8.47226 12.0469L11.0523 18.4894C11.1079 18.6289 11.2041 18.7486 11.3284 18.8328C11.4528 18.9171 11.5996 18.962 11.7498 18.9619C11.9014 18.9588 12.0484 18.9098 12.1716 18.8215C12.2948 18.7331 12.3883 18.6095 12.4398 18.4669L18.4398 1.96687C18.4909 1.83417 18.5032 1.68969 18.4753 1.55026C18.4475 1.41083 18.3805 1.2822 18.2823 1.17936Z" fill="#C09551"/>
</g>
<defs>
<clipPath id="clip0_260_1088">
<rect width="18" height="19" fill="white" transform="translate(0.5 0.5)"/>
</clipPath>
</defs>
</svg>
