<svg width="26" height="25" viewBox="0 0 26 25" fill="none" xmlns="http://www.w3.org/2000/svg">
<g clip-path="url(#clip0_260_1095)">
<mask id="mask0_260_1095" style="mask-type:luminance" maskUnits="userSpaceOnUse" x="0" y="0" width="26" height="25">
<path d="M25.5 0.5H0.5V24.5H25.5V0.5Z" fill="white"/>
</mask>
<g mask="url(#mask0_260_1095)">
<path d="M20.9435 16.6267L17.4345 12.5271C17.0432 12.0697 17.0986 11.3846 17.5584 10.9967L21.323 7.81679C21.7824 7.42845 22.3519 7.15761 22.5944 7.21244C22.8368 7.26629 23.3726 6.96024 23.7913 6.52831L24.6356 5.65708C25.0543 5.22516 25.1161 4.53212 24.7732 4.111C24.4304 3.68889 23.7428 3.612 23.2379 3.93857L22.2232 4.59479C21.7178 4.92145 21.3078 5.37049 21.3078 5.59829C21.3078 5.826 20.9356 6.32509 20.4762 6.71389L16.6587 9.94661C16.1993 10.335 15.5097 10.2801 15.1184 9.82271L13.9822 8.49552C13.5909 8.03811 13.5252 7.31527 13.8029 6.8593C14.0802 6.40334 14.5517 5.5801 14.5532 4.97827C14.5547 4.25543 14.2168 3.2142 12.7799 2.04133C11.2115 0.759701 9.81135 0.525146 8.90528 0.55747C8.3039 0.57854 8.14714 1.12608 8.53017 1.59032L10.4451 3.91066C10.828 4.37491 10.8158 5.11738 10.4176 5.56893L10.376 5.61648C9.97829 6.06749 9.23978 6.68805 8.72655 7.00292L8.70692 7.01471C8.19369 7.32913 7.45464 7.21793 7.05648 6.76692L5.06532 4.51159C4.66717 4.06058 4.10198 4.1291 3.98691 4.71976C3.84636 5.43775 3.82727 6.50094 4.36013 7.8041C4.58784 8.36091 5.07811 9.21107 5.45718 9.67829C6.18984 10.5814 6.90782 10.9046 7.46607 10.9923C8.06016 11.0858 8.91176 10.7602 9.36277 10.578C9.81432 10.3958 10.4759 10.604 10.854 11.0726L11.9858 12.4757C12.3635 12.9439 12.4403 13.5184 12.1573 13.7578C11.8742 13.9978 11.333 13.8166 10.9486 13.3538L10.8966 13.2911C10.5127 12.8283 10.0788 12.4527 9.92841 12.4527C9.77804 12.4527 9.66783 12.9404 9.6826 13.5423L9.69043 13.8803C9.70511 14.4822 9.2423 14.8812 8.65758 14.7726C8.07231 14.6639 7.22116 14.8852 6.75646 15.2671L1.84188 19.3006C1.37709 19.6826 1 20.3242 1 20.7336C1 21.1435 1.30461 21.856 1.68071 22.3262L2.61902 23.4992C2.99512 23.9693 3.62495 24.391 4.02599 24.4409C4.42712 24.4919 5.12691 24.22 5.58972 23.8351L10.513 19.7356C10.9753 19.3507 11.3696 18.5514 11.3931 17.95L11.3985 17.8129C11.422 17.2109 11.9171 16.83 12.5048 16.9607L12.5568 16.9715C13.1445 17.1023 13.6205 17.0661 13.6205 16.8908C13.6205 16.7154 13.3752 16.2766 13.0715 15.9113C12.7684 15.5465 12.7493 15.0592 13.0284 14.8231C13.3075 14.587 13.8404 14.7751 14.2185 15.2433L17.4977 19.3096C17.8754 19.7778 18.1437 20.3209 18.1206 20.5261C18.107 20.649 18.0996 20.7735 18.0996 20.8998C18.0996 22.8059 19.6442 24.35 21.5497 24.35C23.4553 24.35 24.9999 22.8059 24.9999 20.8998C24.9999 19.4047 24.0484 18.1343 22.7177 17.6563C22.1522 17.4523 21.3348 17.0841 20.9435 16.6267ZM21.5498 22.7611C20.5218 22.7611 19.6889 21.9276 19.6889 20.8996C19.6889 19.8716 20.5219 19.0381 21.5498 19.0381C22.5783 19.0381 23.4113 19.8716 23.4113 20.8996C23.4112 21.9276 22.5783 22.7611 21.5498 22.7611Z" fill="#212121"/>
</g>
</g>
<defs>
<clipPath id="clip0_260_1095">
<rect width="25" height="24" fill="white" transform="translate(0.5 0.5)"/>
</clipPath>
</defs>
</svg>
