<svg xmlns="http://www.w3.org/2000/svg" xmlns:xlink="http://www.w3.org/1999/xlink" width="329.699" height="213.7" viewBox="0 0 329.699 213.7">
  <defs>
    <clipPath id="clip-path">
      <rect id="Rectangle_18174" data-name="Rectangle 18174" width="329.7" height="213.7" fill="none"/>
    </clipPath>
    <linearGradient id="linear-gradient" y1="0.502" x2="1" y2="0.502" gradientUnits="objectBoundingBox">
      <stop offset="0" stop-color="#0099a5"/>
      <stop offset="1" stop-color="#00b2cc"/>
    </linearGradient>
    <linearGradient id="linear-gradient-2" x1="0.378" y1="-30.938" x2="1.373" y2="-30.938" gradientUnits="objectBoundingBox">
      <stop offset="0" stop-color="#2b0246"/>
      <stop offset="1" stop-color="#6a4586"/>
    </linearGradient>
    <linearGradient id="linear-gradient-3" x1="-0.288" y1="-30.938" x2="0.702" y2="-30.938" xlink:href="#linear-gradient-2"/>
    <linearGradient id="linear-gradient-4" x1="0.635" y1="0.37" x2="-1.788" y2="-0.856" xlink:href="#linear-gradient-2"/>
    <linearGradient id="linear-gradient-5" x1="0.436" y1="-0.438" x2="0.507" y2="0.173" xlink:href="#linear-gradient-2"/>
    <linearGradient id="linear-gradient-6" x1="0.438" y1="0.096" x2="0.545" y2="1.189" xlink:href="#linear-gradient-2"/>
    <linearGradient id="linear-gradient-7" x1="0.832" y1="0.705" x2="0.435" y2="-0.054" gradientUnits="objectBoundingBox">
      <stop offset="0" stop-color="aqua" stop-opacity="0.102"/>
      <stop offset="1" stop-color="#0079ff" stop-opacity="0"/>
    </linearGradient>
    <linearGradient id="linear-gradient-8" x1="0.066" y1="4.738" x2="1.049" y2="4.33" gradientUnits="objectBoundingBox">
      <stop offset="0" stop-color="#f46595"/>
      <stop offset="1" stop-color="#f89597"/>
    </linearGradient>
  </defs>
  <g id="somethingWentWrong" clip-path="url(#clip-path)">
    <g id="Group_5626" data-name="Group 5626">
      <path id="Path_29284" data-name="Path 29284" d="M329.7,79.1c-3.1-2.5-7.5-1.8-11.4-2.2a19.914,19.914,0,0,1-7.6-2.4c-2.9-1.6-5.8-4.1-9.1-3.4-1.7.4-3,1.5-4.6,2.2-3.2,1.4-6.9.5-10.1-.8-2.8-1.2-5.8-2.8-8.8-2.1a12.373,12.373,0,0,0-3.3,1.5,94.539,94.539,0,0,1-16.9,7.5l71.7-.3Z" fill="#eefeff"/>
      <path id="Path_29285" data-name="Path 29285" d="M177.1,31c-4.8-3.9-11.8-2.8-17.9-3.4a30.143,30.143,0,0,1-12-3.8c-4.5-2.6-9.2-6.5-14.3-5.4-2.6.6-4.8,2.4-7.3,3.4-5,2.1-10.9.9-15.9-1.3-4.4-1.9-9.1-4.4-13.8-3.3a17.51,17.51,0,0,0-5.2,2.4A146.672,146.672,0,0,1,64.1,31.4L177,31Z" fill="#eefeff"/>
      <path id="Path_29286" data-name="Path 29286" d="M112.9,89.8c-4.8-3.9-11.8-2.8-17.9-3.4a30.143,30.143,0,0,1-12-3.8c-4.5-2.6-9.2-6.5-14.3-5.4-2.6.6-4.8,2.4-7.3,3.4-5,2.1-10.9.9-15.9-1.3-4.4-1.9-9.1-4.4-13.8-3.3a17.51,17.51,0,0,0-5.2,2.4A146.672,146.672,0,0,1-.1,90.2l112.9-.4Z" fill="#eefeff"/>
      <path id="Path_29287" data-name="Path 29287" d="M120.8,209.9s-28.1-42-18.7-57.7,25.5,28.6,29.4,52.4l-10.7,5.3Z" fill="#00b2cc"/>
      <path id="Path_29288" data-name="Path 29288" d="M129.1,206.5s-13.2-34.8-4-44.9,13.5,24.6,12.5,42.6l-8.5,2.3Z" fill="#00b2cc"/>
      <path id="Path_29289" data-name="Path 29289" d="M198.6,213.1s18.9-28.2,12.6-38.7-17.1,19.2-19.8,35.2l7.2,3.6Z" fill="#00b2cc"/>
      <path id="Path_29290" data-name="Path 29290" d="M193,210.8s8.9-23.4,2.7-30.2-9.1,16.5-8.4,28.6l5.7,1.6Z" fill="#00b2cc"/>
      <path id="Path_29291" data-name="Path 29291" d="M302.7,213.6c-11.7-3.5-19.1-8.6-27.7-12.9-7.6-3.9-14.5-9.2-22.4-12.4s-17.6-3.9-24.4,1.3c-5.4,4.1-8.1,11.2-13.8,14.8-9.9,6.2-22.7-.7-31.7-8-9.1-7.4-20-15.9-31.2-12.5-4.2,1.3-7.8,4.1-11.5,6.5-9.3,5.9-21,8.9-31.3,5.3-13.9-4.7-24.1-20.3-38.8-19.2-9.2.7-16.4,8-22.7,14.8-6.4,7-12.8,15.3-19.2,22.3H302.7Z" fill="url(#linear-gradient)"/>
      <path id="Path_29292" data-name="Path 29292" d="M88.5,156.4c-.9.4-1.1-.9-1.1-.9-.9,0-.3-3.5-.2-3.7a2.025,2.025,0,0,1-1.5,1.1l1.1-4.6a9,9,0,0,1,1.4-4.7l-.5-3.5-2.1-23.6c-.5-3,5.5-4.6,5.5-4,0,5.5.9,38,.9,38l-2.4,5.1c-.5,1-1.2.8-1.2.8Z" fill="#fdbfba"/>
      <path id="Path_29293" data-name="Path 29293" d="M88.4,136.5l-.5,27.8a11.3,11.3,0,0,1,0,2.6l-7,40.7H71.7l5.4-41.2L72,136.5H88.4Z" fill="#0099a5"/>
      <path id="Path_29294" data-name="Path 29294" d="M71,213.4H89s1.6-2.3-4.8-4.5a2.117,2.117,0,0,1-.7-.3l-2.6-1.4-9.7-.3-.3,6.5Z" fill="url(#linear-gradient-2)"/>
      <path id="Path_29295" data-name="Path 29295" d="M65.4,213.4h18s1.6-2.3-4.8-4.5a2.117,2.117,0,0,1-.7-.3l-3.2-1.7H65.5l-.3,6.5Z" fill="url(#linear-gradient-3)"/>
      <path id="Path_29296" data-name="Path 29296" d="M65.5,139.5l4,28.3-4,39.3h9.4L81.8,167v-1L81,139.6H65.4Z" fill="#00b2cc"/>
      <path id="Path_29297" data-name="Path 29297" d="M74.3,86.4,75.1,98l6.8.3V91.7h0C88,90.8,85.8,76,85.8,76c-6.6-2.9-11.3.2-12.8,4.5-1.6,4.3,1.2,5.9,1.2,5.9Z" fill="#fdbfba"/>
      <path id="Path_29298" data-name="Path 29298" d="M89.3,101.4l3,14.6H87.1l2.1-14.6Z" fill="url(#linear-gradient-4)"/>
      <path id="Path_29299" data-name="Path 29299" d="M61.6,105.5c.2.5.4,1.1.6,1.7,2.7,8.2,3.4,35.1,3.4,35.1l22.8.3.9-41.2c.3.2-7-4.6-7-4.6-4.4,2.8-7.5-1.7-7.5-1.7A92.17,92.17,0,0,0,64,98.6h-.2a4.346,4.346,0,0,0-2.5,3.6,13.964,13.964,0,0,0,.4,3.2Z" fill="url(#linear-gradient-5)"/>
      <path id="Path_29300" data-name="Path 29300" d="M61.6,105.5c.2.5.4,1.1.6,1.7.8,1.9,1.7,4,3,6.6,1.3,2.5,7.3-2.9,7.3-2.9L69.1,101A3.7,3.7,0,0,0,64,98.7h-.2a4.346,4.346,0,0,0-2.5,3.6,13.964,13.964,0,0,0,.4,3.2Z" fill="url(#linear-gradient-6)"/>
      <path id="Path_29301" data-name="Path 29301" d="M65.5,114.4l1.9,2.8,5.8,8.5a3.35,3.35,0,0,0,6-1.2l1.6-7.7,1-5.9.2-1.4,1.1-6.5a11.671,11.671,0,0,0,2.2-2.9s.6-3.5.3-4.2c-.3-.6-1,0-1,0s-.2-2.9-.2-3.5c0-1.3-.1-1.3-.4-1.3-.9,0-1.3,1.3-1.3,3.5l-.6,2.6-1.7,1.7V96.6c.1,0-1.5-.3-1.5,2.2l.6,2.6-2.7,9.5L75,117l-2.4-6.1h-.2l-7,3.5Z" fill="#fdbfba"/>
      <path id="Path_29302" data-name="Path 29302" d="M76.5,82.7s2-3.3.9-4.9c0,0,5.9,4.4,8.7.1,2.9-4.4-3.2-8.4-10.4-4.1,0,0-2.1-.7-3.9,2a16.115,16.115,0,0,0,2.9,12.3V86s-2.2-3.9.6-4.3a1.586,1.586,0,0,1,1.3,1Z" fill="#473765"/>
      <path id="Path_29303" data-name="Path 29303" d="M76.1,89.2c1.6,4.4,4.5,5.8,5.8,6.2V91.8h0A13.171,13.171,0,0,1,76,89.3Z" opacity="0.1"/>
      <path id="Path_29304" data-name="Path 29304" d="M65.5,114.4l1.9,2.8,5-6.2-7,3.4Z" opacity="0.1"/>
      <path id="Path_29305" data-name="Path 29305" d="M116.2,138.8,175.5,65l36.7,10.6-13,100.8-83-37.6Z" fill="url(#linear-gradient-7)"/>
      <path id="Path_29306" data-name="Path 29306" d="M222.6,62.6a24.488,24.488,0,1,0-47.3-12.7l23.6,6.3,23.6,6.3Z" fill="url(#linear-gradient-8)"/>
      <ellipse id="Ellipse_444" data-name="Ellipse 444" cx="10.2" cy="60.2" rx="10.2" ry="60.2" transform="matrix(0.259, -0.966, 0.966, 0.259, 135.638, 59.819)" fill="#8ff"/>
      <ellipse id="Ellipse_445" data-name="Ellipse 445" cx="5.1" cy="45.6" rx="5.1" ry="45.6" transform="matrix(0.259, -0.966, 0.966, 0.259, 149.724, 63.744)" fill="#00b2cc"/>
      <ellipse id="Ellipse_446" data-name="Ellipse 446" cx="2.5" cy="24.5" rx="2.5" ry="24.5" transform="matrix(0.259, -0.966, 0.966, 0.259, 170.141, 69.094)" fill="#8ff"/>
    </g>
  </g>
</svg>
