<svg width="24" height="15" viewBox="0 0 24 15" fill="none" xmlns="http://www.w3.org/2000/svg">
<g clip-path="url(#clip0_260_1132)">
<path d="M12.0039 10.2795L20.7039 1.01355C20.8509 0.851803 21.0301 0.722563 21.2299 0.634124C21.4298 0.545685 21.6459 0.5 21.8644 0.5C22.083 0.5 22.2991 0.545685 22.499 0.634124C22.6988 0.722563 22.878 0.851803 23.0249 1.01355C23.3324 1.35318 23.5026 1.79494 23.5026 2.25305C23.5026 2.71116 23.3324 3.15292 23.0249 3.49255L13.1709 13.9926C13.0279 14.1488 12.8546 14.2745 12.6617 14.362C12.4688 14.4496 12.2601 14.4971 12.0483 14.5019C11.8365 14.5067 11.6259 14.4685 11.4293 14.3898C11.2326 14.311 11.0539 14.1932 10.9039 14.0436L0.978939 3.49955C0.670457 3.16044 0.499512 2.71848 0.499512 2.26005C0.499512 1.80162 0.670457 1.35966 0.978939 1.02055C1.12591 0.858803 1.30506 0.729563 1.50491 0.641124C1.70476 0.552685 1.92089 0.507 2.13944 0.507C2.35798 0.507 2.57412 0.552685 2.77397 0.641124C2.97382 0.729563 3.15297 0.858803 3.29994 1.02055L12.0039 10.2795Z" fill="#838383"/>
</g>
<defs>
<clipPath id="clip0_260_1132">
<rect width="23" height="14" fill="white" transform="translate(0.5 0.5)"/>
</clipPath>
</defs>
</svg>
