<svg id="loginlogo" xmlns="http://www.w3.org/2000/svg" width="119" height="119.002" viewBox="0 0 119 119.002">
  <g id="Workings_Pro">
    <g id="Group_5628" data-name="Group 5628">
      <path id="Path_29308" data-name="Path 29308" d="M134,74.5A59.5,59.5,0,1,1,18.666,53.893a2.009,2.009,0,0,0,1.395-3.44A59.509,59.509,0,0,1,134,74.5Z" transform="translate(-15 -15)" fill="#00b2cc"/>
      <g id="Group_5627" data-name="Group 5627" transform="translate(8.571 35.099)">
        <path id="Path_29309" data-name="Path 29309" d="M63.73,209.289a1.762,1.762,0,0,1-2.111,1.258,1.843,1.843,0,0,1,.1-3.643C63.28,206.648,63.953,207.873,63.73,209.289Z" transform="translate(-60.101 -205.508)" fill="#fefefe"/>
        <path id="Path_29310" data-name="Path 29310" d="M70.623,241.508a2.867,2.867,0,1,1-2.866-2.868,2.867,2.867,0,0,1,2.866,2.868Z" transform="translate(-63.98 -231.24)" fill="#fefefe"/>
        <path id="Path_29311" data-name="Path 29311" d="M94.853,203.717a4.016,4.016,0,1,1-4.017-4.017A4.016,4.016,0,0,1,94.853,203.717Z" transform="translate(-81.742 -199.7)" fill="#fefefe"/>
        <circle id="Ellipse_447" data-name="Ellipse 447" cx="2.67" cy="2.67" r="2.67" transform="translate(13.22 11.085) rotate(-76.72)" fill="#fefefe"/>
        <path id="Path_29312" data-name="Path 29312" d="M182.5,220.676c-3.453,6.231-7.263,12.318-10.855,18.473-2.292,3.93-5.19,10.771-9.673,12.447-4.781,1.788-8.58-1.26-11.161-4.992L141.9,231.282a19.09,19.09,0,0,0-1.4,2.2c-2.826,4.692-5.469,9.739-8.422,14.317a7.516,7.516,0,0,1-4.4,3.677c-8.143,2.491-11.417-4.6-14.686-10.418-2.343-4.173-4.648-8.3-7.085-12.428-.9-1.52-1.674-3.671-3.092-4.734-1.511-1.133-2.934-.981-3.692-3.143-1.262-3.6,1.906-6.606,5.471-5.845,3.261.7,2.588,3.881,2.841,6.355.515,5,7.725,4.036,7.322-.735-.236-2.786-4.257-3.3-2.8-7.14a3.876,3.876,0,0,1,7.045-.211c.69,1.587.637,3.2,1.526,4.935,2.328,4.544,5.089,9.416,7.624,13.874a25.6,25.6,0,0,0,2.63,4.143c-.488-4.409-2.754-8.536-3.643-12.822-.454-2.187-.207-2.622.859-4.443.722-1.233,1.585-2.408,2.309-3.654,2.991-5.15,5.216-11.49,12.466-10.893,6.252.513,9.7,9.411,12.345,14.123,2.93,5.213,6.035,10.822,9.291,15.813a5.588,5.588,0,0,0,1.045,1.378c-.728-2.773-1.461-5.566-2.328-8.3-.57-1.8-1.777-3.879-1.646-5.806.112-1.648,2.079-4.711,2.959-6.237,3.354-5.815,7.138-13.774,15.391-10.254,7.288,3.109,5.779,10.03,2.672,15.64Z" transform="translate(-91.473 -203.32)" fill="#fefefe"/>
      </g>
    </g>
    <g id="Group_5629" data-name="Group 5629" transform="translate(69.407 70.321)">
      <path id="Path_29313" data-name="Path 29313" d="M383.328,387.308c.074.068.222-.181.27-.232a5.043,5.043,0,0,1,4.72-1.853c4.753.659,5.8,6.672,3.976,10.363a5.165,5.165,0,0,1-8.489,1.268c-.118-.125-.274-.365-.388-.464a.082.082,0,0,0-.089-.027v5.148c-.029.886-.363,1.845-1.38,1.921-1.2.091-1.627-.543-1.718-1.665V386.753c.084-.808.43-1.545,1.328-1.613,1.374-.1,1.841.963,1.769,2.168Zm2.987.293c-4.124.42-3.683,9.315.962,8.339C391.009,395.153,390.7,387.156,386.315,387.6Z" transform="translate(-380.23 -385.115)"/>
      <path id="Path_29314" data-name="Path 29314" d="M506.754,385.05l.485-.009c3.761.1,6.176,2.716,6.336,6.412.15,3.483-1.8,6.372-5.334,6.923-3.9.606-7.191-1.5-7.723-5.483-.57-4.247,1.832-7.677,6.237-7.845Zm-.051,2.45c-3.137.247-3.575,4.779-2.349,6.974a3,3,0,0,0,5.336-.068c1.3-2.434.583-7.187-2.987-6.906Z" transform="translate(-477.591 -385.04)"/>
      <path id="Path_29315" data-name="Path 29315" d="M460.147,387.142c.047.011.051-.013.072-.044.12-.154.226-.369.344-.532a3.067,3.067,0,0,1,1.716-1.355,4.31,4.31,0,0,1,3.2.72,1.361,1.361,0,0,1-1.127,2.417,6.166,6.166,0,0,0-2.02-.353c-1.579.122-1.876,2.182-2,3.419a47.1,47.1,0,0,0-.1,4.722,2.9,2.9,0,0,1-.334,1.754,1.606,1.606,0,0,1-2.5.127c-.62-.772-.429-2.387-.412-3.3,0-.181-.122-5.349-.029-7.51.049-1.165.475-2.153,1.821-2.049,1.079.084,1.281,1.091,1.382,1.986Z" transform="translate(-442.337 -385.129)"/>
    </g>
  </g>
</svg>
