<svg xmlns="http://www.w3.org/2000/svg" width="191.859" height="202.06" viewBox="0 0 191.859 202.06">
  <g id="splashLogo" transform="translate(4.236 8.326)">
    <g id="Layer_1" data-name="Layer 1" transform="translate(-4.236 -8.326)">
      <g id="popPROVIDER" transform="translate(0 0)">
        <g id="Group_5636" data-name="Group 5636" transform="translate(0 10.2)">
          <path id="Path_29399" data-name="Path 29399" d="M104.644,50.68A92.831,92.831,0,1,1,11.81,143.511,92.83,92.83,0,0,1,104.644,50.68Z" transform="translate(-8.711 -47.581)" fill="#00a0e3" fill-rule="evenodd"/>
          <path id="Path_29400" data-name="Path 29400" d="M95.933,230.73a95.638,95.638,0,1,1,37.339-7.539,95.349,95.349,0,0,1-37.339,7.539Zm0-185.662A89.732,89.732,0,1,0,185.664,134.8,89.835,89.835,0,0,0,95.933,45.068Z" transform="translate(0 -38.87)" fill="#fefefe"/>
        </g>
        <path id="Path_29401" data-name="Path 29401" d="M258.617,247.619a14.855,14.855,0,0,1-14.839,14.837H207.153a14.852,14.852,0,0,1-14.837-14.837v-9.355a14.855,14.855,0,0,1,14.837-14.839h36.625a14.857,14.857,0,0,1,14.839,14.839v9.355ZM247.512,209.79H203.422A27.553,27.553,0,0,0,175.9,237.309v11.263a27.552,27.552,0,0,0,27.519,27.519h44.093a27.551,27.551,0,0,0,27.519-27.519V237.309A27.55,27.55,0,0,0,247.512,209.79Z" transform="translate(-129.742 -154.739)" fill="#fefefe" fill-rule="evenodd"/>
        <path id="Path_29402" data-name="Path 29402" d="M586.456,306.85A9.04,9.04,0,0,1,584,321.377c.058-.829.055-15.448,0-16.277A9.084,9.084,0,0,1,586.456,306.85Z" transform="translate(-430.751 -225.038)" fill="#fefefe" fill-rule="evenodd"/>
        <path id="Path_29403" data-name="Path 29403" d="M320.911,133.03a16.144,16.144,0,0,1,15.608,12.095H305.3A16.149,16.149,0,0,1,320.911,133.03Z" transform="translate(-225.186 -98.121)" fill="#fefefe" fill-rule="evenodd"/>
        <path id="Path_29404" data-name="Path 29404" d="M126.13,313.24a9.061,9.061,0,0,1,5.1-8.14c-.058.829-.058,15.448,0,16.275A9.047,9.047,0,0,1,126.13,313.24Z" transform="translate(-93.032 -225.038)" fill="#fefefe" fill-rule="evenodd"/>
        <path id="Path_29405" data-name="Path 29405" d="M143.213,570.4a5.174,5.174,0,1,1-7.316-7.319l17.747-17.747v14.637L143.213,570.4Z" transform="translate(-99.117 -402.229)" fill="#fefefe" fill-rule="evenodd"/>
        <path id="Path_29406" data-name="Path 29406" d="M294.752,551.578l-.031-16.443a17.883,17.883,0,0,0-17.865-17.862H265.6a17.883,17.883,0,0,0-17.865,17.862l-.181,16.01c-6.122-1.771-4.343-.52-9.609-2.818l.136-61.987a35.408,35.408,0,0,0,11.1,1.779h44.093a35.428,35.428,0,0,0,11.105-1.779l-.039,61.942c-6.064,2.149-1.74.882-9.586,3.3Z" transform="translate(-175.502 -358.719)" fill="#fefefe" fill-rule="evenodd"/>
        <path id="Path_29407" data-name="Path 29407" d="M539.53,570.388a5.172,5.172,0,0,1-7.319,0L521.78,559.96V545.32l17.75,17.75a5.173,5.173,0,0,1,0,7.319h0Z" transform="translate(-384.859 -402.221)" fill="#fefefe" fill-rule="evenodd"/>
        <path id="Path_29408" data-name="Path 29408" d="M364.783,133.03h0v12.095h15.613A16.149,16.149,0,0,0,364.783,133.03Z" transform="translate(-269.057 -98.121)" fill="#ebecec" fill-rule="evenodd"/>
        <path id="Path_29409" data-name="Path 29409" d="M370.411,517.273a17.883,17.883,0,0,1,17.865,17.862l.005,16.28c7.458-14.039,9.654-7.607,9.651-15.947V486.34a35.422,35.422,0,0,1-11.105,1.779H364.78v29.154h5.631Z" transform="translate(-269.057 -358.718)" fill="#ebecec" fill-rule="evenodd"/>
        <path id="Path_29410" data-name="Path 29410" d="M386.828,209.79H364.78v13.635h18.314a14.857,14.857,0,0,1,14.839,14.839v9.355a14.855,14.855,0,0,1-14.839,14.837H364.78v13.635h22.048a27.551,27.551,0,0,0,27.519-27.519V237.309a27.55,27.55,0,0,0-27.519-27.519Z" transform="translate(-269.057 -154.739)" fill="#fefefe" fill-rule="evenodd"/>
        <g id="Group_5637" data-name="Group 5637" transform="translate(24.688)">
          <path id="Path_29411" data-name="Path 29411" d="M224.869,168.368a5.173,5.173,0,0,1-7.319,0l-10.431-10.431V143.3l17.75,17.75a5.173,5.173,0,0,1,0,7.319Zm-36.9-46.814H143.875a27.553,27.553,0,0,1-27.519-27.522V82.772A27.553,27.553,0,0,1,143.875,55.25h44.093a27.553,27.553,0,0,1,27.519,27.522v11.26a27.553,27.553,0,0,1-27.519,27.522Zm11.124,68.881c-3.382,1.228-2.6.926-9.612,2.992l-.063-16.807a17.885,17.885,0,0,0-17.865-17.865H160.289c-9.848,0-17.847,8.447-17.847,18.3L142.3,193.3a69.123,69.123,0,0,1-9.61-3.194l.076-62.281a35.434,35.434,0,0,0,11.105,1.777h44.093a35.434,35.434,0,0,0,11.105-1.777l.018,62.612Zm-17.482,4.844c-2.695.425-3.48,1.089-10.6,1.383l-9.166.163c-3.582-.16-7.707-1.207-11.37-1.645v-18.56a9.83,9.83,0,0,1,9.817-9.819h11.263a9.774,9.774,0,0,1,9.812,9.759l.247,18.72ZM165.923,35.11A16.143,16.143,0,0,1,181.531,47.2H150.309A16.149,16.149,0,0,1,165.923,35.11Zm0-25.884a3.834,3.834,0,1,1-3.836,3.834A3.838,3.838,0,0,1,165.923,9.226Zm-41.2,148.712-10.431,10.431a5.175,5.175,0,1,1-7.319-7.319l17.75-17.75v14.637h0ZM108.4,96.538a9.041,9.041,0,0,1,0-16.275c-.058.827-.058,15.446,0,16.275ZM225.9,82.011a9.037,9.037,0,0,1-2.456,14.527c.058-.829.058-15.446,0-16.277A9.04,9.04,0,0,1,225.9,82.011Zm-18.781,49.908v-7.927a35.723,35.723,0,0,0,14.569-18.65,17.08,17.08,0,0,0,0-33.883,35.641,35.641,0,0,0-31.933-24.21A24.226,24.226,0,0,0,169.946,27.4V24.238a11.881,11.881,0,1,0-8.048,0V27.4a24.226,24.226,0,0,0-19.809,19.846,35.638,35.638,0,0,0-31.933,24.21,17.081,17.081,0,0,0,0,33.883,35.751,35.751,0,0,0,14.572,18.65v7.927l-23.439,23.439a13.222,13.222,0,1,0,18.7,18.7l4.742-4.739-.063,16.317c7.3,5.508,22.793,10.426,38.847,11.076l10.4-.436c12.087-1.118,21.232-3.613,27.372-6.825,4.7-2.461,3.766-1.984,6.022-3.692l-.186-16.44,4.742,4.739a13.222,13.222,0,1,0,18.7-18.7Z" transform="translate(-94.943 -0.87)" fill="#a2d9f7" fill-rule="evenodd"/>
          <path id="Path_29412" data-name="Path 29412" d="M160.985,196.263a45.046,45.046,0,0,1-5.516-.69,88.616,88.616,0,0,1-23.864-6.1l-.084-.037a39.047,39.047,0,0,1-7.909-4.432l-.123-.094.06-15.721L119.34,173.4a13.53,13.53,0,1,1-19.132-19.135l23.347-23.347v-7.631a36.126,36.126,0,0,1-14.493-18.537,17.392,17.392,0,0,1-9.89-29.519,17.183,17.183,0,0,1,9.89-4.925,35.951,35.951,0,0,1,31.9-24.226,24.464,24.464,0,0,1,19.762-19.809v-2.69a12.235,12.235,0,0,1-7.857-11.394A12.2,12.2,0,0,1,165.052,0h.005a12.19,12.19,0,0,1,4.335,23.583v2.69a24.467,24.467,0,0,1,19.762,19.809,35.959,35.959,0,0,1,31.9,24.226A17.388,17.388,0,0,1,236.04,87.535a17.423,17.423,0,0,1-14.984,17.219,36.115,36.115,0,0,1-14.49,18.537v7.631l23.347,23.347A13.531,13.531,0,1,1,210.777,173.4l-4.2-4.2.178,15.837-.123.094c-.391.294-.685.525-.929.716-1.178.921-1.225.958-5.138,3-5.267,2.755-12.433,4.826-20.967,6.083-.241.052-.478.1-.719.16a41.777,41.777,0,0,1-8.72,1.005l-9.174.163Zm-5.379-1.294c2.351.276,4.713.467,7.054.562l10.376-.436q3.334-.307,6.44-.766c.3-.066.617-.126.958-.186l-.244-18.453a9.488,9.488,0,0,0-9.5-9.455H159.423a9.519,9.519,0,0,0-9.507,9.51v18.288c1.393.176,2.868.438,4.3.69l1.388.244Zm3.821-29.351h11.263a10.106,10.106,0,0,1,10.121,10.069l.241,18.4q3.834-.622,7.256-1.467l-.063-16.87A17.575,17.575,0,0,0,170.689,158.2H159.426c-9.507,0-17.537,8.237-17.537,17.988l-.139,16.133c2.43.656,4.962,1.231,7.55,1.706V175.75a10.14,10.14,0,0,1,10.126-10.129Zm0-8.046h11.263a18.2,18.2,0,0,1,18.175,18.175l.06,16.393c1.428-.42,2.514-.737,3.375-.987,3.031-.882,3.225-.939,5.621-1.808l-.018-61.969a35.766,35.766,0,0,1-10.8,1.661H143.012a35.766,35.766,0,0,1-10.8-1.661l-.076,61.641c1.189.449,1.963.748,2.527.966q1.472.569,3.71,1.223c.68.2,1.564.457,2.755.808l.136-15.837a18.722,18.722,0,0,1,5.316-13.055,17.759,17.759,0,0,1,12.84-5.55Zm39.094-31.049v.428l.018,62.2q.9-.413,1.737-.853c3.863-2.021,3.884-2.039,5.044-2.944.22-.171.48-.375.811-.627l-.194-17.044,5.28,5.277A12.914,12.914,0,0,0,229.477,154.7l-23.53-23.53v-8.224l.142-.092a35.48,35.48,0,0,0,14.443-18.487l.063-.184.192-.024a16.774,16.774,0,0,0,9.725-28.5,16.566,16.566,0,0,0-9.722-4.773l-.194-.024-.063-.184a35.516,35.516,0,0,0-31.655-24l-.249-.013-.042-.247A23.852,23.852,0,0,0,169.03,26.834l-.257-.045V23.145l.2-.073A11.57,11.57,0,0,0,165.057.614h-.005a11.584,11.584,0,0,0-11.564,11.57,11.611,11.611,0,0,0,7.652,10.887l.2.073V26.79l-.257.045a23.849,23.849,0,0,0-19.555,19.592l-.042.247-.249.013a35.507,35.507,0,0,0-31.655,24l-.063.184-.192.024A16.762,16.762,0,0,0,94.7,87.528a16.8,16.8,0,0,0,14.632,16.632l.192.024.063.184a35.49,35.49,0,0,0,14.446,18.487l.142.092v8.224l-23.53,23.53A12.914,12.914,0,0,0,118.9,172.964l5.274-5.272-.066,16.912a38.565,38.565,0,0,0,7.413,4.162l.076-62.247.407.134a35.157,35.157,0,0,0,11.008,1.761H187.11a35.157,35.157,0,0,0,11.008-1.761l.407-.134Zm21.825,42.8a5.441,5.441,0,0,1-3.876-1.609l-10.523-10.523V141.679l18.277,18.277a5.483,5.483,0,0,1,0,7.754h0a5.46,5.46,0,0,1-3.878,1.609Zm-13.779-12.386L216.9,167.277a4.866,4.866,0,1,0,6.883-6.88l-17.222-17.222v13.761Zm-96.793,12.386a5.483,5.483,0,0,1-3.878-9.363l18.277-18.277V157.2l-10.523,10.523a5.45,5.45,0,0,1-3.876,1.609Zm13.779-26.147L106.329,160.4a4.867,4.867,0,0,0,6.883,6.883l10.339-10.339V143.183Zm63.554-22.184H143.012a27.861,27.861,0,0,1-27.829-27.831V81.9A27.861,27.861,0,0,1,143.012,54.07h44.093A27.861,27.861,0,0,1,214.934,81.9v11.26A27.861,27.861,0,0,1,187.105,120.993Zm-44.093-66.3A27.243,27.243,0,0,0,115.8,81.9v11.26a27.243,27.243,0,0,0,27.21,27.212h44.093a27.243,27.243,0,0,0,27.21-27.212V81.9a27.241,27.241,0,0,0-27.21-27.212H143.012Zm79.222,41.49.037-.535c.058-.834.058-15.4,0-16.235l-.037-.533.48.234a9.318,9.318,0,0,1,2.54,1.811h0a9.29,9.29,0,0,1,2.74,6.61,9.419,9.419,0,0,1-5.277,8.413l-.48.234Zm.669-16.272c.039,2.538.039,12.7,0,15.241a8.8,8.8,0,0,0,4.471-7.615,8.68,8.68,0,0,0-2.556-6.175,8.806,8.806,0,0,0-1.913-1.451ZM107.883,96.179l-.48-.234a9.418,9.418,0,0,1-5.277-8.416,9.364,9.364,0,0,1,5.28-8.416l.48-.234-.037.533c-.058.832-.058,15.4,0,16.233l.037.535Zm-.669-16.27a8.736,8.736,0,0,0-4.469,7.62,8.8,8.8,0,0,0,4.472,7.618c-.039-2.54-.039-12.7,0-15.238Zm73.853-33.266H149.045l.1-.388a16.429,16.429,0,0,1,15.913-12.328h0a16.421,16.421,0,0,1,15.907,12.328l.1.386Zm-31.217-.619h30.414a15.813,15.813,0,0,0-30.414,0Zm15.207-29.692a4.143,4.143,0,1,1,4.146-4.143A4.147,4.147,0,0,1,165.057,16.333Zm0-7.668a3.524,3.524,0,1,0,3.524,3.524A3.529,3.529,0,0,0,165.06,8.665Z" transform="translate(-94.08 0)" fill="#00b2cc"/>
        </g>
        <path id="Path_29413" data-name="Path 29413" d="M284.472,275.715a9.827,9.827,0,0,1-9.817,9.817H230.565a9.829,9.829,0,0,1-9.819-9.817V264.452a9.831,9.831,0,0,1,9.817-9.817h44.093a9.827,9.827,0,0,1,9.817,9.817Zm-9.817-29.125H230.565A17.884,17.884,0,0,0,212.7,264.452v11.263a17.882,17.882,0,0,0,17.862,17.862h44.093a17.882,17.882,0,0,0,17.862-17.862V264.452a17.884,17.884,0,0,0-17.862-17.862Z" transform="translate(-156.885 -181.882)" fill="#00b2cc" fill-rule="evenodd"/>
        <path id="Path_29414" data-name="Path 29414" d="M285.384,325.338a5.954,5.954,0,1,0-5.954-5.954A5.955,5.955,0,0,0,285.384,325.338Z" transform="translate(-206.104 -231.182)" fill="#fefefe" fill-rule="evenodd"/>
        <path id="Path_29415" data-name="Path 29415" d="M410.714,325.338a5.954,5.954,0,1,0-5.954-5.954A5.955,5.955,0,0,0,410.714,325.338Z" transform="translate(-298.546 -231.182)" fill="#fefefe" fill-rule="evenodd"/>
      </g>
    </g>
  </g>
</svg>
