<svg width="141" height="141" viewBox="0 0 141 141" fill="none" xmlns="http://www.w3.org/2000/svg">
<g clip-path="url(#clip0_260_1248)">
<path d="M70.4993 138.163C107.877 138.163 138.178 107.862 138.178 70.4837C138.178 33.1056 107.877 2.80469 70.4993 2.80469C33.1212 2.80469 2.82031 33.1056 2.82031 70.4837C2.82031 107.862 33.1212 138.163 70.4993 138.163Z" fill="url(#paint0_linear_260_1248)"/>
<path d="M70.5 140.5C56.6553 140.5 43.1216 136.395 31.6101 128.703C20.0987 121.011 11.1266 110.079 5.82846 97.2879C0.53033 84.497 -0.855904 70.4224 1.84506 56.8437C4.54603 43.265 11.2129 30.7922 21.0026 21.0026C30.7922 11.2129 43.265 4.54603 56.8437 1.84506C70.4224 -0.855904 84.4971 0.53033 97.2879 5.82846C110.079 11.1266 121.011 20.0987 128.703 31.6101C136.395 43.1216 140.5 56.6553 140.5 70.5C140.48 89.0592 133.099 106.853 119.976 119.976C106.853 133.099 89.0592 140.48 70.5 140.5ZM70.5 5.14103C57.5732 5.14103 44.9367 8.97427 34.1885 16.156C23.4403 23.3377 15.0631 33.5454 10.1162 45.4882C5.16932 57.431 3.875 70.5725 6.39689 83.2509C8.91878 95.9293 15.1436 107.575 24.2842 116.716C33.4249 125.856 45.0707 132.081 57.7491 134.603C70.4275 137.125 83.569 135.831 95.5118 130.884C107.455 125.937 117.662 117.56 124.844 106.812C132.026 96.0633 135.859 83.4268 135.859 70.5C135.839 53.1718 128.947 36.5588 116.694 24.3059C104.441 12.0529 87.8283 5.16061 70.5 5.14103Z" fill="#16367C"/>
<g opacity="0.56">
<path d="M107.959 38.8911C103.924 34.7691 95.4377 34.0071 91.5067 38.8911L71.2267 64.0721L61.5627 76.0721C60.4197 77.4921 59.0517 79.6221 57.5797 81.5961L56.7137 80.6961L50.1497 73.9591C39.6897 63.2041 23.2497 79.6741 33.6977 90.4111C39.0977 95.9531 44.6077 103.711 51.9167 106.638C59.9347 109.838 67.0527 105.98 72.2167 99.7281C84.3047 85.0771 96.0637 70.1281 107.979 55.3421C111.944 50.4081 112.687 43.7201 107.959 38.8911Z" fill="#2E5599"/>
</g>
<path d="M107.37 36.5708C103.335 32.4488 94.8493 31.6868 90.9183 36.5708L70.6183 61.7708L60.9543 73.7708C59.8113 75.1908 58.4433 77.3208 56.9713 79.2948C56.6773 79.0008 56.4003 78.6888 56.1053 78.3948C53.9233 76.1438 51.7243 73.8948 49.5413 71.6578C39.0813 60.9028 22.6413 77.3728 33.0893 88.1098C38.4893 93.6518 43.9993 101.41 51.3083 104.337C59.3263 107.537 66.4443 103.679 71.6083 97.4268C83.6793 82.7588 95.4553 67.8268 107.37 53.0408C111.336 48.0868 112.098 41.4028 107.37 36.5708Z" fill="white"/>
<path d="M90.4498 8.84622C75.1438 2.30022 33.0438 0.707214 11.6348 42.4612C31.7588 18.3022 53.5798 6.09322 90.4498 8.84622Z" fill="#6197E5"/>
<path d="M56.4377 134.005C91.9917 131.442 116.601 110.625 133.608 85.5312C130.872 101.169 120.308 115.543 107.492 124.376C94.6756 133.209 74.7916 138.594 56.2646 134.005" fill="#14254C"/>
</g>
<defs>
<linearGradient id="paint0_linear_260_1248" x1="131.275" y1="51.1275" x2="6.06891" y2="91.0581" gradientUnits="userSpaceOnUse">
<stop stop-color="#2051D5"/>
<stop offset="0.287" stop-color="#1C47BA"/>
<stop offset="0.756" stop-color="#163892"/>
<stop offset="1" stop-color="#143283"/>
</linearGradient>
<clipPath id="clip0_260_1248">
<rect width="140" height="140" fill="white" transform="translate(0.5 0.5)"/>
</clipPath>
</defs>
</svg>
