<svg width="19" height="19" viewBox="0 0 19 19" fill="none" xmlns="http://www.w3.org/2000/svg">
<g clip-path="url(#clip0_260_1261)">
<path d="M17.0147 2.382C17.0033 2.02071 16.8896 1.67008 16.6867 1.3709C16.4838 1.07172 16.2002 0.836296 15.8687 0.692C15.743 0.635191 15.6125 0.589679 15.4788 0.556C15.4258 0.54 15.3687 0.525 15.3177 0.507L15.2948 0.5H3.69475L3.66875 0.515L3.63575 0.529H3.62975C3.15545 0.605629 2.72565 0.853373 2.42162 1.2254C2.11759 1.59742 1.9604 2.06794 1.97975 2.548C1.96875 7.04 1.96875 11.784 1.96875 16.646C1.96875 17.067 1.98175 17.527 2.00975 18.052C2.01026 18.112 2.02273 18.1714 2.04643 18.2266C2.07013 18.2817 2.10458 18.3316 2.14778 18.3733C2.19097 18.415 2.24205 18.4477 2.29802 18.4695C2.35398 18.4912 2.41373 18.5016 2.47375 18.5C2.52297 18.4999 2.57199 18.4939 2.61975 18.482C2.70456 18.4605 2.78777 18.4331 2.86875 18.4L3.14175 18.29C3.50594 18.1458 3.86863 17.9978 4.22975 17.846C4.26458 17.8298 4.30236 17.821 4.34075 17.82C4.38041 17.8211 4.41946 17.83 4.45575 17.846C4.71875 17.954 4.98675 18.06 5.24575 18.163C5.46475 18.25 5.69075 18.339 5.91275 18.43C6.00046 18.4669 6.09458 18.4863 6.18975 18.487C6.28858 18.4855 6.38613 18.4644 6.47675 18.425C6.72075 18.325 6.97675 18.225 7.21575 18.125C7.45475 18.025 7.68275 17.94 7.91575 17.843C7.95036 17.8273 7.98777 17.8188 8.02575 17.818C8.06614 17.8192 8.1059 17.8284 8.14275 17.845C8.33675 17.925 8.53375 18.004 8.72475 18.08C8.99075 18.185 9.26575 18.295 9.53075 18.409C9.63546 18.4563 9.74888 18.4811 9.86375 18.482C9.97765 18.481 10.0902 18.4572 10.1947 18.412C10.6207 18.237 11.1177 18.035 11.6167 17.847C11.6489 17.836 11.6828 17.8306 11.7168 17.831C11.7507 17.8306 11.7846 17.836 11.8167 17.847C12.0977 17.952 12.3818 18.065 12.6558 18.175C12.8908 18.268 13.1328 18.365 13.3728 18.457C13.4365 18.4819 13.5043 18.4948 13.5728 18.495C13.7055 18.4927 13.8321 18.4385 13.9255 18.3442C14.0189 18.2499 14.0717 18.1228 14.0728 17.99V4.495H16.4298C16.5091 4.50524 16.5897 4.49728 16.6655 4.47173C16.7414 4.44618 16.8104 4.4037 16.8673 4.34751C16.9243 4.29133 16.9677 4.22291 16.9943 4.14746C17.0209 4.072 17.0299 3.99148 17.0208 3.912V3.554C17.0208 3.17 17.0287 2.774 17.0077 2.383L17.0147 2.382ZM13.0527 2.691V2.823C13.0305 4.65458 13.0199 6.48628 13.0208 8.318C13.0208 10.389 13.0208 12.495 13.0308 14.531C13.0308 15.4137 13.0327 16.2967 13.0367 17.18V17.207L12.9637 17.18C12.7759 17.1162 12.5928 17.0394 12.4157 16.95C12.2021 16.829 11.9612 16.7643 11.7157 16.762C11.4706 16.7665 11.2302 16.8311 11.0157 16.95C10.7414 17.0851 10.4585 17.2021 10.1687 17.3L9.94775 17.381C9.92354 17.3888 9.89819 17.3925 9.87275 17.392C9.84756 17.3925 9.82249 17.3884 9.79875 17.38C9.31652 17.1962 8.83681 17.0058 8.35975 16.809C8.25286 16.7633 8.13799 16.7392 8.02175 16.738C7.9034 16.7394 7.78663 16.7653 7.67875 16.814C7.40875 16.932 7.12775 17.043 6.85675 17.151C6.67675 17.222 6.49075 17.296 6.30775 17.372C6.26809 17.3899 6.22526 17.3998 6.18175 17.401C6.1417 17.4004 6.10221 17.3916 6.06575 17.375C5.83475 17.275 5.59775 17.184 5.36575 17.093C5.13375 17.002 4.88075 16.9 4.64075 16.798C4.54429 16.7554 4.44017 16.733 4.33475 16.732C4.23395 16.7322 4.13425 16.7529 4.04175 16.793C3.76675 16.906 3.48575 17.018 3.21375 17.126L3.01375 17.206V2.628C2.99488 2.48028 3.01017 2.3302 3.05843 2.18933C3.1067 2.04845 3.18666 1.92053 3.29215 1.81542C3.39765 1.71031 3.52586 1.63082 3.66692 1.58307C3.80797 1.53532 3.9581 1.52059 4.10575 1.54H13.2688C13.0964 1.89785 13.0222 2.29506 13.0538 2.691H13.0527ZM14.0677 3.164C14.0638 2.85036 14.0828 2.53685 14.1248 2.226C14.1735 2.0275 14.2885 1.85151 14.4506 1.72701C14.6127 1.60251 14.8124 1.53691 15.0168 1.541H15.0527C15.2726 1.54098 15.485 1.62074 15.6506 1.76547C15.8161 1.91021 15.9234 2.11009 15.9528 2.328C15.9786 2.61358 15.9839 2.90065 15.9688 3.187C15.9688 3.269 15.9688 3.353 15.9628 3.438H14.0627V3.164H14.0677Z" fill="#343F53"/>
<path d="M7.66076 4.33156V3.98656C7.65861 3.93736 7.66634 3.88822 7.68348 3.84205C7.70063 3.79588 7.72684 3.75361 7.76058 3.71773C7.79431 3.68185 7.83489 3.65309 7.87992 3.63314C7.92495 3.61319 7.97351 3.60245 8.02276 3.60156C8.0733 3.60176 8.12328 3.61223 8.16965 3.63233C8.21602 3.65244 8.25783 3.68176 8.29253 3.71851C8.32722 3.75526 8.35409 3.79869 8.37149 3.84614C8.38889 3.8936 8.39647 3.94409 8.39376 3.99456V4.32356C8.50576 4.34556 8.60876 4.35756 8.70576 4.38556C8.91992 4.44818 9.11011 4.57417 9.2513 4.74696C9.39249 4.91974 9.47806 5.13122 9.49676 5.35356C9.50723 5.40451 9.50707 5.45708 9.49629 5.50796C9.48552 5.55885 9.46436 5.60697 9.43413 5.6493C9.40391 5.69163 9.36527 5.72727 9.32064 5.75399C9.27601 5.7807 9.22635 5.79792 9.17476 5.80456C8.94976 5.82756 8.80676 5.70456 8.76476 5.44056C8.76357 5.38828 8.75149 5.33682 8.72929 5.28947C8.70709 5.24212 8.67526 5.19992 8.63583 5.16557C8.59639 5.13122 8.55023 5.10547 8.50028 5.08998C8.45034 5.07448 8.39771 5.06957 8.34576 5.07556H7.68976C7.63608 5.071 7.58205 5.07822 7.53145 5.09671C7.48084 5.11519 7.43489 5.14451 7.3968 5.1826C7.3587 5.2207 7.32939 5.26665 7.3109 5.31725C7.29241 5.36785 7.28519 5.42188 7.28976 5.47556V5.78656C7.28537 5.8402 7.29271 5.89415 7.31126 5.94468C7.32981 5.9952 7.35913 6.04108 7.39718 6.07913C7.43524 6.11719 7.48112 6.14651 7.53164 6.16506C7.58216 6.18361 7.63612 6.19095 7.68976 6.18656H8.38076C8.52807 6.184 8.6744 6.21107 8.81106 6.26614C8.94771 6.32122 9.07191 6.40319 9.17628 6.50719C9.28065 6.61119 9.36307 6.73509 9.41863 6.87155C9.4742 7.00801 9.50179 7.15424 9.49976 7.30156C9.50722 7.46257 9.50455 7.62389 9.49176 7.78456C9.46373 8.02664 9.35612 8.25256 9.1858 8.42685C9.01549 8.60115 8.79212 8.71395 8.55076 8.74756L8.39476 8.77356V9.04356C8.39476 9.32256 8.25676 9.49356 8.03276 9.49756C7.80876 9.50156 7.66276 9.32956 7.66076 9.03756V8.77256C7.57876 8.75956 7.51076 8.75056 7.44376 8.73856C7.19618 8.68972 6.97292 8.55724 6.81143 8.36333C6.64993 8.16943 6.56001 7.92589 6.55676 7.67356C6.55179 7.57767 6.58462 7.48365 6.64818 7.41167C6.71174 7.3397 6.80098 7.2955 6.89676 7.28856C6.9927 7.2835 7.08688 7.31575 7.15958 7.37857C7.23228 7.44139 7.27785 7.5299 7.28676 7.62556C7.33076 7.92556 7.43776 8.01856 7.74276 8.02556H8.34276C8.40565 8.02817 8.46845 8.01867 8.52776 7.99756C8.78776 7.88256 8.78176 7.67556 8.74976 7.24856C8.74686 7.20176 8.73464 7.156 8.71381 7.11399C8.69299 7.07197 8.66398 7.03454 8.62848 7.00389C8.59299 6.97324 8.55173 6.95 8.50713 6.93551C8.46253 6.92103 8.41548 6.91561 8.36876 6.91956C8.14976 6.91256 7.93076 6.91956 7.71276 6.91956C7.55829 6.92891 7.4036 6.90536 7.25893 6.85046C7.11425 6.79556 6.98287 6.71056 6.8735 6.60109C6.76412 6.49163 6.67924 6.36018 6.62447 6.21545C6.56969 6.07073 6.54627 5.91602 6.55576 5.76156C6.54642 5.5833 6.55345 5.40455 6.57676 5.22756C6.62109 4.99683 6.7388 4.7866 6.91234 4.6282C7.08587 4.4698 7.30594 4.37172 7.53976 4.34856C7.57276 4.34856 7.60576 4.33956 7.66076 4.33156Z" fill="#343F53"/>
<path d="M8.03313 12.4453H11.3301C11.4283 12.4453 11.5224 12.4843 11.5918 12.5537C11.6611 12.6231 11.7001 12.7172 11.7001 12.8153C11.7001 12.9134 11.6611 13.0076 11.5918 13.0769C11.5224 13.1463 11.4283 13.1853 11.3301 13.1853H4.84313C4.76865 13.1874 4.69417 13.181 4.62113 13.1663C4.54387 13.1459 4.47553 13.1005 4.42677 13.0372C4.378 12.9739 4.35156 12.8962 4.35156 12.8163C4.35156 12.7364 4.378 12.6587 4.42677 12.5954C4.47553 12.5321 4.54387 12.4867 4.62113 12.4663C4.6941 12.451 4.7686 12.4443 4.84313 12.4463H8.03313V12.4453Z" fill="#343F53"/>
<path d="M8.01292 11.3389H4.76692C4.50992 11.3389 4.35992 11.2159 4.34592 11.0039C4.34067 10.9561 4.34497 10.9078 4.35857 10.8618C4.37217 10.8157 4.3948 10.7728 4.42514 10.7356C4.45548 10.6983 4.49293 10.6675 4.53529 10.6449C4.57766 10.6223 4.62411 10.6083 4.67192 10.6039C4.72354 10.6008 4.7753 10.6008 4.82692 10.6039H11.3539C11.4499 10.6075 11.5407 10.6482 11.6073 10.7173C11.6738 10.7865 11.711 10.8788 11.7109 10.9749C11.7111 11.0225 11.7017 11.0698 11.6833 11.1138C11.6649 11.1578 11.638 11.1977 11.604 11.2312C11.57 11.2646 11.5296 11.2909 11.4853 11.3085C11.441 11.3262 11.3936 11.3348 11.3459 11.3339C10.7879 11.3399 10.2299 11.3339 9.67092 11.3339H8.01292V11.3389Z" fill="#343F53"/>
<path d="M8.01796 15.0275H4.76896C4.50396 15.0275 4.34196 14.8855 4.34096 14.6605C4.33842 14.5696 4.37115 14.4812 4.4323 14.4139C4.49344 14.3467 4.57825 14.3056 4.66896 14.2995C4.73224 14.296 4.79567 14.296 4.85896 14.2995H11.348C11.4448 14.2995 11.5376 14.3379 11.6061 14.4064C11.6745 14.4748 11.713 14.5677 11.713 14.6645C11.713 14.7613 11.6745 14.8541 11.6061 14.9226C11.5376 14.991 11.4448 15.0295 11.348 15.0295C11.112 15.0375 10.876 15.0295 10.64 15.0295H8.01896L8.01796 15.0275Z" fill="#343F53"/>
</g>
<defs>
<clipPath id="clip0_260_1261">
<rect width="18" height="18" fill="white" transform="translate(0.5 0.5)"/>
</clipPath>
</defs>
</svg>
