<svg width="25" height="25" viewBox="0 0 25 25" fill="none" xmlns="http://www.w3.org/2000/svg">
<path d="M3.25 6.66667C3.25 6.20644 3.59538 5.83335 4.02143 5.83335L6.68567 5.8329C7.21502 5.81841 7.68202 5.45482 7.86214 4.91691C7.86688 4.90277 7.87232 4.88532 7.89185 4.82203L8.00665 4.44993C8.0769 4.22179 8.1381 4.02303 8.22375 3.84536C8.56209 3.14349 9.18808 2.6561 9.91147 2.53132C10.0946 2.49973 10.2885 2.49987 10.5111 2.50002H13.9891C14.2117 2.49987 14.4056 2.49973 14.5887 2.53132C15.3121 2.6561 15.9381 3.14349 16.2764 3.84536C16.3621 4.02303 16.4233 4.22179 16.4935 4.44993L16.6083 4.82203C16.6279 4.88532 16.6333 4.90277 16.638 4.91691C16.8182 5.45482 17.3778 5.81886 17.9071 5.83335H20.4786C20.9046 5.83335 21.25 6.20644 21.25 6.66667C21.25 7.12691 20.9046 7.5 20.4786 7.5H4.02143C3.59538 7.5 3.25 7.12691 3.25 6.66667Z" fill="#C60000"/>
<path d="M12.1068 22.4974H12.8937C15.6012 22.4974 16.9549 22.4974 17.8351 21.6342C18.7153 20.771 18.8054 19.3551 18.9855 16.5232L19.245 12.4426C19.3427 10.9061 19.3916 10.1378 18.95 9.65091C18.5084 9.16406 17.7628 9.16406 16.2714 9.16406H8.72905C7.23771 9.16406 6.49204 9.16406 6.05047 9.65091C5.60891 10.1378 5.65777 10.9061 5.75549 12.4426L6.015 16.5232C6.1951 19.3551 6.28515 20.771 7.16534 21.6342C8.04553 22.4974 9.39927 22.4974 12.1068 22.4974Z" fill="#C60000"/>
</svg>
