<svg width="26" height="25" viewBox="0 0 26 25" fill="none" xmlns="http://www.w3.org/2000/svg">
<path fill-rule="evenodd" clip-rule="evenodd" d="M12.7343 1.99219C13.1214 1.99219 13.454 2.2596 13.5268 2.62941L13.5592 2.79386C13.6865 3.44023 14.3738 3.82623 15.0129 3.61027L15.1756 3.55531C15.5413 3.43176 15.9457 3.5782 16.1392 3.90428L16.4315 4.39679C16.6251 4.72288 16.5533 5.13673 16.2604 5.38297L16.1302 5.49249C15.6183 5.9229 15.6183 6.6949 16.1302 7.1253L16.2604 7.23481C16.5533 7.48107 16.6251 7.89491 16.4315 8.221L16.1392 8.71351C15.9457 9.0396 15.5413 9.18603 15.1756 9.06247L15.013 9.0075C14.3738 8.79151 13.6865 9.17751 13.5592 9.82393L13.5268 9.98838C13.454 10.3582 13.1214 10.6256 12.7343 10.6256H12.1496C11.7625 10.6256 11.4299 10.3582 11.3571 9.98842L11.3247 9.82386C11.1974 9.17751 10.51 8.79151 9.87091 9.0075L9.70833 9.06244C9.34265 9.18603 8.93828 9.03956 8.74471 8.71347L8.45238 8.221C8.25882 7.89491 8.33062 7.48107 8.62346 7.23481L8.75372 7.1253C9.26557 6.69487 9.26557 5.9229 8.75372 5.4925L8.62346 5.38298C8.33062 5.13673 8.25882 4.72289 8.45238 4.39681L8.74473 3.90429C8.93828 3.5782 9.34265 3.43176 9.70832 3.55532L9.87095 3.61027C10.51 3.82623 11.1974 3.44025 11.3247 2.7939L11.3571 2.62938C11.4299 2.25958 11.7625 1.99219 12.1496 1.99219H12.7343ZM12.4419 7.54225C13.1209 7.54225 13.6713 6.99005 13.6713 6.3089C13.6713 5.62772 13.1209 5.07555 12.4419 5.07555C11.763 5.07555 11.2126 5.62772 11.2126 6.3089C11.2126 6.99005 11.763 7.54225 12.4419 7.54225Z" fill="#00B2CC"/>
<path d="M5.22233 21.5314H4.90921C3.7735 21.5314 3.20565 21.5314 2.85282 21.1786C2.5 20.8258 2.5 20.2579 2.5 19.1222V17.7827C2.5 17.1581 2.5 16.8459 2.66043 16.567C2.82086 16.288 3.06288 16.1473 3.54692 15.8658C6.73368 14.0123 11.2593 12.9689 14.28 14.7706C14.4828 14.8916 14.6654 15.0377 14.8213 15.2129C15.4936 15.9681 15.4447 17.1077 14.6699 17.784C14.5062 17.9267 14.3319 18.0352 14.1563 18.0727C14.3006 18.056 14.4389 18.0368 14.5709 18.0158C15.6688 17.8406 16.5903 17.254 17.434 16.6166L19.611 14.9722C20.3784 14.3924 21.5175 14.3923 22.2851 14.9718C22.9762 15.4937 23.1874 16.3528 22.7505 17.053C22.2411 17.8698 21.5233 18.9145 20.834 19.5528C20.1438 20.1921 19.1162 20.7629 18.2773 21.1677C17.348 21.6163 16.3214 21.8747 15.2771 22.0439C13.1593 22.3866 10.9522 22.3343 8.85591 21.9024C7.67081 21.6583 6.44002 21.5314 5.22233 21.5314Z" fill="#00B2CC"/>
</svg>
