<svg width="26" height="25" viewBox="0 0 26 25" fill="none" xmlns="http://www.w3.org/2000/svg">
<path fill-rule="evenodd" clip-rule="evenodd" d="M22.8261 12.5V14.5C22.8261 18.2712 22.8261 20.1569 21.6549 21.3284C20.4836 22.5 18.5985 22.5 14.8284 22.5H10.8295C7.05931 22.5 5.17423 22.5 4.00298 21.3284C2.83174 20.1569 2.83174 18.2712 2.83174 14.5V12.5C2.83174 12.1997 2.83012 11.9435 2.82862 11.7076C2.82594 11.2845 2.82368 10.9272 2.83196 10.5H22.8005C22.8023 10.5935 22.8041 10.6837 22.8059 10.7719C22.8167 11.3114 22.8261 11.7789 22.8261 12.5ZM15.5397 13.6521C15.7425 13.8548 15.7425 14.1836 15.5397 14.3864L12.0782 17.8479C11.8754 18.0507 11.5467 18.0507 11.3439 17.8479L9.95928 16.4633C9.75651 16.2605 9.75651 15.9318 9.95928 15.729C10.1621 15.5262 10.4908 15.5262 10.6936 15.729L11.711 16.7464L13.2582 15.1993L14.8054 13.6521C15.0082 13.4493 15.3369 13.4493 15.5397 13.6521Z" fill="#00B2CC"/>
<path d="M7.78623 2.5C8.20375 2.5 8.54222 2.80996 8.54222 3.19231V4.58883C9.2128 4.57692 9.96446 4.57692 10.8102 4.57692H14.8422C15.6879 4.57692 16.4396 4.57692 17.1102 4.58883V3.19231C17.1102 2.80996 17.4486 2.5 17.8661 2.5C18.2837 2.5 18.6221 2.80996 18.6221 3.19231V4.65008C20.073 4.75647 21.0254 5.01758 21.7252 5.65838C22.4249 6.29917 22.71 7.17139 22.8262 8.5V9.5H2.82617V8.5C2.94235 7.17139 3.22747 6.29917 3.92721 5.65838C4.62696 5.01758 5.5794 4.75647 7.03023 4.65008V3.19231C7.03023 2.80996 7.3687 2.5 7.78623 2.5Z" fill="#00B2CC"/>
</svg>
