<svg width="26" height="25" viewBox="0 0 26 25" fill="none" xmlns="http://www.w3.org/2000/svg">
<path fill-rule="evenodd" clip-rule="evenodd" d="M22.8261 12.5V14.5C22.8261 18.2712 22.8261 20.1569 21.6549 21.3284C20.4836 22.5 18.5985 22.5 14.8284 22.5H10.8295C7.05931 22.5 5.17423 22.5 4.00298 21.3284C2.83174 20.1569 2.83174 18.2712 2.83174 14.5V12.5C2.83174 12.1997 2.83012 11.9435 2.82862 11.7076C2.82594 11.2845 2.82368 10.9272 2.83196 10.5H22.8005C22.8023 10.5935 22.8041 10.6837 22.8059 10.7719C22.8167 11.3114 22.8261 11.7789 22.8261 12.5ZM11.3374 13.6438C11.1457 13.4521 10.8349 13.4521 10.6433 13.6438C10.4516 13.8354 10.4516 14.1462 10.6433 14.3379L12.3054 16L10.6433 17.6621C10.4516 17.8538 10.4516 18.1646 10.6433 18.3562C10.8349 18.5479 11.1457 18.5479 11.3374 18.3562L12.9995 16.6941L14.6616 18.3562C14.8533 18.5479 15.1641 18.5479 15.3557 18.3562C15.5474 18.1646 15.5474 17.8538 15.3557 17.6621L13.6936 16L15.3557 14.3379C15.5474 14.1462 15.5474 13.8354 15.3557 13.6438C15.1641 13.4521 14.8533 13.4521 14.6616 13.6438L12.9995 15.3059L11.3374 13.6438ZM12.9995 15.9711C13.0098 15.9711 13.02 15.9705 13.0301 15.9694C13.0278 15.9897 13.0278 16.0103 13.0301 16.0306C13.0098 16.0283 12.9892 16.0283 12.9689 16.0306C12.97 16.0205 12.9706 16.0103 12.9706 16C12.9706 15.9897 12.97 15.9795 12.9689 15.9694C12.979 15.9705 12.9892 15.9711 12.9995 15.9711Z" fill="#00B2CC"/>
<path d="M7.78623 2.5C8.20375 2.5 8.54222 2.80996 8.54222 3.19231V4.58883C9.2128 4.57692 9.96446 4.57692 10.8102 4.57692H14.8422C15.6879 4.57692 16.4396 4.57692 17.1102 4.58883V3.19231C17.1102 2.80996 17.4486 2.5 17.8661 2.5C18.2837 2.5 18.6221 2.80996 18.6221 3.19231V4.65008C20.073 4.75647 21.0254 5.01758 21.7252 5.65838C22.4249 6.29917 22.71 7.17139 22.8262 8.5V9.5H2.82617V8.5C2.94235 7.17139 3.22747 6.29917 3.92721 5.65838C4.62696 5.01758 5.5794 4.75647 7.03023 4.65008V3.19231C7.03023 2.80996 7.3687 2.5 7.78623 2.5Z" fill="#00B2CC"/>
</svg>
